<svg width="548" height="227" viewBox="0 0 548 227" fill="none" xmlns="http://www.w3.org/2000/svg">
<rect x="1" y="1" width="327" height="225" fill="#101010" stroke="#F2F2F2" stroke-width="2"/>
<rect x="329" width="219" height="227" fill="#F2F2F2"/>
<path d="M394.696 28V12.38H392.738V28H394.696ZM403.783 16.428C401.847 16.428 400.461 17.33 399.757 18.87L399.515 16.67H397.865V28H399.801V21.862C399.801 19.508 401.099 18.1 403.233 18.1C404.861 18.1 406.401 18.958 406.401 21.598V28H408.337V21.334C408.337 17.858 406.203 16.428 403.783 16.428ZM413.677 16.67V13.414H411.741V16.67H410.069V18.188H411.741V28H413.677V18.188H416.075V16.67H413.677ZM419.645 16.67H418.039V28H419.953V21.004C419.953 19.002 421.339 17.99 423.737 18.32L423.759 16.626C421.691 16.362 420.503 17.198 419.865 18.54L419.645 16.67ZM430.477 28.22C433.909 28.22 436.505 25.69 436.505 22.324C436.505 18.958 433.909 16.428 430.477 16.428C427.023 16.428 424.427 18.958 424.427 22.324C424.427 25.69 427.023 28.22 430.477 28.22ZM430.477 26.482C428.123 26.482 426.297 24.678 426.297 22.302C426.297 19.948 428.123 18.166 430.477 18.166C432.831 18.166 434.635 19.948 434.635 22.302C434.635 24.678 432.831 26.482 430.477 26.482ZM458.035 16.67C455.901 23.424 455.571 24.59 455.263 26.042C454.933 24.392 454.581 23.292 452.447 16.67H450.533C448.311 23.468 447.959 24.634 447.651 26.196C447.365 24.634 447.035 23.512 444.857 16.67H442.833L446.573 28H448.531C450.841 21.048 451.171 19.992 451.457 18.496C451.721 19.992 452.029 21.07 454.317 28H456.275L460.015 16.67H458.035ZM467.87 16.428C465.956 16.428 464.614 17.286 463.888 18.804V11.5H461.974V28H463.888V21.862C463.888 19.508 465.186 18.1 467.32 18.1C468.948 18.1 470.488 18.958 470.488 21.598V28H472.446V21.334C472.446 17.858 470.29 16.428 467.87 16.428ZM476.026 14.976C476.708 14.976 477.258 14.426 477.258 13.766C477.258 13.084 476.708 12.534 476.026 12.534C475.344 12.534 474.816 13.084 474.816 13.766C474.816 14.426 475.344 14.976 476.026 14.976ZM475.058 16.67V28H476.972V16.67H475.058ZM482.491 16.67V13.414H480.555V16.67H478.883V18.188H480.555V28H482.491V18.188H484.889V16.67H482.491ZM491.314 16.428C487.97 16.428 485.55 19.002 485.55 22.324C485.55 25.888 488.08 28.22 491.49 28.22C494.174 28.22 496.176 26.614 496.77 24.7L495.076 24.502C494.57 25.58 493.382 26.614 491.512 26.614C489.312 26.614 487.596 25.14 487.464 22.918H497.1C497.166 18.914 494.768 16.428 491.314 16.428ZM491.314 18.012C493.514 18.012 495.032 19.508 495.098 21.444H487.464C487.618 19.464 489.224 18.012 491.314 18.012Z" fill="#111112"/>
<path d="M119.851 28.0889C124.603 28.0889 127.485 24.6569 127.485 20.2789C127.485 15.9009 124.603 12.4689 119.851 12.4689H114.879V28.0889H119.851ZM116.837 14.2509H119.851C123.283 14.2509 125.527 16.6049 125.527 20.2789C125.527 23.9529 123.283 26.3069 119.851 26.3069H116.837V14.2509ZM139.504 19.3329V19.2229C138.624 17.5509 136.952 16.5169 134.994 16.5169C131.496 16.5169 129.208 19.0249 129.208 22.3909C129.208 25.7129 131.452 28.3089 134.884 28.3089C137.128 28.3089 138.8 27.1649 139.504 25.4269V28.0889H141.44V16.7589H139.79L139.504 19.3329ZM135.346 26.5929C132.904 26.5929 131.166 24.8549 131.166 22.4129C131.166 19.9929 132.904 18.2549 135.346 18.2549C137.766 18.2549 139.482 20.0809 139.482 22.4129C139.482 24.7669 137.766 26.5929 135.346 26.5929ZM145.868 16.7589H144.262V28.0889H146.176V21.0929C146.176 19.0909 147.562 18.0789 149.96 18.4089L149.982 16.7149C147.914 16.4509 146.726 17.2869 146.088 18.6289L145.868 16.7589ZM155.606 21.9949L161.722 16.7589H159.412L153.67 21.6429C153.802 19.2229 153.802 16.5169 153.802 11.5889H151.888V28.0889H153.802C153.802 25.6909 153.78 23.9309 153.67 22.3689L159.434 28.0889H161.744L155.606 21.9949ZM173.001 13.0849C173.441 13.0849 173.925 13.1729 174.387 13.3049V11.7429C173.903 11.5889 173.287 11.4569 172.671 11.4569C170.867 11.4569 169.393 12.4909 169.393 14.9549V16.7589H168.051V18.2769H169.393V28.0889H171.307V18.2769H174.343V16.7589H171.307V15.1969C171.219 13.6349 171.879 13.0849 173.001 13.0849ZM176.23 11.5889V28.0889H178.144V11.5889H176.23ZM186.391 28.3089C189.823 28.3089 192.419 25.7789 192.419 22.4129C192.419 19.0469 189.823 16.5169 186.391 16.5169C182.937 16.5169 180.341 19.0469 180.341 22.4129C180.341 25.7789 182.937 28.3089 186.391 28.3089ZM186.391 26.5709C184.037 26.5709 182.211 24.7669 182.211 22.3909C182.211 20.0369 184.037 18.2549 186.391 18.2549C188.745 18.2549 190.549 20.0369 190.549 22.3909C190.549 24.7669 188.745 26.5709 186.391 26.5709ZM208.191 16.7589C206.057 23.5129 205.727 24.6789 205.419 26.1309C205.089 24.4809 204.737 23.3809 202.603 16.7589H200.689C198.467 23.5569 198.115 24.7229 197.807 26.2849C197.521 24.7229 197.191 23.6009 195.013 16.7589H192.989L196.729 28.0889H198.687C200.997 21.1369 201.327 20.0809 201.613 18.5849C201.877 20.0809 202.185 21.1589 204.473 28.0889H206.431L210.171 16.7589H208.191Z" fill="#F2F2F2"/>
<path d="M132.683 200.076H130.021L130.461 196.05H128.591L128.151 200.076H124.323L124.763 196.05H122.893L122.453 200.076H119.571V201.726H122.277L121.793 206.258H118.911V207.908H121.617L121.221 211.67H123.091L123.487 207.908H127.315L126.919 211.67H128.789L129.185 207.908H132.023V206.258H129.361L129.845 201.726H132.683V200.076ZM123.663 206.258L124.147 201.726H127.975L127.491 206.258H123.663ZM143.205 211.67V209.932H139.597V196.05L134.273 197.612V199.416L137.617 198.294V209.932H134.009V211.67H143.205ZM150.142 211.89C153.156 211.89 155.884 209.778 155.884 206.346V201.374C155.884 197.942 153.156 195.83 150.142 195.83C147.106 195.83 144.4 197.942 144.4 201.374V206.346C144.4 209.778 147.106 211.89 150.142 211.89ZM150.142 210.064C148.052 210.064 146.358 208.524 146.358 206.346V201.374C146.358 199.196 148.052 197.656 150.142 197.656C152.21 197.656 153.926 199.196 153.926 201.374V206.346C153.926 208.524 152.21 210.064 150.142 210.064ZM166.773 211.67V209.932H163.165V196.05L157.841 197.612V199.416L161.185 198.294V209.932H157.577V211.67H166.773ZM173.711 211.89C176.725 211.89 179.453 209.778 179.453 206.346V201.374C179.453 197.942 176.725 195.83 173.711 195.83C170.675 195.83 167.969 197.942 167.969 201.374V206.346C167.969 209.778 170.675 211.89 173.711 211.89ZM173.711 210.064C171.621 210.064 169.927 208.524 169.927 206.346V201.374C169.927 199.196 171.621 197.656 173.711 197.656C175.779 197.656 177.495 199.196 177.495 201.374V206.346C177.495 208.524 175.779 210.064 173.711 210.064ZM190.342 211.67V209.932H186.734V196.05L181.41 197.612V199.416L184.754 198.294V209.932H181.146V211.67H190.342ZM197.279 211.89C200.293 211.89 203.021 209.778 203.021 206.346V201.374C203.021 197.942 200.293 195.83 197.279 195.83C194.243 195.83 191.537 197.942 191.537 201.374V206.346C191.537 209.778 194.243 211.89 197.279 211.89ZM197.279 210.064C195.189 210.064 193.495 208.524 193.495 206.346V201.374C193.495 199.196 195.189 197.656 197.279 197.656C199.347 197.656 201.063 199.196 201.063 201.374V206.346C201.063 208.524 199.347 210.064 197.279 210.064Z" fill="#F2F2F2"/>
<path d="M408.542 199.987H405.88L406.32 195.961H404.45L404.01 199.987H400.182L400.622 195.961H398.752L398.312 199.987H395.43V201.637H398.136L397.652 206.169H394.77V207.819H397.476L397.08 211.581H398.95L399.346 207.819H403.174L402.778 211.581H404.648L405.044 207.819H407.882V206.169H405.22L405.704 201.637H408.542V199.987ZM399.522 206.169L400.006 201.637H403.834L403.35 206.169H399.522ZM413.014 211.581V204.651H419.24V202.913H413.014V197.765H420.252V195.961H411.056V211.581H413.014ZM423.585 209.755C424.245 206.367 431.989 205.883 431.989 200.559C431.989 197.567 429.745 195.741 426.885 195.741C423.716 195.741 421.561 197.985 421.561 200.801H423.541C423.585 198.931 424.905 197.523 426.863 197.523C428.733 197.523 430.031 198.799 430.031 200.537C430.031 204.695 421.561 205.245 421.561 210.261V211.581H432.077V209.755H423.585ZM436.561 211.581V204.651H442.787V202.913H436.561V197.765H443.799V195.961H434.603V211.581H436.561ZM447.131 209.755C447.791 206.367 455.535 205.883 455.535 200.559C455.535 197.567 453.291 195.741 450.431 195.741C447.263 195.741 445.107 197.985 445.107 200.801H447.087C447.131 198.931 448.451 197.523 450.409 197.523C452.279 197.523 453.577 198.799 453.577 200.537C453.577 204.695 445.107 205.245 445.107 210.261V211.581H455.623V209.755H447.131ZM460.108 211.581V204.651H466.334V202.913H460.108V197.765H467.346V195.961H458.15V211.581H460.108ZM470.678 209.755C471.338 206.367 479.082 205.883 479.082 200.559C479.082 197.567 476.838 195.741 473.978 195.741C470.81 195.741 468.654 197.985 468.654 200.801H470.634C470.678 198.931 471.998 197.523 473.956 197.523C475.826 197.523 477.124 198.799 477.124 200.537C477.124 204.695 468.654 205.245 468.654 210.261V211.581H479.17V209.755H470.678Z" fill="#111112"/>
</svg>
