<svg width="664" height="284" viewBox="0 0 664 284" fill="none" xmlns="http://www.w3.org/2000/svg">
<g opacity="0.29">
<path d="M87.1641 223.394V77.7412H180.798V104.791H118.375V137.251H180.798V164.301H118.375V223.394H87.1641Z" fill="#F2F2F2"/>
<path d="M188.07 77.7412H219.282V196.344H290.027V223.394H188.07V77.7412Z" fill="#F2F2F2"/>
<path d="M409.897 223.394L397.829 181.155H338.527L326.459 223.394H297.328L339.151 77.7412H368.282L346.434 154.105H390.13L368.282 77.7412H399.493L441.109 223.394H409.897Z" fill="#F2F2F2"/>
<path d="M630.452 223.394L618.383 181.155H559.082L547.013 223.394H517.883L559.706 77.7412H588.837L566.989 154.105H610.685L588.837 77.7412H620.048L661.663 223.394H630.452Z" fill="#F2F2F2"/>
<path d="M480.636 223.394L522.043 77.7412H551.174L509.767 223.394H480.636ZM438.813 77.7412L480.636 223.394H449.425L407.602 77.7412H438.813Z" fill="#F2F2F2"/>
<rect x="59.8359" y="77.7412" width="21.848" height="145.653" fill="#F2F2F2"/>
<rect x="36.9453" y="77.7412" width="16.6461" height="145.653" fill="#F2F2F2"/>
<rect x="17.1719" y="77.7412" width="10.4038" height="145.653" fill="#F2F2F2"/>
<rect x="0.53125" y="77.7412" width="5.20189" height="145.653" fill="#F2F2F2"/>
</g>
<line x1="1" x2="1" y2="284" stroke="#EBFF00" stroke-width="2"/>
<line x1="5.8125" x2="5.8125" y2="284" stroke="#EBFF00" stroke-width="2"/>
<line x1="19.0469" x2="19.0469" y2="284" stroke="#EBFF00" stroke-width="2"/>
<line x1="28.6797" x2="28.6797" y2="284" stroke="#EBFF00" stroke-width="2"/>
<line x1="38.3047" x2="38.3047" y2="284" stroke="#EBFF00" stroke-width="2"/>
<line x1="54.1562" x2="54.1562" y2="284" stroke="#EBFF00" stroke-width="2"/>
<line x1="61.1719" x2="61.1719" y2="284" stroke="#EBFF00" stroke-width="2"/>
<line x1="81.6328" x2="81.6328" y2="284" stroke="#EBFF00" stroke-width="2"/>
<line x1="87.6484" x2="87.6484" y2="284" stroke="#EBFF00" stroke-width="2"/>
<line x1="182.711" x2="182.711" y2="284" stroke="#EBFF00" stroke-width="2"/>
<line x1="291.016" x2="291.016" y2="284" stroke="#EBFF00" stroke-width="2"/>
<line x1="400.523" x2="400.523" y2="284" stroke="#EBFF00" stroke-width="2"/>
<line x1="441.445" x2="441.445" y2="284" stroke="#EBFF00" stroke-width="2"/>
<line x1="511.234" x2="511.234" y2="284" stroke="#EBFF00" stroke-width="2"/>
<line x1="552.156" x2="552.156" y2="284" stroke="#EBFF00" stroke-width="2"/>
<line x1="189.93" x2="189.93" y2="284" stroke="#EBFF00" stroke-width="2"/>
<line x1="298.234" x2="298.234" y2="284" stroke="#EBFF00" stroke-width="2"/>
<line x1="407.742" x2="407.742" y2="284" stroke="#EBFF00" stroke-width="2"/>
<line x1="448.664" x2="448.664" y2="284" stroke="#EBFF00" stroke-width="2"/>
<line x1="518.461" x2="518.461" y2="284" stroke="#EBFF00" stroke-width="2"/>
<line x1="559.367" x2="559.367" y2="284" stroke="#EBFF00" stroke-width="2"/>
<line x1="662.859" x2="662.859" y2="284" stroke="#EBFF00" stroke-width="2"/>
</svg>
