<svg width="550" height="227" viewBox="0 0 550 227" fill="none" xmlns="http://www.w3.org/2000/svg">
<rect x="1.14062" y="1" width="547" height="225" fill="#101010" stroke="#33FEB4" stroke-width="2"/>
<path d="M99.6484 166.086V61H167.204V80.516H122.167V103.935H167.204V123.451H122.167V166.086H99.6484Z" fill="#33FEB4"/>
<path d="M172.445 61H194.964V146.57H246.006V166.086H172.445V61Z" fill="#33FEB4"/>
<path d="M332.498 166.086L323.791 135.611H281.006L272.299 166.086H251.281L281.456 61H302.473L286.71 116.095H318.236L302.473 61H324.992L355.016 166.086H332.498Z" fill="#33FEB4"/>
<path d="M491.623 166.086L482.916 135.611H440.131L431.424 166.086H410.406L440.581 61H461.598L445.835 116.095H477.361L461.598 61H484.117L514.141 166.086H491.623Z" fill="#33FEB4"/>
<path d="M383.521 166.086L413.396 61H434.413L404.539 166.086H383.521ZM353.347 61L383.521 166.086H361.003L330.828 61H353.347Z" fill="#33FEB4"/>
<rect x="79.9219" y="61" width="15.7629" height="105.086" fill="#33FEB4"/>
<rect x="63.4141" y="61" width="12.0099" height="105.086" fill="#33FEB4"/>
<rect x="49.1406" y="61" width="7.50616" height="105.086" fill="#33FEB4"/>
<rect x="37.1406" y="61" width="3.75308" height="105.086" fill="#33FEB4"/>
</svg>
