<svg width="549" height="227" viewBox="0 0 549 227" fill="none" xmlns="http://www.w3.org/2000/svg">
<rect x="1" y="1" width="547" height="225" fill="#F2F2F2" stroke="#111112" stroke-width="2"/>
<path d="M99.5078 166.086V61H167.063V80.516H122.026V103.935H167.063V123.451H122.026V166.086H99.5078Z" fill="#FC62FF"/>
<path d="M172.305 61H194.823V146.57H245.865V166.086H172.305V61Z" fill="#FC62FF"/>
<path d="M332.357 166.086L323.65 135.611H280.865L272.158 166.086H251.141L281.315 61H302.333L286.57 116.095H318.096L302.333 61H324.851L354.876 166.086H332.357Z" fill="#FC62FF"/>
<path d="M491.482 166.086L482.775 135.611H439.99L431.283 166.086H410.266L440.44 61H461.458L445.695 116.095H477.221L461.458 61H483.976L514.001 166.086H491.482Z" fill="#FC62FF"/>
<path d="M383.381 166.086L413.255 61H434.273L404.398 166.086H383.381ZM353.206 61L383.381 166.086H360.862L330.688 61H353.206Z" fill="#FC62FF"/>
<rect x="79.7812" y="61" width="15.7629" height="105.086" fill="#FC62FF"/>
<rect x="63.2734" y="61" width="12.0099" height="105.086" fill="#FC62FF"/>
<rect x="49" y="61" width="7.50616" height="105.086" fill="#FC62FF"/>
<rect x="37" y="61" width="3.75308" height="105.086" fill="#FC62FF"/>
</svg>
