<svg width="324" height="134" viewBox="0 0 324 134" fill="none" xmlns="http://www.w3.org/2000/svg">
<rect width="324" height="133.967" fill="#33FEB4"/>
<path d="M58.7266 98.0171V35.999H98.5954V47.5167H72.0162V61.3379H98.5954V72.8555H72.0162V98.0171H58.7266Z" fill="#EBFF00"/>
<path d="M101.688 35.999H114.977V86.4995H145.1V98.0171H101.688V35.999Z" fill="#EBFF00"/>
<path d="M196.142 98.0171L191.003 80.0319H165.753L160.615 98.0171H148.211L166.019 35.999H178.423L169.12 68.5142H187.725L178.423 35.999H191.712L209.432 98.0171H196.142Z" fill="#EBFF00"/>
<path d="M290.056 98.0171L284.918 80.0319H259.667L254.529 98.0171H242.125L259.933 35.999H272.337L263.034 68.5142H281.639L272.337 35.999H285.626L303.346 98.0171H290.056Z" fill="#EBFF00"/>
<path d="M226.254 98.0171L243.885 35.999H256.288L238.658 98.0171H226.254ZM208.446 35.999L226.254 98.0171H212.964L195.156 35.999H208.446Z" fill="#EBFF00"/>
<rect x="47.0781" y="35.999" width="9.30272" height="62.0181" fill="#EBFF00"/>
<rect x="37.3359" y="35.999" width="7.08779" height="62.0181" fill="#EBFF00"/>
<rect x="28.9219" y="35.999" width="4.42987" height="62.0181" fill="#EBFF00"/>
<rect x="21.8359" y="35.999" width="2.21493" height="62.0181" fill="#EBFF00"/>
</svg>
