<svg width="324" height="134" viewBox="0 0 324 134" fill="none" xmlns="http://www.w3.org/2000/svg">
<rect width="324" height="133.967" fill="#EBFF00"/>
<path d="M58.7266 98.0171V35.999H98.5954V47.5167H72.0162V61.3379H98.5954V72.8555H72.0162V98.0171H58.7266Z" fill="#F2F2F2"/>
<path d="M101.68 35.999H114.969V86.4995H145.092V98.0171H101.68V35.999Z" fill="#F2F2F2"/>
<path d="M196.134 98.0171L190.996 80.0319H165.745L160.607 98.0171H148.203L166.011 35.999H178.415L169.112 68.5142H187.718L178.415 35.999H191.704L209.424 98.0171H196.134Z" fill="#F2F2F2"/>
<path d="M290.048 98.0171L284.91 80.0319H259.659L254.521 98.0171H242.117L259.925 35.999H272.329L263.026 68.5142H281.632L272.329 35.999H285.618L303.338 98.0171H290.048Z" fill="#F2F2F2"/>
<path d="M226.254 98.0171L243.885 35.999H256.288L238.658 98.0171H226.254ZM208.446 35.999L226.254 98.0171H212.964L195.156 35.999H208.446Z" fill="#F2F2F2"/>
<rect x="47.0703" y="35.999" width="9.30272" height="62.0181" fill="#F2F2F2"/>
<rect x="37.3438" y="35.999" width="7.08779" height="62.0181" fill="#F2F2F2"/>
<rect x="28.9141" y="35.999" width="4.42987" height="62.0181" fill="#F2F2F2"/>
<rect x="21.8281" y="35.999" width="2.21493" height="62.0181" fill="#F2F2F2"/>
</svg>
