<svg width="436" height="414" viewBox="0 0 436 414" fill="none" xmlns="http://www.w3.org/2000/svg">
<rect y="0.873047" width="98" height="98" fill="#FC62FF"/>
<rect y="142" width="98" height="98" fill="#33FEB4"/>
<rect y="283" width="98" height="98" fill="#EBFF00"/>
<rect x="112" y="0.873047" width="98" height="98" fill="#BF4CC7"/>
<rect x="112" y="142" width="98" height="98" fill="#28C18E"/>
<rect x="112" y="283" width="98" height="98" fill="#B2C207"/>
<rect x="225" y="0.873047" width="98" height="98" fill="#81378E"/>
<rect x="225" y="142" width="98" height="98" fill="#1D8569"/>
<rect x="225" y="283" width="98" height="98" fill="#79850F"/>
<rect x="338" y="0.873047" width="98" height="98" fill="#442156"/>
<rect x="338" y="142" width="98" height="98" fill="#114843"/>
<rect x="338" y="283" width="98" height="98" fill="#3F4816"/>
<path d="M17.542 397.406H14.88L15.32 393.38H13.45L13.01 397.406H9.182L9.622 393.38H7.752L7.312 397.406H4.43V399.056H7.136L6.652 403.588H3.77V405.238H6.476L6.08 409H7.95L8.346 405.238H12.174L11.778 409H13.648L14.044 405.238H16.882V403.588H14.22L14.704 399.056H17.542V397.406ZM8.522 403.588L9.006 399.056H12.834L12.35 403.588H8.522ZM29.4504 393.38H20.0564V409H29.4504V407.218H22.0144V401.916H27.9984V400.178H22.0144V395.162H29.4504V393.38ZM37.8086 409C41.4606 409 43.3086 407.262 43.3086 404.6C43.3086 402.598 42.1426 400.97 40.0966 400.618C41.5486 400.2 42.4286 399.078 42.4286 397.23C42.4286 394.876 40.7786 393.38 37.5006 393.38H32.0446V409H37.8086ZM34.0026 395.074H37.5006C39.4146 395.074 40.4486 395.998 40.4486 397.582C40.4486 399.276 39.4146 400.09 37.5006 400.09H34.0026V395.074ZM34.0026 401.586H37.9406C40.0966 401.586 41.3286 402.796 41.3286 404.578C41.3286 406.316 40.0966 407.306 37.8086 407.306H34.0026V401.586ZM47.8815 409V402.07H54.1075V400.332H47.8815V395.184H55.1195V393.38H45.9235V409H47.8815ZM59.3757 409V402.07H65.6017V400.332H59.3757V395.184H66.6137V393.38H57.4177V409H59.3757ZM74.0818 409.22C77.0958 409.22 79.8238 407.108 79.8238 403.676V398.704C79.8238 395.272 77.0958 393.16 74.0818 393.16C71.0458 393.16 68.3398 395.272 68.3398 398.704V403.676C68.3398 407.108 71.0458 409.22 74.0818 409.22ZM74.0818 407.394C71.9918 407.394 70.2978 405.854 70.2978 403.676V398.704C70.2978 396.526 71.9918 394.986 74.0818 394.986C76.1498 394.986 77.8658 396.526 77.8658 398.704V403.676C77.8658 405.854 76.1498 407.394 74.0818 407.394ZM87.8748 409.22C90.8888 409.22 93.6168 407.108 93.6168 403.676V398.704C93.6168 395.272 90.8888 393.16 87.8748 393.16C84.8388 393.16 82.1328 395.272 82.1328 398.704V403.676C82.1328 407.108 84.8388 409.22 87.8748 409.22ZM87.8748 407.394C85.7848 407.394 84.0908 405.854 84.0908 403.676V398.704C84.0908 396.526 85.7848 394.986 87.8748 394.986C89.9428 394.986 91.6588 396.526 91.6588 398.704V403.676C91.6588 405.854 89.9428 407.394 87.8748 407.394Z" fill="#F2F2F2"/>
<path d="M17.542 256.406H14.88L15.32 252.38H13.45L13.01 256.406H9.182L9.622 252.38H7.752L7.312 256.406H4.43V258.056H7.136L6.652 262.588H3.77V264.238H6.476L6.08 268H7.95L8.346 264.238H12.174L11.778 268H13.648L14.044 264.238H16.882V262.588H14.22L14.704 258.056H17.542V256.406ZM8.522 262.588L9.006 258.056H12.834L12.35 262.588H8.522ZM27.4924 259.794C28.6364 259.112 29.4064 257.946 29.4064 256.362C29.4064 253.898 27.4704 252.16 24.5444 252.16C21.1784 252.16 19.2204 254.47 19.2204 257.286H21.1344C21.1344 255.328 22.4984 253.942 24.4344 253.942C26.2384 253.942 27.4484 254.976 27.4484 256.494C27.4484 257.924 26.3924 259.068 24.4564 259.112H23.1584V260.806H24.4124C26.3264 260.806 28.0644 261.51 28.0644 263.49C28.0644 265.118 26.7884 266.438 24.6104 266.438C22.5864 266.438 20.9144 265.162 20.9144 262.984H19.0004C19.0004 265.954 21.2444 268.22 24.6984 268.22C28.1744 268.22 30.0224 265.954 30.0224 263.6C30.0224 261.532 28.9224 260.344 27.4924 259.794ZM40.0178 259.794C41.1618 259.112 41.9318 257.946 41.9318 256.362C41.9318 253.898 39.9958 252.16 37.0698 252.16C33.7038 252.16 31.7458 254.47 31.7458 257.286H33.6598C33.6598 255.328 35.0238 253.942 36.9598 253.942C38.7638 253.942 39.9738 254.976 39.9738 256.494C39.9738 257.924 38.9178 259.068 36.9818 259.112H35.6838V260.806H36.9378C38.8518 260.806 40.5898 261.51 40.5898 263.49C40.5898 265.118 39.3138 266.438 37.1358 266.438C35.1118 266.438 33.4398 265.162 33.4398 262.984H31.5258C31.5258 265.954 33.7698 268.22 37.2238 268.22C40.6998 268.22 42.5478 265.954 42.5478 263.6C42.5478 261.532 41.4478 260.344 40.0178 259.794ZM47.0651 268V261.07H53.2911V259.332H47.0651V254.184H54.3031V252.38H45.1071V268H47.0651ZM65.9953 252.38H56.6013V268H65.9953V266.218H58.5593V260.916H64.5433V259.178H58.5593V254.162H65.9953V252.38ZM74.3536 268C78.0056 268 79.8536 266.262 79.8536 263.6C79.8536 261.598 78.6876 259.97 76.6416 259.618C78.0936 259.2 78.9736 258.078 78.9736 256.23C78.9736 253.876 77.3236 252.38 74.0456 252.38H68.5896V268H74.3536ZM70.5476 254.074H74.0456C75.9596 254.074 76.9936 254.998 76.9936 256.582C76.9936 258.276 75.9596 259.09 74.0456 259.09H70.5476V254.074ZM70.5476 260.586H74.4856C76.6416 260.586 77.8736 261.796 77.8736 263.578C77.8736 265.316 76.6416 266.306 74.3536 266.306H70.5476V260.586ZM90.7845 263.094V252.38H88.9585L81.3245 263.314V264.678H88.8705V268H90.7845V264.678H93.2485V263.094H90.7845ZM89.0465 254.844C88.9365 255.35 88.8705 256.12 88.8705 257.066V263.094H83.3925L89.0465 254.844Z" fill="#F2F2F2"/>
<path d="M18.542 115.406H15.88L16.32 111.38H14.45L14.01 115.406H10.182L10.622 111.38H8.752L8.312 115.406H5.43V117.056H8.136L7.652 121.588H4.77V123.238H7.476L7.08 127H8.95L9.346 123.238H13.174L12.778 127H14.648L15.044 123.238H17.882V121.588H15.22L15.704 117.056H18.542V115.406ZM9.522 121.588L10.006 117.056H13.834L13.35 121.588H9.522ZM23.0144 127V120.07H29.2404V118.332H23.0144V113.184H30.2524V111.38H21.0564V127H23.0144ZM39.5245 127.22C41.7465 127.22 43.2645 126.516 44.1445 125.79V123.832C43.3525 124.58 41.9665 125.438 39.7665 125.438C36.3785 125.438 33.6945 122.71 33.6945 119.19C33.6945 115.67 36.3565 112.942 39.7665 112.942C41.9665 112.942 43.3305 113.8 44.1445 114.548V112.59C43.2645 111.864 41.7465 111.16 39.5245 111.16C35.1465 111.16 31.7365 114.702 31.7365 119.19C31.7365 123.678 35.1465 127.22 39.5245 127.22ZM52.0721 116.616C51.3021 116.616 50.6861 116.748 50.1361 117.012L53.5901 111.38L51.4341 111.358L47.1441 118.288C46.2861 119.696 46.0001 120.928 46.0001 121.874C46.0001 124.866 48.2661 127.22 51.5661 127.22C54.8441 127.22 57.0881 124.866 57.0881 121.786C57.0881 118.772 54.9101 116.616 52.0721 116.616ZM51.5661 125.394C49.4981 125.394 47.9581 123.876 47.9581 121.786C47.9581 119.674 49.4541 118.178 51.5661 118.178C53.6121 118.178 55.1301 119.696 55.1301 121.786C55.1301 123.876 53.6121 125.394 51.5661 125.394ZM60.6978 125.174C61.3578 121.786 69.1018 121.302 69.1018 115.978C69.1018 112.986 66.8578 111.16 63.9978 111.16C60.8298 111.16 58.6738 113.404 58.6738 116.22H60.6538C60.6978 114.35 62.0178 112.942 63.9758 112.942C65.8458 112.942 67.1438 114.218 67.1438 115.956C67.1438 120.114 58.6738 120.664 58.6738 125.68V127H69.1898V125.174H60.6978ZM73.6745 127V120.07H79.9005V118.332H73.6745V113.184H80.9125V111.38H71.7165V127H73.6745ZM85.1687 127V120.07H91.3947V118.332H85.1687V113.184H92.4067V111.38H83.2107V127H85.1687Z" fill="#F2F2F2"/>
<path d="M129.542 397.406H126.88L127.32 393.38H125.45L125.01 397.406H121.182L121.622 393.38H119.752L119.312 397.406H116.43V399.056H119.136L118.652 403.588H115.77V405.238H118.476L118.08 409H119.95L120.346 405.238H124.174L123.778 409H125.648L126.044 405.238H128.882V403.588H126.22L126.704 399.056H129.542V397.406ZM120.522 403.588L121.006 399.056H124.834L124.35 403.588H120.522ZM137.82 409C141.472 409 143.32 407.262 143.32 404.6C143.32 402.598 142.154 400.97 140.108 400.618C141.56 400.2 142.44 399.078 142.44 397.23C142.44 394.876 140.79 393.38 137.512 393.38H132.056V409H137.82ZM134.014 395.074H137.512C139.426 395.074 140.46 395.998 140.46 397.582C140.46 399.276 139.426 400.09 137.512 400.09H134.014V395.074ZM134.014 401.586H137.952C140.108 401.586 141.34 402.796 141.34 404.578C141.34 406.316 140.108 407.306 137.82 407.306H134.014V401.586ZM146.969 407.174C147.629 403.786 155.373 403.302 155.373 397.978C155.373 394.986 153.129 393.16 150.269 393.16C147.101 393.16 144.945 395.404 144.945 398.22H146.925C146.969 396.35 148.289 394.942 150.247 394.942C152.117 394.942 153.415 396.218 153.415 397.956C153.415 402.114 144.945 402.664 144.945 407.68V409H155.461V407.174H146.969ZM164.962 409.22C167.184 409.22 168.702 408.516 169.582 407.79V405.832C168.79 406.58 167.404 407.438 165.204 407.438C161.816 407.438 159.132 404.71 159.132 401.19C159.132 397.67 161.794 394.942 165.204 394.942C167.404 394.942 168.768 395.8 169.582 396.548V394.59C168.702 393.864 167.184 393.16 164.962 393.16C160.584 393.16 157.174 396.702 157.174 401.19C157.174 405.678 160.584 409.22 164.962 409.22ZM173.374 407.174C174.034 403.786 181.778 403.302 181.778 397.978C181.778 394.986 179.534 393.16 176.674 393.16C173.506 393.16 171.35 395.404 171.35 398.22H173.33C173.374 396.35 174.694 394.942 176.652 394.942C178.522 394.942 179.82 396.218 179.82 397.956C179.82 402.114 171.35 402.664 171.35 407.68V409H181.866V407.174H173.374ZM189.562 409.22C192.576 409.22 195.304 407.108 195.304 403.676V398.704C195.304 395.272 192.576 393.16 189.562 393.16C186.526 393.16 183.82 395.272 183.82 398.704V403.676C183.82 407.108 186.526 409.22 189.562 409.22ZM189.562 407.394C187.472 407.394 185.778 405.854 185.778 403.676V398.704C185.778 396.526 187.472 394.986 189.562 394.986C191.63 394.986 193.346 396.526 193.346 398.704V403.676C193.346 405.854 191.63 407.394 189.562 407.394ZM196.475 395.118H204.747L198.983 409H201.051L206.837 394.876V393.38H196.475V395.118Z" fill="#F2F2F2"/>
<path d="M131.542 256.406H128.88L129.32 252.38H127.45L127.01 256.406H123.182L123.622 252.38H121.752L121.312 256.406H118.43V258.056H121.136L120.652 262.588H117.77V264.238H120.476L120.08 268H121.95L122.346 264.238H126.174L125.778 268H127.648L128.044 264.238H130.882V262.588H128.22L128.704 258.056H131.542V256.406ZM122.522 262.588L123.006 258.056H126.834L126.35 262.588H122.522ZM135.09 266.174C135.75 262.786 143.494 262.302 143.494 256.978C143.494 253.986 141.25 252.16 138.39 252.16C135.222 252.16 133.066 254.404 133.066 257.22H135.046C135.09 255.35 136.41 253.942 138.368 253.942C140.238 253.942 141.536 255.218 141.536 256.956C141.536 261.114 133.066 261.664 133.066 266.68V268H143.582V266.174H135.09ZM153.347 259.64C154.579 258.98 155.305 257.814 155.305 256.318C155.305 253.744 153.127 252.16 150.553 252.16C147.979 252.16 145.801 253.744 145.801 256.318C145.801 257.792 146.527 258.936 147.759 259.64C146.065 260.366 145.119 261.796 145.119 263.534C145.119 266.284 147.385 268.22 150.553 268.22C153.699 268.22 155.987 266.284 155.987 263.534C155.987 261.818 155.041 260.366 153.347 259.64ZM150.553 253.788C151.983 253.788 153.457 254.668 153.457 256.34C153.457 258.012 151.983 258.914 150.553 258.914C149.145 258.914 147.693 258.012 147.693 256.34C147.693 254.668 149.145 253.788 150.553 253.788ZM150.553 266.482C148.595 266.482 147.077 265.272 147.077 263.468C147.077 261.664 148.595 260.454 150.553 260.454C152.533 260.454 154.051 261.664 154.051 263.468C154.051 265.272 152.533 266.482 150.553 266.482ZM165.48 268.22C167.702 268.22 169.22 267.516 170.1 266.79V264.832C169.308 265.58 167.922 266.438 165.722 266.438C162.334 266.438 159.65 263.71 159.65 260.19C159.65 256.67 162.312 253.942 165.722 253.942C167.922 253.942 169.286 254.8 170.1 255.548V253.59C169.22 252.864 167.702 252.16 165.48 252.16C161.102 252.16 157.692 255.702 157.692 260.19C157.692 264.678 161.102 268.22 165.48 268.22ZM180.865 268V266.262H177.257V252.38L171.933 253.942V255.746L175.277 254.624V266.262H171.669V268H180.865ZM190.107 259.64C191.339 258.98 192.065 257.814 192.065 256.318C192.065 253.744 189.887 252.16 187.313 252.16C184.739 252.16 182.561 253.744 182.561 256.318C182.561 257.792 183.287 258.936 184.519 259.64C182.825 260.366 181.879 261.796 181.879 263.534C181.879 266.284 184.145 268.22 187.313 268.22C190.459 268.22 192.747 266.284 192.747 263.534C192.747 261.818 191.801 260.366 190.107 259.64ZM187.313 253.788C188.743 253.788 190.217 254.668 190.217 256.34C190.217 258.012 188.743 258.914 187.313 258.914C185.905 258.914 184.453 258.012 184.453 256.34C184.453 254.668 185.905 253.788 187.313 253.788ZM187.313 266.482C185.355 266.482 183.837 265.272 183.837 263.468C183.837 261.664 185.355 260.454 187.313 260.454C189.293 260.454 190.811 261.664 190.811 263.468C190.811 265.272 189.293 266.482 187.313 266.482ZM204.659 252.38H195.265V268H204.659V266.218H197.223V260.916H203.207V259.178H197.223V254.162H204.659V252.38Z" fill="#F2F2F2"/>
<path d="M128.542 115.406H125.88L126.32 111.38H124.45L124.01 115.406H120.182L120.622 111.38H118.752L118.312 115.406H115.43V117.056H118.136L117.652 121.588H114.77V123.238H117.476L117.08 127H118.95L119.346 123.238H123.174L122.778 127H124.648L125.044 123.238H127.882V121.588H125.22L125.704 117.056H128.542V115.406ZM119.522 121.588L120.006 117.056H123.834L123.35 121.588H119.522ZM136.82 127C140.472 127 142.32 125.262 142.32 122.6C142.32 120.598 141.154 118.97 139.108 118.618C140.56 118.2 141.44 117.078 141.44 115.23C141.44 112.876 139.79 111.38 136.512 111.38H131.056V127H136.82ZM133.014 113.074H136.512C138.426 113.074 139.46 113.998 139.46 115.582C139.46 117.276 138.426 118.09 136.512 118.09H133.014V113.074ZM133.014 119.586H136.952C139.108 119.586 140.34 120.796 140.34 122.578C140.34 124.316 139.108 125.306 136.82 125.306H133.014V119.586ZM146.893 127V120.07H153.119V118.332H146.893V113.184H154.131V111.38H144.935V127H146.893ZM164.745 122.094V111.38H162.919L155.285 122.314V123.678H162.831V127H164.745V123.678H167.209V122.094H164.745ZM163.007 113.844C162.897 114.35 162.831 115.12 162.831 116.066V122.094H157.353L163.007 113.844ZM176.358 127.22C178.58 127.22 180.098 126.516 180.978 125.79V123.832C180.186 124.58 178.8 125.438 176.6 125.438C173.212 125.438 170.528 122.71 170.528 119.19C170.528 115.67 173.19 112.942 176.6 112.942C178.8 112.942 180.164 113.8 180.978 114.548V112.59C180.098 111.864 178.58 111.16 176.358 111.16C171.98 111.16 168.57 114.702 168.57 119.19C168.57 123.678 171.98 127.22 176.358 127.22ZM190.71 127.22C192.932 127.22 194.45 126.516 195.33 125.79V123.832C194.538 124.58 193.152 125.438 190.952 125.438C187.564 125.438 184.88 122.71 184.88 119.19C184.88 115.67 187.542 112.942 190.952 112.942C193.152 112.942 194.516 113.8 195.33 114.548V112.59C194.45 111.864 192.932 111.16 190.71 111.16C186.332 111.16 182.922 114.702 182.922 119.19C182.922 123.678 186.332 127.22 190.71 127.22ZM196.614 113.118H204.886L199.122 127H201.19L206.976 112.876V111.38H196.614V113.118Z" fill="#F2F2F2"/>
<path d="M243.542 397.406H240.88L241.32 393.38H239.45L239.01 397.406H235.182L235.622 393.38H233.752L233.312 397.406H230.43V399.056H233.136L232.652 403.588H229.77V405.238H232.476L232.08 409H233.95L234.346 405.238H238.174L237.778 409H239.648L240.044 405.238H242.882V403.588H240.22L240.704 399.056H243.542V397.406ZM234.522 403.588L235.006 399.056H238.834L238.35 403.588H234.522ZM244.582 395.118H252.854L247.09 409H249.158L254.944 394.876V393.38H244.582V395.118ZM261.676 393.16C258.398 393.16 256.154 395.514 256.154 398.594C256.154 401.608 258.31 403.764 261.17 403.764C261.918 403.764 262.556 403.632 263.106 403.368L259.63 409L261.808 409.022L266.076 402.092C266.956 400.684 267.22 399.452 267.22 398.506C267.22 395.514 264.976 393.16 261.676 393.16ZM261.676 402.202C259.608 402.202 258.112 400.684 258.112 398.594C258.112 396.504 259.608 394.986 261.676 394.986C263.744 394.986 265.262 396.504 265.262 398.594C265.262 400.706 263.788 402.202 261.676 402.202ZM277.056 400.64C278.288 399.98 279.014 398.814 279.014 397.318C279.014 394.744 276.836 393.16 274.262 393.16C271.688 393.16 269.51 394.744 269.51 397.318C269.51 398.792 270.236 399.936 271.468 400.64C269.774 401.366 268.828 402.796 268.828 404.534C268.828 407.284 271.094 409.22 274.262 409.22C277.408 409.22 279.696 407.284 279.696 404.534C279.696 402.818 278.75 401.366 277.056 400.64ZM274.262 394.788C275.692 394.788 277.166 395.668 277.166 397.34C277.166 399.012 275.692 399.914 274.262 399.914C272.854 399.914 271.402 399.012 271.402 397.34C271.402 395.668 272.854 394.788 274.262 394.788ZM274.262 407.482C272.304 407.482 270.786 406.272 270.786 404.468C270.786 402.664 272.304 401.454 274.262 401.454C276.242 401.454 277.76 402.664 277.76 404.468C277.76 406.272 276.242 407.482 274.262 407.482ZM286.879 409.22C290.135 409.22 292.445 406.756 292.445 403.742C292.445 400.508 290.201 398.462 287.297 398.462C285.999 398.462 284.613 398.88 283.733 399.848L284.481 395.118H291.345V393.38H282.897L281.533 402.312H283.469C283.975 400.794 285.581 400.156 286.923 400.156C288.859 400.156 290.487 401.454 290.487 403.808C290.487 405.964 288.815 407.438 286.879 407.438C284.745 407.438 283.359 405.942 283.315 404.094H281.357C281.357 406.8 283.447 409.22 286.879 409.22ZM300.125 409.22C303.139 409.22 305.867 407.108 305.867 403.676V398.704C305.867 395.272 303.139 393.16 300.125 393.16C297.089 393.16 294.383 395.272 294.383 398.704V403.676C294.383 407.108 297.089 409.22 300.125 409.22ZM300.125 407.394C298.035 407.394 296.341 405.854 296.341 403.676V398.704C296.341 396.526 298.035 394.986 300.125 394.986C302.193 394.986 303.909 396.526 303.909 398.704V403.676C303.909 405.854 302.193 407.394 300.125 407.394ZM310.706 409V402.07H316.932V400.332H310.706V395.184H317.944V393.38H308.748V409H310.706Z" fill="#F2F2F2"/>
<path d="M242.542 256.406H239.88L240.32 252.38H238.45L238.01 256.406H234.182L234.622 252.38H232.752L232.312 256.406H229.43V258.056H232.136L231.652 262.588H228.77V264.238H231.476L231.08 268H232.95L233.346 264.238H237.174L236.778 268H238.648L239.044 264.238H241.882V262.588H239.22L239.704 258.056H242.542V256.406ZM233.522 262.588L234.006 258.056H237.834L237.35 262.588H233.522ZM253.064 268V266.262H249.456V252.38L244.132 253.942V255.746L247.476 254.624V266.262H243.868V268H253.064ZM260.04 268C264.792 268 267.674 264.568 267.674 260.19C267.674 255.812 264.792 252.38 260.04 252.38H255.068V268H260.04ZM257.026 254.162H260.04C263.472 254.162 265.716 256.516 265.716 260.19C265.716 263.864 263.472 266.218 260.04 266.218H257.026V254.162ZM277.581 259.64C278.813 258.98 279.539 257.814 279.539 256.318C279.539 253.744 277.361 252.16 274.787 252.16C272.213 252.16 270.035 253.744 270.035 256.318C270.035 257.792 270.761 258.936 271.993 259.64C270.299 260.366 269.353 261.796 269.353 263.534C269.353 266.284 271.619 268.22 274.787 268.22C277.933 268.22 280.221 266.284 280.221 263.534C280.221 261.818 279.275 260.366 277.581 259.64ZM274.787 253.788C276.217 253.788 277.691 254.668 277.691 256.34C277.691 258.012 276.217 258.914 274.787 258.914C273.379 258.914 271.927 258.012 271.927 256.34C271.927 254.668 273.379 253.788 274.787 253.788ZM274.787 266.482C272.829 266.482 271.311 265.272 271.311 263.468C271.311 261.664 272.829 260.454 274.787 260.454C276.767 260.454 278.285 261.664 278.285 263.468C278.285 265.272 276.767 266.482 274.787 266.482ZM287.404 268.22C290.66 268.22 292.97 265.756 292.97 262.742C292.97 259.508 290.726 257.462 287.822 257.462C286.524 257.462 285.138 257.88 284.258 258.848L285.006 254.118H291.87V252.38H283.422L282.058 261.312H283.994C284.5 259.794 286.106 259.156 287.448 259.156C289.384 259.156 291.012 260.454 291.012 262.808C291.012 264.964 289.34 266.438 287.404 266.438C285.27 266.438 283.884 264.942 283.84 263.094H281.882C281.882 265.8 283.972 268.22 287.404 268.22ZM300.65 257.616C299.88 257.616 299.264 257.748 298.714 258.012L302.168 252.38L300.012 252.358L295.722 259.288C294.864 260.696 294.578 261.928 294.578 262.874C294.578 265.866 296.844 268.22 300.144 268.22C303.422 268.22 305.666 265.866 305.666 262.786C305.666 259.772 303.488 257.616 300.65 257.616ZM300.144 266.394C298.076 266.394 296.536 264.876 296.536 262.786C296.536 260.674 298.032 259.178 300.144 259.178C302.19 259.178 303.708 260.696 303.708 262.786C303.708 264.876 302.19 266.394 300.144 266.394ZM312.54 252.16C309.262 252.16 307.018 254.514 307.018 257.594C307.018 260.608 309.174 262.764 312.034 262.764C312.782 262.764 313.42 262.632 313.97 262.368L310.494 268L312.672 268.022L316.94 261.092C317.82 259.684 318.084 258.452 318.084 257.506C318.084 254.514 315.84 252.16 312.54 252.16ZM312.54 261.202C310.472 261.202 308.976 259.684 308.976 257.594C308.976 255.504 310.472 253.986 312.54 253.986C314.608 253.986 316.126 255.504 316.126 257.594C316.126 259.706 314.652 261.202 312.54 261.202Z" fill="#F2F2F2"/>
<path d="M245.542 115.406H242.88L243.32 111.38H241.45L241.01 115.406H237.182L237.622 111.38H235.752L235.312 115.406H232.43V117.056H235.136L234.652 121.588H231.77V123.238H234.476L234.08 127H235.95L236.346 123.238H240.174L239.778 127H241.648L242.044 123.238H244.882V121.588H242.22L242.704 117.056H245.542V115.406ZM236.522 121.588L237.006 117.056H240.834L240.35 121.588H236.522ZM255.294 118.64C256.526 117.98 257.252 116.814 257.252 115.318C257.252 112.744 255.074 111.16 252.5 111.16C249.926 111.16 247.748 112.744 247.748 115.318C247.748 116.792 248.474 117.936 249.706 118.64C248.012 119.366 247.066 120.796 247.066 122.534C247.066 125.284 249.332 127.22 252.5 127.22C255.646 127.22 257.934 125.284 257.934 122.534C257.934 120.818 256.988 119.366 255.294 118.64ZM252.5 112.788C253.93 112.788 255.404 113.668 255.404 115.34C255.404 117.012 253.93 117.914 252.5 117.914C251.092 117.914 249.64 117.012 249.64 115.34C249.64 113.668 251.092 112.788 252.5 112.788ZM252.5 125.482C250.542 125.482 249.024 124.272 249.024 122.468C249.024 120.664 250.542 119.454 252.5 119.454C254.48 119.454 255.998 120.664 255.998 122.468C255.998 124.272 254.48 125.482 252.5 125.482ZM268.461 127V125.262H264.853V111.38L259.529 112.942V114.746L262.873 113.624V125.262H259.265V127H268.461ZM277.901 118.794C279.045 118.112 279.815 116.946 279.815 115.362C279.815 112.898 277.879 111.16 274.953 111.16C271.587 111.16 269.629 113.47 269.629 116.286H271.543C271.543 114.328 272.907 112.942 274.843 112.942C276.647 112.942 277.857 113.976 277.857 115.494C277.857 116.924 276.801 118.068 274.865 118.112H273.567V119.806H274.821C276.735 119.806 278.473 120.51 278.473 122.49C278.473 124.118 277.197 125.438 275.019 125.438C272.995 125.438 271.323 124.162 271.323 121.984H269.409C269.409 124.954 271.653 127.22 275.107 127.22C278.583 127.22 280.431 124.954 280.431 122.6C280.431 120.532 279.331 119.344 277.901 118.794ZM281.516 113.118H289.788L284.024 127H286.092L291.878 112.876V111.38H281.516V113.118ZM301.228 118.64C302.46 117.98 303.186 116.814 303.186 115.318C303.186 112.744 301.008 111.16 298.434 111.16C295.86 111.16 293.682 112.744 293.682 115.318C293.682 116.792 294.408 117.936 295.64 118.64C293.946 119.366 293 120.796 293 122.534C293 125.284 295.266 127.22 298.434 127.22C301.58 127.22 303.868 125.284 303.868 122.534C303.868 120.818 302.922 119.366 301.228 118.64ZM298.434 112.788C299.864 112.788 301.338 113.668 301.338 115.34C301.338 117.012 299.864 117.914 298.434 117.914C297.026 117.914 295.574 117.012 295.574 115.34C295.574 113.668 297.026 112.788 298.434 112.788ZM298.434 125.482C296.476 125.482 294.958 124.272 294.958 122.468C294.958 120.664 296.476 119.454 298.434 119.454C300.414 119.454 301.932 120.664 301.932 122.468C301.932 124.272 300.414 125.482 298.434 125.482ZM315.78 111.38H306.386V127H315.78V125.218H308.344V119.916H314.328V118.178H308.344V113.162H315.78V111.38Z" fill="#F2F2F2"/>
<path d="M357.542 397.406H354.88L355.32 393.38H353.45L353.01 397.406H349.182L349.622 393.38H347.752L347.312 397.406H344.43V399.056H347.136L346.652 403.588H343.77V405.238H346.476L346.08 409H347.95L348.346 405.238H352.174L351.778 409H353.648L354.044 405.238H356.882V403.588H354.22L354.704 399.056H357.542V397.406ZM348.522 403.588L349.006 399.056H352.834L352.35 403.588H348.522ZM367.492 400.794C368.636 400.112 369.406 398.946 369.406 397.362C369.406 394.898 367.47 393.16 364.544 393.16C361.178 393.16 359.22 395.47 359.22 398.286H361.134C361.134 396.328 362.498 394.942 364.434 394.942C366.238 394.942 367.448 395.976 367.448 397.494C367.448 398.924 366.392 400.068 364.456 400.112H363.158V401.806H364.412C366.326 401.806 368.064 402.51 368.064 404.49C368.064 406.118 366.788 407.438 364.61 407.438C362.586 407.438 360.914 406.162 360.914 403.984H359C359 406.954 361.244 409.22 364.698 409.22C368.174 409.22 370.022 406.954 370.022 404.6C370.022 402.532 368.922 401.344 367.492 400.794ZM374.54 409V402.07H380.766V400.332H374.54V395.184H381.778V393.38H372.582V409H374.54ZM392.392 404.094V393.38H390.566L382.932 404.314V405.678H390.478V409H392.392V405.678H394.856V404.094H392.392ZM390.654 395.844C390.544 396.35 390.478 397.12 390.478 398.066V404.094H385L390.654 395.844ZM404.269 400.64C405.501 399.98 406.227 398.814 406.227 397.318C406.227 394.744 404.049 393.16 401.475 393.16C398.901 393.16 396.723 394.744 396.723 397.318C396.723 398.792 397.449 399.936 398.681 400.64C396.987 401.366 396.041 402.796 396.041 404.534C396.041 407.284 398.307 409.22 401.475 409.22C404.621 409.22 406.909 407.284 406.909 404.534C406.909 402.818 405.963 401.366 404.269 400.64ZM401.475 394.788C402.905 394.788 404.379 395.668 404.379 397.34C404.379 399.012 402.905 399.914 401.475 399.914C400.067 399.914 398.615 399.012 398.615 397.34C398.615 395.668 400.067 394.788 401.475 394.788ZM401.475 407.482C399.517 407.482 397.999 406.272 397.999 404.468C397.999 402.664 399.517 401.454 401.475 401.454C403.455 401.454 404.973 402.664 404.973 404.468C404.973 406.272 403.455 407.482 401.475 407.482ZM417.435 409V407.262H413.827V393.38L408.503 394.942V396.746L411.847 395.624V407.262H408.239V409H417.435ZM424.609 398.616C423.839 398.616 423.223 398.748 422.673 399.012L426.127 393.38L423.971 393.358L419.681 400.288C418.823 401.696 418.537 402.928 418.537 403.874C418.537 406.866 420.803 409.22 424.103 409.22C427.381 409.22 429.625 406.866 429.625 403.786C429.625 400.772 427.447 398.616 424.609 398.616ZM424.103 407.394C422.035 407.394 420.495 405.876 420.495 403.786C420.495 401.674 421.991 400.178 424.103 400.178C426.149 400.178 427.667 401.696 427.667 403.786C427.667 405.876 426.149 407.394 424.103 407.394Z" fill="#F2F2F2"/>
<path d="M358.542 256.406H355.88L356.32 252.38H354.45L354.01 256.406H350.182L350.622 252.38H348.752L348.312 256.406H345.43V258.056H348.136L347.652 262.588H344.77V264.238H347.476L347.08 268H348.95L349.346 264.238H353.174L352.778 268H354.648L355.044 264.238H357.882V262.588H355.22L355.704 258.056H358.542V256.406ZM349.522 262.588L350.006 258.056H353.834L353.35 262.588H349.522ZM369.064 268V266.262H365.456V252.38L360.132 253.942V255.746L363.476 254.624V266.262H359.868V268H369.064ZM379.076 268V266.262H375.468V252.38L370.144 253.942V255.746L373.488 254.624V266.262H369.88V268H379.076ZM389.159 263.094V252.38H387.333L379.699 263.314V264.678H387.245V268H389.159V264.678H391.623V263.094H389.159ZM387.421 254.844C387.311 255.35 387.245 256.12 387.245 257.066V263.094H381.767L387.421 254.844ZM401.037 259.64C402.269 258.98 402.995 257.814 402.995 256.318C402.995 253.744 400.817 252.16 398.243 252.16C395.669 252.16 393.491 253.744 393.491 256.318C393.491 257.792 394.217 258.936 395.449 259.64C393.755 260.366 392.809 261.796 392.809 263.534C392.809 266.284 395.075 268.22 398.243 268.22C401.389 268.22 403.677 266.284 403.677 263.534C403.677 261.818 402.731 260.366 401.037 259.64ZM398.243 253.788C399.673 253.788 401.147 254.668 401.147 256.34C401.147 258.012 399.673 258.914 398.243 258.914C396.835 258.914 395.383 258.012 395.383 256.34C395.383 254.668 396.835 253.788 398.243 253.788ZM398.243 266.482C396.285 266.482 394.767 265.272 394.767 263.468C394.767 261.664 396.285 260.454 398.243 260.454C400.223 260.454 401.741 261.664 401.741 263.468C401.741 265.272 400.223 266.482 398.243 266.482ZM414.511 263.094V252.38H412.685L405.051 263.314V264.678H412.597V268H414.511V264.678H416.975V263.094H414.511ZM412.773 254.844C412.663 255.35 412.597 256.12 412.597 257.066V263.094H407.119L412.773 254.844ZM426.586 259.794C427.73 259.112 428.5 257.946 428.5 256.362C428.5 253.898 426.564 252.16 423.638 252.16C420.272 252.16 418.314 254.47 418.314 257.286H420.228C420.228 255.328 421.592 253.942 423.528 253.942C425.332 253.942 426.542 254.976 426.542 256.494C426.542 257.924 425.486 259.068 423.55 259.112H422.252V260.806H423.506C425.42 260.806 427.158 261.51 427.158 263.49C427.158 265.118 425.882 266.438 423.704 266.438C421.68 266.438 420.008 265.162 420.008 262.984H418.094C418.094 265.954 420.338 268.22 423.792 268.22C427.268 268.22 429.116 265.954 429.116 263.6C429.116 261.532 428.016 260.344 426.586 259.794Z" fill="#F2F2F2"/>
<path d="M357.542 115.406H354.88L355.32 111.38H353.45L353.01 115.406H349.182L349.622 111.38H347.752L347.312 115.406H344.43V117.056H347.136L346.652 121.588H343.77V123.238H346.476L346.08 127H347.95L348.346 123.238H352.174L351.778 127H353.648L354.044 123.238H356.882V121.588H354.22L354.704 117.056H357.542V115.406ZM348.522 121.588L349.006 117.056H352.834L352.35 121.588H348.522ZM368.372 122.094V111.38H366.546L358.912 122.314V123.678H366.458V127H368.372V123.678H370.836V122.094H368.372ZM366.634 113.844C366.524 114.35 366.458 115.12 366.458 116.066V122.094H360.98L366.634 113.844ZM381.327 122.094V111.38H379.501L371.867 122.314V123.678H379.413V127H381.327V123.678H383.791V122.094H381.327ZM379.589 113.844C379.479 114.35 379.413 115.12 379.413 116.066V122.094H373.935L379.589 113.844ZM387.001 125.174C387.661 121.786 395.405 121.302 395.405 115.978C395.405 112.986 393.161 111.16 390.301 111.16C387.133 111.16 384.977 113.404 384.977 116.22H386.957C387.001 114.35 388.321 112.942 390.279 112.942C392.149 112.942 393.447 114.218 393.447 115.956C393.447 120.114 384.977 120.664 384.977 125.68V127H395.493V125.174H387.001ZM406.027 127V125.262H402.419V111.38L397.095 112.942V114.746L400.439 113.624V125.262H396.831V127H406.027ZM412.695 127.22C415.951 127.22 418.261 124.756 418.261 121.742C418.261 118.508 416.017 116.462 413.113 116.462C411.815 116.462 410.429 116.88 409.549 117.848L410.297 113.118H417.161V111.38H408.713L407.349 120.312H409.285C409.791 118.794 411.397 118.156 412.739 118.156C414.675 118.156 416.303 119.454 416.303 121.808C416.303 123.964 414.631 125.438 412.695 125.438C410.561 125.438 409.175 123.942 409.131 122.094H407.173C407.173 124.8 409.263 127.22 412.695 127.22ZM425.941 116.616C425.171 116.616 424.555 116.748 424.005 117.012L427.459 111.38L425.303 111.358L421.013 118.288C420.155 119.696 419.869 120.928 419.869 121.874C419.869 124.866 422.135 127.22 425.435 127.22C428.713 127.22 430.957 124.866 430.957 121.786C430.957 118.772 428.779 116.616 425.941 116.616ZM425.435 125.394C423.367 125.394 421.827 123.876 421.827 121.786C421.827 119.674 423.323 118.178 425.435 118.178C427.481 118.178 428.999 119.696 428.999 121.786C428.999 123.876 427.481 125.394 425.435 125.394Z" fill="#F2F2F2"/>
</svg>
