<svg width="549" height="227" viewBox="0 0 549 227" fill="none" xmlns="http://www.w3.org/2000/svg">
<rect width="549" height="227" fill="#FC62FF"/>
<path d="M99.5078 166.086V61H167.063V80.516H122.026V103.935H167.063V123.451H122.026V166.086H99.5078Z" fill="#EBFF00"/>
<path d="M172.297 61H194.815V146.57H245.857V166.086H172.297V61Z" fill="#EBFF00"/>
<path d="M332.334 166.086L323.627 135.611H280.842L272.134 166.086H251.117L281.292 61H302.309L286.546 116.095H318.072L302.309 61H324.828L354.852 166.086H332.334Z" fill="#EBFF00"/>
<path d="M491.459 166.086L482.752 135.611H439.967L431.259 166.086H410.242L440.417 61H461.434L445.671 116.095H477.197L461.434 61H483.953L513.977 166.086H491.459Z" fill="#EBFF00"/>
<path d="M383.373 166.086L413.247 61H434.265L404.39 166.086H383.373ZM353.198 61L383.373 166.086H360.854L330.68 61H353.198Z" fill="#EBFF00"/>
<rect x="79.7734" y="61" width="15.7629" height="105.086" fill="#EBFF00"/>
<rect x="63.2578" y="61" width="12.0099" height="105.086" fill="#EBFF00"/>
<rect x="49" y="61" width="7.50616" height="105.086" fill="#EBFF00"/>
<rect x="36.9922" y="61" width="3.75308" height="105.086" fill="#EBFF00"/>
</svg>
