<svg width="324" height="134" viewBox="0 0 324 134" fill="none" xmlns="http://www.w3.org/2000/svg">
<rect width="324" height="133.967" fill="#FC62FF"/>
<path d="M58.7344 98.0171V35.999H98.6032V47.5167H72.024V61.3379H98.6032V72.8555H72.024V98.0171H58.7344Z" fill="#33FEB4"/>
<path d="M101.688 35.999H114.977V86.4995H145.1V98.0171H101.688V35.999Z" fill="#33FEB4"/>
<path d="M196.142 98.0171L191.003 80.0319H165.753L160.615 98.0171H148.211L166.019 35.999H178.423L169.12 68.5142H187.725L178.423 35.999H191.712L209.432 98.0171H196.142Z" fill="#33FEB4"/>
<path d="M290.048 98.0171L284.91 80.0319H259.659L254.521 98.0171H242.117L259.925 35.999H272.329L263.026 68.5142H281.632L272.329 35.999H285.618L303.338 98.0171H290.048Z" fill="#33FEB4"/>
<path d="M226.262 98.0171L243.893 35.999H256.296L238.665 98.0171H226.262ZM208.454 35.999L226.262 98.0171H212.972L195.164 35.999H208.454Z" fill="#33FEB4"/>
<rect x="47.0781" y="35.999" width="9.30272" height="62.0181" fill="#33FEB4"/>
<rect x="37.3438" y="35.999" width="7.08779" height="62.0181" fill="#33FEB4"/>
<rect x="28.9219" y="35.999" width="4.42987" height="62.0181" fill="#33FEB4"/>
<rect x="21.8359" y="35.999" width="2.21493" height="62.0181" fill="#33FEB4"/>
</svg>
