<svg width="324" height="135" viewBox="0 0 324 135" fill="none" xmlns="http://www.w3.org/2000/svg">
<rect y="0.949219" width="324" height="133.967" fill="#33FEB4"/>
<path d="M58.7266 98.9673V36.9492H98.5954V48.4669H72.0162V62.288H98.5954V73.8057H72.0162V98.9673H58.7266Z" fill="#F2F2F2"/>
<path d="M101.68 36.9492H114.969V87.4497H145.092V98.9673H101.68V36.9492Z" fill="#F2F2F2"/>
<path d="M196.134 98.9673L190.996 80.9821H165.745L160.607 98.9673H148.203L166.011 36.9492H178.415L169.112 69.4644H187.718L178.415 36.9492H191.704L209.424 98.9673H196.134Z" fill="#F2F2F2"/>
<path d="M290.048 98.9673L284.91 80.9821H259.659L254.521 98.9673H242.117L259.925 36.9492H272.329L263.026 69.4644H281.632L272.329 36.9492H285.618L303.338 98.9673H290.048Z" fill="#F2F2F2"/>
<path d="M226.254 98.9673L243.885 36.9492H256.288L238.658 98.9673H226.254ZM208.446 36.9492L226.254 98.9673H212.964L195.156 36.9492H208.446Z" fill="#F2F2F2"/>
<rect x="47.0703" y="36.9492" width="9.30272" height="62.0181" fill="#F2F2F2"/>
<rect x="37.3438" y="36.9492" width="7.08779" height="62.0181" fill="#F2F2F2"/>
<rect x="28.9141" y="36.9492" width="4.42987" height="62.0181" fill="#F2F2F2"/>
<rect x="21.8281" y="36.9502" width="2.21493" height="62.0181" fill="#F2F2F2"/>
</svg>
