<svg width="322" height="47" viewBox="0 0 322 47" fill="none" xmlns="http://www.w3.org/2000/svg">
<path d="M42.2031 46.6012V0.777344H87.6648V9.28748H57.357V19.4997H87.6648V28.0098H57.357V46.6012H42.2031Z" fill="#111112"/>
<path d="M91.1953 0.777344H106.349V38.091H140.698V46.6012H91.1953V0.777344Z" fill="#111112"/>
<path d="M198.897 46.6012L193.038 33.3123H164.245L158.386 46.6012H144.242L164.548 0.777344H178.692L168.084 24.8021H189.3L178.692 0.777344H193.846L214.051 46.6012H198.897Z" fill="#111112"/>
<path d="M305.983 46.6012L300.124 33.3123H271.331L265.472 46.6012H251.328L271.634 0.777344H285.778L275.17 24.8021H296.386L285.778 0.777344H300.932L321.137 46.6012H305.983Z" fill="#111112"/>
<path d="M233.241 46.6012L253.346 0.777344H267.489L247.385 46.6012H233.241ZM212.935 0.777344L233.241 46.6012H218.087L197.781 0.777344H212.935Z" fill="#111112"/>
<rect x="28.9297" y="0.777344" width="10.6077" height="45.8238" fill="#111112"/>
<rect x="17.8203" y="0.777344" width="8.08208" height="45.8238" fill="#111112"/>
<rect x="8.21094" y="0.777344" width="5.0513" height="45.8238" fill="#111112"/>
<rect x="0.140625" y="0.777344" width="2.52565" height="45.8238" fill="#111112"/>
</svg>
