<svg width="816" height="298" viewBox="0 0 816 298" fill="none" xmlns="http://www.w3.org/2000/svg">
<path d="M42.35 254.67C39.996 257.53 39.314 258.454 38.918 259.29C38.522 258.388 37.818 257.442 35.53 254.67H33.33L37.84 260.302L33.33 266H35.53C37.752 263.162 38.5 262.106 38.918 261.204C39.314 262.106 40.084 263.162 42.35 266H44.572L40.04 260.214L44.572 254.67H42.35Z" fill="#FC62FF"/>
<path d="M29.772 153.174C30.432 149.786 38.176 149.302 38.176 143.978C38.176 140.986 35.932 139.16 33.072 139.16C29.904 139.16 27.748 141.404 27.748 144.22H29.728C29.772 142.35 31.092 140.942 33.05 140.942C34.92 140.942 36.218 142.218 36.218 143.956C36.218 148.114 27.748 148.664 27.748 153.68V155H38.264V153.174H29.772ZM48.4027 143.67C46.0487 146.53 45.3667 147.454 44.9707 148.29C44.5747 147.388 43.8707 146.442 41.5827 143.67H39.3827L43.8927 149.302L39.3827 155H41.5827C43.8047 152.162 44.5527 151.106 44.9707 150.204C45.3667 151.106 46.1367 152.162 48.4027 155H50.6247L46.0927 149.214L50.6247 143.67H48.4027Z" fill="#FC62FF"/>
<path d="M163.008 222.29V76H257.051V103.168H194.356V135.77H257.051V162.938H194.356V222.29H163.008Z" fill="#F2F2F2"/>
<path d="M264.344 76H295.692V195.122H366.747V222.29H264.344V76Z" fill="#F2F2F2"/>
<path d="M487.14 222.29L475.018 179.866H415.457L403.336 222.29H374.078L416.084 76H445.342L423.399 152.698H467.286L445.342 76H476.69L518.487 222.29H487.14Z" fill="#F2F2F2"/>
<path d="M708.663 222.29L696.542 179.866H636.981L624.86 222.29H595.602L637.608 76H666.866L644.922 152.698H688.809L666.866 76H698.214L740.011 222.29H708.663Z" fill="#F2F2F2"/>
<path d="M558.19 222.29L599.778 76H629.036L587.448 222.29H558.19ZM516.184 76L558.19 222.29H526.842L484.836 76H516.184Z" fill="#F2F2F2"/>
<rect x="135.547" y="76" width="21.9435" height="146.29" fill="#F2F2F2"/>
<rect x="112.562" y="76" width="16.7189" height="146.29" fill="#F2F2F2"/>
<rect x="92.6953" y="76" width="10.4493" height="146.29" fill="#F2F2F2"/>
<rect x="75.9844" y="76" width="5.22465" height="146.29" fill="#F2F2F2"/>
<rect x="1" y="76" width="75" height="146" stroke="#FC62FF" stroke-width="2"/>
<rect x="740" y="76" width="75" height="146" stroke="#FC62FF" stroke-width="2"/>
<rect x="1" y="222" width="75" height="75" stroke="#FC62FF" stroke-width="2"/>
<rect x="740" y="222" width="75" height="75" stroke="#FC62FF" stroke-width="2"/>
<rect x="740" y="1" width="75" height="75" stroke="#FC62FF" stroke-width="2"/>
<rect x="1" y="1" width="75" height="75" stroke="#FC62FF" stroke-width="2"/>
<rect x="76" y="1" width="664" height="75" stroke="#FC62FF" stroke-width="2"/>
<rect x="76" y="222" width="664" height="75" stroke="#FC62FF" stroke-width="2"/>
</svg>
