<svg width="367" height="72" viewBox="0 0 367 72" fill="none" xmlns="http://www.w3.org/2000/svg">
<path d="M42.6016 71.3797V0H88.4885V13.2562H57.8972V29.1637H88.4885V42.4199H57.8972V71.3797H42.6016Z" fill="#111112"/>
<path d="M92.0469 0H107.343V58.1234H142.013V71.3797H92.0469V0Z" fill="#111112"/>
<path d="M200.76 71.3797L194.846 50.6796H165.784L159.87 71.3797H145.594L166.09 0H180.366L169.659 37.4233H191.073L180.366 0H195.662L216.056 71.3797H200.76Z" fill="#111112"/>
<path d="M308.846 71.3797L302.932 50.6796H273.87L267.956 71.3797H253.68L274.176 0H288.452L277.745 37.4233H299.159L288.452 0H303.747L324.142 71.3797H308.846Z" fill="#111112"/>
<path d="M235.417 71.3797L255.709 0H269.985L249.693 71.3797H235.417ZM214.921 0L235.417 71.3797H220.121L199.625 0H214.921Z" fill="#111112"/>
<rect x="29.2031" width="10.707" height="71.3797" fill="#111112"/>
<rect x="17.9844" width="8.15768" height="71.3797" fill="#111112"/>
<rect x="8.29688" width="5.09855" height="71.3797" fill="#111112"/>
<rect x="0.140625" width="2.54927" height="71.3797" fill="#111112"/>
<rect width="10.707" height="71.3797" transform="matrix(-1 0 0 1 337.844 0)" fill="#111112"/>
<rect width="8.15768" height="71.3797" transform="matrix(-1 0 0 1 349.062 0)" fill="#111112"/>
<rect width="5.09855" height="71.3797" transform="matrix(-1 0 0 1 358.75 0)" fill="#111112"/>
<rect width="2.54927" height="71.3797" transform="matrix(-1 0 0 1 366.906 0)" fill="#111112"/>
</svg>
