<svg width="551" height="413" viewBox="0 0 551 413" fill="none" xmlns="http://www.w3.org/2000/svg">
<rect x="306.672" y="384.934" width="12.3375" height="24.675" transform="rotate(90 306.672 384.934)" fill="#F2F2F2"/>
<rect x="306.672" y="296.104" width="12.3375" height="24.675" transform="rotate(90 306.672 296.104)" fill="#F2F2F2"/>
<rect x="306.672" y="207.271" width="12.3375" height="24.675" transform="rotate(90 306.672 207.271)" fill="#FC62FF"/>
<rect x="306.672" y="118.439" width="12.3375" height="24.675" transform="rotate(90 306.672 118.439)" fill="#F2F2F2"/>
<rect x="469.531" y="384.934" width="12.3375" height="24.675" transform="rotate(90 469.531 384.934)" fill="#F2F2F2"/>
<rect x="469.531" y="296.104" width="12.3375" height="24.675" transform="rotate(90 469.531 296.104)" fill="#FC62FF"/>
<rect x="469.531" y="207.271" width="12.3375" height="24.675" transform="rotate(90 469.531 207.271)" fill="#F2F2F2"/>
<rect x="469.531" y="118.439" width="12.3375" height="24.675" transform="rotate(90 469.531 118.439)" fill="#F2F2F2"/>
<rect x="306.672" y="399.736" width="12.3375" height="24.675" transform="rotate(90 306.672 399.736)" fill="#F2F2F2"/>
<rect x="306.672" y="310.906" width="12.3375" height="24.675" transform="rotate(90 306.672 310.906)" fill="#F2F2F2"/>
<rect x="306.672" y="222.076" width="12.3375" height="24.675" transform="rotate(90 306.672 222.076)" fill="#FC62FF"/>
<rect x="306.672" y="133.246" width="12.3375" height="24.675" transform="rotate(90 306.672 133.246)" fill="#F2F2F2"/>
<rect x="469.531" y="399.736" width="12.3375" height="24.675" transform="rotate(90 469.531 399.736)" fill="#F2F2F2"/>
<rect x="469.531" y="310.906" width="12.3375" height="24.675" transform="rotate(90 469.531 310.906)" fill="#FC62FF"/>
<rect x="469.531" y="222.076" width="12.3375" height="24.675" transform="rotate(90 469.531 222.076)" fill="#F2F2F2"/>
<rect x="469.531" y="133.246" width="12.3375" height="24.675" transform="rotate(90 469.531 133.246)" fill="#F2F2F2"/>
<rect x="306.672" y="370.127" width="12.3375" height="24.675" transform="rotate(90 306.672 370.127)" fill="#F2F2F2"/>
<rect x="306.672" y="281.295" width="12.3375" height="24.675" transform="rotate(90 306.672 281.295)" fill="#F2F2F2"/>
<rect x="306.672" y="192.465" width="12.3375" height="24.675" transform="rotate(90 306.672 192.465)" fill="#BF4CC7"/>
<rect x="306.672" y="103.635" width="12.3375" height="24.675" transform="rotate(90 306.672 103.635)" fill="#F2F2F2"/>
<rect x="469.531" y="370.127" width="12.3375" height="24.675" transform="rotate(90 469.531 370.127)" fill="#F2F2F2"/>
<rect x="469.531" y="281.295" width="12.3375" height="24.675" transform="rotate(90 469.531 281.295)" fill="#BF4CC7"/>
<rect x="469.531" y="192.465" width="12.3375" height="24.675" transform="rotate(90 469.531 192.465)" fill="#F2F2F2"/>
<rect x="469.531" y="103.635" width="12.3375" height="24.675" transform="rotate(90 469.531 103.635)" fill="#F2F2F2"/>
<rect x="306.672" y="355.322" width="12.3375" height="24.675" transform="rotate(90 306.672 355.322)" fill="#F2F2F2"/>
<rect x="306.672" y="266.492" width="12.3375" height="24.675" transform="rotate(90 306.672 266.492)" fill="#442156"/>
<rect x="306.672" y="177.66" width="12.3375" height="24.675" transform="rotate(90 306.672 177.66)" fill="#81378E"/>
<rect x="306.672" y="88.8281" width="12.3375" height="24.675" transform="rotate(90 306.672 88.8281)" fill="#F2F2F2"/>
<rect x="306.672" y="44.4141" width="12.3375" height="24.675" transform="rotate(90 306.672 44.4141)" fill="#F2F2F2"/>
<rect x="469.531" y="355.322" width="12.3375" height="24.675" transform="rotate(90 469.531 355.322)" fill="#442156"/>
<rect x="469.531" y="266.492" width="12.3375" height="24.675" transform="rotate(90 469.531 266.492)" fill="#81378E"/>
<rect x="469.531" y="177.66" width="12.3375" height="24.675" transform="rotate(90 469.531 177.66)" fill="#F2F2F2"/>
<rect x="469.531" y="88.8281" width="12.3375" height="24.675" transform="rotate(90 469.531 88.8281)" fill="#F2F2F2"/>
<rect x="469.531" y="44.4141" width="12.3375" height="24.675" transform="rotate(90 469.531 44.4141)" fill="#F2F2F2"/>
<rect x="306.672" y="340.518" width="12.3375" height="24.675" transform="rotate(90 306.672 340.518)" fill="#F2F2F2"/>
<rect x="306.672" y="251.688" width="12.3375" height="24.675" transform="rotate(90 306.672 251.688)" fill="#81378E"/>
<rect x="306.672" y="162.855" width="12.3375" height="24.675" transform="rotate(90 306.672 162.855)" fill="#442156"/>
<rect x="306.672" y="74.0254" width="12.3375" height="24.675" transform="rotate(90 306.672 74.0254)" fill="#F2F2F2"/>
<rect x="306.672" y="29.6094" width="12.3375" height="24.675" transform="rotate(90 306.672 29.6094)" fill="#F2F2F2"/>
<rect x="469.531" y="340.518" width="12.3375" height="24.675" transform="rotate(90 469.531 340.518)" fill="#81378E"/>
<rect x="469.531" y="251.688" width="12.3375" height="24.675" transform="rotate(90 469.531 251.688)" fill="#442156"/>
<rect x="469.531" y="162.855" width="12.3375" height="24.675" transform="rotate(90 469.531 162.855)" fill="#F2F2F2"/>
<rect x="469.531" y="74.0254" width="12.3375" height="24.675" transform="rotate(90 469.531 74.0254)" fill="#F2F2F2"/>
<rect x="469.531" y="29.6094" width="12.3375" height="24.675" transform="rotate(90 469.531 29.6094)" fill="#F2F2F2"/>
<rect x="306.672" y="325.713" width="12.3375" height="24.675" transform="rotate(90 306.672 325.713)" fill="#F2F2F2"/>
<rect x="306.672" y="236.881" width="12.3375" height="24.675" transform="rotate(90 306.672 236.881)" fill="#BF4CC7"/>
<rect x="306.672" y="148.049" width="12.3375" height="24.675" transform="rotate(90 306.672 148.049)" fill="#F2F2F2"/>
<rect x="306.672" y="59.2188" width="12.3375" height="24.675" transform="rotate(90 306.672 59.2188)" fill="#F2F2F2"/>
<rect x="306.672" y="14.8047" width="12.3375" height="24.675" transform="rotate(90 306.672 14.8047)" fill="#F2F2F2"/>
<rect x="306.672" width="12.3375" height="24.675" transform="rotate(90 306.672 0)" fill="#F2F2F2"/>
<rect x="469.531" y="325.713" width="12.3375" height="24.675" transform="rotate(90 469.531 325.713)" fill="#BF4CC7"/>
<rect x="469.531" y="236.881" width="12.3375" height="24.675" transform="rotate(90 469.531 236.881)" fill="#F2F2F2"/>
<rect x="469.531" y="148.049" width="12.3375" height="24.675" transform="rotate(90 469.531 148.049)" fill="#F2F2F2"/>
<rect x="469.531" y="59.2188" width="12.3375" height="24.675" transform="rotate(90 469.531 59.2188)" fill="#F2F2F2"/>
<rect x="469.531" y="14.8047" width="12.3375" height="24.675" transform="rotate(90 469.531 14.8047)" fill="#F2F2F2"/>
<rect x="469.531" width="12.3375" height="24.675" transform="rotate(90 469.531 0)" fill="#F2F2F2"/>
<rect x="360.953" y="399.736" width="12.3375" height="24.675" transform="rotate(90 360.953 399.736)" fill="#F2F2F2"/>
<rect x="360.953" y="310.906" width="12.3375" height="24.675" transform="rotate(90 360.953 310.906)" fill="#F2F2F2"/>
<rect x="360.953" y="222.076" width="12.3375" height="24.675" transform="rotate(90 360.953 222.076)" fill="#BF4CC7"/>
<rect x="360.953" y="133.246" width="12.3375" height="24.675" transform="rotate(90 360.953 133.246)" fill="#F2F2F2"/>
<rect x="523.82" y="399.736" width="12.3375" height="24.675" transform="rotate(90 523.82 399.736)" fill="#F2F2F2"/>
<rect x="523.82" y="310.906" width="12.3375" height="24.675" transform="rotate(90 523.82 310.906)" fill="#BF4CC7"/>
<rect x="523.82" y="222.076" width="12.3375" height="24.675" transform="rotate(90 523.82 222.076)" fill="#F2F2F2"/>
<rect x="523.82" y="133.246" width="12.3375" height="24.675" transform="rotate(90 523.82 133.246)" fill="#F2F2F2"/>
<rect x="360.953" y="384.934" width="12.3375" height="24.675" transform="rotate(90 360.953 384.934)" fill="#F2F2F2"/>
<rect x="360.953" y="296.104" width="12.3375" height="24.675" transform="rotate(90 360.953 296.104)" fill="#442156"/>
<rect x="360.953" y="207.271" width="12.3375" height="24.675" transform="rotate(90 360.953 207.271)" fill="#81378E"/>
<rect x="360.953" y="118.439" width="12.3375" height="24.675" transform="rotate(90 360.953 118.439)" fill="#F2F2F2"/>
<rect x="523.82" y="384.934" width="12.3375" height="24.675" transform="rotate(90 523.82 384.934)" fill="#442156"/>
<rect x="523.82" y="296.104" width="12.3375" height="24.675" transform="rotate(90 523.82 296.104)" fill="#81378E"/>
<rect x="523.82" y="207.271" width="12.3375" height="24.675" transform="rotate(90 523.82 207.271)" fill="#F2F2F2"/>
<rect x="523.82" y="118.439" width="12.3375" height="24.675" transform="rotate(90 523.82 118.439)" fill="#F2F2F2"/>
<rect x="360.953" y="370.127" width="12.3375" height="24.675" transform="rotate(90 360.953 370.127)" fill="#F2F2F2"/>
<rect x="360.953" y="281.295" width="12.3375" height="24.675" transform="rotate(90 360.953 281.295)" fill="#81378E"/>
<rect x="360.953" y="192.465" width="12.3375" height="24.675" transform="rotate(90 360.953 192.465)" fill="#442156"/>
<rect x="360.953" y="103.635" width="12.3375" height="24.675" transform="rotate(90 360.953 103.635)" fill="#F2F2F2"/>
<rect x="523.82" y="370.127" width="12.3375" height="24.675" transform="rotate(90 523.82 370.127)" fill="#81378E"/>
<rect x="523.82" y="281.295" width="12.3375" height="24.675" transform="rotate(90 523.82 281.295)" fill="#442156"/>
<rect x="523.82" y="192.465" width="12.3375" height="24.675" transform="rotate(90 523.82 192.465)" fill="#F2F2F2"/>
<rect x="523.82" y="103.635" width="12.3375" height="24.675" transform="rotate(90 523.82 103.635)" fill="#F2F2F2"/>
<rect x="360.953" y="355.322" width="12.3375" height="24.675" transform="rotate(90 360.953 355.322)" fill="#F2F2F2"/>
<rect x="360.953" y="266.492" width="12.3375" height="24.675" transform="rotate(90 360.953 266.492)" fill="#BF4CC7"/>
<rect x="360.953" y="177.66" width="12.3375" height="24.675" transform="rotate(90 360.953 177.66)" fill="#F2F2F2"/>
<rect x="360.953" y="88.8281" width="12.3375" height="24.675" transform="rotate(90 360.953 88.8281)" fill="#F2F2F2"/>
<rect x="360.953" y="44.4141" width="12.3375" height="24.675" transform="rotate(90 360.953 44.4141)" fill="#F2F2F2"/>
<rect x="523.82" y="355.322" width="12.3375" height="24.675" transform="rotate(90 523.82 355.322)" fill="#BF4CC7"/>
<rect x="523.82" y="266.492" width="12.3375" height="24.675" transform="rotate(90 523.82 266.492)" fill="#F2F2F2"/>
<rect x="523.82" y="177.66" width="12.3375" height="24.675" transform="rotate(90 523.82 177.66)" fill="#F2F2F2"/>
<rect x="523.82" y="88.8281" width="12.3375" height="24.675" transform="rotate(90 523.82 88.8281)" fill="#F2F2F2"/>
<rect x="523.82" y="44.4141" width="12.3375" height="24.675" transform="rotate(90 523.82 44.4141)" fill="#F2F2F2"/>
<rect x="360.953" y="340.518" width="12.3375" height="24.675" transform="rotate(90 360.953 340.518)" fill="#F2F2F2"/>
<rect x="360.953" y="251.688" width="12.3375" height="24.675" transform="rotate(90 360.953 251.688)" fill="#FC62FF"/>
<rect x="360.953" y="162.855" width="12.3375" height="24.675" transform="rotate(90 360.953 162.855)" fill="#F2F2F2"/>
<rect x="360.953" y="74.0254" width="12.3375" height="24.675" transform="rotate(90 360.953 74.0254)" fill="#F2F2F2"/>
<rect x="360.953" y="29.6094" width="12.3375" height="24.675" transform="rotate(90 360.953 29.6094)" fill="#F2F2F2"/>
<rect x="523.82" y="340.518" width="12.3375" height="24.675" transform="rotate(90 523.82 340.518)" fill="#FC62FF"/>
<rect x="523.82" y="251.688" width="12.3375" height="24.675" transform="rotate(90 523.82 251.688)" fill="#F2F2F2"/>
<rect x="523.82" y="162.855" width="12.3375" height="24.675" transform="rotate(90 523.82 162.855)" fill="#F2F2F2"/>
<rect x="523.82" y="74.0254" width="12.3375" height="24.675" transform="rotate(90 523.82 74.0254)" fill="#F2F2F2"/>
<rect x="523.82" y="29.6094" width="12.3375" height="24.675" transform="rotate(90 523.82 29.6094)" fill="#F2F2F2"/>
<rect x="360.953" y="325.713" width="12.3375" height="24.675" transform="rotate(90 360.953 325.713)" fill="#F2F2F2"/>
<rect x="360.953" y="236.881" width="12.3375" height="24.675" transform="rotate(90 360.953 236.881)" fill="#FC62FF"/>
<rect x="360.953" y="148.049" width="12.3375" height="24.675" transform="rotate(90 360.953 148.049)" fill="#F2F2F2"/>
<rect x="360.953" y="59.2188" width="12.3375" height="24.675" transform="rotate(90 360.953 59.2188)" fill="#F2F2F2"/>
<rect x="360.953" y="14.8047" width="12.3375" height="24.675" transform="rotate(90 360.953 14.8047)" fill="#F2F2F2"/>
<rect x="360.953" width="12.3375" height="24.675" transform="rotate(90 360.953 0)" fill="#F2F2F2"/>
<rect x="523.82" y="325.713" width="12.3375" height="24.675" transform="rotate(90 523.82 325.713)" fill="#FC62FF"/>
<rect x="523.82" y="236.881" width="12.3375" height="24.675" transform="rotate(90 523.82 236.881)" fill="#F2F2F2"/>
<rect x="523.82" y="148.049" width="12.3375" height="24.675" transform="rotate(90 523.82 148.049)" fill="#F2F2F2"/>
<rect x="523.82" y="59.2188" width="12.3375" height="24.675" transform="rotate(90 523.82 59.2188)" fill="#F2F2F2"/>
<rect x="523.82" y="14.8047" width="12.3375" height="24.675" transform="rotate(90 523.82 14.8047)" fill="#F2F2F2"/>
<rect x="523.82" width="12.3375" height="24.675" transform="rotate(90 523.82 0)" fill="#F2F2F2"/>
<rect x="333.812" y="399.736" width="12.3375" height="24.675" transform="rotate(90 333.812 399.736)" fill="#F2F2F2"/>
<rect x="333.812" y="310.906" width="12.3375" height="24.675" transform="rotate(90 333.812 310.906)" fill="#F2F2F2"/>
<rect x="333.812" y="222.076" width="12.3375" height="24.675" transform="rotate(90 333.812 222.076)" fill="#FC62FF"/>
<rect x="333.812" y="133.246" width="12.3375" height="24.675" transform="rotate(90 333.812 133.246)" fill="#F2F2F2"/>
<rect x="496.68" y="399.736" width="12.3375" height="24.675" transform="rotate(90 496.68 399.736)" fill="#F2F2F2"/>
<rect x="496.68" y="310.906" width="12.3375" height="24.675" transform="rotate(90 496.68 310.906)" fill="#FC62FF"/>
<rect x="496.68" y="222.076" width="12.3375" height="24.675" transform="rotate(90 496.68 222.076)" fill="#F2F2F2"/>
<rect x="496.68" y="133.246" width="12.3375" height="24.675" transform="rotate(90 496.68 133.246)" fill="#F2F2F2"/>
<rect x="333.812" y="384.934" width="12.3375" height="24.675" transform="rotate(90 333.812 384.934)" fill="#F2F2F2"/>
<rect x="333.812" y="296.104" width="12.3375" height="24.675" transform="rotate(90 333.812 296.104)" fill="#F2F2F2"/>
<rect x="333.812" y="207.271" width="12.3375" height="24.675" transform="rotate(90 333.812 207.271)" fill="#BF4CC7"/>
<rect x="333.812" y="118.439" width="12.3375" height="24.675" transform="rotate(90 333.812 118.439)" fill="#F2F2F2"/>
<rect x="496.68" y="384.934" width="12.3375" height="24.675" transform="rotate(90 496.68 384.934)" fill="#F2F2F2"/>
<rect x="496.68" y="296.104" width="12.3375" height="24.675" transform="rotate(90 496.68 296.104)" fill="#BF4CC7"/>
<rect x="496.68" y="207.271" width="12.3375" height="24.675" transform="rotate(90 496.68 207.271)" fill="#F2F2F2"/>
<rect x="496.68" y="118.439" width="12.3375" height="24.675" transform="rotate(90 496.68 118.439)" fill="#F2F2F2"/>
<rect x="333.812" y="370.127" width="12.3375" height="24.675" transform="rotate(90 333.812 370.127)" fill="#F2F2F2"/>
<rect x="333.812" y="281.295" width="12.3375" height="24.675" transform="rotate(90 333.812 281.295)" fill="#442156"/>
<rect x="333.812" y="192.465" width="12.3375" height="24.675" transform="rotate(90 333.812 192.465)" fill="#81378E"/>
<rect x="333.812" y="103.635" width="12.3375" height="24.675" transform="rotate(90 333.812 103.635)" fill="#F2F2F2"/>
<rect x="496.68" y="370.127" width="12.3375" height="24.675" transform="rotate(90 496.68 370.127)" fill="#442156"/>
<rect x="496.68" y="281.295" width="12.3375" height="24.675" transform="rotate(90 496.68 281.295)" fill="#81378E"/>
<rect x="496.68" y="192.465" width="12.3375" height="24.675" transform="rotate(90 496.68 192.465)" fill="#F2F2F2"/>
<rect x="496.68" y="103.635" width="12.3375" height="24.675" transform="rotate(90 496.68 103.635)" fill="#F2F2F2"/>
<rect x="333.812" y="355.322" width="12.3375" height="24.675" transform="rotate(90 333.812 355.322)" fill="#F2F2F2"/>
<rect x="333.812" y="266.492" width="12.3375" height="24.675" transform="rotate(90 333.812 266.492)" fill="#81378E"/>
<rect x="333.812" y="177.66" width="12.3375" height="24.675" transform="rotate(90 333.812 177.66)" fill="#442156"/>
<rect x="333.812" y="88.8281" width="12.3375" height="24.675" transform="rotate(90 333.812 88.8281)" fill="#F2F2F2"/>
<rect x="333.812" y="44.4141" width="12.3375" height="24.675" transform="rotate(90 333.812 44.4141)" fill="#F2F2F2"/>
<rect x="496.68" y="355.322" width="12.3375" height="24.675" transform="rotate(90 496.68 355.322)" fill="#81378E"/>
<rect x="496.68" y="266.492" width="12.3375" height="24.675" transform="rotate(90 496.68 266.492)" fill="#442156"/>
<rect x="496.68" y="177.66" width="12.3375" height="24.675" transform="rotate(90 496.68 177.66)" fill="#F2F2F2"/>
<rect x="496.68" y="88.8281" width="12.3375" height="24.675" transform="rotate(90 496.68 88.8281)" fill="#F2F2F2"/>
<rect x="496.68" y="44.4141" width="12.3375" height="24.675" transform="rotate(90 496.68 44.4141)" fill="#F2F2F2"/>
<rect x="333.812" y="340.518" width="12.3375" height="24.675" transform="rotate(90 333.812 340.518)" fill="#F2F2F2"/>
<rect x="333.812" y="251.688" width="12.3375" height="24.675" transform="rotate(90 333.812 251.688)" fill="#BF4CC7"/>
<rect x="333.812" y="162.855" width="12.3375" height="24.675" transform="rotate(90 333.812 162.855)" fill="#F2F2F2"/>
<rect x="333.812" y="74.0254" width="12.3375" height="24.675" transform="rotate(90 333.812 74.0254)" fill="#F2F2F2"/>
<rect x="333.812" y="29.6094" width="12.3375" height="24.675" transform="rotate(90 333.812 29.6094)" fill="#F2F2F2"/>
<rect x="496.68" y="340.518" width="12.3375" height="24.675" transform="rotate(90 496.68 340.518)" fill="#BF4CC7"/>
<rect x="496.68" y="251.688" width="12.3375" height="24.675" transform="rotate(90 496.68 251.688)" fill="#F2F2F2"/>
<rect x="496.68" y="162.855" width="12.3375" height="24.675" transform="rotate(90 496.68 162.855)" fill="#F2F2F2"/>
<rect x="496.68" y="74.0254" width="12.3375" height="24.675" transform="rotate(90 496.68 74.0254)" fill="#F2F2F2"/>
<rect x="496.68" y="29.6094" width="12.3375" height="24.675" transform="rotate(90 496.68 29.6094)" fill="#F2F2F2"/>
<rect x="333.812" y="325.713" width="12.3375" height="24.675" transform="rotate(90 333.812 325.713)" fill="#F2F2F2"/>
<rect x="333.812" y="236.881" width="12.3375" height="24.675" transform="rotate(90 333.812 236.881)" fill="#FC62FF"/>
<rect x="333.812" y="148.049" width="12.3375" height="24.675" transform="rotate(90 333.812 148.049)" fill="#F2F2F2"/>
<rect x="333.812" y="59.2188" width="12.3375" height="24.675" transform="rotate(90 333.812 59.2188)" fill="#F2F2F2"/>
<rect x="333.812" y="14.8047" width="12.3375" height="24.675" transform="rotate(90 333.812 14.8047)" fill="#F2F2F2"/>
<rect x="333.812" width="12.3375" height="24.675" transform="rotate(90 333.812 0)" fill="#F2F2F2"/>
<rect x="496.68" y="325.713" width="12.3375" height="24.675" transform="rotate(90 496.68 325.713)" fill="#FC62FF"/>
<rect x="496.68" y="236.881" width="12.3375" height="24.675" transform="rotate(90 496.68 236.881)" fill="#F2F2F2"/>
<rect x="496.68" y="148.049" width="12.3375" height="24.675" transform="rotate(90 496.68 148.049)" fill="#F2F2F2"/>
<rect x="496.68" y="59.2188" width="12.3375" height="24.675" transform="rotate(90 496.68 59.2188)" fill="#F2F2F2"/>
<rect x="496.68" y="14.8047" width="12.3375" height="24.675" transform="rotate(90 496.68 14.8047)" fill="#F2F2F2"/>
<rect x="496.68" width="12.3375" height="24.675" transform="rotate(90 496.68 0)" fill="#F2F2F2"/>
<rect x="388.102" y="399.736" width="12.3375" height="24.675" transform="rotate(90 388.102 399.736)" fill="#F2F2F2"/>
<rect x="388.102" y="310.906" width="12.3375" height="24.675" transform="rotate(90 388.102 310.906)" fill="#442156"/>
<rect x="388.102" y="222.076" width="12.3375" height="24.675" transform="rotate(90 388.102 222.076)" fill="#81378E"/>
<rect x="388.102" y="133.246" width="12.3375" height="24.675" transform="rotate(90 388.102 133.246)" fill="#F2F2F2"/>
<rect x="550.961" y="399.736" width="12.3375" height="24.675" transform="rotate(90 550.961 399.736)" fill="#442156"/>
<rect x="550.961" y="310.906" width="12.3375" height="24.675" transform="rotate(90 550.961 310.906)" fill="#81378E"/>
<rect x="550.961" y="222.076" width="12.3375" height="24.675" transform="rotate(90 550.961 222.076)" fill="#F2F2F2"/>
<rect x="550.961" y="133.246" width="12.3375" height="24.675" transform="rotate(90 550.961 133.246)" fill="#F2F2F2"/>
<rect x="388.102" y="384.934" width="12.3375" height="24.675" transform="rotate(90 388.102 384.934)" fill="#F2F2F2"/>
<rect x="388.102" y="296.104" width="12.3375" height="24.675" transform="rotate(90 388.102 296.104)" fill="#81378E"/>
<rect x="388.102" y="207.271" width="12.3375" height="24.675" transform="rotate(90 388.102 207.271)" fill="#442156"/>
<rect x="388.102" y="118.439" width="12.3375" height="24.675" transform="rotate(90 388.102 118.439)" fill="#F2F2F2"/>
<rect x="550.961" y="384.934" width="12.3375" height="24.675" transform="rotate(90 550.961 384.934)" fill="#81378E"/>
<rect x="550.961" y="296.104" width="12.3375" height="24.675" transform="rotate(90 550.961 296.104)" fill="#442156"/>
<rect x="550.961" y="207.271" width="12.3375" height="24.675" transform="rotate(90 550.961 207.271)" fill="#F2F2F2"/>
<rect x="550.961" y="118.439" width="12.3375" height="24.675" transform="rotate(90 550.961 118.439)" fill="#F2F2F2"/>
<rect x="388.102" y="370.127" width="12.3375" height="24.675" transform="rotate(90 388.102 370.127)" fill="#F2F2F2"/>
<rect x="388.102" y="281.295" width="12.3375" height="24.675" transform="rotate(90 388.102 281.295)" fill="#BF4CC7"/>
<rect x="388.102" y="192.465" width="12.3375" height="24.675" transform="rotate(90 388.102 192.465)" fill="#F2F2F2"/>
<rect x="388.102" y="103.635" width="12.3375" height="24.675" transform="rotate(90 388.102 103.635)" fill="#F2F2F2"/>
<rect x="550.961" y="370.127" width="12.3375" height="24.675" transform="rotate(90 550.961 370.127)" fill="#BF4CC7"/>
<rect x="550.961" y="281.295" width="12.3375" height="24.675" transform="rotate(90 550.961 281.295)" fill="#F2F2F2"/>
<rect x="550.961" y="192.465" width="12.3375" height="24.675" transform="rotate(90 550.961 192.465)" fill="#F2F2F2"/>
<rect x="550.961" y="103.635" width="12.3375" height="24.675" transform="rotate(90 550.961 103.635)" fill="#F2F2F2"/>
<rect x="388.102" y="355.322" width="12.3375" height="24.675" transform="rotate(90 388.102 355.322)" fill="#F2F2F2"/>
<rect x="388.102" y="266.492" width="12.3375" height="24.675" transform="rotate(90 388.102 266.492)" fill="#FC62FF"/>
<rect x="388.102" y="177.66" width="12.3375" height="24.675" transform="rotate(90 388.102 177.66)" fill="#F2F2F2"/>
<rect x="388.102" y="88.8281" width="12.3375" height="24.675" transform="rotate(90 388.102 88.8281)" fill="#F2F2F2"/>
<rect x="388.102" y="44.4141" width="12.3375" height="24.675" transform="rotate(90 388.102 44.4141)" fill="#F2F2F2"/>
<rect x="550.961" y="355.322" width="12.3375" height="24.675" transform="rotate(90 550.961 355.322)" fill="#FC62FF"/>
<rect x="550.961" y="266.492" width="12.3375" height="24.675" transform="rotate(90 550.961 266.492)" fill="#F2F2F2"/>
<rect x="550.961" y="177.66" width="12.3375" height="24.675" transform="rotate(90 550.961 177.66)" fill="#F2F2F2"/>
<rect x="550.961" y="88.8281" width="12.3375" height="24.675" transform="rotate(90 550.961 88.8281)" fill="#F2F2F2"/>
<rect x="550.961" y="44.4141" width="12.3375" height="24.675" transform="rotate(90 550.961 44.4141)" fill="#F2F2F2"/>
<rect x="388.102" y="340.518" width="12.3375" height="24.675" transform="rotate(90 388.102 340.518)" fill="#F2F2F2"/>
<rect x="388.102" y="251.688" width="12.3375" height="24.675" transform="rotate(90 388.102 251.688)" fill="#FC62FF"/>
<rect x="388.102" y="162.855" width="12.3375" height="24.675" transform="rotate(90 388.102 162.855)" fill="#F2F2F2"/>
<rect x="388.102" y="74.0254" width="12.3375" height="24.675" transform="rotate(90 388.102 74.0254)" fill="#F2F2F2"/>
<rect x="388.102" y="29.6094" width="12.3375" height="24.675" transform="rotate(90 388.102 29.6094)" fill="#F2F2F2"/>
<rect x="550.961" y="340.518" width="12.3375" height="24.675" transform="rotate(90 550.961 340.518)" fill="#FC62FF"/>
<rect x="550.961" y="251.688" width="12.3375" height="24.675" transform="rotate(90 550.961 251.688)" fill="#F2F2F2"/>
<rect x="550.961" y="162.855" width="12.3375" height="24.675" transform="rotate(90 550.961 162.855)" fill="#F2F2F2"/>
<rect x="550.961" y="74.0254" width="12.3375" height="24.675" transform="rotate(90 550.961 74.0254)" fill="#F2F2F2"/>
<rect x="550.961" y="29.6094" width="12.3375" height="24.675" transform="rotate(90 550.961 29.6094)" fill="#F2F2F2"/>
<rect x="388.102" y="325.713" width="12.3375" height="24.675" transform="rotate(90 388.102 325.713)" fill="#F2F2F2"/>
<rect x="388.102" y="236.881" width="12.3375" height="24.675" transform="rotate(90 388.102 236.881)" fill="#BF4CC7"/>
<rect x="388.102" y="148.049" width="12.3375" height="24.675" transform="rotate(90 388.102 148.049)" fill="#F2F2F2"/>
<rect x="388.102" y="59.2188" width="12.3375" height="24.675" transform="rotate(90 388.102 59.2188)" fill="#F2F2F2"/>
<rect x="388.102" y="14.8047" width="12.3375" height="24.675" transform="rotate(90 388.102 14.8047)" fill="#F2F2F2"/>
<rect x="388.102" width="12.3375" height="24.675" transform="rotate(90 388.102 0)" fill="#F2F2F2"/>
<rect x="550.961" y="325.713" width="12.3375" height="24.675" transform="rotate(90 550.961 325.713)" fill="#BF4CC7"/>
<rect x="550.961" y="236.881" width="12.3375" height="24.675" transform="rotate(90 550.961 236.881)" fill="#F2F2F2"/>
<rect x="550.961" y="148.049" width="12.3375" height="24.675" transform="rotate(90 550.961 148.049)" fill="#F2F2F2"/>
<rect x="550.961" y="59.2188" width="12.3375" height="24.675" transform="rotate(90 550.961 59.2188)" fill="#F2F2F2"/>
<rect x="550.961" y="14.8047" width="12.3375" height="24.675" transform="rotate(90 550.961 14.8047)" fill="#F2F2F2"/>
<rect x="550.961" width="12.3375" height="24.675" transform="rotate(90 550.961 0)" fill="#F2F2F2"/>
<rect x="442.383" y="399.736" width="12.3375" height="24.675" transform="rotate(90 442.383 399.736)" fill="#F2F2F2"/>
<rect x="442.383" y="310.906" width="12.3375" height="24.675" transform="rotate(90 442.383 310.906)" fill="#BF4CC7"/>
<rect x="442.383" y="222.076" width="12.3375" height="24.675" transform="rotate(90 442.383 222.076)" fill="#F2F2F2"/>
<rect x="442.383" y="133.246" width="12.3375" height="24.675" transform="rotate(90 442.383 133.246)" fill="#F2F2F2"/>
<rect x="442.383" y="384.934" width="12.3375" height="24.675" transform="rotate(90 442.383 384.934)" fill="#F2F2F2"/>
<rect x="442.383" y="296.104" width="12.3375" height="24.675" transform="rotate(90 442.383 296.104)" fill="#FC62FF"/>
<rect x="442.383" y="207.271" width="12.3375" height="24.675" transform="rotate(90 442.383 207.271)" fill="#F2F2F2"/>
<rect x="442.383" y="118.439" width="12.3375" height="24.675" transform="rotate(90 442.383 118.439)" fill="#F2F2F2"/>
<rect x="442.383" y="370.127" width="12.3375" height="24.675" transform="rotate(90 442.383 370.127)" fill="#F2F2F2"/>
<rect x="442.383" y="281.295" width="12.3375" height="24.675" transform="rotate(90 442.383 281.295)" fill="#FC62FF"/>
<rect x="442.383" y="192.465" width="12.3375" height="24.675" transform="rotate(90 442.383 192.465)" fill="#F2F2F2"/>
<rect x="442.383" y="103.635" width="12.3375" height="24.675" transform="rotate(90 442.383 103.635)" fill="#F2F2F2"/>
<rect x="442.383" y="355.322" width="12.3375" height="24.675" transform="rotate(90 442.383 355.322)" fill="#F2F2F2"/>
<rect x="442.383" y="266.492" width="12.3375" height="24.675" transform="rotate(90 442.383 266.492)" fill="#BF4CC7"/>
<rect x="442.383" y="177.66" width="12.3375" height="24.675" transform="rotate(90 442.383 177.66)" fill="#F2F2F2"/>
<rect x="442.383" y="88.8281" width="12.3375" height="24.675" transform="rotate(90 442.383 88.8281)" fill="#F2F2F2"/>
<rect x="442.383" y="44.4141" width="12.3375" height="24.675" transform="rotate(90 442.383 44.4141)" fill="#F2F2F2"/>
<rect x="442.383" y="340.518" width="12.3375" height="24.675" transform="rotate(90 442.383 340.518)" fill="#442156"/>
<rect x="442.383" y="251.688" width="12.3375" height="24.675" transform="rotate(90 442.383 251.688)" fill="#81378E"/>
<rect x="442.383" y="162.855" width="12.3375" height="24.675" transform="rotate(90 442.383 162.855)" fill="#F2F2F2"/>
<rect x="442.383" y="74.0254" width="12.3375" height="24.675" transform="rotate(90 442.383 74.0254)" fill="#F2F2F2"/>
<rect x="442.383" y="29.6094" width="12.3375" height="24.675" transform="rotate(90 442.383 29.6094)" fill="#F2F2F2"/>
<rect x="442.383" y="325.713" width="12.3375" height="24.675" transform="rotate(90 442.383 325.713)" fill="#81378E"/>
<rect x="442.383" y="236.881" width="12.3375" height="24.675" transform="rotate(90 442.383 236.881)" fill="#442156"/>
<rect x="442.383" y="148.049" width="12.3375" height="24.675" transform="rotate(90 442.383 148.049)" fill="#F2F2F2"/>
<rect x="442.383" y="59.2188" width="12.3375" height="24.675" transform="rotate(90 442.383 59.2188)" fill="#F2F2F2"/>
<rect x="442.383" y="14.8047" width="12.3375" height="24.675" transform="rotate(90 442.383 14.8047)" fill="#F2F2F2"/>
<rect x="442.383" width="12.3375" height="24.675" transform="rotate(90 442.383 0)" fill="#F2F2F2"/>
<rect x="415.242" y="399.736" width="12.3375" height="24.675" transform="rotate(90 415.242 399.736)" fill="#F2F2F2"/>
<rect x="415.242" y="310.906" width="12.3375" height="24.675" transform="rotate(90 415.242 310.906)" fill="#81378E"/>
<rect x="415.242" y="222.076" width="12.3375" height="24.675" transform="rotate(90 415.242 222.076)" fill="#442156"/>
<rect x="415.242" y="133.246" width="12.3375" height="24.675" transform="rotate(90 415.242 133.246)" fill="#F2F2F2"/>
<rect x="415.242" y="384.934" width="12.3375" height="24.675" transform="rotate(90 415.242 384.934)" fill="#F2F2F2"/>
<rect x="415.242" y="296.104" width="12.3375" height="24.675" transform="rotate(90 415.242 296.104)" fill="#BF4CC7"/>
<rect x="415.242" y="207.271" width="12.3375" height="24.675" transform="rotate(90 415.242 207.271)" fill="#F2F2F2"/>
<rect x="415.242" y="118.439" width="12.3375" height="24.675" transform="rotate(90 415.242 118.439)" fill="#F2F2F2"/>
<rect x="415.242" y="370.127" width="12.3375" height="24.675" transform="rotate(90 415.242 370.127)" fill="#F2F2F2"/>
<rect x="415.242" y="281.295" width="12.3375" height="24.675" transform="rotate(90 415.242 281.295)" fill="#FC62FF"/>
<rect x="415.242" y="192.465" width="12.3375" height="24.675" transform="rotate(90 415.242 192.465)" fill="#F2F2F2"/>
<rect x="415.242" y="103.635" width="12.3375" height="24.675" transform="rotate(90 415.242 103.635)" fill="#F2F2F2"/>
<rect x="415.242" y="355.322" width="12.3375" height="24.675" transform="rotate(90 415.242 355.322)" fill="#F2F2F2"/>
<rect x="415.242" y="266.492" width="12.3375" height="24.675" transform="rotate(90 415.242 266.492)" fill="#FC62FF"/>
<rect x="415.242" y="177.66" width="12.3375" height="24.675" transform="rotate(90 415.242 177.66)" fill="#F2F2F2"/>
<rect x="415.242" y="88.8281" width="12.3375" height="24.675" transform="rotate(90 415.242 88.8281)" fill="#F2F2F2"/>
<rect x="415.242" y="44.4141" width="12.3375" height="24.675" transform="rotate(90 415.242 44.4141)" fill="#F2F2F2"/>
<rect x="415.242" y="340.518" width="12.3375" height="24.675" transform="rotate(90 415.242 340.518)" fill="#F2F2F2"/>
<rect x="415.242" y="251.688" width="12.3375" height="24.675" transform="rotate(90 415.242 251.688)" fill="#BF4CC7"/>
<rect x="415.242" y="162.855" width="12.3375" height="24.675" transform="rotate(90 415.242 162.855)" fill="#F2F2F2"/>
<rect x="415.242" y="74.0254" width="12.3375" height="24.675" transform="rotate(90 415.242 74.0254)" fill="#F2F2F2"/>
<rect x="415.242" y="29.6094" width="12.3375" height="24.675" transform="rotate(90 415.242 29.6094)" fill="#F2F2F2"/>
<rect x="415.242" y="325.713" width="12.3375" height="24.675" transform="rotate(90 415.242 325.713)" fill="#442156"/>
<rect x="415.242" y="236.881" width="12.3375" height="24.675" transform="rotate(90 415.242 236.881)" fill="#81378E"/>
<rect x="415.242" y="148.049" width="12.3375" height="24.675" transform="rotate(90 415.242 148.049)" fill="#F2F2F2"/>
<rect x="415.242" y="59.2188" width="12.3375" height="24.675" transform="rotate(90 415.242 59.2188)" fill="#F2F2F2"/>
<rect x="415.242" y="14.8047" width="12.3375" height="24.675" transform="rotate(90 415.242 14.8047)" fill="#F2F2F2"/>
<rect x="415.242" width="12.3375" height="24.675" transform="rotate(90 415.242 0)" fill="#F2F2F2"/>
<path fill-rule="evenodd" clip-rule="evenodd" d="M282.012 -4.56945e-05L282.012 410.93L280.938 410.93L280.938 -4.57764e-05L282.012 -4.56945e-05Z" fill="#FC62FF"/>
<path fill-rule="evenodd" clip-rule="evenodd" d="M148.301 -4.56945e-05L148.301 410.93L147.227 410.93L147.227 -4.57764e-05L148.301 -4.56945e-05Z" fill="#FC62FF"/>
<path fill-rule="evenodd" clip-rule="evenodd" d="M14.0272 -4.56945e-05L14.0272 410.93L12.9531 410.93L12.9532 -4.57764e-05L14.0272 -4.56945e-05Z" fill="#FC62FF"/>
<path fill-rule="evenodd" clip-rule="evenodd" d="M134.332 -4.56945e-05L134.332 410.93L133.258 410.93L133.258 -4.57764e-05L134.332 -4.56945e-05Z" fill="#FC62FF"/>
<path fill-rule="evenodd" clip-rule="evenodd" d="M1.13661 -4.56945e-05L1.13657 410.93L0.0625 410.93L0.0625421 -4.57764e-05L1.13661 -4.56945e-05Z" fill="#FC62FF"/>
<path fill-rule="evenodd" clip-rule="evenodd" d="M268.058 -4.56945e-05L268.058 410.93L266.984 410.93L266.984 -4.57764e-05L268.058 -4.56945e-05Z" fill="#FC62FF"/>
<path fill-rule="evenodd" clip-rule="evenodd" d="M282 98.9868L0.0703125 98.9868V100.057L282 100.057V98.9868Z" fill="#FC62FF"/>
<path fill-rule="evenodd" clip-rule="evenodd" d="M282 13.9487L0.0703125 13.9487V15.0189L282 15.0189V13.9487Z" fill="#FC62FF"/>
<path fill-rule="evenodd" clip-rule="evenodd" d="M282 113.375L0 113.375V114.369L282 114.37V113.375Z" fill="#FC62FF"/>
<path fill-rule="evenodd" clip-rule="evenodd" d="M282 410.93L0.0703125 410.93V412L282 412V410.93Z" fill="#FC62FF"/>
<path fill-rule="evenodd" clip-rule="evenodd" d="M282 397.018L0.0703125 397.018V398.088L282 398.088V397.018Z" fill="#FC62FF"/>
<path fill-rule="evenodd" clip-rule="evenodd" d="M282 212.422L0.0703125 212.422V213.491L282 213.491V212.422Z" fill="#FC62FF"/>
<path fill-rule="evenodd" clip-rule="evenodd" d="M282 297.496L0.0703125 297.496V298.566L282 298.566V297.496Z" fill="#FC62FF"/>
<path fill-rule="evenodd" clip-rule="evenodd" d="M282 311.407L0.0703125 311.407V312.477L282 312.477V311.407Z" fill="#FC62FF"/>
<path fill-rule="evenodd" clip-rule="evenodd" d="M282 198.508L0.0703125 198.508V199.578L282 199.578V198.508Z" fill="#FC62FF"/>
<path fill-rule="evenodd" clip-rule="evenodd" d="M282 1.22842e-05L0.0703125 0V1.07013L282 1.07014V1.22842e-05Z" fill="#FC62FF"/>
</svg>
