<svg width="551" height="414" viewBox="0 0 551 414" fill="none" xmlns="http://www.w3.org/2000/svg">
<path fill-rule="evenodd" clip-rule="evenodd" d="M0.210632 398.479L550.133 398.479L550.133 399.553L0.210632 399.553L0.210632 398.479Z" fill="#FC62FF"/>
<path fill-rule="evenodd" clip-rule="evenodd" d="M0.210632 298.59L550.133 298.59L550.133 299.665L0.210632 299.665L0.210632 298.59Z" fill="#FC62FF"/>
<path fill-rule="evenodd" clip-rule="evenodd" d="M0.210632 199.239L550.133 199.239L550.133 200.313L0.210632 200.313L0.210632 199.239Z" fill="#FC62FF"/>
<path fill-rule="evenodd" clip-rule="evenodd" d="M0.210632 99.3512L550.133 99.3512L550.133 100.425L0.210632 100.425L0.210632 99.3512Z" fill="#FC62FF"/>
<path fill-rule="evenodd" clip-rule="evenodd" d="M0.210632 0.000127954L550.133 0.000151992L550.133 1.07422L0.210632 1.07419L0.210632 0.000127954Z" fill="#FC62FF"/>
<path fill-rule="evenodd" clip-rule="evenodd" d="M550.144 -0.000244058L550.144 412.441L549.07 412.441L549.07 -0.000244141L550.144 -0.000244058Z" fill="#FC62FF"/>
<path fill-rule="evenodd" clip-rule="evenodd" d="M414.801 -0.000244058L414.801 412.441L413.727 412.441L413.727 -0.000244141L414.801 -0.000244058Z" fill="#FC62FF"/>
<path fill-rule="evenodd" clip-rule="evenodd" d="M282.152 -0.000244058L282.152 412.441L281.078 412.441L281.078 -0.000244141L282.152 -0.000244058Z" fill="#FC62FF"/>
<path fill-rule="evenodd" clip-rule="evenodd" d="M148.441 -0.000244058L148.441 412.441L147.367 412.441L147.367 -0.000244141L148.441 -0.000244058Z" fill="#FC62FF"/>
<path fill-rule="evenodd" clip-rule="evenodd" d="M14.1679 -0.000244058L14.1678 412.441L13.0938 412.441L13.0938 -0.000244141L14.1679 -0.000244058Z" fill="#FC62FF"/>
<path fill-rule="evenodd" clip-rule="evenodd" d="M0.140686 113.792L549.141 113.792L549.141 114.791L0.140686 114.791L0.140686 113.792Z" fill="#FC62FF"/>
<path fill-rule="evenodd" clip-rule="evenodd" d="M0.210632 213.202L550.133 213.202L550.133 214.276L0.210632 214.276L0.210632 213.202Z" fill="#FC62FF"/>
<path fill-rule="evenodd" clip-rule="evenodd" d="M0.210632 312.553L550.133 312.553L550.133 313.627L0.210632 313.627L0.210632 312.553Z" fill="#FC62FF"/>
<path fill-rule="evenodd" clip-rule="evenodd" d="M0.210632 13.9635L550.133 13.9635L550.133 15.0376L0.210632 15.0376L0.210632 13.9635Z" fill="#FC62FF"/>
<path fill-rule="evenodd" clip-rule="evenodd" d="M0.210632 412.442L550.133 412.442L550.133 413.516L0.210632 413.516L0.210632 412.442Z" fill="#FC62FF"/>
<path fill-rule="evenodd" clip-rule="evenodd" d="M536.168 -0.000244058L536.168 412.441L535.094 412.441L535.094 -0.000244141L536.168 -0.000244058Z" fill="#FC62FF"/>
<path fill-rule="evenodd" clip-rule="evenodd" d="M400.84 -0.000244058L400.84 412.441L399.766 412.441L399.766 -0.000244141L400.84 -0.000244058Z" fill="#FC62FF"/>
<path fill-rule="evenodd" clip-rule="evenodd" d="M134.473 -0.000244058L134.473 412.441L133.398 412.441L133.398 -0.000244141L134.473 -0.000244058Z" fill="#FC62FF"/>
<path fill-rule="evenodd" clip-rule="evenodd" d="M1.27723 -0.000244058L1.27719 412.441L0.203125 412.441L0.203167 -0.000244141L1.27723 -0.000244058Z" fill="#FC62FF"/>
<path fill-rule="evenodd" clip-rule="evenodd" d="M268.199 -0.000244058L268.199 412.441L267.125 412.441L267.125 -0.000244141L268.199 -0.000244058Z" fill="#FC62FF"/>
</svg>
