<svg width="548" height="412" viewBox="0 0 548 412" fill="none" xmlns="http://www.w3.org/2000/svg">
<path d="M2.28125 1.07031H546.84V410.826H2.28125V1.07031Z" fill="#010E15"/>
<path d="M281.516 0.534912H546.841V410.291H281.516V0.534912Z" fill="#C4C4C4"/>
<path d="M27.3601 27.1236L18.9039 14.9358H15.138V39.243H19.1436C19.1436 27.7056 19.1436 23.255 18.9039 21.2009L27.3259 33.5599L35.8163 21.1324C35.5424 23.1523 35.5424 27.5002 35.5424 39.243H39.5479V14.9358H35.782L27.3601 27.1236Z" fill="#F2F2F2"/>
<path d="M52.2622 21.0982C46.9557 21.0982 43.1555 25.1037 43.1555 30.376C43.1555 35.9222 47.1268 39.5854 52.536 39.5854C56.7128 39.5854 59.9994 37.0519 60.958 33.868L57.5002 33.4914C56.747 35.032 55.1037 36.333 52.5703 36.333C49.626 36.333 47.3322 34.4158 47.0926 31.6427H61.3688C61.54 24.8641 57.6714 21.0982 52.2622 21.0982ZM52.2622 24.2821C55.1722 24.2821 57.2263 26.165 57.329 28.6642H47.0926C47.298 26.1308 49.4548 24.2821 52.2622 24.2821Z" fill="#F2F2F2"/>
<path d="M80.9413 21.4748H66.4597L66.1858 32.5328C66.1516 34.7924 65.5696 35.614 64.9534 35.614H62.6596V43.0774H66.2201V39.243H79.8116V43.0774H83.3721V35.614H80.9413V21.4748ZM69.0959 35.614C69.4382 35.3402 69.849 34.3816 69.9175 32.2932L70.1229 24.9668H77.0727V35.614H69.0959Z" fill="#F2F2F2"/>
<path d="M89.673 33.7996V21.4748H85.8044V39.243H89.3991L99.0535 27.1236V39.243H102.922V21.4748H99.3616L89.673 33.7996Z" fill="#F2F2F2"/>
<path d="M121.517 24.8641V24.7271C120.182 22.3991 117.717 21.0982 115.046 21.0982C109.569 21.0982 106.077 25.0353 106.077 30.3075C106.077 35.4429 109.432 39.5854 114.841 39.5854C118.059 39.5854 120.558 38.0448 121.517 35.614V39.243H125.488V21.4748H122.133L121.517 24.8641ZM115.8 36.0591C112.444 36.0591 110.048 33.6968 110.048 30.3418C110.048 27.0209 112.444 24.6587 115.8 24.6587C119.12 24.6587 121.517 27.1236 121.517 30.3418C121.517 33.5941 119.12 36.0591 115.8 36.0591Z" fill="#F2F2F2"/>
<path d="M23.2518 75.9606C28.7638 75.9606 32.8036 72.0577 32.8036 66.717C32.8036 61.4105 28.7638 57.4734 23.2518 57.4734C17.7742 57.4734 13.7344 61.4105 13.7344 66.717C13.7344 72.0577 17.7742 75.9606 23.2518 75.9606ZM23.2518 72.4343C19.9995 72.4343 17.5688 69.9694 17.5688 66.717C17.5688 63.4304 19.9995 60.9997 23.2518 60.9997C26.5385 60.9997 29.0034 63.4304 29.0034 66.717C29.0034 69.9694 26.5385 72.4343 23.2518 72.4343Z" fill="#F2F2F2"/>
<path d="M54.8124 65.998C56.2503 65.6899 57.517 64.5944 57.517 62.3006C57.517 59.4933 55.2233 57.8842 51.115 57.8842H43.3778V75.6182H51.6285C56.2503 75.6182 58.681 73.3244 58.681 70.2775C58.681 68.0522 57.1062 66.3404 54.8124 65.998ZM51.3204 60.8627C52.998 60.8627 54.0593 61.6159 54.0593 63.0196C54.0593 64.4574 52.998 65.1422 51.3204 65.1422H46.8698V60.8627H51.3204ZM46.8698 72.6397V67.7783H52.0051C53.9565 67.7783 55.189 68.7026 55.189 70.209C55.189 71.6811 53.9565 72.6397 51.9367 72.6397H46.8698Z" fill="#F2F2F2"/>
<path d="M65.3003 70.1748V57.85H61.4317V75.6182H65.0264L74.6808 63.4989V75.6182H78.5494V57.85H74.9889L65.3003 70.1748Z" fill="#F2F2F2"/>
<path d="M94.6791 66.1692C96.2882 65.3476 96.8702 64.0466 96.8702 62.6772C96.8702 59.596 94.0629 57.4734 89.4753 57.4734C84.34 57.4734 81.7381 60.2807 81.5669 63.4304H85.3328C85.3328 61.6844 86.8392 60.4861 89.2699 60.4861C91.4952 60.4861 93.0016 61.3762 93.0016 62.8826C93.0016 64.6286 90.879 65.1422 89.2699 65.1422H87.4897V67.8468H89.5438C91.8376 67.8468 93.789 68.5999 93.789 70.2775C93.789 71.8181 92.2484 72.9821 89.6465 72.9821C86.9077 72.9821 85.059 71.6811 85.059 69.8324H81.2931C81.43 73.256 84.1004 75.9948 89.5781 75.9948C94.953 75.9948 97.6919 73.4271 97.6919 70.209C97.6919 68.3261 96.7333 66.9224 94.6791 66.1692Z" fill="#F2F2F2"/>
<path d="M113.832 57.85C110.203 66.8197 109.141 69.8324 108.696 72.0577C108.217 69.7982 107.053 66.7512 103.356 57.85H99.0763L106.642 75.7209L103.561 83.4924H107.635L118.008 57.85H113.832Z" fill="#F2F2F2"/>
<path d="M133.854 61.2393V61.1024C132.518 58.7743 130.054 57.4734 127.383 57.4734C121.905 57.4734 118.413 61.4105 118.413 66.6828C118.413 71.8181 121.769 75.9606 127.178 75.9606C130.396 75.9606 132.895 74.42 133.854 71.9893V75.6182H137.825V57.85H134.47L133.854 61.2393ZM128.136 72.4343C124.781 72.4343 122.385 70.0721 122.385 66.717C122.385 63.3961 124.781 61.0339 128.136 61.0339C131.457 61.0339 133.854 63.4989 133.854 66.717C133.854 69.9694 131.457 72.4343 128.136 72.4343Z" fill="#F2F2F2"/>
<path d="M140.537 75.7209C144.268 75.7894 147.178 73.5641 147.178 68.6342V61.342H153.923V75.6182H157.791V57.85H143.378V68.5657C143.378 71.4073 141.94 72.1604 140.571 72.2289L140.537 75.7209Z" fill="#F2F2F2"/>
<path d="M165.7 63.3619V57.85H161.831V75.6182H170.185C174.361 75.6182 177.203 73.3244 177.203 69.4901C177.203 65.6899 174.361 63.3619 170.185 63.3619H165.7ZM165.7 72.2974V66.6485H169.74C171.897 66.6485 173.334 67.6413 173.334 69.4901C173.334 71.3388 171.897 72.2974 169.74 72.2974H165.7Z" fill="#F2F2F2"/>
<path d="M192.589 65.1422H183.653V57.85H179.785V75.6182H183.653V68.5315H192.589V75.6182H196.458V57.85H192.589V65.1422Z" fill="#F2F2F2"/>
<path d="M209.14 75.9606C214.652 75.9606 218.692 72.0577 218.692 66.717C218.692 61.4105 214.652 57.4734 209.14 57.4734C203.662 57.4734 199.622 61.4105 199.622 66.717C199.622 72.0577 203.662 75.9606 209.14 75.9606ZM209.14 72.4343C205.888 72.4343 203.457 69.9694 203.457 66.717C203.457 63.4304 205.888 60.9997 209.14 60.9997C212.427 60.9997 214.891 63.4304 214.891 66.717C214.891 69.9694 212.427 72.4343 209.14 72.4343Z" fill="#F2F2F2"/>
<path d="M231.191 65.2449L225.439 57.85H221.81V75.6182H225.679C225.679 68.4288 225.645 65.6899 225.2 62.3006C226.535 64.6286 227.87 66.5458 231.191 70.5514C234.717 66.3746 236.086 64.4232 237.251 62.1637C236.771 65.6899 236.703 68.3945 236.703 75.6182H240.571V57.85H236.942L231.191 65.2449Z" fill="#F2F2F2"/>
<path d="M26.0934 102.373C27.5313 102.065 28.798 100.97 28.798 98.6758C28.798 95.8685 26.5042 94.2594 22.396 94.2594H14.6587V111.993H22.9095C27.5313 111.993 29.962 109.7 29.962 106.653C29.962 104.427 28.3872 102.716 26.0934 102.373ZM22.6014 97.2379C24.2789 97.2379 25.3402 97.9911 25.3402 99.3948C25.3402 100.833 24.2789 101.517 22.6014 101.517H18.1508V97.2379H22.6014ZM18.1508 109.015V104.154H23.2861C25.2375 104.154 26.47 105.078 26.47 106.584C26.47 108.056 25.2375 109.015 23.2176 109.015H18.1508Z" fill="#F2F2F2"/>
<path d="M49.5487 101.62L43.7972 94.2252H40.1682V111.993H44.0368C44.0368 104.804 44.0026 102.065 43.5575 98.6758C44.8927 101.004 46.2279 102.921 49.5487 106.927C53.075 102.75 54.4444 100.798 55.6084 98.5389C55.1291 102.065 55.0606 104.77 55.0606 111.993H58.9293V94.2252H55.3003L49.5487 101.62Z" fill="#F2F2F2"/>
<path d="M76.2864 94.2252C72.6574 103.195 71.5961 106.208 71.1511 108.433C70.6718 106.173 69.5078 103.126 65.8103 94.2252H61.5309L69.0969 112.096L66.0157 119.868H70.0898L80.4631 94.2252H76.2864Z" fill="#F2F2F2"/>
<path d="M95.0803 102.544C96.6894 101.723 97.2714 100.422 97.2714 99.0524C97.2714 95.9712 94.4641 93.8486 89.8765 93.8486C84.7412 93.8486 82.1393 96.6559 81.9681 99.8056H85.734C85.734 98.0596 87.2404 96.8614 89.6711 96.8614C91.8964 96.8614 93.4028 97.7515 93.4028 99.2578C93.4028 101.004 91.2802 101.517 89.6711 101.517H87.8909V104.222H89.945C92.2388 104.222 94.1902 104.975 94.1902 106.653C94.1902 108.193 92.6496 109.357 90.0477 109.357C87.3089 109.357 85.4602 108.056 85.4602 106.208H81.6943C81.8312 109.631 84.5016 112.37 89.9792 112.37C95.3542 112.37 98.0931 109.802 98.0931 106.584C98.0931 104.701 97.1345 103.298 95.0803 102.544Z" fill="#F2F2F2"/>
<path d="M104.818 99.7371V94.2252H100.95V111.993H109.303C113.48 111.993 116.321 109.7 116.321 105.865C116.321 102.065 113.48 99.7371 109.303 99.7371H104.818ZM118.889 111.993H122.826V94.2252H118.889V111.993ZM104.818 108.673V103.024H108.858C111.015 103.024 112.453 104.017 112.453 105.865C112.453 107.714 111.015 108.673 108.858 108.673H104.818Z" fill="#F2F2F2"/>
<path d="M134.324 102.51L143.122 94.2252H138.466L130.592 101.62C130.797 100.148 130.797 98.1623 130.797 94.2252H126.86V111.993H130.797C130.797 108.125 130.729 105.489 130.558 103.332L138.5 111.993H143.156L134.324 102.51Z" fill="#F2F2F2"/>
<path d="M151.859 93.8486C146.553 93.8486 142.753 97.8542 142.753 103.126C142.753 108.673 146.724 112.336 152.133 112.336C156.31 112.336 159.597 109.802 160.555 106.618L157.097 106.242C156.344 107.782 154.701 109.083 152.168 109.083C149.223 109.083 146.929 107.166 146.69 104.393H160.966C161.137 97.6145 157.269 93.8486 151.859 93.8486ZM151.859 97.0325C154.769 97.0325 156.824 98.9155 156.926 101.415H146.69C146.895 98.8812 149.052 97.0325 151.859 97.0325Z" fill="#F2F2F2"/>
<path d="M30.8438 396.865V370.585H47.7381V375.466H36.4752V381.323H47.7381V386.203H36.4752V396.865H30.8438Z" fill="#F2F2F2"/>
<path d="M49.0547 370.585H54.6861V391.985H67.4507V396.865H49.0547V370.585Z" fill="#F2F2F2"/>
<path d="M89.0764 396.865L86.8989 389.244H76.1991L74.0216 396.865H68.7656L76.3118 370.585H81.5678L77.6258 384.364H85.5098L81.5678 370.585H87.1992L94.7078 396.865H89.0764Z" fill="#F2F2F2"/>
<path d="M128.873 396.865L126.696 389.244H115.996L113.819 396.865H108.562L116.109 370.585H121.365L117.423 384.364H125.307L121.365 370.585H126.996L134.505 396.865H128.873Z" fill="#F2F2F2"/>
<path d="M101.842 396.865L109.313 370.585H114.569L107.098 396.865H101.842ZM94.2955 370.585L101.842 396.865H96.2102L88.6641 370.585H94.2955Z" fill="#F2F2F2"/>
<path d="M25.9062 370.585H29.8483V396.865H25.9062V370.585Z" fill="#F2F2F2"/>
<path d="M21.7891 370.585H24.7925V396.865H21.7891V370.585Z" fill="#F2F2F2"/>
<path d="M18.2188 370.585H20.0959V396.865H18.2188V370.585Z" fill="#F2F2F2"/>
<path d="M15.2109 370.585H16.1495V396.865H15.2109V370.585Z" fill="#F2F2F2"/>
<path d="M19.4475 155.668C22.289 155.668 23.7269 154.316 23.7269 152.245C23.7269 150.687 22.8197 149.42 21.2277 149.146C22.3575 148.821 23.0422 147.948 23.0422 146.51C23.0422 144.679 21.7584 143.515 19.2078 143.515H14.9626V155.668H19.4475ZM16.4861 144.833H19.2078C20.6971 144.833 21.5016 145.552 21.5016 146.784C21.5016 148.102 20.6971 148.735 19.2078 148.735H16.4861V144.833ZM16.4861 149.899H19.5502C21.2277 149.899 22.1863 150.841 22.1863 152.227C22.1863 153.58 21.2277 154.35 19.4475 154.35H16.4861V149.899Z" fill="#F2F2F2"/>
<path d="M29.7328 155.839C30.8455 155.839 31.8212 155.497 32.5744 154.795V153.323C31.8726 154.008 30.9996 154.504 29.8698 154.504C28.0039 154.504 26.5661 153.083 26.5661 151.252C26.5661 149.42 28.0039 148.016 29.8698 148.016C30.9996 148.016 31.8726 148.496 32.5744 149.198V147.708C31.8212 147.024 30.8455 146.664 29.7328 146.664C26.994 146.664 25.0597 148.633 25.0597 151.252C25.0597 153.871 26.994 155.839 29.7328 155.839Z" fill="#F2F2F2"/>
<path d="M38.4369 146.664C35.835 146.664 33.9521 148.667 33.9521 151.252C33.9521 154.025 35.9206 155.839 38.5739 155.839C40.6623 155.839 42.22 154.59 42.6821 153.1L41.3641 152.946C40.9704 153.785 40.046 154.59 38.591 154.59C36.8792 154.59 35.544 153.443 35.4413 151.714H42.9389C42.9903 148.598 41.1244 146.664 38.4369 146.664ZM38.4369 147.897C40.1487 147.897 41.3298 149.061 41.3812 150.567H35.4413C35.5612 149.026 36.8108 147.897 38.4369 147.897Z" fill="#F2F2F2"/>
<path d="M52.7515 155.839C55.4219 155.839 57.4418 153.871 57.4418 151.252C57.4418 148.633 55.4219 146.664 52.7515 146.664C50.064 146.664 48.0442 148.633 48.0442 151.252C48.0442 153.871 50.064 155.839 52.7515 155.839ZM52.7515 154.487C50.9199 154.487 49.4992 153.083 49.4992 151.235C49.4992 149.403 50.9199 148.016 52.7515 148.016C54.5831 148.016 55.9868 149.403 55.9868 151.235C55.9868 153.083 54.5831 154.487 52.7515 154.487Z" fill="#F2F2F2"/>
<path d="M67.2615 155.839C68.3742 155.839 69.3499 155.497 70.1031 154.795V153.323C69.4012 154.008 68.5282 154.504 67.3984 154.504C65.5326 154.504 64.0947 153.083 64.0947 151.252C64.0947 149.42 65.5326 148.016 67.3984 148.016C68.5282 148.016 69.4012 148.496 70.1031 149.198V147.708C69.3499 147.024 68.3742 146.664 67.2615 146.664C64.5227 146.664 62.5884 148.633 62.5884 151.252C62.5884 153.871 64.5227 155.839 67.2615 155.839Z" fill="#F2F2F2"/>
<path d="M75.2467 155.668V148.188H78.054V146.852H70.933V148.188H73.7574V155.668H75.2467Z" fill="#F2F2F2"/>
<path d="M80.6872 153.597V146.852H79.215V155.668H80.5845L86.0793 149.009V155.668H87.5685V146.852H86.182L80.6872 153.597Z" fill="#F2F2F2"/>
<path d="M89.01 155.702C90.602 155.719 92.0227 154.778 92.0227 152.364V148.188H96.0454V155.668H97.5175V146.852H90.5848V152.33C90.5848 153.956 89.729 154.333 89.01 154.367V155.702Z" fill="#F2F2F2"/>
<path d="M103.715 146.664C101.113 146.664 99.2302 148.667 99.2302 151.252C99.2302 154.025 101.199 155.839 103.852 155.839C105.94 155.839 107.498 154.59 107.96 153.1L106.642 152.946C106.249 153.785 105.324 154.59 103.869 154.59C102.157 154.59 100.822 153.443 100.719 151.714H108.217C108.268 148.598 106.403 146.664 103.715 146.664ZM103.715 147.897C105.427 147.897 106.608 149.061 106.659 150.567H100.719C100.839 149.026 102.089 147.897 103.715 147.897Z" fill="#F2F2F2"/>
<path d="M118.03 155.839C120.7 155.839 122.72 153.871 122.72 151.252C122.72 148.633 120.7 146.664 118.03 146.664C115.342 146.664 113.322 148.633 113.322 151.252C113.322 153.871 115.342 155.839 118.03 155.839ZM118.03 154.487C116.198 154.487 114.777 153.083 114.777 151.235C114.777 149.403 116.198 148.016 118.03 148.016C119.861 148.016 121.265 149.403 121.265 151.235C121.265 153.083 119.861 154.487 118.03 154.487Z" fill="#F2F2F2"/>
<path d="M132.29 146.852H125.306L125.169 152.621C125.152 153.837 124.793 154.282 124.485 154.282H123.406V157.671H124.776V155.668H132.102V157.671H133.472V154.282H132.29V146.852ZM126.111 154.282C126.282 154.179 126.573 153.665 126.607 152.536L126.71 148.188H130.818V154.282H126.111Z" fill="#F2F2F2"/>
<path d="M138.837 146.664C136.235 146.664 134.352 148.667 134.352 151.252C134.352 154.025 136.32 155.839 138.974 155.839C141.062 155.839 142.62 154.59 143.082 153.1L141.764 152.946C141.37 153.785 140.446 154.59 138.991 154.59C137.279 154.59 135.944 153.443 135.841 151.714H143.339C143.39 148.598 141.524 146.664 138.837 146.664ZM138.837 147.897C140.548 147.897 141.729 149.061 141.781 150.567H135.841C135.961 149.026 137.21 147.897 138.837 147.897Z" fill="#F2F2F2"/>
<path d="M152.171 150.944L156.434 146.852H154.671L150.734 150.618C150.802 149.745 150.836 148.444 150.836 146.852H149.33C149.33 148.444 149.364 149.745 149.433 150.618L145.478 146.852H143.732L147.978 150.944L143.715 155.668H145.461L149.433 151.252C149.364 152.433 149.33 153.802 149.33 155.668H150.836C150.836 153.802 150.802 152.45 150.734 151.252L154.688 155.668H156.451L152.171 150.944Z" fill="#F2F2F2"/>
<path d="M165.406 146.852H158.422L158.285 152.621C158.268 153.837 157.908 154.282 157.6 154.282H156.522V157.671H157.891V155.668H165.218V157.671H166.587V154.282H165.406V146.852ZM159.226 154.282C159.398 154.179 159.689 153.665 159.723 152.536L159.825 148.188H163.934V154.282H159.226Z" fill="#F2F2F2"/>
<path d="M169.419 149.763V146.852H167.947V155.668H171.764C173.852 155.668 175.307 154.59 175.307 152.724C175.307 150.841 173.852 149.763 171.764 149.763H169.419ZM176.728 155.668H178.217V146.852H176.728V155.668ZM169.419 154.401V151.029H171.627C172.911 151.029 173.835 151.577 173.835 152.707C173.835 153.837 172.911 154.401 171.627 154.401H169.419Z" fill="#F2F2F2"/>
<path d="M22.2377 166.508V166.422C21.553 165.121 20.252 164.317 18.7285 164.317C16.0068 164.317 14.2266 166.268 14.2266 168.887C14.2266 171.472 15.9726 173.492 18.6429 173.492C20.389 173.492 21.6899 172.602 22.2377 171.25V173.321H23.744V164.505H22.4602L22.2377 166.508ZM19.0024 172.157C17.1023 172.157 15.75 170.805 15.75 168.904C15.75 167.021 17.1023 165.669 19.0024 165.669C20.8854 165.669 22.2206 167.09 22.2206 168.904C22.2206 170.736 20.8854 172.157 19.0024 172.157Z" fill="#F2F2F2"/>
<path d="M31.0234 164.334C29.2773 164.334 27.9764 165.224 27.4286 166.559V166.525L27.2061 164.505H25.9394V177.258H27.4286V171.387C28.1133 172.705 29.4143 173.492 30.9549 173.492C33.6595 173.492 35.4397 171.558 35.4397 168.939C35.4397 166.354 33.7108 164.334 31.0234 164.334ZM30.6639 172.157C28.7809 172.157 27.4457 170.736 27.4457 168.922C27.4457 167.09 28.7809 165.669 30.6639 165.669C32.564 165.669 33.9334 167.021 33.9334 168.922C33.9334 170.805 32.564 172.157 30.6639 172.157Z" fill="#F2F2F2"/>
<path d="M40.3592 173.321V165.84H43.1665V164.505H36.0455V165.84H38.87V173.321H40.3592Z" fill="#F2F2F2"/>
<path d="M45.7997 171.25V164.505H44.3276V173.321H45.697L51.1918 166.662V173.321H52.6811V164.505H51.2945L45.7997 171.25Z" fill="#F2F2F2"/>
<path d="M59.1038 173.492C60.2165 173.492 61.1922 173.15 61.9454 172.448V170.976C61.2435 171.66 60.3705 172.157 59.2408 172.157C57.3749 172.157 55.937 170.736 55.937 168.904C55.937 167.073 57.3749 165.669 59.2408 165.669C60.3705 165.669 61.2435 166.148 61.9454 166.85V165.361C61.1922 164.676 60.2165 164.317 59.1038 164.317C56.365 164.317 54.4307 166.285 54.4307 168.904C54.4307 171.523 56.365 173.492 59.1038 173.492Z" fill="#F2F2F2"/>
<path d="M67.089 173.321V165.84H69.8963V164.505H62.7753V165.84H65.5997V173.321H67.089Z" fill="#F2F2F2"/>
<path d="M75.018 173.492C77.6884 173.492 79.7083 171.523 79.7083 168.904C79.7083 166.285 77.6884 164.317 75.018 164.317C72.3305 164.317 70.3106 166.285 70.3106 168.904C70.3106 171.523 72.3305 173.492 75.018 173.492ZM75.018 172.14C73.1864 172.14 71.7656 170.736 71.7656 168.887C71.7656 167.056 73.1864 165.669 75.018 165.669C76.8496 165.669 78.2532 167.056 78.2532 168.887C78.2532 170.736 76.8496 172.14 75.018 172.14Z" fill="#F2F2F2"/>
<path d="M86.8308 168.579C87.6867 168.408 88.303 167.826 88.303 166.696C88.303 165.344 87.2417 164.522 85.2218 164.522H81.4216V173.321H85.4272C87.7038 173.321 88.885 172.242 88.885 170.753C88.885 169.589 88.0804 168.716 86.8308 168.579ZM85.2731 165.669C86.3515 165.669 86.9678 166.131 86.9678 166.953C86.9678 167.826 86.3515 168.237 85.2731 168.237H82.7568V165.669H85.2731ZM82.7568 172.174V169.247H85.6155C86.8308 169.247 87.5327 169.812 87.5327 170.719C87.5327 171.609 86.8308 172.174 85.547 172.174H82.7568Z" fill="#F2F2F2"/>
<path d="M99.7193 168.579C100.575 168.408 101.191 167.826 101.191 166.696C101.191 165.344 100.13 164.522 98.1102 164.522H94.3101V173.321H98.3157C100.592 173.321 101.773 172.242 101.773 170.753C101.773 169.589 100.969 168.716 99.7193 168.579ZM98.1616 165.669C99.24 165.669 99.8562 166.131 99.8562 166.953C99.8562 167.826 99.24 168.237 98.1616 168.237H95.6453V165.669H98.1616ZM95.6453 172.174V169.247H98.5039C99.7193 169.247 100.421 169.812 100.421 170.719C100.421 171.609 99.7193 172.174 98.4355 172.174H95.6453Z" fill="#F2F2F2"/>
<path d="M111.427 173.492C114.097 173.492 116.117 171.523 116.117 168.904C116.117 166.285 114.097 164.317 111.427 164.317C108.739 164.317 106.719 166.285 106.719 168.904C106.719 171.523 108.739 173.492 111.427 173.492ZM111.427 172.14C109.595 172.14 108.174 170.736 108.174 168.887C108.174 167.056 109.595 165.669 111.427 165.669C113.258 165.669 114.662 167.056 114.662 168.887C114.662 170.736 113.258 172.14 111.427 172.14Z" fill="#F2F2F2"/>
<path d="M125.687 164.505H118.703L118.566 170.274C118.549 171.489 118.19 171.934 117.882 171.934H116.803V175.324H118.173V173.321H125.499V175.324H126.868V171.934H125.687V164.505ZM119.508 171.934C119.679 171.832 119.97 171.318 120.004 170.188L120.107 165.84H124.215V171.934H119.508Z" fill="#F2F2F2"/>
<path d="M134.818 168.254H129.7V164.505H128.228V173.321H129.7V169.555H134.818V173.321H136.308V164.505H134.818V168.254Z" fill="#F2F2F2"/>
<path d="M142.72 173.492C145.39 173.492 147.41 171.523 147.41 168.904C147.41 166.285 145.39 164.317 142.72 164.317C140.033 164.317 138.013 166.285 138.013 168.904C138.013 171.523 140.033 173.492 142.72 173.492ZM142.72 172.14C140.888 172.14 139.468 170.736 139.468 168.887C139.468 167.056 140.888 165.669 142.72 165.669C144.552 165.669 145.955 167.056 145.955 168.887C145.955 170.736 144.552 172.14 142.72 172.14Z" fill="#F2F2F2"/>
<path d="M153.677 168.887L150.51 164.505H149.124V173.321H150.596C150.596 169.949 150.579 168.237 150.408 166.234C151.263 167.706 152.085 168.956 153.677 170.976C155.32 168.887 156.159 167.621 156.964 166.183C156.792 168.237 156.758 169.949 156.758 173.321H158.247V164.505H156.844L153.677 168.887Z" fill="#F2F2F2"/>
<path d="M168.872 168.887L165.706 164.505H164.319V173.321H165.791C165.791 169.949 165.774 168.237 165.603 166.234C166.459 167.706 167.28 168.956 168.872 170.976C170.516 168.887 171.354 167.621 172.159 166.183C171.988 168.237 171.954 169.949 171.954 173.321H173.443V164.505H172.039L168.872 168.887Z" fill="#F2F2F2"/>
<path d="M179.642 164.317C177.04 164.317 175.157 166.32 175.157 168.904C175.157 171.678 177.125 173.492 179.779 173.492C181.867 173.492 183.425 172.242 183.887 170.753L182.569 170.599C182.175 171.438 181.251 172.242 179.796 172.242C178.084 172.242 176.749 171.096 176.646 169.367H184.144C184.195 166.251 182.329 164.317 179.642 164.317ZM179.642 165.549C181.353 165.549 182.535 166.713 182.586 168.22H176.646C176.766 166.679 178.016 165.549 179.642 165.549Z" fill="#F2F2F2"/>
<path d="M190.078 173.492C191.191 173.492 192.166 173.15 192.92 172.448V170.976C192.218 171.66 191.345 172.157 190.215 172.157C188.349 172.157 186.911 170.736 186.911 168.904C186.911 167.073 188.349 165.669 190.215 165.669C191.345 165.669 192.218 166.148 192.92 166.85V165.361C192.166 164.676 191.191 164.317 190.078 164.317C187.339 164.317 185.405 166.285 185.405 168.904C185.405 171.523 187.339 173.492 190.078 173.492Z" fill="#F2F2F2"/>
<path d="M198.063 173.321V165.84H200.87V164.505H193.75V165.84H196.574V173.321H198.063Z" fill="#F2F2F2"/>
<path d="M205.77 164.317C203.168 164.317 201.285 166.32 201.285 168.904C201.285 171.678 203.253 173.492 205.907 173.492C207.995 173.492 209.553 172.242 210.015 170.753L208.697 170.599C208.303 171.438 207.379 172.242 205.924 172.242C204.212 172.242 202.877 171.096 202.774 169.367H210.272C210.323 166.251 208.457 164.317 205.77 164.317ZM205.77 165.549C207.481 165.549 208.663 166.713 208.714 168.22H202.774C202.894 166.679 204.143 165.549 205.77 165.549Z" fill="#F2F2F2"/>
<path fill-rule="evenodd" clip-rule="evenodd" d="M1.20605 396.144L547.906 396.145L547.906 397.212L1.20605 397.212L1.20605 396.144Z" fill="#FC62FF"/>
<path fill-rule="evenodd" clip-rule="evenodd" d="M1.20605 296.842L547.906 296.842L547.906 297.909L1.20605 297.909L1.20605 296.842Z" fill="#FC62FF"/>
<path fill-rule="evenodd" clip-rule="evenodd" d="M1.20605 198.073L547.906 198.073L547.906 199.14L1.20605 199.14L1.20605 198.073Z" fill="#FC62FF"/>
<path fill-rule="evenodd" clip-rule="evenodd" d="M1.20605 98.7698L547.906 98.7699L547.906 99.8376L1.20605 99.8376L1.20605 98.7698Z" fill="#FC62FF"/>
<path fill-rule="evenodd" clip-rule="evenodd" d="M1.20605 0.000561659L547.906 0.000585556L547.906 1.06836L1.20605 1.06834L1.20605 0.000561659Z" fill="#FC62FF"/>
<path fill-rule="evenodd" clip-rule="evenodd" d="M547.912 8.16793e-08L547.912 410.025L546.844 410.025L546.844 0L547.912 8.16793e-08Z" fill="#FC62FF"/>
<path fill-rule="evenodd" clip-rule="evenodd" d="M413.373 8.16793e-08L413.372 410.025L412.305 410.025L412.305 0L413.373 8.16793e-08Z" fill="#FC62FF"/>
<path fill-rule="evenodd" clip-rule="evenodd" d="M281.498 8.16793e-08L281.497 410.025L280.43 410.025L280.43 0L281.498 8.16793e-08Z" fill="#FC62FF"/>
<path fill-rule="evenodd" clip-rule="evenodd" d="M148.56 8.16793e-08L148.56 410.025L147.492 410.025L147.492 0L148.56 8.16793e-08Z" fill="#FC62FF"/>
<path fill-rule="evenodd" clip-rule="evenodd" d="M15.0834 8.16793e-08L15.0834 410.025L14.0156 410.025L14.0157 0L15.0834 8.16793e-08Z" fill="#FC62FF"/>
<path fill-rule="evenodd" clip-rule="evenodd" d="M0.143555 112.651L546.844 112.651L546.844 113.719L0.143555 113.719L0.143555 112.651Z" fill="#FC62FF"/>
<path fill-rule="evenodd" clip-rule="evenodd" d="M1.20605 211.954L547.906 211.954L547.906 213.021L1.20605 213.021L1.20605 211.954Z" fill="#FC62FF"/>
<path fill-rule="evenodd" clip-rule="evenodd" d="M1.20605 310.723L547.906 310.723L547.906 311.791L1.20605 311.791L1.20605 310.723Z" fill="#FC62FF"/>
<path fill-rule="evenodd" clip-rule="evenodd" d="M1.20605 13.8817L547.906 13.8817L547.906 14.9495L1.20605 14.9494L1.20605 13.8817Z" fill="#FC62FF"/>
<path fill-rule="evenodd" clip-rule="evenodd" d="M1.20605 410.025L547.906 410.025L547.906 411.093L1.20605 411.093L1.20605 410.025Z" fill="#FC62FF"/>
<path fill-rule="evenodd" clip-rule="evenodd" d="M534.029 8.16793e-08L534.029 410.025L532.961 410.025L532.961 0L534.029 8.16793e-08Z" fill="#FC62FF"/>
<path fill-rule="evenodd" clip-rule="evenodd" d="M399.49 8.16793e-08L399.49 410.025L398.422 410.025L398.422 0L399.49 8.16793e-08Z" fill="#FC62FF"/>
<path fill-rule="evenodd" clip-rule="evenodd" d="M134.677 8.16793e-08L134.677 410.025L133.609 410.025L133.609 0L134.677 8.16793e-08Z" fill="#FC62FF"/>
<path fill-rule="evenodd" clip-rule="evenodd" d="M2.27875 8.16793e-08L2.27871 410.025L1.21094 410.025L1.21098 0L2.27875 8.16793e-08Z" fill="#FC62FF"/>
<path fill-rule="evenodd" clip-rule="evenodd" d="M267.615 8.16793e-08L267.615 410.025L266.547 410.025L266.547 0L267.615 8.16793e-08Z" fill="#FC62FF"/>
</svg>
