<svg width="549" height="411" viewBox="0 0 549 411" fill="none" xmlns="http://www.w3.org/2000/svg">
<path d="M2.69531 1.08008H547.254V409.766H2.69531V1.08008Z" fill="#010E15"/>
<path d="M148.195 1.08008H547.788V410.836H148.195V1.08008Z" fill="#C4C4C4"/>
<path d="M31.2812 40.1992V13.918H48.1757V18.7988H36.9127V24.6557H48.1757V29.5365H36.9127V40.1992H31.2812Z" fill="#F2F2F2"/>
<path d="M49.4844 13.918H55.1158V35.3184H67.8804V40.1992H49.4844V13.918Z" fill="#F2F2F2"/>
<path d="M89.5061 40.1992L87.3286 32.5777H76.6288L74.4513 40.1992H69.1953L76.7415 13.918H81.9975L78.0555 27.6969H85.9395L81.9975 13.918H87.629L95.1376 40.1992H89.5061Z" fill="#F2F2F2"/>
<path d="M129.311 40.1992L127.133 32.5777H116.434L114.256 40.1992H109L116.546 13.918H121.802L117.86 27.6969H125.744L121.802 13.918H127.434L134.942 40.1992H129.311Z" fill="#F2F2F2"/>
<path d="M102.271 40.1992L109.742 13.918H114.998L107.527 40.1992H102.271ZM94.7252 13.918L102.271 40.1992H96.6399L89.0938 13.918H94.7252Z" fill="#F2F2F2"/>
<path d="M26.3438 13.918H30.2858V40.1992H26.3438V13.918Z" fill="#F2F2F2"/>
<path d="M22.2188 13.918H25.2222V40.1992H22.2188V13.918Z" fill="#F2F2F2"/>
<path d="M18.6484 13.918H20.5256V40.1992H18.6484V13.918Z" fill="#F2F2F2"/>
<path d="M15.6484 13.918H16.587V40.1992H15.6484V13.918Z" fill="#F2F2F2"/>
<path d="M24.436 219.61C23.44 219.975 22.4236 220.097 21.5698 220.097C18.907 220.097 17.606 218.857 17.606 216.195V212.922H15.7969V216.296C15.7969 219.813 17.7076 221.703 21.4885 221.703C22.5252 221.703 23.5213 221.561 24.436 221.154V227.354H26.2451V212.922H24.436V219.61Z" fill="#F2F2F2"/>
<path d="M33.0722 227.354V218.471H36.4059V216.886H27.9498V218.471H31.3038V227.354H33.0722Z" fill="#F2F2F2"/>
<path d="M42.4879 227.558C45.659 227.558 48.0576 225.22 48.0576 222.11C48.0576 219 45.659 216.662 42.4879 216.662C39.2965 216.662 36.8979 219 36.8979 222.11C36.8979 225.22 39.2965 227.558 42.4879 227.558ZM42.4879 225.952C40.3129 225.952 38.6257 224.285 38.6257 222.09C38.6257 219.914 40.3129 218.268 42.4879 218.268C44.663 218.268 46.3298 219.914 46.3298 222.09C46.3298 224.285 44.663 225.952 42.4879 225.952Z" fill="#F2F2F2"/>
<path d="M62.5237 221.337H56.4458V216.886H54.6977V227.354H56.4458V222.882H62.5237V227.354H64.2922V216.886H62.5237V221.337Z" fill="#F2F2F2"/>
<path d="M71.907 227.558C75.078 227.558 77.4767 225.22 77.4767 222.11C77.4767 219 75.078 216.662 71.907 216.662C68.7156 216.662 66.317 219 66.317 222.11C66.317 225.22 68.7156 227.558 71.907 227.558ZM71.907 225.952C69.732 225.952 68.0448 224.285 68.0448 222.09C68.0448 219.914 69.732 218.268 71.907 218.268C74.082 218.268 75.7488 219.914 75.7488 222.09C75.7488 224.285 74.082 225.952 71.907 225.952Z" fill="#F2F2F2"/>
<path d="M84.5322 227.558C85.8534 227.558 87.0121 227.151 87.9065 226.318V224.569C87.0731 225.383 86.0364 225.972 84.6948 225.972C82.4791 225.972 80.7716 224.285 80.7716 222.11C80.7716 219.935 82.4791 218.268 84.6948 218.268C86.0364 218.268 87.0731 218.837 87.9065 219.671V217.902C87.0121 217.089 85.8534 216.662 84.5322 216.662C81.2798 216.662 78.9828 219 78.9828 222.11C78.9828 225.22 81.2798 227.558 84.5322 227.558Z" fill="#F2F2F2"/>
<path d="M91.8598 224.895V216.886H90.1117V227.354H91.7379L98.2629 219.447V227.354H100.031V216.886H98.3849L91.8598 224.895Z" fill="#F2F2F2"/>
<path d="M106.54 227.354V218.471H109.874V216.886H101.418V218.471H104.772V227.354H106.54Z" fill="#F2F2F2"/>
<path d="M24.6189 234.339L18.3784 240.925C18.4598 239.299 18.4598 237.876 18.4598 234.319H16.6506V248.751H18.4598C18.4598 245.052 18.4598 243.446 18.3784 241.596L24.5173 248.751H26.733L20.2892 241.291L26.7736 234.319L24.6189 234.339Z" fill="#F2F2F2"/>
<path d="M27.6398 248.792C29.5302 248.812 31.2174 247.694 31.2174 244.828V239.868H35.9943V248.751H37.7425V238.283H29.5099V244.788C29.5099 246.719 28.4935 247.166 27.6398 247.207V248.792Z" fill="#F2F2F2"/>
<path d="M49.2895 240.661V240.56C48.4764 239.015 46.9315 238.059 45.1224 238.059C41.8903 238.059 39.7763 240.377 39.7763 243.487C39.7763 246.556 41.8497 248.955 45.0208 248.955C47.0941 248.955 48.639 247.898 49.2895 246.292V248.751H51.0783V238.283H49.5537L49.2895 240.661ZM45.4476 247.369C43.1913 247.369 41.5854 245.763 41.5854 243.507C41.5854 241.271 43.1913 239.665 45.4476 239.665C47.6836 239.665 49.2692 241.352 49.2692 243.507C49.2692 245.682 47.6836 247.369 45.4476 247.369Z" fill="#F2F2F2"/>
<path d="M60.1087 243.121C61.1251 242.918 61.8569 242.226 61.8569 240.885C61.8569 239.279 60.5966 238.303 58.1979 238.303H53.6853V248.751H58.4419C61.1454 248.751 62.548 247.471 62.548 245.702C62.548 244.32 61.5926 243.283 60.1087 243.121ZM58.2589 239.665C59.5395 239.665 60.2713 240.214 60.2713 241.19C60.2713 242.226 59.5395 242.714 58.2589 242.714H55.2708V239.665H58.2589ZM55.2708 247.39V243.914H58.6655C60.1087 243.914 60.9421 244.584 60.9421 245.662C60.9421 246.719 60.1087 247.39 58.5842 247.39H55.2708Z" fill="#F2F2F2"/>
<path d="M73.3289 240.661V240.56C72.5158 239.015 70.971 238.059 69.1618 238.059C65.9298 238.059 63.8158 240.377 63.8158 243.487C63.8158 246.556 65.8891 248.955 69.0602 248.955C71.1336 248.955 72.6785 247.898 73.3289 246.292V248.751H75.1177V238.283H73.5932L73.3289 240.661ZM69.4871 247.369C67.2307 247.369 65.6249 245.763 65.6249 243.507C65.6249 241.271 67.2307 239.665 69.4871 239.665C71.7231 239.665 73.3086 241.352 73.3086 243.507C73.3086 245.682 71.7231 247.369 69.4871 247.369Z" fill="#F2F2F2"/>
<path d="M90.6033 234.339L84.3629 240.925C84.4442 239.299 84.4442 237.876 84.4442 234.319H82.635V248.751H84.4442C84.4442 245.052 84.4442 243.446 84.3629 241.596L90.5017 248.751H92.7174L86.2736 241.291L92.758 234.319L90.6033 234.339Z" fill="#F2F2F2"/>
<path d="M98.7255 248.955C101.897 248.955 104.295 246.617 104.295 243.507C104.295 240.397 101.897 238.059 98.7255 238.059C95.5342 238.059 93.1355 240.397 93.1355 243.507C93.1355 246.617 95.5342 248.955 98.7255 248.955ZM98.7255 247.349C96.5505 247.349 94.8634 245.682 94.8634 243.487C94.8634 241.312 96.5505 239.665 98.7255 239.665C100.901 239.665 102.567 241.312 102.567 243.487C102.567 245.682 100.901 247.349 98.7255 247.349Z" fill="#F2F2F2"/>
<path d="M109.765 243.121L115.416 238.283H113.282L107.997 242.775C108.098 241.698 108.098 240.478 108.098 238.283H106.33V248.751H108.098C108.098 246.536 108.078 244.91 107.976 243.466L113.302 248.751H115.437L109.765 243.121Z" fill="#F2F2F2"/>
<path d="M124.902 240.661V240.56C124.089 239.015 122.544 238.059 120.734 238.059C117.502 238.059 115.388 240.377 115.388 243.487C115.388 246.556 117.462 248.955 120.633 248.955C122.706 248.955 124.251 247.898 124.902 246.292V248.751H126.69V238.283H125.166L124.902 240.661ZM121.06 247.369C118.803 247.369 117.198 245.763 117.198 243.507C117.198 241.271 118.803 239.665 121.06 239.665C123.296 239.665 124.881 241.352 124.881 243.507C124.881 245.682 123.296 247.369 121.06 247.369Z" fill="#F2F2F2"/>
<path d="M22.7691 264.518C23.7855 264.315 24.5173 263.624 24.5173 262.282C24.5173 260.676 23.257 259.7 20.8584 259.7H16.3457V270.149H21.1023C23.8058 270.149 25.2084 268.868 25.2084 267.1C25.2084 265.717 24.253 264.681 22.7691 264.518ZM20.9194 261.062C22.2 261.062 22.9318 261.611 22.9318 262.587C22.9318 263.624 22.2 264.111 20.9194 264.111H17.9312V261.062H20.9194ZM17.9312 268.787V265.311H21.3259C22.7691 265.311 23.6026 265.982 23.6026 267.059C23.6026 268.116 22.7691 268.787 21.2446 268.787H17.9312Z" fill="#F2F2F2"/>
<path d="M38.0742 264.518C39.0906 264.315 39.8224 263.624 39.8224 262.282C39.8224 260.676 38.5621 259.7 36.1634 259.7H31.6508V270.149H36.4074C39.1109 270.149 40.5135 268.868 40.5135 267.1C40.5135 265.717 39.5581 264.681 38.0742 264.518ZM36.2244 261.062C37.505 261.062 38.2368 261.611 38.2368 262.587C38.2368 263.624 37.505 264.111 36.2244 264.111H33.2363V261.062H36.2244ZM33.2363 268.787V265.311H36.631C38.0742 265.311 38.9076 265.982 38.9076 267.059C38.9076 268.116 38.0742 268.787 36.5497 268.787H33.2363Z" fill="#F2F2F2"/>
<path d="M44.0986 263.136V259.68H42.3504V270.149H46.8834C49.3633 270.149 51.0912 268.868 51.0912 266.652C51.0912 264.416 49.3633 263.136 46.8834 263.136H44.0986ZM52.7783 270.149H54.5468V259.68H52.7783V270.149ZM44.0986 268.644V264.64H46.7208C48.2453 264.64 49.343 265.29 49.343 266.632C49.343 267.974 48.2453 268.644 46.7208 268.644H44.0986Z" fill="#F2F2F2"/>
<path d="M64.4775 259.68C62.3025 262.323 61.6723 263.176 61.3064 263.949C60.9405 263.115 60.2901 262.241 58.176 259.68H56.1433L60.3104 264.884L56.1433 270.149H58.176C60.2291 267.526 60.9202 266.551 61.3064 265.717C61.6723 266.551 62.3838 267.526 64.4775 270.149H66.5306L62.3431 264.803L66.5306 259.68H64.4775Z" fill="#F2F2F2"/>
<path d="M72.6613 270.352C75.8324 270.352 78.231 268.014 78.231 264.904C78.231 261.794 75.8324 259.456 72.6613 259.456C69.4699 259.456 67.0713 261.794 67.0713 264.904C67.0713 268.014 69.4699 270.352 72.6613 270.352ZM72.6613 268.746C70.4863 268.746 68.7991 267.079 68.7991 264.884C68.7991 262.709 70.4863 261.062 72.6613 261.062C74.8363 261.062 76.5032 262.709 76.5032 264.884C76.5032 267.079 74.8363 268.746 72.6613 268.746Z" fill="#F2F2F2"/>
<path d="M89.5959 259.68H81.3023L81.1397 266.53C81.1194 267.974 80.6925 268.502 80.3266 268.502H79.046V272.527H80.6722V270.149H89.3723V272.527H90.9985V268.502H89.5959V259.68ZM82.2577 268.502C82.461 268.38 82.8066 267.77 82.8472 266.429L82.9692 261.266H87.8477V268.502H82.2577Z" fill="#F2F2F2"/>
<path d="M100.439 264.132H94.3611V259.68H92.6129V270.149H94.3611V265.677H100.439V270.149H102.207V259.68H100.439V264.132Z" fill="#F2F2F2"/>
<path d="M106.55 263.136V259.68H104.801V270.149H109.334C111.814 270.149 113.542 268.868 113.542 266.652C113.542 264.416 111.814 263.136 109.334 263.136H106.55ZM115.229 270.149H116.998V259.68H115.229V270.149ZM106.55 268.644V264.64H109.172C110.696 264.64 111.794 265.29 111.794 266.632C111.794 267.974 110.696 268.644 109.172 268.644H106.55Z" fill="#F2F2F2"/>
<path d="M124.347 259.456C121.257 259.456 119.021 261.835 119.021 264.904C119.021 268.197 121.359 270.352 124.51 270.352C126.989 270.352 128.839 268.868 129.388 267.1L127.823 266.917C127.355 267.913 126.258 268.868 124.53 268.868C122.497 268.868 120.912 267.506 120.79 265.453H129.693C129.754 261.753 127.538 259.456 124.347 259.456ZM124.347 260.92C126.38 260.92 127.782 262.302 127.843 264.091H120.79C120.932 262.262 122.416 260.92 124.347 260.92Z" fill="#F2F2F2"/>
<path d="M132.114 260.168C132.114 258.338 133.354 257.241 134.879 257.241C136.505 257.241 137.46 258.298 137.46 259.578C137.46 261.184 136.22 262.16 133.903 262.16V266.266H135.529V263.481C137.826 263.136 139.269 261.591 139.269 259.416C139.269 257.2 137.562 255.513 134.879 255.513C132.236 255.513 130.285 257.383 130.285 260.168H132.114ZM134.696 270.352C135.285 270.352 135.773 269.884 135.773 269.254C135.773 268.665 135.285 268.177 134.696 268.177C134.086 268.177 133.598 268.665 133.598 269.254C133.598 269.884 134.086 270.352 134.696 270.352Z" fill="#F2F2F2"/>
<path d="M19.3758 289.979C18.5284 291.793 18.0834 292.726 17.7068 293.599C17.3302 292.726 16.8595 291.784 15.995 289.979H15.1562L17.3131 294.249L16.4401 296.055H17.2104L20.1718 289.979H19.3758Z" fill="#F2F2F2"/>
<path d="M23.6154 293.727C24.0605 293.53 24.2573 293.188 24.2573 292.803C24.2573 292.067 23.5812 291.553 22.4685 291.553C21.2446 291.553 20.5856 292.238 20.5599 293.034H21.2789C21.2789 292.512 21.7239 292.135 22.4343 292.135C23.0762 292.135 23.5213 292.409 23.5213 292.837C23.5213 293.334 22.9564 293.522 22.4343 293.522H21.9892V294.053H22.4857C23.119 294.053 23.7267 294.249 23.7267 294.771C23.7267 295.208 23.2816 295.567 22.5285 295.567C21.741 295.567 21.1933 295.174 21.1933 294.635H20.4743C20.5 295.473 21.2018 296.141 22.5113 296.141C23.7952 296.141 24.4713 295.525 24.4713 294.754C24.4713 294.249 24.1718 293.89 23.6154 293.727Z" fill="#F2F2F2"/>
<path d="M28.5503 293.522H25.9912V291.647H25.2551V296.055H25.9912V294.172H28.5503V296.055H29.2949V291.647H28.5503V293.522Z" fill="#F2F2F2"/>
<path d="M34.153 292.649V292.606C33.8106 291.956 33.1602 291.553 32.3984 291.553C31.0376 291.553 30.1475 292.529 30.1475 293.839C30.1475 295.131 31.0205 296.141 32.3556 296.141C33.2286 296.141 33.8791 295.696 34.153 295.02V296.055H34.9062V291.647H34.2643L34.153 292.649ZM32.5354 295.473C31.5853 295.473 30.9092 294.797 30.9092 293.847C30.9092 292.906 31.5853 292.229 32.5354 292.229C33.4769 292.229 34.1444 292.94 34.1444 293.847C34.1444 294.763 33.4769 295.473 32.5354 295.473Z" fill="#F2F2F2"/>
<path d="M38.1008 291.185C38.7769 291.185 39.4103 290.826 39.4103 289.987H38.8197C38.8197 290.372 38.5886 290.68 38.1008 290.68C37.6215 290.68 37.3818 290.372 37.3818 289.987H36.7913C36.7913 290.826 37.4246 291.185 38.1008 291.185ZM36.7399 295.02V291.647H36.0039V296.055H36.6886L39.436 292.726V296.055H40.1806V291.647H39.4873L36.7399 295.02Z" fill="#F2F2F2"/>
<path d="M46.5122 293.522H43.9531V291.647H43.2171V296.055H43.9531V294.172H46.5122V296.055H47.2568V291.647H46.5122V293.522Z" fill="#F2F2F2"/>
<path d="M52.1149 292.649V292.606C51.7726 291.956 51.1221 291.553 50.3604 291.553C48.9995 291.553 48.1094 292.529 48.1094 293.839C48.1094 295.131 48.9824 296.141 50.3176 296.141C51.1906 296.141 51.8411 295.696 52.1149 295.02V296.055H52.8681V291.647H52.2262L52.1149 292.649ZM50.4973 295.473C49.5473 295.473 48.8711 294.797 48.8711 293.847C48.8711 292.906 49.5473 292.229 50.4973 292.229C51.4388 292.229 52.1064 292.94 52.1064 293.847C52.1064 294.763 51.4388 295.473 50.4973 295.473Z" fill="#F2F2F2"/>
<path d="M58.1816 293.839L56.5982 291.647H55.9049V296.055H56.641C56.641 294.369 56.6324 293.513 56.5468 292.512C56.9748 293.248 57.3856 293.873 58.1816 294.883C59.0032 293.839 59.4226 293.205 59.8249 292.486C59.7393 293.513 59.7222 294.369 59.7222 296.055H60.4668V291.647H59.765L58.1816 293.839Z" fill="#F2F2F2"/>
<path d="M63.5662 291.553C62.2653 291.553 61.3238 292.555 61.3238 293.847C61.3238 295.234 62.3081 296.141 63.6347 296.141C64.6789 296.141 65.4578 295.516 65.6889 294.771L65.0298 294.694C64.833 295.114 64.3708 295.516 63.6433 295.516C62.7874 295.516 62.1198 294.943 62.0684 294.078H65.8172C65.8429 292.521 64.91 291.553 63.5662 291.553ZM63.5662 292.17C64.4221 292.17 65.0127 292.752 65.0384 293.505H62.0684C62.1284 292.734 62.7532 292.17 63.5662 292.17Z" fill="#F2F2F2"/>
<path d="M70.5989 291.647H67.1069L67.0384 294.532C67.0299 295.14 66.8501 295.362 66.6961 295.362H66.1568V297.057H66.8416V296.055H70.5048V297.057H71.1895V295.362H70.5989V291.647ZM67.5092 295.362C67.5947 295.311 67.7402 295.054 67.7574 294.489L67.8087 292.315H69.8628V295.362H67.5092Z" fill="#F2F2F2"/>
<path d="M72.6053 295.02V291.647H71.8692V296.055H72.5539L75.3013 292.726V296.055H76.046V291.647H75.3527L72.6053 295.02Z" fill="#F2F2F2"/>
<path d="M80.9092 292.649V292.606C80.5669 291.956 79.9164 291.553 79.1546 291.553C77.7938 291.553 76.9036 292.529 76.9036 293.839C76.9036 295.131 77.7767 296.141 79.1118 296.141C79.9848 296.141 80.6353 295.696 80.9092 295.02V296.055H81.6624V291.647H81.0205L80.9092 292.649ZM79.2916 295.473C78.3415 295.473 77.6654 294.797 77.6654 293.847C77.6654 292.906 78.3415 292.229 79.2916 292.229C80.2331 292.229 80.9007 292.94 80.9007 293.847C80.9007 294.763 80.2331 295.473 79.2916 295.473Z" fill="#F2F2F2"/>
<path d="M82.2123 294.087H87.1508V293.402H82.2123V294.087Z" fill="#F2F2F2"/>
<path d="M89.8138 296.141C90.3702 296.141 90.858 295.97 91.2346 295.619V294.883C90.8837 295.225 90.4472 295.473 89.8823 295.473C88.9494 295.473 88.2305 294.763 88.2305 293.847C88.2305 292.931 88.9494 292.229 89.8823 292.229C90.4472 292.229 90.8837 292.469 91.2346 292.82V292.075C90.858 291.733 90.3702 291.553 89.8138 291.553C88.4444 291.553 87.4773 292.538 87.4773 293.847C87.4773 295.157 88.4444 296.141 89.8138 296.141Z" fill="#F2F2F2"/>
<path d="M94.1659 291.553C92.865 291.553 91.9235 292.555 91.9235 293.847C91.9235 295.234 92.9077 296.141 94.2344 296.141C95.2785 296.141 96.0574 295.516 96.2885 294.771L95.6295 294.694C95.4326 295.114 94.9704 295.516 94.2429 295.516C93.387 295.516 92.7195 294.943 92.6681 294.078H96.4169C96.4426 292.521 95.5096 291.553 94.1659 291.553ZM94.1659 292.17C95.0218 292.17 95.6124 292.752 95.638 293.505H92.6681C92.728 292.734 93.3528 292.17 94.1659 292.17Z" fill="#F2F2F2"/>
<path d="M99.812 291.562C98.939 291.562 98.2885 292.007 98.0147 292.675V292.657L97.9034 291.647H97.27V298.024H98.0147V295.088C98.357 295.747 99.0075 296.141 99.7778 296.141C101.13 296.141 102.02 295.174 102.02 293.864C102.02 292.572 101.156 291.562 99.812 291.562ZM99.6323 295.473C98.6908 295.473 98.0232 294.763 98.0232 293.856C98.0232 292.94 98.6908 292.229 99.6323 292.229C100.582 292.229 101.267 292.906 101.267 293.856C101.267 294.797 100.582 295.473 99.6323 295.473Z" fill="#F2F2F2"/>
<path d="M105.583 293.685C106.011 293.599 106.319 293.308 106.319 292.743C106.319 292.067 105.788 291.656 104.779 291.656H102.878V296.055H104.881C106.02 296.055 106.61 295.516 106.61 294.771C106.61 294.189 106.208 293.753 105.583 293.685ZM104.804 292.229C105.343 292.229 105.652 292.461 105.652 292.871C105.652 293.308 105.343 293.513 104.804 293.513H103.546V292.229H104.804ZM103.546 295.482V294.018H104.975C105.583 294.018 105.934 294.301 105.934 294.754C105.934 295.199 105.583 295.482 104.941 295.482H103.546Z" fill="#F2F2F2"/>
<path d="M108.12 295.02V291.647H107.384V296.055H108.068L110.816 292.726V296.055H111.56V291.647H110.867L108.12 295.02Z" fill="#F2F2F2"/>
<path d="M114.772 296.141C115.328 296.141 115.816 295.97 116.192 295.619V294.883C115.842 295.225 115.405 295.473 114.84 295.473C113.907 295.473 113.188 294.763 113.188 293.847C113.188 292.931 113.907 292.229 114.84 292.229C115.405 292.229 115.842 292.469 116.192 292.82V292.075C115.816 291.733 115.328 291.553 114.772 291.553C113.402 291.553 112.435 292.538 112.435 293.847C112.435 295.157 113.402 296.141 114.772 296.141Z" fill="#F2F2F2"/>
<path d="M119.124 291.553C117.823 291.553 116.881 292.555 116.881 293.847C116.881 295.234 117.866 296.141 119.192 296.141C120.236 296.141 121.015 295.516 121.246 294.771L120.587 294.694C120.39 295.114 119.928 295.516 119.201 295.516C118.345 295.516 117.677 294.943 117.626 294.078H121.375C121.4 292.521 120.467 291.553 119.124 291.553ZM119.124 292.17C119.98 292.17 120.57 292.752 120.596 293.505H117.626C117.686 292.734 118.311 292.17 119.124 292.17Z" fill="#F2F2F2"/>
<path d="M17.7154 305.235C19.0505 305.235 20.0605 304.25 20.0605 302.941C20.0605 301.631 19.0505 300.647 17.7154 300.647C16.3716 300.647 15.3617 301.631 15.3617 302.941C15.3617 304.25 16.3716 305.235 17.7154 305.235ZM17.7154 304.559C16.7996 304.559 16.0892 303.857 16.0892 302.932C16.0892 302.017 16.7996 301.323 17.7154 301.323C18.6312 301.323 19.333 302.017 19.333 302.932C19.333 303.857 18.6312 304.559 17.7154 304.559Z" fill="#F2F2F2"/>
<path d="M25.5609 302.778C25.9888 302.693 26.297 302.402 26.297 301.837C26.297 301.161 25.7663 300.75 24.7564 300.75H22.8563V305.149H24.8591C25.9974 305.149 26.588 304.61 26.588 303.865C26.588 303.283 26.1857 302.847 25.5609 302.778ZM24.782 301.323C25.3213 301.323 25.6294 301.554 25.6294 301.965C25.6294 302.402 25.3213 302.607 24.782 302.607H23.5239V301.323H24.782ZM23.5239 304.576V303.112H24.9532C25.5609 303.112 25.9118 303.395 25.9118 303.848C25.9118 304.293 25.5609 304.576 24.919 304.576H23.5239Z" fill="#F2F2F2"/>
<path d="M28.0975 304.113V300.741H27.3614V305.149H28.0461L30.7935 301.82V305.149H31.5381V300.741H30.8449L28.0975 304.113Z" fill="#F2F2F2"/>
<path d="M35.4257 302.821C35.8707 302.624 36.0676 302.282 36.0676 301.897C36.0676 301.161 35.3914 300.647 34.2788 300.647C33.0549 300.647 32.3958 301.332 32.3702 302.128H33.0891C33.0891 301.606 33.5342 301.229 34.2445 301.229C34.8865 301.229 35.3315 301.503 35.3315 301.931C35.3315 302.427 34.7666 302.616 34.2445 302.616H33.7995V303.146H34.2959C34.9293 303.146 35.5369 303.343 35.5369 303.865C35.5369 304.302 35.0919 304.661 34.3387 304.661C33.5513 304.661 33.0035 304.268 33.0035 303.728H32.2846C32.3102 304.567 33.0121 305.235 34.3216 305.235C35.6054 305.235 36.2816 304.618 36.2816 303.848C36.2816 303.343 35.982 302.984 35.4257 302.821Z" fill="#F2F2F2"/>
<path d="M40.4204 300.741C39.4019 303.181 39.1281 303.908 38.9826 304.473C38.8371 303.908 38.5375 303.155 37.4933 300.741H36.6802L38.5974 305.158L37.7929 307.118H38.5803L41.2164 300.741H40.4204Z" fill="#F2F2F2"/>
<path d="M45.4032 301.743V301.7C45.0609 301.049 44.4104 300.647 43.6487 300.647C42.2878 300.647 41.3977 301.623 41.3977 302.932C41.3977 304.225 42.2707 305.235 43.6059 305.235C44.4789 305.235 45.1294 304.79 45.4032 304.113V305.149H46.1564V300.741H45.5145L45.4032 301.743ZM43.7856 304.567C42.8356 304.567 42.1594 303.891 42.1594 302.941C42.1594 301.999 42.8356 301.323 43.7856 301.323C44.7271 301.323 45.3947 302.034 45.3947 302.941C45.3947 303.857 44.7271 304.567 43.7856 304.567Z" fill="#F2F2F2"/>
<path d="M46.8775 305.166C47.6735 305.175 48.3839 304.704 48.3839 303.497V301.409H50.3952V305.149H51.1313V300.741H47.6649V303.48C47.6649 304.293 47.237 304.482 46.8775 304.499V305.166Z" fill="#F2F2F2"/>
<path d="M52.9633 302.196V300.741H52.2273V305.149H54.1359C55.1801 305.149 55.9076 304.61 55.9076 303.677C55.9076 302.736 55.1801 302.196 54.1359 302.196H52.9633ZM52.9633 304.516V302.83H54.0674C54.7094 302.83 55.1715 303.104 55.1715 303.668C55.1715 304.233 54.7094 304.516 54.0674 304.516H52.9633Z" fill="#F2F2F2"/>
<path d="M59.9105 302.616H57.3514V300.741H56.6154V305.149H57.3514V303.266H59.9105V305.149H60.6552V300.741H59.9105V302.616Z" fill="#F2F2F2"/>
<path d="M62.4834 302.196V300.741H61.7474V305.149H63.656C64.7002 305.149 65.4277 304.61 65.4277 303.677C65.4277 302.736 64.7002 302.196 63.656 302.196H62.4834ZM66.1381 305.149H66.8827V300.741H66.1381V305.149ZM62.4834 304.516V302.83H63.5875C64.2294 302.83 64.6916 303.104 64.6916 303.668C64.6916 304.233 64.2294 304.516 63.5875 304.516H62.4834Z" fill="#F2F2F2"/>
<path d="M71.064 300.741C70.1482 301.854 69.8829 302.213 69.7288 302.539C69.5748 302.188 69.3009 301.82 68.4108 300.741H67.5549L69.3095 302.932L67.5549 305.149H68.4108C69.2752 304.045 69.5662 303.634 69.7288 303.283C69.8829 303.634 70.1825 304.045 71.064 305.149H71.9285L70.1653 302.898L71.9285 300.741H71.064Z" fill="#F2F2F2"/>
<path d="M76.7833 305.235C78.1185 305.235 79.1284 304.25 79.1284 302.941C79.1284 301.631 78.1185 300.647 76.7833 300.647C75.4395 300.647 74.4296 301.631 74.4296 302.941C74.4296 304.25 75.4395 305.235 76.7833 305.235ZM76.7833 304.559C75.8675 304.559 75.1571 303.857 75.1571 302.932C75.1571 302.017 75.8675 301.323 76.7833 301.323C77.6991 301.323 78.4009 302.017 78.4009 302.932C78.4009 303.857 77.6991 304.559 76.7833 304.559Z" fill="#F2F2F2"/>
<path d="M82.219 300.81C81.5514 300.81 80.8667 301.092 80.5243 301.811C80.5757 300.39 81.2347 299.911 82.1334 299.723L83.8708 299.363V298.721L81.9622 299.115C80.6099 299.389 79.8054 300.322 79.8054 302.017V302.821C79.8054 304.439 80.9009 305.235 82.1077 305.235C83.4429 305.235 84.3929 304.302 84.3929 303.001C84.3929 301.7 83.4771 300.81 82.219 300.81ZM82.1163 304.559C81.2005 304.559 80.55 303.908 80.55 302.992C80.55 302.085 81.2005 301.443 82.1163 301.443C83.015 301.443 83.6569 302.085 83.6569 302.992C83.6569 303.908 83.015 304.559 82.1163 304.559Z" fill="#F2F2F2"/>
<path d="M87.726 300.656C86.8529 300.656 86.2025 301.101 85.9286 301.768V301.751L85.8173 300.741H85.184V307.118H85.9286V304.182C86.2709 304.841 86.9214 305.235 87.6917 305.235C89.044 305.235 89.9341 304.268 89.9341 302.958C89.9341 301.666 89.0697 300.656 87.726 300.656ZM87.5462 304.567C86.6047 304.567 85.9371 303.857 85.9371 302.949C85.9371 302.034 86.6047 301.323 87.5462 301.323C88.4962 301.323 89.181 301.999 89.181 302.949C89.181 303.891 88.4962 304.567 87.5462 304.567Z" fill="#F2F2F2"/>
<path d="M94.5583 301.743V301.7C94.2159 301.049 93.5654 300.647 92.8037 300.647C91.4428 300.647 90.5527 301.623 90.5527 302.932C90.5527 304.225 91.4257 305.235 92.7609 305.235C93.6339 305.235 94.2844 304.79 94.5583 304.113V305.149H95.3115V300.741H94.6695L94.5583 301.743ZM92.9406 304.567C91.9906 304.567 91.3145 303.891 91.3145 302.941C91.3145 301.999 91.9906 301.323 92.9406 301.323C93.8821 301.323 94.5497 302.034 94.5497 302.941C94.5497 303.857 93.8821 304.567 92.9406 304.567Z" fill="#F2F2F2"/>
<path d="M99.1993 302.821C99.6444 302.624 99.8412 302.282 99.8412 301.897C99.8412 301.161 99.1651 300.647 98.0524 300.647C96.8285 300.647 96.1695 301.332 96.1438 302.128H96.8627C96.8627 301.606 97.3078 301.229 98.0182 301.229C98.6601 301.229 99.1052 301.503 99.1052 301.931C99.1052 302.427 98.5403 302.616 98.0182 302.616H97.5731V303.146H98.0695C98.7029 303.146 99.3106 303.343 99.3106 303.865C99.3106 304.302 98.8655 304.661 98.1124 304.661C97.3249 304.661 96.7772 304.268 96.7772 303.728H96.0582C96.0839 304.567 96.7857 305.235 98.0952 305.235C99.3791 305.235 100.055 304.618 100.055 303.848C100.055 303.343 99.7557 302.984 99.1993 302.821Z" fill="#F2F2F2"/>
<path d="M104.605 301.743V301.7C104.263 301.049 103.612 300.647 102.85 300.647C101.489 300.647 100.599 301.623 100.599 302.932C100.599 304.225 101.472 305.235 102.808 305.235C103.681 305.235 104.331 304.79 104.605 304.113V305.149H105.358V300.741H104.716L104.605 301.743ZM102.987 304.567C102.037 304.567 101.361 303.891 101.361 302.941C101.361 301.999 102.037 301.323 102.987 301.323C103.929 301.323 104.596 302.034 104.596 302.941C104.596 303.857 103.929 304.567 102.987 304.567Z" fill="#F2F2F2"/>
<path d="M109.546 300.741C108.63 301.854 108.364 302.213 108.21 302.539C108.056 302.188 107.782 301.82 106.892 300.741H106.036L107.791 302.932L106.036 305.149H106.892C107.757 304.045 108.048 303.634 108.21 303.283C108.364 303.634 108.664 304.045 109.546 305.149H110.41L108.647 302.898L110.41 300.741H109.546Z" fill="#F2F2F2"/>
<path d="M17.878 312.026L16.2946 309.835H15.6013V314.243H16.3374C16.3374 312.557 16.3288 311.701 16.2432 310.7C16.6712 311.436 17.082 312.06 17.878 313.07C18.6996 312.026 19.119 311.393 19.5213 310.674C19.4357 311.701 19.4186 312.557 19.4186 314.243H20.1632V309.835H19.4614L17.878 312.026Z" fill="#F2F2F2"/>
<path d="M24.6149 309.835C23.5964 312.274 23.3226 313.002 23.1771 313.567C23.0316 313.002 22.732 312.249 21.6878 309.835H20.8747L22.7919 314.251L21.9874 316.211H22.7748L25.4109 309.835H24.6149Z" fill="#F2F2F2"/>
<path d="M28.9229 311.915C29.368 311.718 29.5648 311.376 29.5648 310.991C29.5648 310.254 28.8887 309.741 27.776 309.741C26.5521 309.741 25.8931 310.426 25.8674 311.222H26.5864C26.5864 310.7 27.0314 310.323 27.7418 310.323C28.3837 310.323 28.8288 310.597 28.8288 311.025C28.8288 311.521 28.2639 311.709 27.7418 311.709H27.2967V312.24H27.7932C28.4265 312.24 29.0342 312.437 29.0342 312.959C29.0342 313.396 28.5891 313.755 27.836 313.755C27.0485 313.755 26.5008 313.361 26.5008 312.822H25.7818C25.8075 313.661 26.5093 314.329 27.8188 314.329C29.1027 314.329 29.7788 313.712 29.7788 312.942C29.7788 312.437 29.4793 312.078 28.9229 311.915Z" fill="#F2F2F2"/>
<path d="M31.2987 311.29V309.835H30.5626V314.243H32.4713C33.5154 314.243 34.2429 313.704 34.2429 312.771C34.2429 311.829 33.5154 311.29 32.4713 311.29H31.2987ZM34.9533 314.243H35.698V309.835H34.9533V314.243ZM31.2987 313.61V311.923H32.4028C33.0447 311.923 33.5069 312.197 33.5069 312.762C33.5069 313.327 33.0447 313.61 32.4028 313.61H31.2987Z" fill="#F2F2F2"/>
<path d="M38.236 311.872L40.6154 309.835H39.7167L37.4914 311.727C37.5342 311.273 37.5342 310.759 37.5342 309.835H36.7895V314.243H37.5342C37.5342 313.31 37.5256 312.625 37.4828 312.018L39.7252 314.243H40.6239L38.236 311.872Z" fill="#F2F2F2"/>
<path d="M44.6092 310.836V310.794C44.2669 310.143 43.6164 309.741 42.8546 309.741C41.4938 309.741 40.6037 310.717 40.6037 312.026C40.6037 313.319 41.4767 314.329 42.8118 314.329C43.6849 314.329 44.3353 313.883 44.6092 313.207V314.243H45.3624V309.835H44.7205L44.6092 310.836ZM42.9916 313.661C42.0415 313.661 41.3654 312.985 41.3654 312.035C41.3654 311.093 42.0415 310.417 42.9916 310.417C43.9331 310.417 44.6007 311.127 44.6007 312.035C44.6007 312.951 43.9331 313.661 42.9916 313.661Z" fill="#F2F2F2"/>
<path d="M49.7552 311.709H47.1961V309.835H46.4601V314.243H47.1961V312.36H49.7552V314.243H50.4999V309.835H49.7552V311.709Z" fill="#F2F2F2"/>
<path d="M53.2354 314.243V310.503H54.639V309.835H51.0785V310.503H52.4907V314.243H53.2354Z" fill="#F2F2F2"/>
<path d="M57.1998 314.329C58.535 314.329 59.545 313.344 59.545 312.035C59.545 310.725 58.535 309.741 57.1998 309.741C55.8561 309.741 54.8462 310.725 54.8462 312.035C54.8462 313.344 55.8561 314.329 57.1998 314.329ZM57.1998 313.652C56.284 313.652 55.5737 312.951 55.5737 312.026C55.5737 311.11 56.284 310.417 57.1998 310.417C58.1156 310.417 58.8175 311.11 58.8175 312.026C58.8175 312.951 58.1156 313.652 57.1998 313.652Z" fill="#F2F2F2"/>
<path d="M63.1063 311.872C63.5342 311.787 63.8423 311.496 63.8423 310.931C63.8423 310.254 63.3117 309.844 62.3017 309.844H60.4017V314.243H62.4044C63.5428 314.243 64.1333 313.704 64.1333 312.959C64.1333 312.377 63.7311 311.941 63.1063 311.872ZM62.3274 310.417C62.8666 310.417 63.1747 310.648 63.1747 311.059C63.1747 311.496 62.8666 311.701 62.3274 311.701H61.0693V310.417H62.3274ZM61.0693 313.669V312.206H62.4986C63.1063 312.206 63.4572 312.488 63.4572 312.942C63.4572 313.387 63.1063 313.669 62.4644 313.669H61.0693Z" fill="#F2F2F2"/>
<path d="M68.5149 308.406C68.6861 308.406 68.8744 308.44 69.0541 308.491V307.884C68.8658 307.824 68.6261 307.772 68.3865 307.772C67.6847 307.772 67.1112 308.175 67.1112 309.133V309.835H66.5891V310.426H67.1112V314.243H67.8559V310.426H69.037V309.835H67.8559V309.227C67.8216 308.62 68.0784 308.406 68.5149 308.406Z" fill="#F2F2F2"/>
<path d="M69.7713 307.824V314.243H70.5159V307.824H69.7713Z" fill="#F2F2F2"/>
<path d="M75.376 310.836V310.794C75.0337 310.143 74.3832 309.741 73.6215 309.741C72.2606 309.741 71.3705 310.717 71.3705 312.026C71.3705 313.319 72.2435 314.329 73.5787 314.329C74.4517 314.329 75.1021 313.883 75.376 313.207V314.243H76.1292V309.835H75.4873L75.376 310.836ZM73.7584 313.661C72.8084 313.661 72.1322 312.985 72.1322 312.035C72.1322 311.093 72.8084 310.417 73.7584 310.417C74.6999 310.417 75.3675 311.127 75.3675 312.035C75.3675 312.951 74.6999 313.661 73.7584 313.661Z" fill="#F2F2F2"/>
<path d="M80.4108 309.835C79.3752 312.497 79.1954 313.019 79.0585 313.618C78.913 313.062 78.7247 312.531 77.6548 309.835H76.8417L78.6648 314.243H79.4351L81.2068 309.835H80.4108Z" fill="#F2F2F2"/>
<path d="M85.3809 310.836V310.794C85.0385 310.143 84.3881 309.741 83.6263 309.741C82.2654 309.741 81.3753 310.717 81.3753 312.026C81.3753 313.319 82.2483 314.329 83.5835 314.329C84.4565 314.329 85.107 313.883 85.3809 313.207V314.243H86.1341V309.835H85.4921L85.3809 310.836ZM83.7633 313.661C82.8132 313.661 82.1371 312.985 82.1371 312.035C82.1371 311.093 82.8132 310.417 83.7633 310.417C84.7047 310.417 85.3723 311.127 85.3723 312.035C85.3723 312.951 84.7047 313.661 83.7633 313.661Z" fill="#F2F2F2"/>
<path d="M17.2617 390.022C17.4329 390.022 17.6212 390.056 17.8009 390.108V389.5C17.6126 389.44 17.373 389.389 17.1333 389.389C16.4315 389.389 15.858 389.791 15.858 390.749V391.451H15.3359V392.041H15.858V395.858H16.6027V392.041H17.7838V391.451H16.6027V390.843C16.5684 390.236 16.8252 390.022 17.2617 390.022Z" fill="#F2F2F2"/>
<path d="M18.5181 389.44V395.858H19.2627V389.44H18.5181Z" fill="#F2F2F2"/>
<path d="M24.1228 392.452V392.409C23.7805 391.759 23.13 391.357 22.3683 391.357C21.0074 391.357 20.1173 392.332 20.1173 393.642C20.1173 394.934 20.9903 395.943 22.3255 395.943C23.1985 395.943 23.8489 395.499 24.1228 394.823V395.858H24.876V391.451H24.2341L24.1228 392.452ZM22.5052 395.276C21.5552 395.276 20.879 394.6 20.879 393.65C20.879 392.709 21.5552 392.033 22.5052 392.033C23.4467 392.033 24.1143 392.743 24.1143 393.65C24.1143 394.566 23.4467 395.276 22.5052 395.276Z" fill="#F2F2F2"/>
<path d="M29.1576 391.451C28.122 394.112 27.9422 394.634 27.8053 395.233C27.6598 394.677 27.4715 394.147 26.4016 391.451H25.5885L27.4116 395.858H28.1819L29.9536 391.451H29.1576Z" fill="#F2F2F2"/>
<path d="M34.1277 392.452V392.409C33.7853 391.759 33.1349 391.357 32.3731 391.357C31.0123 391.357 30.1221 392.332 30.1221 393.642C30.1221 394.934 30.9951 395.943 32.3303 395.943C33.2033 395.943 33.8538 395.499 34.1277 394.823V395.858H34.8809V391.451H34.239L34.1277 392.452ZM32.5101 395.276C31.56 395.276 30.8839 394.6 30.8839 393.65C30.8839 392.709 31.56 392.033 32.5101 392.033C33.4515 392.033 34.1191 392.743 34.1191 393.65C34.1191 394.566 33.4515 395.276 32.5101 395.276Z" fill="#F2F2F2"/>
<path d="M36.5605 395.943C36.8088 395.943 37.0142 395.747 37.0142 395.481C37.0142 395.233 36.8088 395.028 36.5605 395.028C36.3038 395.028 36.0984 395.233 36.0984 395.481C36.0984 395.747 36.3038 395.943 36.5605 395.943Z" fill="#F2F2F2"/>
<path d="M40.2992 395.943C40.8555 395.943 41.3434 395.772 41.7199 395.422V394.686C41.369 395.028 40.9325 395.276 40.3676 395.276C39.4347 395.276 38.7158 394.566 38.7158 393.65C38.7158 392.735 39.4347 392.033 40.3676 392.033C40.9325 392.033 41.369 392.273 41.7199 392.623V391.879C41.3434 391.537 40.8555 391.357 40.2992 391.357C38.9298 391.357 37.9626 392.341 37.9626 393.65C37.9626 394.959 38.9298 395.943 40.2992 395.943Z" fill="#F2F2F2"/>
<path d="M44.7625 395.943C46.0977 395.943 47.1076 394.959 47.1076 393.65C47.1076 392.341 46.0977 391.357 44.7625 391.357C43.4188 391.357 42.4088 392.341 42.4088 393.65C42.4088 394.959 43.4188 395.943 44.7625 395.943ZM44.7625 395.267C43.8467 395.267 43.1363 394.566 43.1363 393.642C43.1363 392.726 43.8467 392.033 44.7625 392.033C45.6783 392.033 46.3801 392.726 46.3801 393.642C46.3801 394.566 45.6783 395.267 44.7625 395.267Z" fill="#F2F2F2"/>
<path d="M52.9969 391.357C52.2609 391.357 51.7645 391.708 51.4906 392.221C51.2338 391.674 50.7288 391.357 50.0869 391.357C49.4022 391.357 48.94 391.699 48.6918 392.204L48.5891 391.451H47.9643V395.858H48.7089V393.308C48.7089 392.461 49.1882 392.007 49.8473 392.007C50.4806 392.007 50.9342 392.444 50.9342 393.308V395.858H51.6789V393.308C51.6789 392.461 52.1496 392.007 52.8172 392.007C53.4506 392.007 53.8956 392.444 53.8956 393.308V395.858H54.6488V393.128C54.6488 392.041 53.9898 391.357 52.9969 391.357Z" fill="#F2F2F2"/>
<path fill-rule="evenodd" clip-rule="evenodd" d="M1.80316 395.898L548.148 395.898L548.148 396.966L1.80316 396.966L1.80316 395.898Z" fill="#FC62FF"/>
<path fill-rule="evenodd" clip-rule="evenodd" d="M1.80316 296.658L548.148 296.658L548.148 297.727L1.80316 297.727L1.80316 296.658Z" fill="#FC62FF"/>
<path fill-rule="evenodd" clip-rule="evenodd" d="M1.80316 197.953L548.148 197.954L548.148 199.022L1.80316 199.022L1.80316 197.953Z" fill="#FC62FF"/>
<path fill-rule="evenodd" clip-rule="evenodd" d="M1.80316 98.7148L548.148 98.7149L548.148 99.7832L1.80316 99.7832L1.80316 98.7148Z" fill="#FC62FF"/>
<path fill-rule="evenodd" clip-rule="evenodd" d="M1.80316 0.0097657L548.148 0.00978959L548.148 1.07812L1.80316 1.0781L1.80316 0.0097657Z" fill="#FC62FF"/>
<path fill-rule="evenodd" clip-rule="evenodd" d="M548.145 0.0106202L548.145 409.77L547.078 409.77L547.078 0.0106201L548.145 0.0106202Z" fill="#FC62FF"/>
<path fill-rule="evenodd" clip-rule="evenodd" d="M413.692 0.0106202L413.692 409.77L412.625 409.77L412.625 0.0106201L413.692 0.0106202Z" fill="#FC62FF"/>
<path fill-rule="evenodd" clip-rule="evenodd" d="M281.911 0.0106202L281.911 409.77L280.844 409.77L280.844 0.0106201L281.911 0.0106202Z" fill="#FC62FF"/>
<path fill-rule="evenodd" clip-rule="evenodd" d="M149.059 0.0106202L149.059 409.77L147.992 409.77L147.992 0.0106201L149.059 0.0106202Z" fill="#FC62FF"/>
<path fill-rule="evenodd" clip-rule="evenodd" d="M15.6687 0.0106202L15.6686 409.77L14.6016 409.77L14.6016 0.0106201L15.6687 0.0106202Z" fill="#FC62FF"/>
<path fill-rule="evenodd" clip-rule="evenodd" d="M0.732849 112.587L547.078 112.587L547.078 113.654L0.732849 113.654L0.732849 112.587Z" fill="#FC62FF"/>
<path fill-rule="evenodd" clip-rule="evenodd" d="M1.80316 211.825L548.148 211.825L548.148 212.893L1.80316 212.893L1.80316 211.825Z" fill="#FC62FF"/>
<path fill-rule="evenodd" clip-rule="evenodd" d="M1.80316 310.531L548.148 310.531L548.148 311.598L1.80316 311.598L1.80316 310.531Z" fill="#FC62FF"/>
<path fill-rule="evenodd" clip-rule="evenodd" d="M1.80316 13.8821L548.148 13.8821L548.148 14.9492L1.80316 14.9492L1.80316 13.8821Z" fill="#FC62FF"/>
<path fill-rule="evenodd" clip-rule="evenodd" d="M1.80316 409.77L548.148 409.77L548.148 410.837L1.80316 410.837L1.80316 409.77Z" fill="#FC62FF"/>
<path fill-rule="evenodd" clip-rule="evenodd" d="M534.278 0.0106202L534.278 409.77L533.211 409.77L533.211 0.0106201L534.278 0.0106202Z" fill="#FC62FF"/>
<path fill-rule="evenodd" clip-rule="evenodd" d="M399.817 0.0106202L399.817 409.77L398.75 409.77L398.75 0.0106201L399.817 0.0106202Z" fill="#FC62FF"/>
<path fill-rule="evenodd" clip-rule="evenodd" d="M135.184 0.0106202L135.184 409.77L134.117 409.77L134.117 0.0106201L135.184 0.0106202Z" fill="#FC62FF"/>
<path fill-rule="evenodd" clip-rule="evenodd" d="M2.87181 0.0106202L2.87177 409.77L1.80469 409.77L1.80473 0.0106201L2.87181 0.0106202Z" fill="#FC62FF"/>
<path fill-rule="evenodd" clip-rule="evenodd" d="M268.036 0.0106202L268.036 409.77L266.969 409.77L266.969 0.0106201L268.036 0.0106202Z" fill="#FC62FF"/>
</svg>
