<svg width="550" height="310" viewBox="0 0 550 310" fill="none" xmlns="http://www.w3.org/2000/svg">
<path d="M0.84375 1H548.573V308.812H0.84375V1Z" fill="#111112"/>
<path d="M287.679 256.174C290.52 256.174 291.958 254.822 291.958 252.751C291.958 251.193 291.051 249.926 289.459 249.653C290.589 249.327 291.273 248.454 291.273 247.017C291.273 245.185 289.99 244.021 287.439 244.021H283.194V256.174H287.679ZM284.718 245.339H287.439C288.928 245.339 289.733 246.058 289.733 247.291C289.733 248.608 288.928 249.242 287.439 249.242H284.718V245.339ZM284.718 250.406H287.781C289.459 250.406 290.417 251.347 290.417 252.733C290.417 254.086 289.459 254.856 287.679 254.856H284.718V250.406Z" fill="#F2F2F2"/>
<path d="M297.963 256.345C299.076 256.345 300.052 256.003 300.805 255.301V253.829C300.103 254.514 299.23 255.01 298.1 255.01C296.235 255.01 294.797 253.589 294.797 251.758C294.797 249.926 296.235 248.523 298.1 248.523C299.23 248.523 300.103 249.002 300.805 249.704V248.215C300.052 247.53 299.076 247.171 297.963 247.171C295.225 247.171 293.291 249.139 293.291 251.758C293.291 254.377 295.225 256.345 297.963 256.345Z" fill="#F2F2F2"/>
<path d="M305.126 245.921C305.606 245.921 305.982 245.545 305.982 245.065C305.982 244.586 305.606 244.21 305.126 244.21C304.63 244.21 304.253 244.586 304.253 245.065C304.253 245.545 304.63 245.921 305.126 245.921ZM308.207 245.921C308.687 245.921 309.063 245.545 309.063 245.065C309.063 244.586 308.687 244.21 308.207 244.21C307.711 244.21 307.334 244.586 307.334 245.065C307.334 245.545 307.711 245.921 308.207 245.921ZM306.667 247.171C304.065 247.171 302.182 249.173 302.182 251.758C302.182 254.531 304.151 256.345 306.804 256.345C308.892 256.345 310.45 255.096 310.912 253.606L309.594 253.452C309.2 254.291 308.276 255.096 306.821 255.096C305.109 255.096 303.774 253.949 303.672 252.22H311.169C311.22 249.105 309.354 247.171 306.667 247.171ZM306.667 248.403C308.379 248.403 309.56 249.567 309.611 251.073H303.672C303.791 249.533 305.041 248.403 306.667 248.403Z" fill="#F2F2F2"/>
<path d="M320.98 256.345C323.651 256.345 325.67 254.377 325.67 251.758C325.67 249.139 323.651 247.171 320.98 247.171C318.293 247.171 316.273 249.139 316.273 251.758C316.273 254.377 318.293 256.345 320.98 256.345ZM320.98 254.993C319.149 254.993 317.728 253.589 317.728 251.741C317.728 249.909 319.149 248.523 320.98 248.523C322.812 248.523 324.215 249.909 324.215 251.741C324.215 253.589 322.812 254.993 320.98 254.993Z" fill="#F2F2F2"/>
<path d="M331.851 247.496C330.516 247.496 329.147 248.061 328.462 249.499C328.565 246.657 329.883 245.699 331.68 245.322L335.155 244.603V243.32L331.338 244.107C328.633 244.655 327.024 246.52 327.024 249.909V251.518C327.024 254.753 329.215 256.345 331.629 256.345C334.299 256.345 336.199 254.479 336.199 251.878C336.199 249.276 334.367 247.496 331.851 247.496ZM331.646 254.993C329.814 254.993 328.513 253.692 328.513 251.861C328.513 250.046 329.814 248.763 331.646 248.763C333.443 248.763 334.727 250.046 334.727 251.861C334.727 253.692 333.443 254.993 331.646 254.993Z" fill="#F2F2F2"/>
<path d="M345.886 256.345C348.557 256.345 350.576 254.377 350.576 251.758C350.576 249.139 348.557 247.171 345.886 247.171C343.199 247.171 341.179 249.139 341.179 251.758C341.179 254.377 343.199 256.345 345.886 256.345ZM345.886 254.993C344.055 254.993 342.634 253.589 342.634 251.741C342.634 249.909 344.055 248.523 345.886 248.523C347.718 248.523 349.121 249.909 349.121 251.741C349.121 253.589 347.718 254.993 345.886 254.993Z" fill="#F2F2F2"/>
<path d="M356.757 247.496C355.422 247.496 354.053 248.061 353.368 249.499C353.471 246.657 354.789 245.699 356.586 245.322L360.06 244.603V243.32L356.243 244.107C353.539 244.655 351.93 246.52 351.93 249.909V251.518C351.93 254.753 354.121 256.345 356.534 256.345C359.205 256.345 361.105 254.479 361.105 251.878C361.105 249.276 359.273 247.496 356.757 247.496ZM356.552 254.993C354.72 254.993 353.419 253.692 353.419 251.861C353.419 250.046 354.72 248.763 356.552 248.763C358.349 248.763 359.633 250.046 359.633 251.861C359.633 253.692 358.349 254.993 356.552 254.993Z" fill="#F2F2F2"/>
<path d="M367.77 247.188C366.024 247.188 364.723 248.078 364.176 249.413V249.379L363.953 247.359H362.687V260.111H364.176V254.24C364.86 255.558 366.161 256.345 367.702 256.345C370.406 256.345 372.186 254.411 372.186 251.792C372.186 249.208 370.457 247.188 367.77 247.188ZM367.411 255.01C365.528 255.01 364.193 253.589 364.193 251.775C364.193 249.944 365.528 248.523 367.411 248.523C369.311 248.523 370.68 249.875 370.68 251.775C370.68 253.658 369.311 255.01 367.411 255.01Z" fill="#F2F2F2"/>
<path d="M381.434 249.362V249.276C380.749 247.975 379.448 247.171 377.925 247.171C375.203 247.171 373.423 249.122 373.423 251.741C373.423 254.325 375.169 256.345 377.839 256.345C379.585 256.345 380.886 255.455 381.434 254.103V256.174H382.94V247.359H381.656L381.434 249.362ZM378.199 255.01C376.299 255.01 374.947 253.658 374.947 251.758C374.947 249.875 376.299 248.523 378.199 248.523C380.082 248.523 381.417 249.944 381.417 251.758C381.417 253.589 380.082 255.01 378.199 255.01Z" fill="#F2F2F2"/>
<path d="M390.715 251.518C391.605 251.125 391.999 250.44 391.999 249.67C391.999 248.198 390.647 247.171 388.422 247.171C385.974 247.171 384.656 248.54 384.605 250.132H386.042C386.042 249.088 386.932 248.335 388.353 248.335C389.637 248.335 390.527 248.882 390.527 249.738C390.527 250.731 389.397 251.107 388.353 251.107H387.463V252.169H388.456C389.722 252.169 390.938 252.562 390.938 253.606C390.938 254.479 390.048 255.198 388.541 255.198C386.967 255.198 385.871 254.411 385.871 253.333H384.433C384.485 255.01 385.888 256.345 388.507 256.345C391.075 256.345 392.427 255.113 392.427 253.572C392.427 252.562 391.828 251.843 390.715 251.518Z" fill="#F2F2F2"/>
<path d="M401.526 249.362V249.276C400.841 247.975 399.54 247.171 398.017 247.171C395.295 247.171 393.515 249.122 393.515 251.741C393.515 254.325 395.261 256.345 397.931 256.345C399.677 256.345 400.978 255.455 401.526 254.103V256.174H403.032V247.359H401.748L401.526 249.362ZM398.291 255.01C396.391 255.01 395.038 253.658 395.038 251.758C395.038 249.875 396.391 248.523 398.291 248.523C400.173 248.523 401.509 249.944 401.509 251.758C401.509 253.589 400.173 255.01 398.291 255.01Z" fill="#F2F2F2"/>
<path d="M411.406 247.359C409.575 249.584 409.044 250.303 408.736 250.953C408.428 250.252 407.88 249.516 406.1 247.359H404.388L407.897 251.741L404.388 256.174H406.1C407.829 253.966 408.411 253.144 408.736 252.443C409.044 253.144 409.643 253.966 411.406 256.174H413.135L409.609 251.672L413.135 247.359H411.406Z" fill="#F2F2F2"/>
<path d="M417.863 256.208C419.455 256.225 420.876 255.284 420.876 252.87V248.694H424.898V256.174H426.37V247.359H419.438V252.836C419.438 254.462 418.582 254.839 417.863 254.873V256.208Z" fill="#F2F2F2"/>
<path d="M435.802 247.205C433.44 247.205 431.66 248.814 431.369 251.073H430.034V247.359H428.562V256.174H430.034V252.288H431.352C431.574 254.65 433.389 256.311 435.802 256.311C438.387 256.311 440.287 254.394 440.287 251.758C440.287 249.139 438.387 247.205 435.802 247.205ZM435.802 254.959C434.073 254.959 432.772 253.606 432.772 251.758C432.772 249.909 434.073 248.54 435.802 248.54C437.548 248.54 438.849 249.909 438.849 251.758C438.849 253.606 437.548 254.959 435.802 254.959Z" fill="#F2F2F2"/>
<path d="M446.468 247.496C445.133 247.496 443.764 248.061 443.079 249.499C443.182 246.657 444.5 245.699 446.297 245.322L449.772 244.603V243.32L445.955 244.107C443.25 244.655 441.641 246.52 441.641 249.909V251.518C441.641 254.753 443.832 256.345 446.246 256.345C448.916 256.345 450.816 254.479 450.816 251.878C450.816 249.276 448.984 247.496 446.468 247.496ZM446.263 254.993C444.431 254.993 443.131 253.692 443.131 251.861C443.131 250.046 444.431 248.763 446.263 248.763C448.06 248.763 449.344 250.046 449.344 251.861C449.344 253.692 448.06 254.993 446.263 254.993Z" fill="#F2F2F2"/>
<path d="M453.87 254.103V247.359H452.398V256.174H453.767L459.262 249.516V256.174H460.751V247.359H459.364L453.87 254.103Z" fill="#F2F2F2"/>
<path d="M467.498 251.741L464.332 247.359H462.945V256.174H464.417C464.417 252.802 464.4 251.09 464.229 249.088C465.085 250.56 465.906 251.809 467.498 253.829C469.141 251.741 469.98 250.474 470.785 249.036C470.613 251.09 470.579 252.802 470.579 256.174H472.068V247.359H470.665L467.498 251.741Z" fill="#F2F2F2"/>
<path d="M475.734 250.269V247.359H474.262V256.174H478.079C480.167 256.174 481.622 255.096 481.622 253.23C481.622 251.347 480.167 250.269 478.079 250.269H475.734ZM483.042 256.174H484.531V247.359H483.042V256.174ZM475.734 254.907V251.535H477.942C479.225 251.535 480.15 252.083 480.15 253.213C480.15 254.342 479.225 254.907 477.942 254.907H475.734Z" fill="#F2F2F2"/>
<path d="M492.894 247.359C491.062 249.584 490.531 250.303 490.223 250.953C489.915 250.252 489.368 249.516 487.587 247.359H485.876L489.385 251.741L485.876 256.174H487.587C489.316 253.966 489.898 253.144 490.223 252.443C490.531 253.144 491.131 253.966 492.894 256.174H494.622L491.096 251.672L494.622 247.359H492.894Z" fill="#F2F2F2"/>
<path d="M287.49 271.424L284.324 267.043H282.938V275.857H284.41C284.41 272.486 284.392 270.774 284.221 268.771C285.077 270.243 285.899 271.493 287.49 273.513C289.134 271.424 289.972 270.158 290.777 268.72C290.606 270.774 290.571 272.486 290.571 275.857H292.061V267.043H290.657L287.49 271.424Z" fill="#F2F2F2"/>
<path d="M300.963 267.043C298.927 271.921 298.379 273.376 298.088 274.505C297.797 273.376 297.198 271.869 295.11 267.043H293.484L297.318 275.875L295.709 279.794H297.283L302.555 267.043H300.963Z" fill="#F2F2F2"/>
<path d="M309.579 271.202C310.469 270.808 310.863 270.124 310.863 269.353C310.863 267.881 309.51 266.854 307.285 266.854C304.838 266.854 303.52 268.224 303.468 269.815H304.906C304.906 268.771 305.796 268.018 307.217 268.018C308.501 268.018 309.391 268.566 309.391 269.422C309.391 270.415 308.261 270.791 307.217 270.791H306.327V271.852H307.319C308.586 271.852 309.801 272.246 309.801 273.29C309.801 274.163 308.911 274.882 307.405 274.882C305.83 274.882 304.735 274.094 304.735 273.016H303.297C303.348 274.694 304.752 276.029 307.371 276.029C309.938 276.029 311.291 274.796 311.291 273.256C311.291 272.246 310.691 271.527 309.579 271.202Z" fill="#F2F2F2"/>
<path d="M314.33 269.952V267.043H312.858V275.857H316.675C318.763 275.857 320.218 274.779 320.218 272.913C320.218 271.031 318.763 269.952 316.675 269.952H314.33ZM321.639 275.857H323.128V267.043H321.639V275.857ZM314.33 274.591V271.219H316.538C317.822 271.219 318.746 271.767 318.746 272.896C318.746 274.026 317.822 274.591 316.538 274.591H314.33Z" fill="#F2F2F2"/>
<path d="M328.204 271.116L332.962 267.043H331.165L326.715 270.825C326.8 269.918 326.8 268.891 326.8 267.043H325.311V275.857H326.8C326.8 273.992 326.783 272.622 326.697 271.407L331.182 275.857H332.979L328.204 271.116Z" fill="#F2F2F2"/>
<path d="M340.949 269.045V268.96C340.265 267.659 338.964 266.854 337.44 266.854C334.719 266.854 332.939 268.806 332.939 271.424C332.939 274.009 334.685 276.029 337.355 276.029C339.101 276.029 340.401 275.139 340.949 273.786V275.857H342.455V267.043H341.172L340.949 269.045ZM337.714 274.694C335.814 274.694 334.462 273.341 334.462 271.441C334.462 269.559 335.814 268.207 337.714 268.207C339.597 268.207 340.932 269.627 340.932 271.441C340.932 273.273 339.597 274.694 337.714 274.694Z" fill="#F2F2F2"/>
<path d="M343.897 275.892C345.489 275.909 346.91 274.967 346.91 272.554V268.378H350.932V275.857H352.404V267.043H345.472V272.52C345.472 274.146 344.616 274.522 343.897 274.557V275.892Z" fill="#F2F2F2"/>
<path d="M356.068 269.952V267.043H354.596V275.857H358.413C360.501 275.857 361.956 274.779 361.956 272.913C361.956 271.031 360.501 269.952 358.413 269.952H356.068ZM356.068 274.591V271.219H358.276C359.56 271.219 360.484 271.767 360.484 272.896C360.484 274.026 359.56 274.591 358.276 274.591H356.068Z" fill="#F2F2F2"/>
<path d="M369.962 270.791H364.844V267.043H363.372V275.857H364.844V272.092H369.962V275.857H371.451V267.043H369.962V270.791Z" fill="#F2F2F2"/>
<path d="M375.107 269.952V267.043H373.635V275.857H377.452C379.54 275.857 380.995 274.779 380.995 272.913C380.995 271.031 379.54 269.952 377.452 269.952H375.107ZM382.416 275.857H383.905V267.043H382.416V275.857ZM375.107 274.591V271.219H377.315C378.599 271.219 379.523 271.767 379.523 272.896C379.523 274.026 378.599 274.591 377.315 274.591H375.107Z" fill="#F2F2F2"/>
<path d="M392.267 267.043C390.436 269.268 389.905 269.987 389.597 270.637C389.289 269.935 388.741 269.199 386.961 267.043H385.249L388.758 271.424L385.249 275.857H386.961C388.69 273.649 389.272 272.828 389.597 272.126C389.905 272.828 390.504 273.649 392.267 275.857H393.996L390.47 271.356L393.996 267.043H392.267Z" fill="#F2F2F2"/>
<path d="M400.949 273.786V267.043H399.477V275.857H400.846L406.341 269.199V275.857H407.83V267.043H406.443L400.949 273.786Z" fill="#F2F2F2"/>
<path d="M414.252 276.029C415.365 276.029 416.34 275.686 417.094 274.985V273.513C416.392 274.197 415.519 274.694 414.389 274.694C412.523 274.694 411.086 273.273 411.086 271.441C411.086 269.61 412.523 268.207 414.389 268.207C415.519 268.207 416.392 268.686 417.094 269.388V267.898C416.34 267.214 415.365 266.854 414.252 266.854C411.514 266.854 409.579 268.823 409.579 271.441C409.579 274.06 411.514 276.029 414.252 276.029Z" fill="#F2F2F2"/>
<path d="M418.95 267.043V275.857H420.422V268.378H425.489V275.857H426.978V267.043H418.95Z" fill="#F2F2F2"/>
<path d="M433.391 276.029C436.061 276.029 438.081 274.06 438.081 271.441C438.081 268.823 436.061 266.854 433.391 266.854C430.704 266.854 428.684 268.823 428.684 271.441C428.684 274.06 430.704 276.029 433.391 276.029ZM433.391 274.676C431.56 274.676 430.139 273.273 430.139 271.424C430.139 269.593 431.56 268.207 433.391 268.207C435.223 268.207 436.626 269.593 436.626 271.424C436.626 273.273 435.223 274.676 433.391 274.676Z" fill="#F2F2F2"/>
<path d="M439.041 275.892C440.633 275.909 442.054 274.967 442.054 272.554V268.378H446.076V275.857H447.548V267.043H440.616V272.52C440.616 274.146 439.76 274.522 439.041 274.557V275.892Z" fill="#F2F2F2"/>
<path d="M456.33 270.791H451.212V267.043H449.74V275.857H451.212V272.092H456.33V275.857H457.819V267.043H456.33V270.791Z" fill="#F2F2F2"/>
<path d="M461.475 273.786V267.043H460.003V275.857H461.373L466.867 269.199V275.857H468.356V267.043H466.97L461.475 273.786Z" fill="#F2F2F2"/>
<path d="M473.837 275.857V268.378H476.644V267.043H469.524V268.378H472.348V275.857H473.837Z" fill="#F2F2F2"/>
<path d="M481.543 266.854C478.941 266.854 477.058 268.857 477.058 271.441C477.058 274.214 479.027 276.029 481.68 276.029C483.768 276.029 485.326 274.779 485.788 273.29L484.47 273.136C484.076 273.975 483.152 274.779 481.697 274.779C479.985 274.779 478.65 273.632 478.548 271.904H486.045C486.096 268.788 484.23 266.854 481.543 266.854ZM481.543 268.087C483.255 268.087 484.436 269.251 484.487 270.757H478.548C478.667 269.216 479.917 268.087 481.543 268.087Z" fill="#F2F2F2"/>
<path d="M486.998 275.892C488.59 275.909 490.01 274.967 490.01 272.554V268.378H494.033V275.857H495.505V267.043H488.572V272.52C488.572 274.146 487.717 274.522 486.998 274.557V275.892Z" fill="#F2F2F2"/>
<path d="M501.702 266.854C499.1 266.854 497.217 268.857 497.217 271.441C497.217 274.214 499.186 276.029 501.839 276.029C503.927 276.029 505.485 274.779 505.947 273.29L504.629 273.136C504.235 273.975 503.311 274.779 501.856 274.779C500.144 274.779 498.809 273.632 498.706 271.904H506.203C506.255 268.788 504.389 266.854 501.702 266.854ZM501.702 268.087C503.413 268.087 504.594 269.251 504.646 270.757H498.706C498.826 269.216 500.076 268.087 501.702 268.087Z" fill="#F2F2F2"/>
<path d="M512.103 266.118C513.455 266.118 514.722 265.399 514.722 263.722H513.541C513.541 264.492 513.079 265.108 512.103 265.108C511.145 265.108 510.665 264.492 510.665 263.722H509.484C509.484 265.399 510.751 266.118 512.103 266.118ZM509.382 273.786V267.043H507.91V275.857H509.279L514.773 269.199V275.857H516.262V267.043H514.876L509.382 273.786Z" fill="#F2F2F2"/>
<path d="M289.527 290.475H284.41V286.726H282.938V295.541H284.41V291.775H289.527V295.541H291.017V286.726H289.527V290.475Z" fill="#F2F2F2"/>
<path d="M300.732 288.729V288.643C300.047 287.342 298.746 286.538 297.223 286.538C294.502 286.538 292.721 288.489 292.721 291.108C292.721 293.693 294.467 295.712 297.138 295.712C298.883 295.712 300.184 294.822 300.732 293.47V295.541H302.238V286.726H300.955L300.732 288.729ZM297.497 294.377C295.597 294.377 294.245 293.025 294.245 291.125C294.245 289.242 295.597 287.89 297.497 287.89C299.38 287.89 300.715 289.311 300.715 291.125C300.715 292.957 299.38 294.377 297.497 294.377Z" fill="#F2F2F2"/>
<path d="M312.864 291.108L309.698 286.726H308.311V295.541H309.783C309.783 292.169 309.766 290.458 309.595 288.455C310.451 289.927 311.273 291.176 312.864 293.196C314.508 291.108 315.346 289.841 316.151 288.404C315.98 290.458 315.945 292.169 315.945 295.541H317.435V286.726H316.031L312.864 291.108Z" fill="#F2F2F2"/>
<path d="M323.633 286.538C321.031 286.538 319.148 288.541 319.148 291.125C319.148 293.898 321.117 295.712 323.77 295.712C325.858 295.712 327.416 294.463 327.878 292.974L326.56 292.82C326.166 293.658 325.242 294.463 323.787 294.463C322.075 294.463 320.74 293.316 320.638 291.587H328.135C328.186 288.472 326.32 286.538 323.633 286.538ZM323.633 287.77C325.345 287.77 326.526 288.934 326.577 290.44H320.638C320.757 288.9 322.007 287.77 323.633 287.77Z" fill="#F2F2F2"/>
<path d="M337.697 286.726H330.714L330.577 292.494C330.56 293.71 330.2 294.155 329.892 294.155H328.814V297.544H330.183V295.541H337.509V297.544H338.878V294.155H337.697V286.726ZM331.518 294.155C331.689 294.052 331.98 293.538 332.015 292.409L332.117 288.061H336.225V294.155H331.518Z" fill="#F2F2F2"/>
<path d="M341.71 293.47V286.726H340.238V295.541H341.607L347.102 288.883V295.541H348.591V286.726H347.204L341.71 293.47Z" fill="#F2F2F2"/>
<path d="M358.316 288.729V288.643C357.632 287.342 356.331 286.538 354.808 286.538C352.086 286.538 350.306 288.489 350.306 291.108C350.306 293.693 352.052 295.712 354.722 295.712C356.468 295.712 357.769 294.822 358.316 293.47V295.541H359.823V286.726H358.539L358.316 288.729ZM355.081 294.377C353.181 294.377 351.829 293.025 351.829 291.125C351.829 289.242 353.181 287.89 355.081 287.89C356.964 287.89 358.299 289.311 358.299 291.125C358.299 292.957 356.964 294.377 355.081 294.377Z" fill="#F2F2F2"/>
<path d="M360.922 291.604H370.799V290.235H360.922V291.604Z" fill="#F2F2F2"/>
<path d="M376.124 295.712C377.237 295.712 378.213 295.37 378.966 294.668V293.196C378.264 293.881 377.391 294.377 376.261 294.377C374.396 294.377 372.958 292.957 372.958 291.125C372.958 289.294 374.396 287.89 376.261 287.89C377.391 287.89 378.264 288.369 378.966 289.071V287.582C378.213 286.897 377.237 286.538 376.124 286.538C373.386 286.538 371.452 288.506 371.452 291.125C371.452 293.744 373.386 295.712 376.124 295.712Z" fill="#F2F2F2"/>
<path d="M384.828 286.538C382.226 286.538 380.343 288.541 380.343 291.125C380.343 293.898 382.312 295.712 384.965 295.712C387.053 295.712 388.611 294.463 389.073 292.974L387.755 292.82C387.361 293.658 386.437 294.463 384.982 294.463C383.27 294.463 381.935 293.316 381.833 291.587H389.33C389.381 288.472 387.515 286.538 384.828 286.538ZM384.828 287.77C386.54 287.77 387.721 288.934 387.772 290.44H381.833C381.952 288.9 383.202 287.77 384.828 287.77Z" fill="#F2F2F2"/>
<path d="M396.119 286.555C394.373 286.555 393.073 287.445 392.525 288.78V288.746L392.302 286.726H391.036V299.478H392.525V293.607C393.21 294.925 394.51 295.712 396.051 295.712C398.755 295.712 400.535 293.778 400.535 291.159C400.535 288.575 398.807 286.555 396.119 286.555ZM395.76 294.377C393.877 294.377 392.542 292.957 392.542 291.142C392.542 289.311 393.877 287.89 395.76 287.89C397.66 287.89 399.029 289.242 399.029 291.142C399.029 293.025 397.66 294.377 395.76 294.377Z" fill="#F2F2F2"/>
<path d="M407.661 290.8C408.516 290.629 409.133 290.047 409.133 288.917C409.133 287.565 408.071 286.743 406.052 286.743H402.252V295.541H406.257C408.534 295.541 409.715 294.463 409.715 292.974C409.715 291.81 408.91 290.937 407.661 290.8ZM406.103 287.89C407.181 287.89 407.798 288.352 407.798 289.174C407.798 290.047 407.181 290.458 406.103 290.458H403.587V287.89H406.103ZM403.587 294.394V291.467H406.445C407.661 291.467 408.362 292.032 408.362 292.939C408.362 293.829 407.661 294.394 406.377 294.394H403.587Z" fill="#F2F2F2"/>
<path d="M412.733 293.47V286.726H411.261V295.541H412.631L418.125 288.883V295.541H419.614V286.726H418.228L412.733 293.47Z" fill="#F2F2F2"/>
<path d="M426.037 295.712C427.149 295.712 428.125 295.37 428.878 294.668V293.196C428.176 293.881 427.303 294.377 426.173 294.377C424.308 294.377 422.87 292.957 422.87 291.125C422.87 289.294 424.308 287.89 426.173 287.89C427.303 287.89 428.176 288.369 428.878 289.071V287.582C428.125 286.897 427.149 286.538 426.037 286.538C423.298 286.538 421.364 288.506 421.364 291.125C421.364 293.744 423.298 295.712 426.037 295.712Z" fill="#F2F2F2"/>
<path d="M434.74 286.538C432.138 286.538 430.255 288.541 430.255 291.125C430.255 293.898 432.224 295.712 434.877 295.712C436.965 295.712 438.523 294.463 438.985 292.974L437.667 292.82C437.273 293.658 436.349 294.463 434.894 294.463C433.182 294.463 431.847 293.316 431.745 291.587H439.242C439.293 288.472 437.427 286.538 434.74 286.538ZM434.74 287.77C436.452 287.77 437.633 288.934 437.684 290.44H431.745C431.864 288.9 433.114 287.77 434.74 287.77Z" fill="#F2F2F2"/>
<path d="M448.164 283.868C448.506 283.868 448.882 283.936 449.242 284.039V282.824C448.865 282.704 448.386 282.601 447.907 282.601C446.503 282.601 445.356 283.406 445.356 285.323V286.726H444.312V287.907H445.356V295.541H446.846V287.907H449.208V286.726H446.846V285.511C446.777 284.296 447.291 283.868 448.164 283.868Z" fill="#F2F2F2"/>
<path d="M450.676 282.704V295.541H452.165V282.704H450.676Z" fill="#F2F2F2"/>
<path d="M461.885 288.729V288.643C461.2 287.342 459.899 286.538 458.376 286.538C455.654 286.538 453.874 288.489 453.874 291.108C453.874 293.693 455.62 295.712 458.29 295.712C460.036 295.712 461.337 294.822 461.885 293.47V295.541H463.391V286.726H462.107L461.885 288.729ZM458.65 294.377C456.75 294.377 455.398 293.025 455.398 291.125C455.398 289.242 456.75 287.89 458.65 287.89C460.533 287.89 461.868 289.311 461.868 291.125C461.868 292.957 460.533 294.377 458.65 294.377Z" fill="#F2F2F2"/>
<path d="M471.954 286.726C469.883 292.049 469.523 293.093 469.249 294.292C468.958 293.179 468.582 292.118 466.442 286.726H464.816L468.462 295.541H470.002L473.545 286.726H471.954Z" fill="#F2F2F2"/>
<path d="M481.893 288.729V288.643C481.208 287.342 479.908 286.538 478.384 286.538C475.663 286.538 473.883 288.489 473.883 291.108C473.883 293.693 475.628 295.712 478.299 295.712C480.045 295.712 481.345 294.822 481.893 293.47V295.541H483.399V286.726H482.116L481.893 288.729ZM478.658 294.377C476.758 294.377 475.406 293.025 475.406 291.125C475.406 289.242 476.758 287.89 478.658 287.89C480.541 287.89 481.876 289.311 481.876 291.125C481.876 292.957 480.541 294.377 478.658 294.377Z" fill="#F2F2F2"/>
<path d="M30.5234 295.404V269.008H47.4924V273.91H36.1797V279.792H47.4924V284.694H36.1797V295.404H30.5234Z" fill="#F2F2F2"/>
<path d="M48.8125 269.008H54.4688V290.502H67.2898V295.404H48.8125V269.008Z" fill="#F2F2F2"/>
<path d="M89.0098 295.404L86.8227 287.749H76.0757L73.8886 295.404H68.6094L76.1888 269.008H81.468L77.5086 282.847H85.4275L81.468 269.008H87.1243L94.6661 295.404H89.0098Z" fill="#F2F2F2"/>
<path d="M128.986 295.404L126.799 287.749H116.052L113.865 295.404H108.586L116.165 269.008H121.445L117.485 282.847H125.404L121.445 269.008H127.101L134.643 295.404H128.986Z" fill="#F2F2F2"/>
<path d="M101.83 295.404L109.334 269.008H114.613L107.109 295.404H101.83ZM94.2501 269.008L101.83 295.404H96.1732L88.5938 269.008H94.2501Z" fill="#F2F2F2"/>
<path d="M25.5625 269.008H29.5219V295.404H25.5625V269.008Z" fill="#F2F2F2"/>
<path d="M21.4219 269.008H24.4386V295.404H21.4219V269.008Z" fill="#F2F2F2"/>
<path d="M17.8359 269.008H19.7214V295.404H17.8359V269.008Z" fill="#F2F2F2"/>
<path d="M14.8203 269.008H15.763V295.404H14.8203V269.008Z" fill="#F2F2F2"/>
<path d="M1.41406 1H549.143V221.803H1.41406V1Z" fill="#C4C4C4"/>
<path fill-rule="evenodd" clip-rule="evenodd" d="M281.84 1.00009L281.84 309.098L281.555 309.098L281.555 1.00009L281.84 1.00009Z" fill="#FC62FF" stroke="#FC62FF"/>
<path fill-rule="evenodd" clip-rule="evenodd" d="M148.332 1.00009L148.332 309.098L148.047 309.098L148.047 1.00009L148.332 1.00009Z" fill="#FC62FF" stroke="#FC62FF"/>
<path fill-rule="evenodd" clip-rule="evenodd" d="M14.8244 1.00009L14.8243 309.098L14.5391 309.098L14.5391 1.00009L14.8244 1.00009Z" fill="#FC62FF" stroke="#FC62FF"/>
<path fill-rule="evenodd" clip-rule="evenodd" d="M415.348 1.00009L415.348 309.098L415.062 309.098L415.063 1.00009L415.348 1.00009Z" fill="#FC62FF" stroke="#FC62FF"/>
<path fill-rule="evenodd" clip-rule="evenodd" d="M1.13037 148.203L548.859 148.203L548.859 148.488L1.13037 148.488L1.13037 148.203Z" fill="#FC62FF" stroke="#FC62FF"/>
<path fill-rule="evenodd" clip-rule="evenodd" d="M1.13037 74.6007L548.859 74.6007L548.859 74.886L1.13037 74.886L1.13037 74.6007Z" fill="#FC62FF" stroke="#FC62FF"/>
<path fill-rule="evenodd" clip-rule="evenodd" d="M1.13037 221.803L548.859 221.803L548.859 222.089L1.13037 222.089L1.13037 221.803Z" fill="#FC62FF" stroke="#FC62FF"/>
<path fill-rule="evenodd" clip-rule="evenodd" d="M1.13037 295.404L548.859 295.404L548.859 295.689L1.13037 295.689L1.13037 295.404Z" fill="#FC62FF" stroke="#FC62FF"/>
<path fill-rule="evenodd" clip-rule="evenodd" d="M268.434 1.00009L268.434 309.098L268.148 309.098L268.148 1.00009L268.434 1.00009Z" fill="#FC62FF" stroke="#FC62FF"/>
<path fill-rule="evenodd" clip-rule="evenodd" d="M134.926 1.00009L134.926 309.098L134.641 309.098L134.641 1.00009L134.926 1.00009Z" fill="#FC62FF" stroke="#FC62FF"/>
<path fill-rule="evenodd" clip-rule="evenodd" d="M1.4181 1.00009L1.41807 309.098L1.13281 309.098L1.13284 1.00009L1.4181 1.00009Z" fill="#FC62FF" stroke="#FC62FF"/>
<path fill-rule="evenodd" clip-rule="evenodd" d="M401.942 1.00009L401.942 309.098L401.656 309.098L401.656 1.00009L401.942 1.00009Z" fill="#FC62FF" stroke="#FC62FF"/>
<path fill-rule="evenodd" clip-rule="evenodd" d="M535.449 1.00009L535.449 309.098L535.164 309.098L535.164 1.00009L535.449 1.00009Z" fill="#FC62FF" stroke="#FC62FF"/>
<path fill-rule="evenodd" clip-rule="evenodd" d="M548.856 1.00009L548.856 309.098L548.57 309.098L548.57 1.00009L548.856 1.00009Z" fill="#FC62FF" stroke="#FC62FF"/>
<path fill-rule="evenodd" clip-rule="evenodd" d="M1.13037 161.611L548.859 161.611L548.859 161.896L1.13037 161.896L1.13037 161.611Z" fill="#FC62FF" stroke="#FC62FF"/>
<path fill-rule="evenodd" clip-rule="evenodd" d="M1.13037 88.0086L548.859 88.0087L548.859 88.2939L1.13037 88.2939L1.13037 88.0086Z" fill="#FC62FF" stroke="#FC62FF"/>
<path fill-rule="evenodd" clip-rule="evenodd" d="M1.13037 235.21L548.859 235.21L548.859 235.497L1.13037 235.497L1.13037 235.21Z" fill="#FC62FF" stroke="#FC62FF"/>
<path fill-rule="evenodd" clip-rule="evenodd" d="M1.13037 308.812L548.859 308.812L548.859 309.098L1.13037 309.098L1.13037 308.812Z" fill="#FC62FF" stroke="#FC62FF"/>
<path fill-rule="evenodd" clip-rule="evenodd" d="M1.13037 1.00035L548.859 1.00037L548.859 1.28564L1.13037 1.28562L1.13037 1.00035Z" fill="#FC62FF" stroke="#FC62FF"/>
<path fill-rule="evenodd" clip-rule="evenodd" d="M1.13037 14.4073L548.859 14.4074L548.859 14.6926L1.13037 14.6926L1.13037 14.4073Z" fill="#FC62FF" stroke="#FC62FF"/>
</svg>
