<svg width="550" height="310" viewBox="0 0 550 310" fill="none" xmlns="http://www.w3.org/2000/svg">
<path d="M1.42969 1.36328H548.588V309.461H1.42969V1.36328Z" fill="#C4C4C4"/>
<path d="M148.344 1.36328H549.156V309.461H148.344V1.36328Z" fill="#C4C4C4"/>
<path d="M1.14062 1.28711H148.404V309.385H1.14062V1.28711Z" fill="#010E15"/>
<path d="M30.5938 41.4386V15.0425H47.5627V19.9446H36.2501V25.8272H47.5627V30.7293H36.2501V41.4386H30.5938Z" fill="#F2F2F2"/>
<path d="M48.8828 15.0425H54.5391V36.5364H67.3601V41.4386H48.8828V15.0425Z" fill="#F2F2F2"/>
<path d="M89.0801 41.4386L86.893 33.7837H76.146L73.9589 41.4386H68.6797L76.2591 15.0425H81.5384L77.5789 28.8816H85.4978L81.5384 15.0425H87.1947L94.7364 41.4386H89.0801Z" fill="#F2F2F2"/>
<path d="M129.057 41.4386L126.87 33.7837H116.123L113.935 41.4386H108.656L116.236 15.0425H121.515L117.556 28.8816H125.474L121.515 15.0425H127.171L134.713 41.4386H129.057Z" fill="#F2F2F2"/>
<path d="M101.9 41.4386L109.404 15.0425H114.683L107.179 41.4386H101.9ZM94.3204 15.0425L101.9 41.4386H96.2435L88.6641 15.0425H94.3204Z" fill="#F2F2F2"/>
<path d="M25.6406 15.0425H29.6V41.4386H25.6406V15.0425Z" fill="#F2F2F2"/>
<path d="M21.4922 15.0425H24.5089V41.4386H21.4922V15.0425Z" fill="#F2F2F2"/>
<path d="M17.9062 15.0425H19.7917V41.4386H17.9062V15.0425Z" fill="#F2F2F2"/>
<path d="M14.8906 15.0425H15.8333V41.4386H14.8906V15.0425Z" fill="#F2F2F2"/>
<path d="M16.3483 100.911V90.1445H22.6643V100.911H24.1877V88.7581H14.8249V100.911H16.3483Z" fill="#F2F2F2"/>
<path d="M30.8645 101.082C33.5346 101.082 35.5544 99.1136 35.5544 96.4947C35.5544 93.8759 33.5346 91.9075 30.8645 91.9075C28.1772 91.9075 26.1574 93.8759 26.1574 96.4947C26.1574 99.1136 28.1772 101.082 30.8645 101.082ZM30.8645 99.7298C29.033 99.7298 27.6123 98.3262 27.6123 96.4776C27.6123 94.6461 29.033 93.2597 30.8645 93.2597C32.6959 93.2597 34.0995 94.6461 34.0995 96.4776C34.0995 98.3262 32.6959 99.7298 30.8645 99.7298Z" fill="#F2F2F2"/>
<path d="M42.6251 95.9641C41.9576 96.1866 41.2387 96.238 40.691 96.238C38.8937 96.238 38.0379 95.4849 38.0379 94.0642V92.0958H36.5488V94.1326C36.5488 96.2893 37.9181 97.556 40.6225 97.556C41.3756 97.556 42.0432 97.4704 42.6251 97.2479V100.911H44.0971V92.0958H42.6251V95.9641Z" fill="#F2F2F2"/>
<path d="M53.0036 92.0958C50.9668 96.974 50.419 98.4289 50.128 99.5586C49.8371 98.4289 49.238 96.9226 47.1498 92.0958H45.5237L49.3578 100.928L47.7488 104.848H49.3236L54.5955 92.0958H53.0036Z" fill="#F2F2F2"/>
<path d="M61.4478 96.1695C62.3036 95.9984 62.9198 95.4164 62.9198 94.2867C62.9198 92.9345 61.8586 92.1129 59.8389 92.1129H56.039V100.911H60.0443C62.3208 100.911 63.5018 99.8325 63.5018 98.3433C63.5018 97.1794 62.6973 96.3064 61.4478 96.1695ZM59.8902 93.2597C60.9686 93.2597 61.5848 93.7219 61.5848 94.5434C61.5848 95.4164 60.9686 95.8272 59.8902 95.8272H57.3741V93.2597H59.8902ZM57.3741 99.764V96.8371H60.2326C61.4478 96.8371 62.1496 97.4019 62.1496 98.3091C62.1496 99.1991 61.4478 99.764 60.1641 99.764H57.3741Z" fill="#F2F2F2"/>
<path d="M69.2764 101.082C70.3889 101.082 71.3646 100.74 72.1177 100.038V98.5658C71.4159 99.2505 70.543 99.7469 69.4133 99.7469C67.5476 99.7469 66.1098 98.3262 66.1098 96.4947C66.1098 94.6633 67.5476 93.2597 69.4133 93.2597C70.543 93.2597 71.4159 93.739 72.1177 94.4407V92.9516C71.3646 92.2669 70.3889 91.9075 69.2764 91.9075C66.5377 91.9075 64.6035 93.8759 64.6035 96.4947C64.6035 99.1136 66.5377 101.082 69.2764 101.082Z" fill="#F2F2F2"/>
<path d="M77.261 100.911V93.4309H80.0681V92.0958H72.9476V93.4309H75.7718V100.911H77.261Z" fill="#F2F2F2"/>
<path d="M86.6379 96.1695C87.4937 95.9984 88.1099 95.4164 88.1099 94.2867C88.1099 92.9345 87.0487 92.1129 85.0289 92.1129H81.229V100.911H85.2343C87.5108 100.911 88.6919 99.8325 88.6919 98.3433C88.6919 97.1794 87.8874 96.3064 86.6379 96.1695ZM85.0803 93.2597C86.1586 93.2597 86.7748 93.7219 86.7748 94.5434C86.7748 95.4164 86.1586 95.8272 85.0803 95.8272H82.5641V93.2597H85.0803ZM82.5641 99.764V96.8371H85.4226C86.6379 96.8371 87.3397 97.4019 87.3397 98.3091C87.3397 99.1991 86.6379 99.764 85.3541 99.764H82.5641Z" fill="#F2F2F2"/>
<path d="M96.9483 92.0958C94.9114 96.974 94.3637 98.4289 94.0727 99.5586C93.7818 98.4289 93.1827 96.9226 91.0945 92.0958H89.4684L93.3025 100.928L91.6935 104.848H93.2682L98.5401 92.0958H96.9483Z" fill="#F2F2F2"/>
<path d="M104.177 91.1715C105.529 91.1715 106.796 90.4526 106.796 88.7752H105.615C105.615 89.5454 105.153 90.1616 104.177 90.1616C103.219 90.1616 102.739 89.5454 102.739 88.7752H101.558C101.558 90.4526 102.825 91.1715 104.177 91.1715ZM101.456 98.8397V92.0958H99.9837V100.911H101.353L106.847 94.2525V100.911H108.337V92.0958H106.95L101.456 98.8397Z" fill="#F2F2F2"/>
<path d="M17.9059 108.921C18.2482 108.921 18.6248 108.99 18.9842 109.092V107.877C18.6077 107.757 18.1284 107.655 17.6492 107.655C16.2456 107.655 15.0988 108.459 15.0988 110.376V111.78H14.0547V112.961H15.0988V120.595H16.5879V112.961H18.95V111.78H16.5879V110.565C16.5195 109.349 17.033 108.921 17.9059 108.921Z" fill="#F2F2F2"/>
<path d="M20.4186 107.757V120.595H21.9077V107.757H20.4186Z" fill="#F2F2F2"/>
<path d="M31.6272 113.782V113.697C30.9426 112.396 29.6417 111.592 28.1183 111.592C25.3968 111.592 23.6167 113.543 23.6167 116.162C23.6167 118.746 25.3626 120.766 28.0327 120.766C29.7786 120.766 31.0795 119.876 31.6272 118.524V120.595H33.1335V111.78H31.8497L31.6272 113.782ZM28.3922 119.431C26.4923 119.431 25.14 118.079 25.14 116.179C25.14 114.296 26.4923 112.944 28.3922 112.944C30.275 112.944 31.6101 114.364 31.6101 116.179C31.6101 118.01 30.275 119.431 28.3922 119.431Z" fill="#F2F2F2"/>
<path d="M41.696 111.78C39.6249 117.103 39.2655 118.147 38.9916 119.345C38.7006 118.233 38.3241 117.171 36.1845 111.78H34.5584L38.2042 120.595H39.7447L43.2879 111.78H41.696Z" fill="#F2F2F2"/>
<path d="M51.6355 113.782V113.697C50.9508 112.396 49.65 111.592 48.1266 111.592C45.4051 111.592 43.625 113.543 43.625 116.162C43.625 118.746 45.3709 120.766 48.041 120.766C49.7869 120.766 51.0878 119.876 51.6355 118.524V120.595H53.1418V111.78H51.858L51.6355 113.782ZM48.4005 119.431C46.5005 119.431 45.1483 118.079 45.1483 116.179C45.1483 114.296 46.5005 112.944 48.4005 112.944C50.2833 112.944 51.6184 114.364 51.6184 116.179C51.6184 118.01 50.2833 119.431 48.4005 119.431Z" fill="#F2F2F2"/>
<path d="M59.2149 111.78V120.595H60.6869V113.115H65.7534V120.595H67.2426V111.78H59.2149Z" fill="#F2F2F2"/>
<path d="M73.4333 111.592C70.8316 111.592 68.9487 113.594 68.9487 116.179C68.9487 118.952 70.9171 120.766 73.5702 120.766C75.6584 120.766 77.216 119.516 77.6782 118.027L76.3602 117.873C75.9665 118.712 75.0422 119.516 73.5873 119.516C71.8757 119.516 70.5406 118.37 70.4379 116.641H77.9349C77.9863 113.526 76.1206 111.592 73.4333 111.592ZM73.4333 112.824C75.1449 112.824 76.326 113.988 76.3773 115.494H70.4379C70.5577 113.954 71.8072 112.824 73.4333 112.824Z" fill="#F2F2F2"/>
<path d="M85.0499 115.854C85.9057 115.682 86.5219 115.1 86.5219 113.971C86.5219 112.619 85.4607 111.797 83.441 111.797H79.6411V120.595H83.6464C85.9229 120.595 87.1039 119.516 87.1039 118.027C87.1039 116.863 86.2994 115.99 85.0499 115.854ZM83.4923 112.944C84.5707 112.944 85.1868 113.406 85.1868 114.227C85.1868 115.1 84.5707 115.511 83.4923 115.511H80.9762V112.944H83.4923ZM80.9762 119.448V116.521H83.8346C85.0499 116.521 85.7517 117.086 85.7517 117.993C85.7517 118.883 85.0499 119.448 83.7662 119.448H80.9762Z" fill="#F2F2F2"/>
<path d="M90.1227 118.524V111.78H88.6507V120.595H90.02L95.5144 113.936V120.595H97.0035V111.78H95.6171L90.1227 118.524Z" fill="#F2F2F2"/>
<path d="M107.226 111.78H105.737V119.26H100.67V111.78H99.1981V120.595H107.02V122.597H108.39V119.208H107.226V111.78Z" fill="#F2F2F2"/>
<path d="M111.217 114.69V111.78H109.745V120.595H113.562C115.651 120.595 117.106 119.516 117.106 117.651C117.106 115.768 115.651 114.69 113.562 114.69H111.217ZM118.526 120.595H120.015V111.78H118.526V120.595ZM111.217 119.328V115.956H113.426C114.709 115.956 115.634 116.504 115.634 117.634C115.634 118.763 114.709 119.328 113.426 119.328H111.217Z" fill="#F2F2F2"/>
<path d="M18.6933 140.279C22.3904 140.279 24.6327 137.609 24.6327 134.202C24.6327 130.796 22.3904 128.126 18.6933 128.126H14.8249V140.279H18.6933ZM16.3483 129.513H18.6933C21.3634 129.513 23.1093 131.344 23.1093 134.202C23.1093 137.061 21.3634 138.892 18.6933 138.892H16.3483V129.513Z" fill="#F2F2F2"/>
<path d="M32.94 136.239C32.94 138.071 31.9301 139.166 30.2869 139.166C29.0032 139.166 27.805 138.499 27.805 136.445V131.464H26.3159V136.65C26.3159 139.355 27.9762 140.45 29.8419 140.45C31.3824 140.45 32.4607 139.731 33.0084 138.499L33.1625 140.279H34.4462V131.464H32.94V136.239Z" fill="#F2F2F2"/>
<path d="M44.1637 133.466V133.381C43.4791 132.08 42.1782 131.276 40.6548 131.276C37.9333 131.276 36.1532 133.227 36.1532 135.846C36.1532 138.43 37.8991 140.45 40.5693 140.45C42.3152 140.45 43.616 139.56 44.1637 138.208V140.279H45.67V131.464H44.3863L44.1637 133.466ZM40.9287 139.115C39.0288 139.115 37.6766 137.763 37.6766 135.863C37.6766 133.98 39.0288 132.628 40.9287 132.628C42.8115 132.628 44.1466 134.048 44.1466 135.863C44.1466 137.694 42.8115 139.115 40.9287 139.115Z" fill="#F2F2F2"/>
<path d="M58.8636 140.279V138.892H53.5233V128.126H51.9999V140.279H58.8636Z" fill="#F2F2F2"/>
<path d="M61.2217 130.146C61.7523 130.146 62.1802 129.718 62.1802 129.204C62.1802 128.674 61.7523 128.246 61.2217 128.246C60.6911 128.246 60.2803 128.674 60.2803 129.204C60.2803 129.718 60.6911 130.146 61.2217 130.146ZM60.4686 131.464V140.279H61.9577V131.464H60.4686Z" fill="#F2F2F2"/>
<path d="M69.2296 131.293C67.4837 131.293 66.1828 132.183 65.6351 133.518V133.484L65.4126 131.464H64.146V144.216H65.6351V138.345C66.3197 139.663 67.6206 140.45 69.1611 140.45C71.8655 140.45 73.6456 138.516 73.6456 135.897C73.6456 133.312 71.9169 131.293 69.2296 131.293ZM68.8701 139.115C66.9873 139.115 65.6522 137.694 65.6522 135.88C65.6522 134.048 66.9873 132.628 68.8701 132.628C70.77 132.628 72.1394 133.98 72.1394 135.88C72.1394 137.763 70.77 139.115 68.8701 139.115Z" fill="#F2F2F2"/>
<path d="M82.8932 133.466V133.381C82.2086 132.08 80.9077 131.276 79.3843 131.276C76.6628 131.276 74.8827 133.227 74.8827 135.846C74.8827 138.43 76.6286 140.45 79.2988 140.45C81.0446 140.45 82.3455 139.56 82.8932 138.208V140.279H84.3995V131.464H83.1157L82.8932 133.466ZM79.6582 139.115C77.7583 139.115 76.4061 137.763 76.4061 135.863C76.4061 133.98 77.7583 132.628 79.6582 132.628C81.541 132.628 82.8761 134.048 82.8761 135.863C82.8761 137.694 81.541 139.115 79.6582 139.115Z" fill="#F2F2F2"/>
<path d="M18.3567 272.504C16.4568 272.504 15.0276 273.907 15.0276 275.773C15.0276 277.647 16.4054 279.025 18.2711 279.025C18.6477 279.025 19.1954 278.965 19.5292 278.785V278.272C19.1954 278.452 18.6477 278.512 18.3139 278.512C16.7221 278.512 15.6095 277.356 15.6095 275.781C15.6095 274.207 16.782 273.017 18.3567 273.017C19.9742 273.017 21.1382 274.147 21.1467 275.696C21.1553 276.68 20.8044 277.151 20.4193 277.151C20.1454 277.151 19.9314 276.894 19.9314 276.321V274.25H19.3752L19.2468 274.78C19.0414 274.412 18.6049 274.207 18.1342 274.207C17.2698 274.207 16.6023 274.883 16.6023 275.781C16.6023 276.663 17.2527 277.373 18.1085 277.373C18.7247 277.373 19.2125 277.022 19.3495 276.423C19.3495 277.159 19.7175 277.707 20.3765 277.707C21.1809 277.707 21.703 276.945 21.703 275.696C21.703 273.856 20.2823 272.504 18.3567 272.504ZM18.2626 276.826C17.6977 276.826 17.2356 276.381 17.2356 275.79C17.2356 275.208 17.6977 274.754 18.2626 274.754C18.8788 274.754 19.2896 275.208 19.2896 275.79C19.2896 276.381 18.8788 276.826 18.2626 276.826Z" fill="#F2F2F2"/>
<path d="M24.9621 275.85L23.3788 273.659H22.6856V278.067H23.4216C23.4216 276.381 23.4131 275.525 23.3275 274.523C23.7554 275.259 24.1662 275.884 24.9621 276.894C25.7837 275.85 26.203 275.217 26.6053 274.498C26.5197 275.525 26.5026 276.381 26.5026 278.067H27.2472V273.659H26.5454L24.9621 275.85Z" fill="#F2F2F2"/>
<path d="M30.3464 273.565C29.0455 273.565 28.1041 274.566 28.1041 275.859C28.1041 277.245 29.0883 278.152 30.4148 278.152C31.459 278.152 32.2378 277.527 32.4688 276.783L31.8098 276.706C31.613 277.125 31.1509 277.527 30.4234 277.527C29.5676 277.527 28.9 276.954 28.8487 276.09H32.5972C32.6229 274.532 31.69 273.565 30.3464 273.565ZM30.3464 274.181C31.2022 274.181 31.7927 274.763 31.8184 275.516H28.8487C28.9086 274.746 29.5333 274.181 30.3464 274.181Z" fill="#F2F2F2"/>
<path d="M37.3785 273.659H33.8868L33.8183 276.543C33.8097 277.151 33.63 277.373 33.476 277.373H32.9368V279.068H33.6215V278.067H37.2844V279.068H37.9691V277.373H37.3785V273.659ZM34.289 277.373C34.3746 277.322 34.5201 277.065 34.5372 276.5L34.5885 274.327H36.6425V277.373H34.289Z" fill="#F2F2F2"/>
<path d="M39.3848 277.031V273.659H38.6488V278.067H39.3334L42.0806 274.737V278.067H42.8252V273.659H42.132L39.3848 277.031Z" fill="#F2F2F2"/>
<path d="M47.6881 274.66V274.618C47.3458 273.967 46.6953 273.565 45.9337 273.565C44.5729 273.565 43.6828 274.541 43.6828 275.85C43.6828 277.142 44.5558 278.152 45.8909 278.152C46.7638 278.152 47.4142 277.707 47.6881 277.031V278.067H48.4412V273.659H47.7994L47.6881 274.66ZM46.0706 277.485C45.1206 277.485 44.4445 276.808 44.4445 275.859C44.4445 274.917 45.1206 274.241 46.0706 274.241C47.012 274.241 47.6795 274.951 47.6795 275.859C47.6795 276.774 47.012 277.485 46.0706 277.485Z" fill="#F2F2F2"/>
<path d="M48.9911 276.098H53.9292V275.413H48.9911V276.098Z" fill="#F2F2F2"/>
<path d="M56.5921 278.152C57.1484 278.152 57.6362 277.981 58.0128 277.63V276.894C57.6619 277.236 57.2254 277.485 56.6606 277.485C55.7277 277.485 55.0088 276.774 55.0088 275.859C55.0088 274.943 55.7277 274.241 56.6606 274.241C57.2254 274.241 57.6619 274.481 58.0128 274.832V274.087C57.6362 273.745 57.1484 273.565 56.5921 273.565C55.2228 273.565 54.2557 274.549 54.2557 275.859C54.2557 277.168 55.2228 278.152 56.5921 278.152Z" fill="#F2F2F2"/>
<path d="M60.9439 273.565C59.643 273.565 58.7016 274.566 58.7016 275.859C58.7016 277.245 59.6858 278.152 61.0123 278.152C62.0564 278.152 62.8352 277.527 63.0663 276.783L62.4073 276.706C62.2105 277.125 61.7483 277.527 61.0209 277.527C60.1651 277.527 59.4975 276.954 59.4462 276.09H63.1947C63.2203 274.532 62.2875 273.565 60.9439 273.565ZM60.9439 274.181C61.7997 274.181 62.3902 274.763 62.4159 275.516H59.4462C59.5061 274.746 60.1308 274.181 60.9439 274.181Z" fill="#F2F2F2"/>
<path d="M66.5896 273.573C65.7166 273.573 65.0662 274.018 64.7923 274.686V274.669L64.6811 273.659H64.0478V280.035H64.7923V277.099C65.1347 277.758 65.7851 278.152 66.5553 278.152C67.9075 278.152 68.7976 277.185 68.7976 275.876C68.7976 274.583 67.9332 273.573 66.5896 273.573ZM66.4098 277.485C65.4684 277.485 64.8009 276.774 64.8009 275.867C64.8009 274.951 65.4684 274.241 66.4098 274.241C67.3598 274.241 68.0445 274.917 68.0445 275.867C68.0445 276.808 67.3598 277.485 66.4098 277.485Z" fill="#F2F2F2"/>
<path d="M72.3602 275.696C72.7881 275.61 73.0962 275.319 73.0962 274.754C73.0962 274.078 72.5656 273.668 71.5557 273.668H69.6558V278.067H71.6584C72.7966 278.067 73.3872 277.527 73.3872 276.783C73.3872 276.201 72.9849 275.764 72.3602 275.696ZM71.5814 274.241C72.1205 274.241 72.4286 274.472 72.4286 274.883C72.4286 275.319 72.1205 275.525 71.5814 275.525H70.3233V274.241H71.5814ZM70.3233 277.493V276.03H71.7525C72.3602 276.03 72.7111 276.312 72.7111 276.766C72.7111 277.211 72.3602 277.493 71.7183 277.493H70.3233Z" fill="#F2F2F2"/>
<path d="M74.8966 277.031V273.659H74.1606V278.067H74.8452L77.5924 274.737V278.067H78.337V273.659H77.6438L74.8966 277.031Z" fill="#F2F2F2"/>
<path d="M81.5481 278.152C82.1044 278.152 82.5922 277.981 82.9688 277.63V276.894C82.6179 277.236 82.1814 277.485 81.6166 277.485C80.6838 277.485 79.9649 276.774 79.9649 275.859C79.9649 274.943 80.6838 274.241 81.6166 274.241C82.1814 274.241 82.6179 274.481 82.9688 274.832V274.087C82.5922 273.745 82.1044 273.565 81.5481 273.565C80.1788 273.565 79.2117 274.549 79.2117 275.859C79.2117 277.168 80.1788 278.152 81.5481 278.152Z" fill="#F2F2F2"/>
<path d="M17.2441 286.996C18.5792 286.996 19.5891 286.011 19.5891 284.702C19.5891 283.393 18.5792 282.408 17.2441 282.408C15.9005 282.408 14.8906 283.393 14.8906 284.702C14.8906 286.011 15.9005 286.996 17.2441 286.996ZM17.2441 286.32C16.3284 286.32 15.6181 285.618 15.6181 284.693C15.6181 283.778 16.3284 283.085 17.2441 283.085C18.1599 283.085 18.8617 283.778 18.8617 284.693C18.8617 285.618 18.1599 286.32 17.2441 286.32Z" fill="#F2F2F2"/>
<path d="M25.0891 284.539C25.517 284.454 25.8251 284.163 25.8251 283.598C25.8251 282.922 25.2945 282.511 24.2847 282.511H22.3847V286.91H24.3874C25.5256 286.91 26.1161 286.371 26.1161 285.626C26.1161 285.044 25.7139 284.608 25.0891 284.539ZM24.3103 283.085C24.8495 283.085 25.1576 283.316 25.1576 283.726C25.1576 284.163 24.8495 284.368 24.3103 284.368H23.0523V283.085H24.3103ZM23.0523 286.337V284.873H24.4815C25.0891 284.873 25.44 285.156 25.44 285.609C25.44 286.054 25.0891 286.337 24.4473 286.337H23.0523Z" fill="#F2F2F2"/>
<path d="M27.6255 285.875V282.503H26.8895V286.91H27.5742L30.3214 283.581V286.91H31.0659V282.503H30.3727L27.6255 285.875Z" fill="#F2F2F2"/>
<path d="M34.9532 284.582C35.3982 284.385 35.5951 284.043 35.5951 283.658C35.5951 282.922 34.919 282.408 33.8064 282.408C32.5826 282.408 31.9236 283.093 31.8979 283.889H32.6168C32.6168 283.367 33.0618 282.99 33.7722 282.99C34.414 282.99 34.8591 283.264 34.8591 283.692C34.8591 284.189 34.2942 284.377 33.7722 284.377H33.3271V284.907H33.8235C34.4568 284.907 35.0645 285.104 35.0645 285.626C35.0645 286.063 34.6194 286.422 33.8663 286.422C33.0789 286.422 32.5312 286.029 32.5312 285.489H31.8123C31.838 286.328 32.5398 286.996 33.8492 286.996C35.1329 286.996 35.809 286.379 35.809 285.609C35.809 285.104 35.5095 284.745 34.9532 284.582Z" fill="#F2F2F2"/>
<path d="M39.9476 282.503C38.9292 284.942 38.6553 285.669 38.5098 286.234C38.3643 285.669 38.0648 284.916 37.0207 282.503H36.2077L38.1247 286.919L37.3202 288.878H38.1076L40.7435 282.503H39.9476Z" fill="#F2F2F2"/>
<path d="M44.9301 283.504V283.461C44.5877 282.811 43.9373 282.408 43.1756 282.408C41.8149 282.408 40.9248 283.384 40.9248 284.693C40.9248 285.986 41.7977 286.996 43.1328 286.996C44.0058 286.996 44.6562 286.551 44.9301 285.875V286.91H45.6832V282.503H45.0413L44.9301 283.504ZM43.3126 286.328C42.3626 286.328 41.6865 285.652 41.6865 284.702C41.6865 283.761 42.3626 283.085 43.3126 283.085C44.254 283.085 44.9215 283.795 44.9215 284.702C44.9215 285.618 44.254 286.328 43.3126 286.328Z" fill="#F2F2F2"/>
<path d="M46.4042 286.927C47.2001 286.936 47.9105 286.465 47.9105 285.258V283.17H49.9217V286.91H50.6577V282.503H47.1916V285.241C47.1916 286.054 46.7637 286.243 46.4042 286.26V286.927Z" fill="#F2F2F2"/>
<path d="M52.4896 283.957V282.503H51.7536V286.91H53.6621C54.7062 286.91 55.4337 286.371 55.4337 285.438C55.4337 284.497 54.7062 283.957 53.6621 283.957H52.4896ZM52.4896 286.277V284.591H53.5936C54.2355 284.591 54.6977 284.865 54.6977 285.429C54.6977 285.994 54.2355 286.277 53.5936 286.277H52.4896Z" fill="#F2F2F2"/>
<path d="M59.4363 284.377H56.8774V282.503H56.1414V286.91H56.8774V285.027H59.4363V286.91H60.1809V282.503H59.4363V284.377Z" fill="#F2F2F2"/>
<path d="M62.009 283.957V282.503H61.273V286.91H63.1815C64.2256 286.91 64.9531 286.371 64.9531 285.438C64.9531 284.497 64.2256 283.957 63.1815 283.957H62.009ZM65.6634 286.91H66.408V282.503H65.6634V286.91ZM62.009 286.277V284.591H63.113C63.7549 284.591 64.2171 284.865 64.2171 285.429C64.2171 285.994 63.7549 286.277 63.113 286.277H62.009Z" fill="#F2F2F2"/>
<path d="M70.589 282.503C69.6733 283.615 69.408 283.975 69.2539 284.3C69.0999 283.949 68.826 283.581 67.936 282.503H67.0801L68.8346 284.693L67.0801 286.91H67.936C68.8003 285.806 69.0913 285.395 69.2539 285.044C69.408 285.395 69.7075 285.806 70.589 286.91H71.4534L69.6904 284.659L71.4534 282.503H70.589Z" fill="#F2F2F2"/>
<path d="M76.3079 286.996C77.643 286.996 78.6528 286.011 78.6528 284.702C78.6528 283.393 77.643 282.408 76.3079 282.408C74.9642 282.408 73.9544 283.393 73.9544 284.702C73.9544 286.011 74.9642 286.996 76.3079 286.996ZM76.3079 286.32C75.3921 286.32 74.6818 285.618 74.6818 284.693C74.6818 283.778 75.3921 283.085 76.3079 283.085C77.2236 283.085 77.9254 283.778 77.9254 284.693C77.9254 285.618 77.2236 286.32 76.3079 286.32Z" fill="#F2F2F2"/>
<path d="M81.7432 282.571C81.0756 282.571 80.391 282.853 80.0486 283.572C80.1 282.152 80.759 281.672 81.6576 281.484L83.3949 281.125V280.483L81.4864 280.876C80.1342 281.15 79.3297 282.083 79.3297 283.778V284.582C79.3297 286.2 80.4252 286.996 81.6319 286.996C82.967 286.996 83.917 286.063 83.917 284.762C83.917 283.461 83.0012 282.571 81.7432 282.571ZM81.6405 286.32C80.7247 286.32 80.0743 285.669 80.0743 284.753C80.0743 283.846 80.7247 283.204 81.6405 283.204C82.5391 283.204 83.181 283.846 83.181 284.753C83.181 285.669 82.5391 286.32 81.6405 286.32Z" fill="#F2F2F2"/>
<path d="M87.2497 282.417C86.3768 282.417 85.7264 282.862 85.4525 283.53V283.512L85.3413 282.503H84.7079V288.878H85.4525V285.943C85.7948 286.602 86.4453 286.996 87.2155 286.996C88.5677 286.996 89.4578 286.029 89.4578 284.719C89.4578 283.427 88.5934 282.417 87.2497 282.417ZM87.07 286.328C86.1286 286.328 85.4611 285.618 85.4611 284.711C85.4611 283.795 86.1286 283.085 87.07 283.085C88.02 283.085 88.7047 283.761 88.7047 284.711C88.7047 285.652 88.02 286.328 87.07 286.328Z" fill="#F2F2F2"/>
<path d="M94.0816 283.504V283.461C93.7393 282.811 93.0888 282.408 92.3271 282.408C90.9664 282.408 90.0763 283.384 90.0763 284.693C90.0763 285.986 90.9493 286.996 92.2844 286.996C93.1573 286.996 93.8077 286.551 94.0816 285.875V286.91H94.8347V282.503H94.1928L94.0816 283.504ZM92.4641 286.328C91.5141 286.328 90.838 285.652 90.838 284.702C90.838 283.761 91.5141 283.085 92.4641 283.085C93.4055 283.085 94.073 283.795 94.073 284.702C94.073 285.618 93.4055 286.328 92.4641 286.328Z" fill="#F2F2F2"/>
<path d="M98.7223 284.582C99.1673 284.385 99.3642 284.043 99.3642 283.658C99.3642 282.922 98.6881 282.408 97.5755 282.408C96.3517 282.408 95.6927 283.093 95.667 283.889H96.3859C96.3859 283.367 96.8309 282.99 97.5413 282.99C98.1831 282.99 98.6282 283.264 98.6282 283.692C98.6282 284.189 98.0633 284.377 97.5413 284.377H97.0962V284.907H97.5926C98.2259 284.907 98.8336 285.104 98.8336 285.626C98.8336 286.063 98.3885 286.422 97.6354 286.422C96.8481 286.422 96.3003 286.029 96.3003 285.489H95.5814C95.6071 286.328 96.3089 286.996 97.6183 286.996C98.902 286.996 99.5781 286.379 99.5781 285.609C99.5781 285.104 99.2786 284.745 98.7223 284.582Z" fill="#F2F2F2"/>
<path d="M104.128 283.504V283.461C103.785 282.811 103.135 282.408 102.373 282.408C101.012 282.408 100.122 283.384 100.122 284.693C100.122 285.986 100.995 286.996 102.33 286.996C103.203 286.996 103.854 286.551 104.128 285.875V286.91H104.881V282.503H104.239L104.128 283.504ZM102.51 286.328C101.56 286.328 100.884 285.652 100.884 284.702C100.884 283.761 101.56 283.085 102.51 283.085C103.451 283.085 104.119 283.795 104.119 284.702C104.119 285.618 103.451 286.328 102.51 286.328Z" fill="#F2F2F2"/>
<path d="M109.068 282.503C108.152 283.615 107.887 283.975 107.733 284.3C107.579 283.949 107.305 283.581 106.415 282.503H105.559L107.313 284.693L105.559 286.91H106.415C107.279 285.806 107.57 285.395 107.733 285.044C107.887 285.395 108.186 285.806 109.068 286.91H109.932L108.169 284.659L109.932 282.503H109.068Z" fill="#F2F2F2"/>
<path d="M17.4068 293.537L15.8235 291.346H15.1303V295.754H15.8663C15.8663 294.068 15.8577 293.212 15.7721 292.21C16.2 292.947 16.6108 293.571 17.4068 294.581C18.2283 293.537 18.6477 292.904 19.0499 292.185C18.9644 293.212 18.9472 294.068 18.9472 295.754H19.6918V291.346H18.99L17.4068 293.537Z" fill="#F2F2F2"/>
<path d="M24.1432 291.346C23.1248 293.785 22.8509 294.513 22.7055 295.078C22.56 294.513 22.2604 293.76 21.2163 291.346H20.4033L22.3203 295.762L21.5159 297.722H22.3032L24.9392 291.346H24.1432Z" fill="#F2F2F2"/>
<path d="M28.4509 293.426C28.896 293.229 29.0928 292.887 29.0928 292.501C29.0928 291.765 28.4167 291.252 27.3041 291.252C26.0803 291.252 25.4213 291.937 25.3956 292.733H26.1145C26.1145 292.21 26.5596 291.834 27.2699 291.834C27.9118 291.834 28.3568 292.108 28.3568 292.536C28.3568 293.032 27.7919 293.22 27.2699 293.22H26.8249V293.751H27.3212C27.9545 293.751 28.5622 293.948 28.5622 294.47C28.5622 294.906 28.1172 295.266 27.364 295.266C26.5767 295.266 26.0289 294.872 26.0289 294.333H25.31C25.3357 295.172 26.0375 295.839 27.3469 295.839C28.6307 295.839 29.3068 295.223 29.3068 294.453C29.3068 293.948 29.0072 293.588 28.4509 293.426Z" fill="#F2F2F2"/>
<path d="M30.8265 292.801V291.346H30.0905V295.754H31.999C33.0431 295.754 33.7706 295.214 33.7706 294.282C33.7706 293.34 33.0431 292.801 31.999 292.801H30.8265ZM34.4809 295.754H35.2255V291.346H34.4809V295.754ZM30.8265 295.12V293.434H31.9305C32.5724 293.434 33.0345 293.708 33.0345 294.273C33.0345 294.838 32.5724 295.12 31.9305 295.12H30.8265Z" fill="#F2F2F2"/>
<path d="M37.7633 293.383L40.1425 291.346H39.2439L37.0188 293.237C37.0615 292.784 37.0615 292.27 37.0615 291.346H36.317V295.754H37.0615C37.0615 294.821 37.053 294.136 37.0102 293.528L39.2525 295.754H40.1511L37.7633 293.383Z" fill="#F2F2F2"/>
<path d="M44.1361 292.347V292.305C43.7938 291.654 43.1433 291.252 42.3816 291.252C41.0209 291.252 40.1308 292.228 40.1308 293.537C40.1308 294.829 41.0038 295.839 42.3389 295.839C43.2118 295.839 43.8622 295.394 44.1361 294.718V295.754H44.8892V291.346H44.2473L44.1361 292.347ZM42.5186 295.172C41.5686 295.172 40.8925 294.496 40.8925 293.546C40.8925 292.604 41.5686 291.928 42.5186 291.928C43.46 291.928 44.1275 292.638 44.1275 293.546C44.1275 294.461 43.46 295.172 42.5186 295.172Z" fill="#F2F2F2"/>
<path d="M45.6102 295.771C46.4062 295.779 47.1165 295.309 47.1165 294.102V292.014H49.1277V295.754H49.8637V291.346H46.3976V294.085C46.3976 294.898 45.9697 295.086 45.6102 295.103V295.771Z" fill="#F2F2F2"/>
<path d="M51.6956 292.801V291.346H50.9596V295.754H52.8681C53.9122 295.754 54.6397 295.214 54.6397 294.282C54.6397 293.34 53.9122 292.801 52.8681 292.801H51.6956ZM51.6956 295.12V293.434H52.7997C53.4415 293.434 53.9037 293.708 53.9037 294.273C53.9037 294.838 53.4415 295.12 52.7997 295.12H51.6956Z" fill="#F2F2F2"/>
<path d="M58.6423 293.22H56.0834V291.346H55.3474V295.754H56.0834V293.871H58.6423V295.754H59.3869V291.346H58.6423V293.22Z" fill="#F2F2F2"/>
<path d="M61.215 292.801V291.346H60.479V295.754H62.3875C63.4316 295.754 64.1591 295.214 64.1591 294.282C64.1591 293.34 63.4316 292.801 62.3875 292.801H61.215ZM64.8694 295.754H65.614V291.346H64.8694V295.754ZM61.215 295.12V293.434H62.3191C62.9609 293.434 63.4231 293.708 63.4231 294.273C63.4231 294.838 62.9609 295.12 62.3191 295.12H61.215Z" fill="#F2F2F2"/>
<path d="M69.795 291.346C68.8793 292.459 68.614 292.818 68.4599 293.143C68.3059 292.792 68.032 292.424 67.142 291.346H66.2861L68.0406 293.537L66.2861 295.754H67.142C68.0064 294.65 68.2973 294.239 68.4599 293.888C68.614 294.239 68.9135 294.65 69.795 295.754H70.6594L68.8964 293.503L70.6594 291.346H69.795Z" fill="#F2F2F2"/>
<path d="M74.136 294.718V291.346H73.4V295.754H74.0847L76.8319 292.424V295.754H77.5764V291.346H76.8832L74.136 294.718Z" fill="#F2F2F2"/>
<path d="M80.7876 295.839C81.3439 295.839 81.8317 295.668 82.2083 295.317V294.581C81.8574 294.923 81.4209 295.172 80.8561 295.172C79.9232 295.172 79.2043 294.461 79.2043 293.546C79.2043 292.63 79.9232 291.928 80.8561 291.928C81.4209 291.928 81.8574 292.168 82.2083 292.519V291.774C81.8317 291.432 81.3439 291.252 80.7876 291.252C79.4183 291.252 78.4512 292.236 78.4512 293.546C78.4512 294.855 79.4183 295.839 80.7876 295.839Z" fill="#F2F2F2"/>
<path d="M83.1367 291.346V295.754H83.8727V292.014H86.406V295.754H87.1505V291.346H83.1367Z" fill="#F2F2F2"/>
<path d="M90.3571 295.839C91.6922 295.839 92.7021 294.855 92.7021 293.546C92.7021 292.236 91.6922 291.252 90.3571 291.252C89.0135 291.252 88.0036 292.236 88.0036 293.546C88.0036 294.855 89.0135 295.839 90.3571 295.839ZM90.3571 295.163C89.4414 295.163 88.7311 294.461 88.7311 293.537C88.7311 292.621 89.4414 291.928 90.3571 291.928C91.2729 291.928 91.9746 292.621 91.9746 293.537C91.9746 294.461 91.2729 295.163 90.3571 295.163Z" fill="#F2F2F2"/>
<path d="M93.1822 295.771C93.9781 295.779 94.6884 295.309 94.6884 294.102V292.014H96.6996V295.754H97.4356V291.346H93.9695V294.085C93.9695 294.898 93.5416 295.086 93.1822 295.103V295.771Z" fill="#F2F2F2"/>
<path d="M101.826 293.22H99.2676V291.346H98.5316V295.754H99.2676V293.871H101.826V295.754H102.571V291.346H101.826V293.22Z" fill="#F2F2F2"/>
<path d="M104.399 294.718V291.346H103.663V295.754H104.348L107.095 292.424V295.754H107.84V291.346H107.146L104.399 294.718Z" fill="#F2F2F2"/>
<path d="M110.58 295.754V292.014H111.984V291.346H108.423V292.014H109.835V295.754H110.58Z" fill="#F2F2F2"/>
<path d="M114.433 291.252C113.132 291.252 112.191 292.253 112.191 293.546C112.191 294.932 113.175 295.839 114.501 295.839C115.546 295.839 116.324 295.214 116.555 294.47L115.896 294.393C115.7 294.812 115.237 295.214 114.51 295.214C113.654 295.214 112.987 294.641 112.935 293.777H116.684C116.71 292.219 115.777 291.252 114.433 291.252ZM114.433 291.868C115.289 291.868 115.879 292.45 115.905 293.203H112.935C112.995 292.433 113.62 291.868 114.433 291.868Z" fill="#F2F2F2"/>
<path d="M117.16 295.771C117.956 295.779 118.667 295.309 118.667 294.102V292.014H120.678V295.754H121.414V291.346H117.948V294.085C117.948 294.898 117.52 295.086 117.16 295.103V295.771Z" fill="#F2F2F2"/>
<path d="M124.512 291.252C123.212 291.252 122.27 292.253 122.27 293.546C122.27 294.932 123.254 295.839 124.581 295.839C125.625 295.839 126.404 295.214 126.635 294.47L125.976 294.393C125.779 294.812 125.317 295.214 124.589 295.214C123.734 295.214 123.066 294.641 123.015 293.777H126.763C126.789 292.219 125.856 291.252 124.512 291.252ZM124.512 291.868C125.368 291.868 125.959 292.45 125.984 293.203H123.015C123.075 292.433 123.699 291.868 124.512 291.868Z" fill="#F2F2F2"/>
<path d="M129.713 290.884C130.389 290.884 131.022 290.525 131.022 289.686H130.432C130.432 290.071 130.201 290.379 129.713 290.379C129.234 290.379 128.994 290.071 128.994 289.686H128.404C128.404 290.525 129.037 290.884 129.713 290.884ZM128.352 294.718V291.346H127.616V295.754H128.301L131.048 292.424V295.754H131.793V291.346H131.099L128.352 294.718Z" fill="#F2F2F2"/>
<path fill-rule="evenodd" clip-rule="evenodd" d="M281.856 1.36264L281.856 309.46L281.57 309.46L281.57 1.36264L281.856 1.36264Z" fill="#FC62FF" stroke="#FC62FF"/>
<path fill-rule="evenodd" clip-rule="evenodd" d="M148.348 1.36264L148.348 309.46L148.062 309.46L148.063 1.36264L148.348 1.36264Z" fill="#FC62FF" stroke="#FC62FF"/>
<path fill-rule="evenodd" clip-rule="evenodd" d="M14.8322 1.36264L14.8321 309.46L14.5469 309.46L14.5469 1.36264L14.8322 1.36264Z" fill="#FC62FF" stroke="#FC62FF"/>
<path fill-rule="evenodd" clip-rule="evenodd" d="M415.363 1.36264L415.363 309.46L415.078 309.46L415.078 1.36264L415.363 1.36264Z" fill="#FC62FF" stroke="#FC62FF"/>
<path fill-rule="evenodd" clip-rule="evenodd" d="M1.13818 148.565L548.867 148.565L548.867 148.85L1.13818 148.85L1.13818 148.565Z" fill="#FC62FF" stroke="#FC62FF"/>
<path fill-rule="evenodd" clip-rule="evenodd" d="M1.13818 74.9632L548.867 74.9633L548.867 75.2485L1.13818 75.2485L1.13818 74.9632Z" fill="#FC62FF" stroke="#FC62FF"/>
<path fill-rule="evenodd" clip-rule="evenodd" d="M1.13818 222.167L548.867 222.167L548.867 222.452L1.13818 222.452L1.13818 222.167Z" fill="#FC62FF" stroke="#FC62FF"/>
<path fill-rule="evenodd" clip-rule="evenodd" d="M1.13818 295.768L548.867 295.768L548.867 296.053L1.13818 296.053L1.13818 295.768Z" fill="#FC62FF" stroke="#FC62FF"/>
<path fill-rule="evenodd" clip-rule="evenodd" d="M268.449 1.36264L268.449 309.46L268.164 309.46L268.164 1.36264L268.449 1.36264Z" fill="#FC62FF" stroke="#FC62FF"/>
<path fill-rule="evenodd" clip-rule="evenodd" d="M134.934 1.36264L134.934 309.46L134.648 309.46L134.648 1.36264L134.934 1.36264Z" fill="#111112" stroke="#FC62FF"/>
<path fill-rule="evenodd" clip-rule="evenodd" d="M1.42591 1.36264L1.42589 309.46L1.14062 309.46L1.14065 1.36264L1.42591 1.36264Z" fill="#FC62FF" stroke="#FC62FF"/>
<path fill-rule="evenodd" clip-rule="evenodd" d="M401.957 1.36264L401.957 309.46L401.672 309.46L401.672 1.36264L401.957 1.36264Z" fill="#FC62FF" stroke="#FC62FF"/>
<path fill-rule="evenodd" clip-rule="evenodd" d="M535.465 1.36264L535.465 309.46L535.18 309.46L535.18 1.36264L535.465 1.36264Z" fill="#FC62FF" stroke="#FC62FF"/>
<path fill-rule="evenodd" clip-rule="evenodd" d="M548.871 1.36264L548.871 309.46L548.586 309.46L548.586 1.36264L548.871 1.36264Z" fill="#FC62FF" stroke="#FC62FF"/>
<path fill-rule="evenodd" clip-rule="evenodd" d="M1.13818 161.972L548.867 161.972L548.867 162.258L1.13818 162.258L1.13818 161.972Z" fill="#FC62FF" stroke="#FC62FF"/>
<path fill-rule="evenodd" clip-rule="evenodd" d="M1.13818 88.3719L548.867 88.372L548.867 88.6572L1.13818 88.6572L1.13818 88.3719Z" fill="#FC62FF" stroke="#FC62FF"/>
<path fill-rule="evenodd" clip-rule="evenodd" d="M1.13818 235.574L548.867 235.574L548.867 235.86L1.13818 235.86L1.13818 235.574Z" fill="#FC62FF" stroke="#FC62FF"/>
<path fill-rule="evenodd" clip-rule="evenodd" d="M1.13818 309.175L548.867 309.175L548.867 309.46L1.13818 309.46L1.13818 309.175Z" fill="#FC62FF" stroke="#FC62FF"/>
<path fill-rule="evenodd" clip-rule="evenodd" d="M1.13818 1.36289L548.867 1.36292L548.867 1.64819L1.13818 1.64817L1.13818 1.36289Z" fill="#FC62FF" stroke="#FC62FF"/>
<path fill-rule="evenodd" clip-rule="evenodd" d="M1.13818 14.7713L548.867 14.7714L548.867 15.0566L1.13818 15.0566L1.13818 14.7713Z" fill="#FC62FF" stroke="#FC62FF"/>
</svg>
