<svg width="1115" height="246" viewBox="0 0 1115 246" fill="none" xmlns="http://www.w3.org/2000/svg">
<path d="M146.133 245.422V0H303.904V45.5783H198.723V100.272H303.904V145.851H198.723V245.422H146.133Z" fill="#111112"/>
<path d="M316.148 0H368.739V199.843H487.944V245.422H316.148V0Z" fill="#111112"/>
<path d="M689.91 245.422L669.575 174.249H569.654L549.319 245.422H500.234L570.706 0H619.79L582.977 128.671H656.603L619.79 0H672.38L742.501 245.422H689.91Z" fill="#111112"/>
<path d="M1061.55 245.422L1041.22 174.249H941.294L920.959 245.422H871.875L942.346 0H991.431L954.617 128.671H1028.24L991.431 0H1044.02L1114.14 245.422H1061.55Z" fill="#111112"/>
<path d="M809.093 245.422L878.863 0H927.947L858.177 245.422H809.093ZM738.622 0L809.093 245.422H756.502L686.031 0H738.622Z" fill="#111112"/>
<rect x="100.062" width="36.8133" height="245.422" fill="#111112"/>
<rect x="61.5078" width="28.0482" height="245.422" fill="#111112"/>
<rect x="28.1719" width="17.5301" height="245.422" fill="#111112"/>
<rect x="0.140625" width="8.76506" height="245.422" fill="#111112"/>
</svg>
