<svg width="1115" height="246" viewBox="0 0 1115 246" fill="none" xmlns="http://www.w3.org/2000/svg">
<path d="M146.125 245.422V0H303.896V45.5783H198.715V100.272H303.896V145.851H198.715V245.422H146.125Z" fill="#F2F2F2"/>
<path d="M316.156 0H368.747V199.843H487.951V245.422H316.156V0Z" fill="#F2F2F2"/>
<path d="M689.903 245.422L669.568 174.249H569.646L549.311 245.422H500.227L570.698 0H619.782L582.969 128.671H656.595L619.782 0H672.372L742.493 245.422H689.903Z" fill="#F2F2F2"/>
<path d="M1061.55 245.422L1041.22 174.249H941.294L920.959 245.422H871.875L942.346 0H991.43L954.617 128.671H1028.24L991.43 0H1044.02L1114.14 245.422H1061.55Z" fill="#F2F2F2"/>
<path d="M809.101 245.422L878.87 0H927.955L858.185 245.422H809.101ZM738.629 0L809.101 245.422H756.51L686.039 0H738.629Z" fill="#F2F2F2"/>
<rect x="100.062" width="36.8133" height="245.422" fill="#F2F2F2"/>
<rect x="61.5" width="28.0482" height="245.422" fill="#F2F2F2"/>
<rect x="28.1719" width="17.5301" height="245.422" fill="#F2F2F2"/>
<rect x="0.140625" width="8.76506" height="245.422" fill="#F2F2F2"/>
</svg>
