<svg width="551" height="227" viewBox="0 0 551 227" fill="none" xmlns="http://www.w3.org/2000/svg">
<rect x="0.140625" width="183" height="227" fill="#FC62FF"/>
<rect x="183.141" width="182" height="227" fill="#33FEB4"/>
<rect x="365.141" width="185" height="227" fill="#EBFF00"/>
<path d="M408.987 12.4689C406.083 17.3529 405.203 18.9809 404.807 20.0589C404.411 18.9589 403.553 17.3309 400.627 12.4689H398.383L403.795 21.4889V28.0889H405.775V21.4889L411.187 12.4689H408.987ZM415.224 16.5169C411.88 16.5169 409.46 19.0909 409.46 22.4129C409.46 25.9769 411.99 28.3089 415.4 28.3089C418.084 28.3089 420.086 26.7029 420.68 24.7889L418.986 24.5909C418.48 25.6689 417.292 26.7029 415.422 26.7029C413.222 26.7029 411.506 25.2289 411.374 23.0069H421.01C421.076 19.0029 418.678 16.5169 415.224 16.5169ZM415.224 18.1009C417.424 18.1009 418.942 19.5969 419.008 21.5329H411.374C411.528 19.5529 413.134 18.1009 415.224 18.1009ZM423.203 11.5889V28.0889H425.117V11.5889H423.203ZM427.929 11.5889V28.0889H429.843V11.5889H427.929ZM438.09 28.3089C441.522 28.3089 444.118 25.7789 444.118 22.4129C444.118 19.0469 441.522 16.5169 438.09 16.5169C434.636 16.5169 432.04 19.0469 432.04 22.4129C432.04 25.7789 434.636 28.3089 438.09 28.3089ZM438.09 26.5709C435.736 26.5709 433.91 24.7669 433.91 22.3909C433.91 20.0369 435.736 18.2549 438.09 18.2549C440.444 18.2549 442.248 20.0369 442.248 22.3909C442.248 24.7669 440.444 26.5709 438.09 26.5709ZM459.891 16.7589C457.757 23.5129 457.427 24.6789 457.119 26.1309C456.789 24.4809 456.437 23.3809 454.303 16.7589H452.389C450.167 23.5569 449.815 24.7229 449.507 26.2849C449.221 24.7229 448.891 23.6009 446.713 16.7589H444.689L448.429 28.0889H450.387C452.697 21.1369 453.027 20.0809 453.313 18.5849C453.577 20.0809 453.885 21.1589 456.173 28.0889H458.131L461.871 16.7589H459.891ZM475.348 16.5389C473.104 16.5389 471.432 17.6829 470.728 19.3989V11.5889H468.814V28.0889H470.728V25.6029C471.608 27.2969 473.28 28.3089 475.26 28.3089C478.736 28.3089 481.024 25.8229 481.024 22.4569C481.024 19.1349 478.802 16.5389 475.348 16.5389ZM474.886 26.5929C472.466 26.5929 470.75 24.7669 470.75 22.4349C470.75 20.0809 472.466 18.2549 474.886 18.2549C477.328 18.2549 479.088 19.9929 479.088 22.4349C479.088 24.8549 477.328 26.5929 474.886 26.5929ZM488.378 16.5169C485.034 16.5169 482.614 19.0909 482.614 22.4129C482.614 25.9769 485.144 28.3089 488.554 28.3089C491.238 28.3089 493.24 26.7029 493.834 24.7889L492.14 24.5909C491.634 25.6689 490.446 26.7029 488.576 26.7029C486.376 26.7029 484.66 25.2289 484.528 23.0069H494.164C494.23 19.0029 491.832 16.5169 488.378 16.5169ZM488.378 18.1009C490.578 18.1009 492.096 19.5969 492.162 21.5329H484.528C484.682 19.5529 486.288 18.1009 488.378 18.1009ZM506.037 19.3329V19.2229C505.157 17.5509 503.485 16.5169 501.527 16.5169C498.029 16.5169 495.741 19.0249 495.741 22.3909C495.741 25.7129 497.985 28.3089 501.417 28.3089C503.661 28.3089 505.333 27.1649 506.037 25.4269V28.0889H507.973V16.7589H506.323L506.037 19.3329ZM501.879 26.5929C499.437 26.5929 497.699 24.8549 497.699 22.4129C497.699 19.9929 499.437 18.2549 501.879 18.2549C504.299 18.2549 506.015 20.0809 506.015 22.4129C506.015 24.7669 504.299 26.5929 501.879 26.5929ZM513.501 16.7589V13.5029H511.565V16.7589H509.893V18.2769H511.565V28.0889H513.501V18.2769H515.899V16.7589H513.501Z" fill="#111112"/>
<path d="M222.712 28.22C224.934 28.22 226.452 27.516 227.332 26.79V24.832C226.54 25.58 225.154 26.438 222.954 26.438C219.566 26.438 216.882 23.71 216.882 20.19C216.882 16.67 219.544 13.942 222.954 13.942C225.154 13.942 226.518 14.8 227.332 15.548V13.59C226.452 12.864 224.934 12.16 222.712 12.16C218.334 12.16 214.924 15.702 214.924 20.19C214.924 24.678 218.334 28.22 222.712 28.22ZM238.276 16.67C235.658 22.94 234.954 24.81 234.58 26.262C234.206 24.81 233.436 22.874 230.752 16.67H228.662L233.59 28.022L231.522 33.06H233.546L240.322 16.67H238.276ZM251.084 19.244V19.134C250.204 17.462 248.532 16.428 246.574 16.428C243.076 16.428 240.788 18.936 240.788 22.302C240.788 25.624 243.032 28.22 246.464 28.22C248.708 28.22 250.38 27.076 251.084 25.338V28H253.02V16.67H251.37L251.084 19.244ZM246.926 26.504C244.484 26.504 242.746 24.766 242.746 22.324C242.746 19.904 244.484 18.166 246.926 18.166C249.346 18.166 251.062 19.992 251.062 22.324C251.062 24.678 249.346 26.504 246.926 26.504ZM261.76 16.428C259.824 16.428 258.438 17.33 257.734 18.87L257.492 16.67H255.842V28H257.778V21.862C257.778 19.508 259.076 18.1 261.21 18.1C262.838 18.1 264.378 18.958 264.378 21.598V28H266.314V21.334C266.314 17.858 264.18 16.428 261.76 16.428ZM283.611 19.266V19.134C282.731 17.462 281.059 16.428 279.101 16.428C275.603 16.428 273.315 18.936 273.315 22.302C273.315 25.624 275.559 28.22 278.991 28.22C281.235 28.22 282.907 27.076 283.611 25.338V26.988C283.611 30.288 281.939 31.674 279.277 31.674C277.121 31.674 275.405 30.684 274.657 30.178V31.916C275.933 32.84 277.847 33.346 279.629 33.346C283.325 33.346 285.525 31.102 285.525 26.988V16.67H283.919L283.611 19.266ZM279.453 26.504C277.011 26.504 275.273 24.766 275.273 22.324C275.273 19.904 277.011 18.166 279.453 18.166C281.873 18.166 283.589 19.992 283.589 22.324C283.589 24.678 281.873 26.504 279.453 26.504ZM289.953 16.67H288.347V28H290.261V21.004C290.261 19.002 291.647 17.99 294.045 18.32L294.067 16.626C291.999 16.362 290.811 17.198 290.173 18.54L289.953 16.67ZM300.499 16.428C297.155 16.428 294.735 19.002 294.735 22.324C294.735 25.888 297.265 28.22 300.675 28.22C303.359 28.22 305.361 26.614 305.955 24.7L304.261 24.502C303.755 25.58 302.567 26.614 300.697 26.614C298.497 26.614 296.781 25.14 296.649 22.918H306.285C306.351 18.914 303.953 16.428 300.499 16.428ZM300.499 18.012C302.699 18.012 304.217 19.508 304.283 21.444H296.649C296.803 19.464 298.409 18.012 300.499 18.012ZM313.626 16.428C310.282 16.428 307.862 19.002 307.862 22.324C307.862 25.888 310.392 28.22 313.802 28.22C316.486 28.22 318.488 26.614 319.082 24.7L317.388 24.502C316.882 25.58 315.694 26.614 313.824 26.614C311.624 26.614 309.908 25.14 309.776 22.918H319.412C319.478 18.914 317.08 16.428 313.626 16.428ZM313.626 18.012C315.826 18.012 317.344 19.508 317.41 21.444H309.776C309.93 19.464 311.536 18.012 313.626 18.012ZM327.523 16.428C325.587 16.428 324.201 17.33 323.497 18.87L323.255 16.67H321.605V28H323.541V21.862C323.541 19.508 324.839 18.1 326.973 18.1C328.601 18.1 330.141 18.958 330.141 21.598V28H332.077V21.334C332.077 17.858 329.943 16.428 327.523 16.428Z" fill="#111112"/>
<path d="M42.132 12.38H32.738V28H42.132V26.218H34.696V20.916H40.68V19.178H34.696V14.162H42.132V12.38ZM44.3963 11.5V28H46.3103V11.5H44.3963ZM54.2708 16.428C50.9268 16.428 48.5068 19.002 48.5068 22.324C48.5068 25.888 51.0368 28.22 54.4468 28.22C57.1308 28.22 59.1328 26.614 59.7268 24.7L58.0328 24.502C57.5268 25.58 56.3388 26.614 54.4688 26.614C52.2688 26.614 50.5528 25.14 50.4208 22.918H60.0568C60.1228 18.914 57.7248 16.428 54.2708 16.428ZM54.2708 18.012C56.4708 18.012 57.9888 19.508 58.0548 21.444H50.4208C50.5748 19.464 52.1808 18.012 54.2708 18.012ZM67.6838 28.22C69.1138 28.22 70.3678 27.78 71.3358 26.878V24.986C70.4338 25.866 69.3118 26.504 67.8598 26.504C65.4618 26.504 63.6138 24.678 63.6138 22.324C63.6138 19.97 65.4618 18.166 67.8598 18.166C69.3118 18.166 70.4338 18.782 71.3358 19.684V17.77C70.3678 16.89 69.1138 16.428 67.6838 16.428C64.1638 16.428 61.6778 18.958 61.6778 22.324C61.6778 25.69 64.1638 28.22 67.6838 28.22ZM76.2351 16.67V13.414H74.2991V16.67H72.6271V18.188H74.2991V28H76.2351V18.188H78.6331V16.67H76.2351ZM82.2035 16.67H80.5975V28H82.5115V21.004C82.5115 19.002 83.8975 17.99 86.2955 18.32L86.3175 16.626C84.2495 16.362 83.0615 17.198 82.4235 18.54L82.2035 16.67ZM89.1924 14.976C89.8744 14.976 90.4244 14.426 90.4244 13.766C90.4244 13.084 89.8744 12.534 89.1924 12.534C88.5104 12.534 87.9824 13.084 87.9824 13.766C87.9824 14.426 88.5104 14.976 89.1924 14.976ZM88.2244 16.67V28H90.1384V16.67H88.2244ZM98.385 28.22C99.815 28.22 101.069 27.78 102.037 26.878V24.986C101.135 25.866 100.013 26.504 98.561 26.504C96.163 26.504 94.315 24.678 94.315 22.324C94.315 19.97 96.163 18.166 98.561 18.166C100.013 18.166 101.135 18.782 102.037 19.684V17.77C101.069 16.89 99.815 16.428 98.385 16.428C94.865 16.428 92.379 18.958 92.379 22.324C92.379 25.69 94.865 28.22 98.385 28.22ZM115.942 16.45C113.698 16.45 112.026 17.594 111.322 19.31V19.266L111.036 16.67H109.408V33.06H111.322V25.514C112.202 27.208 113.874 28.22 115.854 28.22C119.33 28.22 121.618 25.734 121.618 22.368C121.618 19.046 119.396 16.45 115.942 16.45ZM115.48 26.504C113.06 26.504 111.344 24.678 111.344 22.346C111.344 19.992 113.06 18.166 115.48 18.166C117.922 18.166 119.682 19.904 119.682 22.346C119.682 24.766 117.922 26.504 115.48 26.504ZM124.792 14.976C125.474 14.976 126.024 14.426 126.024 13.766C126.024 13.084 125.474 12.534 124.792 12.534C124.11 12.534 123.582 13.084 123.582 13.766C123.582 14.426 124.11 14.976 124.792 14.976ZM123.824 16.67V28H125.738V16.67H123.824ZM134.469 16.428C132.533 16.428 131.147 17.33 130.443 18.87L130.201 16.67H128.551V28H130.487V21.862C130.487 19.508 131.785 18.1 133.919 18.1C135.547 18.1 137.087 18.958 137.087 21.598V28H139.023V21.334C139.023 17.858 136.889 16.428 134.469 16.428ZM145.374 21.906L151.49 16.67H149.18L143.438 21.554C143.57 19.134 143.57 16.428 143.57 11.5H141.656V28H143.57C143.57 25.602 143.548 23.842 143.438 22.28L149.202 28H151.512L145.374 21.906Z" fill="#111112"/>
<path d="M63.542 199.987H60.88L61.32 195.961H59.45L59.01 199.987H55.182L55.622 195.961H53.752L53.312 199.987H50.43V201.637H53.136L52.652 206.169H49.77V207.819H52.476L52.08 211.581H53.95L54.346 207.819H58.174L57.778 211.581H59.648L60.044 207.819H62.882V206.169H60.22L60.704 201.637H63.542V199.987ZM54.522 206.169L55.006 201.637H58.834L58.35 206.169H54.522ZM68.0144 211.581V204.651H74.2404V202.913H68.0144V197.765H75.2524V195.961H66.0564V211.581H68.0144ZM84.5245 211.801C86.7465 211.801 88.2645 211.097 89.1445 210.371V208.413C88.3525 209.161 86.9665 210.019 84.7665 210.019C81.3785 210.019 78.6945 207.291 78.6945 203.771C78.6945 200.251 81.3565 197.523 84.7665 197.523C86.9665 197.523 88.3305 198.381 89.1445 199.129V197.171C88.2645 196.445 86.7465 195.741 84.5245 195.741C80.1465 195.741 76.7365 199.283 76.7365 203.771C76.7365 208.259 80.1465 211.801 84.5245 211.801ZM97.0721 201.197C96.3021 201.197 95.6861 201.329 95.1361 201.593L98.5901 195.961L96.4341 195.939L92.1441 202.869C91.2861 204.277 91.0001 205.509 91.0001 206.455C91.0001 209.447 93.2661 211.801 96.5661 211.801C99.8441 211.801 102.088 209.447 102.088 206.367C102.088 203.353 99.9101 201.197 97.0721 201.197ZM96.5661 209.975C94.4981 209.975 92.9581 208.457 92.9581 206.367C92.9581 204.255 94.4541 202.759 96.5661 202.759C98.6121 202.759 100.13 204.277 100.13 206.367C100.13 208.457 98.6121 209.975 96.5661 209.975ZM105.698 209.755C106.358 206.367 114.102 205.883 114.102 200.559C114.102 197.567 111.858 195.741 108.998 195.741C105.83 195.741 103.674 197.985 103.674 200.801H105.654C105.698 198.931 107.018 197.523 108.976 197.523C110.846 197.523 112.144 198.799 112.144 200.537C112.144 204.695 103.674 205.245 103.674 210.261V211.581H114.19V209.755H105.698ZM118.675 211.581V204.651H124.901V202.913H118.675V197.765H125.913V195.961H116.717V211.581H118.675ZM130.169 211.581V204.651H136.395V202.913H130.169V197.765H137.407V195.961H128.211V211.581H130.169Z" fill="#111112"/>
<path d="M243.401 200.317H240.739L241.179 196.291H239.309L238.869 200.317H235.041L235.481 196.291H233.611L233.171 200.317H230.289V201.967H232.995L232.511 206.499H229.629V208.149H232.335L231.939 211.911H233.809L234.205 208.149H238.033L237.637 211.911H239.507L239.903 208.149H242.741V206.499H240.079L240.563 201.967H243.401V200.317ZM234.381 206.499L234.865 201.967H238.693L238.209 206.499H234.381ZM253.352 203.705C254.496 203.023 255.266 201.857 255.266 200.273C255.266 197.809 253.33 196.071 250.404 196.071C247.038 196.071 245.08 198.381 245.08 201.197H246.994C246.994 199.239 248.358 197.853 250.294 197.853C252.098 197.853 253.308 198.887 253.308 200.405C253.308 201.835 252.252 202.979 250.316 203.023H249.018V204.717H250.272C252.186 204.717 253.924 205.421 253.924 207.401C253.924 209.029 252.648 210.349 250.47 210.349C248.446 210.349 246.774 209.073 246.774 206.895H244.86C244.86 209.865 247.104 212.131 250.558 212.131C254.034 212.131 255.882 209.865 255.882 207.511C255.882 205.443 254.782 204.255 253.352 203.705ZM265.877 203.705C267.021 203.023 267.791 201.857 267.791 200.273C267.791 197.809 265.855 196.071 262.929 196.071C259.563 196.071 257.605 198.381 257.605 201.197H259.519C259.519 199.239 260.883 197.853 262.819 197.853C264.623 197.853 265.833 198.887 265.833 200.405C265.833 201.835 264.777 202.979 262.841 203.023H261.543V204.717H262.797C264.711 204.717 266.449 205.421 266.449 207.401C266.449 209.029 265.173 210.349 262.995 210.349C260.971 210.349 259.299 209.073 259.299 206.895H257.385C257.385 209.865 259.629 212.131 263.083 212.131C266.559 212.131 268.407 209.865 268.407 207.511C268.407 205.443 267.307 204.255 265.877 203.705ZM272.925 211.911V204.981H279.151V203.243H272.925V198.095H280.163V196.291H270.967V211.911H272.925ZM291.855 196.291H282.461V211.911H291.855V210.129H284.419V204.827H290.403V203.089H284.419V198.073H291.855V196.291ZM300.213 211.911C303.865 211.911 305.713 210.173 305.713 207.511C305.713 205.509 304.547 203.881 302.501 203.529C303.953 203.111 304.833 201.989 304.833 200.141C304.833 197.787 303.183 196.291 299.905 196.291H294.449V211.911H300.213ZM296.407 197.985H299.905C301.819 197.985 302.853 198.909 302.853 200.493C302.853 202.187 301.819 203.001 299.905 203.001H296.407V197.985ZM296.407 204.497H300.345C302.501 204.497 303.733 205.707 303.733 207.489C303.733 209.227 302.501 210.217 300.213 210.217H296.407V204.497ZM316.644 207.005V196.291H314.818L307.184 207.225V208.589H314.73V211.911H316.644V208.589H319.108V207.005H316.644ZM314.906 198.755C314.796 199.261 314.73 200.031 314.73 200.977V207.005H309.252L314.906 198.755Z" fill="#111112"/>
<path d="M426.542 199.406H423.88L424.32 195.38H422.45L422.01 199.406H418.182L418.622 195.38H416.752L416.312 199.406H413.43V201.056H416.136L415.652 205.588H412.77V207.238H415.476L415.08 211H416.95L417.346 207.238H421.174L420.778 211H422.648L423.044 207.238H425.882V205.588H423.22L423.704 201.056H426.542V199.406ZM417.522 205.588L418.006 201.056H421.834L421.35 205.588H417.522ZM438.45 195.38H429.056V211H438.45V209.218H431.014V203.916H436.998V202.178H431.014V197.162H438.45V195.38ZM446.809 211C450.461 211 452.309 209.262 452.309 206.6C452.309 204.598 451.143 202.97 449.097 202.618C450.549 202.2 451.429 201.078 451.429 199.23C451.429 196.876 449.779 195.38 446.501 195.38H441.045V211H446.809ZM443.003 197.074H446.501C448.415 197.074 449.449 197.998 449.449 199.582C449.449 201.276 448.415 202.09 446.501 202.09H443.003V197.074ZM443.003 203.586H446.941C449.097 203.586 450.329 204.796 450.329 206.578C450.329 208.316 449.097 209.306 446.809 209.306H443.003V203.586ZM456.882 211V204.07H463.108V202.332H456.882V197.184H464.12V195.38H454.924V211H456.882ZM468.376 211V204.07H474.602V202.332H468.376V197.184H475.614V195.38H466.418V211H468.376ZM483.082 211.22C486.096 211.22 488.824 209.108 488.824 205.676V200.704C488.824 197.272 486.096 195.16 483.082 195.16C480.046 195.16 477.34 197.272 477.34 200.704V205.676C477.34 209.108 480.046 211.22 483.082 211.22ZM483.082 209.394C480.992 209.394 479.298 207.854 479.298 205.676V200.704C479.298 198.526 480.992 196.986 483.082 196.986C485.15 196.986 486.866 198.526 486.866 200.704V205.676C486.866 207.854 485.15 209.394 483.082 209.394ZM496.875 211.22C499.889 211.22 502.617 209.108 502.617 205.676V200.704C502.617 197.272 499.889 195.16 496.875 195.16C493.839 195.16 491.133 197.272 491.133 200.704V205.676C491.133 209.108 493.839 211.22 496.875 211.22ZM496.875 209.394C494.785 209.394 493.091 207.854 493.091 205.676V200.704C493.091 198.526 494.785 196.986 496.875 196.986C498.943 196.986 500.659 198.526 500.659 200.704V205.676C500.659 207.854 498.943 209.394 496.875 209.394Z" fill="#111112"/>
</svg>
