<svg width="317" height="224" viewBox="0 0 317 224" fill="none" xmlns="http://www.w3.org/2000/svg">
<path d="M72.6039 202.587L36.9141 140.771L76.6533 117.827L83.2814 129.307L56.7886 144.603L64.7423 158.379L91.2352 143.084L97.8633 154.564L71.3704 169.859L85.8503 194.939L72.6039 202.587Z" fill="#111112"/>
<path d="M79.7344 116.048L92.9808 108.4L122.043 158.736L152.068 141.401L158.696 152.882L115.424 177.864L79.7344 116.048Z" fill="#111112"/>
<path d="M209.567 123.509L194.095 108.539L168.927 123.07L174.155 143.954L161.791 151.092L143.852 79.0273L156.215 71.8893L165.654 109.652L184.199 98.9454L156.215 71.8893L169.462 64.2415L222.813 115.861L209.567 123.509Z" fill="#111112"/>
<path d="M303.176 69.4649L287.704 54.4952L262.536 69.0261L267.764 89.9101L255.401 97.048L237.461 24.9834L249.824 17.8454L259.264 55.6084L277.809 44.9015L249.824 17.8454L263.071 10.1976L316.423 61.8171L303.176 69.4649Z" fill="#111112"/>
<path d="M239.593 106.178L221.476 34.2148L233.84 27.0769L251.956 99.0396L239.593 106.178ZM186.153 54.609L239.593 106.178L226.346 113.825L172.906 62.2568L186.153 54.609Z" fill="#111112"/>
<rect x="25.3047" y="147.471" width="10.707" height="71.3797" transform="rotate(-30 25.3047 147.471)" fill="#111112"/>
<rect x="15.5938" y="153.078" width="8.15768" height="71.3797" transform="rotate(-30 15.5938 153.078)" fill="#111112"/>
<rect x="7.20312" y="157.925" width="5.09855" height="71.3797" transform="rotate(-30 7.20312 157.925)" fill="#111112"/>
<rect x="0.140625" y="162.001" width="2.54927" height="71.3797" transform="rotate(-30 0.140625 162.001)" fill="#111112"/>
</svg>
