<svg width="537" height="76" viewBox="0 0 537 76" fill="none" xmlns="http://www.w3.org/2000/svg">
<rect x="41.4219" y="0.691406" width="41.2783" height="41.2783" transform="rotate(90 41.4219 0.691406)" fill="#C4C4C4"/>
<rect x="165.25" y="0.691406" width="41.2783" height="82.5565" transform="rotate(90 165.25 0.691406)" fill="#C4C4C4"/>
<rect x="330.359" y="0.691406" width="41.2783" height="123.835" transform="rotate(90 330.359 0.691406)" fill="#C4C4C4"/>
<rect x="536.75" y="0.691406" width="41.2783" height="165.113" transform="rotate(90 536.75 0.691406)" fill="#C4C4C4"/>
<path d="M17.5273 68.6562V66.9182H13.9193V53.0362L8.59525 54.5982V56.4022L11.9393 55.2802V66.9182H8.33125V68.6562H17.5273ZM20.477 60.2962C21.137 60.2962 21.665 59.7902 21.665 59.1082C21.665 58.4702 21.137 57.9422 20.477 57.9422C19.839 57.9422 19.311 58.4702 19.311 59.1082C19.311 59.7902 19.839 60.2962 20.477 60.2962ZM20.477 68.8763C21.137 68.8763 21.665 68.3702 21.665 67.6882C21.665 67.0502 21.137 66.5222 20.477 66.5222C19.839 66.5222 19.311 67.0502 19.311 67.6882C19.311 68.3702 19.839 68.8763 20.477 68.8763ZM32.9315 68.6562V66.9182H29.3235V53.0362L23.9995 54.5982V56.4022L27.3435 55.2802V66.9182H23.7355V68.6562H32.9315Z" fill="#FC62FF"/>
<path d="M119.715 68.6562V66.9182H116.107V53.0362L110.783 54.5982V56.4022L114.127 55.2802V66.9182H110.519V68.6562H119.715ZM122.664 60.2962C123.324 60.2962 123.852 59.7902 123.852 59.1082C123.852 58.4702 123.324 57.9422 122.664 57.9422C122.026 57.9422 121.498 58.4702 121.498 59.1082C121.498 59.7902 122.026 60.2962 122.664 60.2962ZM122.664 68.8763C123.324 68.8763 123.852 68.3702 123.852 67.6882C123.852 67.0502 123.324 66.5222 122.664 66.5222C122.026 66.5222 121.498 67.0502 121.498 67.6882C121.498 68.3702 122.026 68.8763 122.664 68.8763ZM128.145 66.8302C128.805 63.4422 136.549 62.9582 136.549 57.6342C136.549 54.6422 134.305 52.8162 131.445 52.8162C128.277 52.8162 126.121 55.0602 126.121 57.8762H128.101C128.145 56.0062 129.465 54.5982 131.423 54.5982C133.293 54.5982 134.591 55.8742 134.591 57.6122C134.591 61.7702 126.121 62.3202 126.121 67.3362V68.6562H136.637V66.8302H128.145Z" fill="#FC62FF"/>
<path d="M264.191 68.6562V66.9182H260.583V53.0362L255.259 54.5982V56.4022L258.603 55.2802V66.9182H254.995V68.6562H264.191ZM267.141 60.2962C267.801 60.2962 268.329 59.7902 268.329 59.1082C268.329 58.4702 267.801 57.9422 267.141 57.9422C266.503 57.9422 265.975 58.4702 265.975 59.1082C265.975 59.7902 266.503 60.2962 267.141 60.2962ZM267.141 68.8763C267.801 68.8763 268.329 68.3702 268.329 67.6882C268.329 67.0502 267.801 66.5222 267.141 66.5222C266.503 66.5222 265.975 67.0502 265.975 67.6882C265.975 68.3702 266.503 68.8763 267.141 68.8763ZM279.024 60.4502C280.168 59.7682 280.938 58.6022 280.938 57.0182C280.938 54.5542 279.002 52.8162 276.076 52.8162C272.71 52.8162 270.752 55.1262 270.752 57.9422H272.666C272.666 55.9842 274.03 54.5982 275.966 54.5982C277.77 54.5982 278.98 55.6322 278.98 57.1502C278.98 58.5802 277.924 59.7242 275.988 59.7682H274.69V61.4622H275.944C277.858 61.4622 279.596 62.1662 279.596 64.1462C279.596 65.7742 278.32 67.0942 276.142 67.0942C274.118 67.0942 272.446 65.8182 272.446 63.6402H270.532C270.532 66.6102 272.776 68.8763 276.23 68.8763C279.706 68.8763 281.554 66.6102 281.554 64.2562C281.554 62.1883 280.454 61.0002 279.024 60.4502Z" fill="#FC62FF"/>
<path d="M438.887 68.6562V66.9182H435.279V53.0362L429.955 54.5982V56.4022L433.299 55.2802V66.9182H429.691V68.6562H438.887ZM441.836 60.2962C442.496 60.2962 443.024 59.7902 443.024 59.1082C443.024 58.4702 442.496 57.9422 441.836 57.9422C441.198 57.9422 440.67 58.4702 440.67 59.1082C440.67 59.7902 441.198 60.2962 441.836 60.2962ZM441.836 68.8763C442.496 68.8763 443.024 68.3702 443.024 67.6882C443.024 67.0502 442.496 66.5222 441.836 66.5222C441.198 66.5222 440.67 67.0502 440.67 67.6882C440.67 68.3702 441.198 68.8763 441.836 68.8763ZM454.599 63.7502V53.0362H452.773L445.139 63.9702V65.3342H452.685V68.6562H454.599V65.3342H457.063V63.7502H454.599ZM452.861 55.5002C452.751 56.0062 452.685 56.7762 452.685 57.7222V63.7502H447.207L452.861 55.5002Z" fill="#FC62FF"/>
</svg>
