<svg width="346" height="345" viewBox="0 0 346 345" fill="none" xmlns="http://www.w3.org/2000/svg">
<rect x="1.33594" y="1.00049" width="343.199" height="343.199" fill="#111112"/>
<path d="M1.33594 1H344.535V252.044H1.33594V1Z" fill="#C4C4C4"/>
<path d="M179.828 270.231C180.416 267.959 185.612 267.816 185.612 264.051C185.612 261.826 183.927 260.539 181.862 260.539C179.542 260.539 177.921 262.16 177.921 264.194H179.765C179.828 263.05 180.638 262.239 181.83 262.239C183.006 262.239 183.753 263.018 183.753 264.019C183.753 266.688 177.921 266.863 177.921 270.756V271.979H185.659V270.231H179.828Z" fill="#F2F2F2"/>
<path d="M191.247 272.138C193.472 272.138 195.553 270.676 195.553 268.055V264.623C195.553 262.001 193.472 260.539 191.247 260.539C189.039 260.539 186.957 262.001 186.957 264.623V268.055C186.957 270.676 189.039 272.138 191.247 272.138ZM191.247 270.39C189.928 270.39 188.816 269.469 188.816 268.055V264.623C188.816 263.208 189.928 262.287 191.247 262.287C192.582 262.287 193.694 263.208 193.694 264.623V268.055C193.694 269.469 192.582 270.39 191.247 270.39Z" fill="#F2F2F2"/>
<path d="M207.415 265.306V265.242C206.795 264.162 205.651 263.558 204.412 263.558C201.87 263.558 200.249 265.385 200.249 267.832C200.249 270.215 201.806 272.138 204.317 272.138C205.81 272.138 206.97 271.423 207.415 270.295V271.979H209.258V263.733H207.701L207.415 265.306ZM204.762 270.501C203.205 270.501 202.092 269.405 202.092 267.848C202.092 266.307 203.205 265.21 204.762 265.21C206.303 265.21 207.415 266.354 207.415 267.848C207.415 269.357 206.303 270.501 204.762 270.501Z" fill="#F2F2F2"/>
<path d="M214.552 271.979V265.353H217.015V263.733H210.278V265.353H212.757V271.979H214.552Z" fill="#F2F2F2"/>
<path d="M222.379 267.165L219.71 263.733H218.026V271.979H219.821C219.821 268.642 219.805 267.371 219.599 265.798C220.218 266.879 220.838 267.769 222.379 269.628C224.016 267.689 224.651 266.783 225.192 265.735C224.969 267.371 224.937 268.627 224.937 271.979H226.733V263.733H225.049L222.379 267.165Z" fill="#F2F2F2"/>
<path d="M232.611 272.138C235.17 272.138 237.044 270.327 237.044 267.848C237.044 265.385 235.17 263.558 232.611 263.558C230.069 263.558 228.194 265.385 228.194 267.848C228.194 270.327 230.069 272.138 232.611 272.138ZM232.611 270.501C231.102 270.501 229.974 269.357 229.974 267.848C229.974 266.323 231.102 265.195 232.611 265.195C234.137 265.195 235.281 266.323 235.281 267.848C235.281 269.357 234.137 270.501 232.611 270.501Z" fill="#F2F2F2"/>
<path d="M242.512 272.154C243.513 272.154 244.402 271.852 245.086 271.264V269.5C244.466 270.104 243.656 270.501 242.686 270.501C241.113 270.501 239.922 269.373 239.922 267.864C239.922 266.354 241.113 265.21 242.686 265.21C243.656 265.21 244.466 265.608 245.086 266.211V264.448C244.402 263.86 243.513 263.558 242.512 263.558C239.874 263.558 238.111 265.385 238.111 267.848C238.111 270.327 239.874 272.154 242.512 272.154Z" fill="#F2F2F2"/>
<path d="M256.201 267.832C256.201 265.449 254.501 263.701 252.007 263.606V260.062H250.306V263.606C247.844 263.701 246.144 265.496 246.144 267.832C246.144 270.184 247.844 272.011 250.306 272.106V275.634H252.007V272.106C254.501 272.011 256.201 270.247 256.201 267.832ZM247.812 267.832C247.812 266.323 248.813 265.195 250.306 265.099V270.581C248.813 270.47 247.812 269.326 247.812 267.832ZM252.007 265.099C253.532 265.195 254.533 266.354 254.533 267.832C254.533 269.357 253.532 270.486 252.007 270.581V265.099Z" fill="#F2F2F2"/>
<path d="M261.312 263.558C258.85 263.558 257.086 265.417 257.086 267.864C257.086 270.438 258.929 272.138 261.44 272.138C263.378 272.138 264.903 270.962 265.348 269.485L263.743 269.31C263.394 270.025 262.631 270.629 261.455 270.629C260.089 270.629 259.024 269.739 258.913 268.452H265.539C265.618 265.306 263.823 263.558 261.312 263.558ZM261.312 265.036C262.663 265.036 263.616 265.91 263.664 267.069H258.913C259.009 265.894 260.01 265.036 261.312 265.036Z" fill="#F2F2F2"/>
<path d="M271.906 263.574C270.412 263.574 269.252 264.305 268.807 265.417V265.369L268.489 263.733H266.98V275.634H268.807V270.47C269.427 271.55 270.571 272.154 271.81 272.154C274.352 272.154 275.957 270.327 275.957 267.88C275.957 265.496 274.416 263.574 271.906 263.574ZM271.461 270.501C269.919 270.501 268.807 269.357 268.807 267.864C268.807 266.354 269.919 265.21 271.461 265.21C273.018 265.21 274.13 266.307 274.13 267.864C274.13 269.405 273.018 270.501 271.461 270.501Z" fill="#F2F2F2"/>
<path d="M283.365 267.117H279.218V263.733H277.423V271.979H279.218V268.69H283.365V271.979H285.16V263.733H283.365V267.117Z" fill="#F2F2F2"/>
<path d="M288.854 266.291V263.733H287.058V271.979H290.935C292.874 271.979 294.192 270.915 294.192 269.135C294.192 267.371 292.874 266.291 290.935 266.291H288.854ZM295.384 271.979H297.211V263.733H295.384V271.979ZM288.854 270.438V267.816H290.729C291.73 267.816 292.397 268.277 292.397 269.135C292.397 269.993 291.73 270.438 290.729 270.438H288.854Z" fill="#F2F2F2"/>
<path d="M304.772 263.733C303.326 265.512 302.817 266.227 302.595 266.799C302.357 266.18 301.848 265.481 300.45 263.733H298.369L301.594 267.832L298.369 271.979H300.45C301.816 270.184 302.341 269.373 302.579 268.722C302.833 269.373 303.389 270.184 304.772 271.979H306.853L303.628 267.737L306.853 263.733H304.772Z" fill="#F2F2F2"/>
<path d="M181.751 288.821V282.196H184.213V280.575H177.477V282.196H179.955V288.821H181.751Z" fill="#F2F2F2"/>
<path d="M190.149 280.416C188.656 280.416 187.496 281.147 187.051 282.259V282.212L186.733 280.575H185.224V292.476H187.051V287.312C187.671 288.392 188.815 288.996 190.054 288.996C192.596 288.996 194.201 287.169 194.201 284.722C194.201 282.339 192.66 280.416 190.149 280.416ZM189.705 287.344C188.163 287.344 187.051 286.2 187.051 284.706C187.051 283.197 188.163 282.053 189.705 282.053C191.262 282.053 192.374 283.149 192.374 284.706C192.374 286.247 191.262 287.344 189.705 287.344Z" fill="#F2F2F2"/>
<path d="M199.464 280.4C197.001 280.4 195.237 282.259 195.237 284.706C195.237 287.28 197.081 288.98 199.591 288.98C201.529 288.98 203.055 287.804 203.5 286.327L201.895 286.152C201.545 286.867 200.783 287.471 199.607 287.471C198.24 287.471 197.176 286.581 197.065 285.294H203.69C203.77 282.148 201.974 280.4 199.464 280.4ZM199.464 281.878C200.814 281.878 201.768 282.752 201.815 283.912H197.065C197.16 282.736 198.161 281.878 199.464 281.878Z" fill="#F2F2F2"/>
<path d="M208.595 284.42L212.679 280.575H210.518L206.863 284.007C206.959 283.324 206.959 282.402 206.959 280.575H205.131V288.821H206.959C206.959 287.026 206.927 285.802 206.847 284.801L210.534 288.821H212.695L208.595 284.42Z" fill="#F2F2F2"/>
<path d="M216.924 288.98C219.482 288.98 221.357 287.169 221.357 284.69C221.357 282.227 219.482 280.4 216.924 280.4C214.382 280.4 212.507 282.227 212.507 284.69C212.507 287.169 214.382 288.98 216.924 288.98ZM216.924 287.344C215.415 287.344 214.287 286.2 214.287 284.69C214.287 283.165 215.415 282.037 216.924 282.037C218.45 282.037 219.594 283.165 219.594 284.69C219.594 286.2 218.45 287.344 216.924 287.344Z" fill="#F2F2F2"/>
<path d="M228.112 284.357C228.779 284.214 229.367 283.705 229.367 282.641C229.367 281.338 228.302 280.591 226.396 280.591H222.805V288.821H226.634C228.779 288.821 229.907 287.757 229.907 286.343C229.907 285.31 229.176 284.515 228.112 284.357ZM226.491 281.973C227.269 281.973 227.762 282.323 227.762 282.974C227.762 283.642 227.269 283.959 226.491 283.959H224.425V281.973H226.491ZM224.425 287.439V285.183H226.809C227.714 285.183 228.286 285.612 228.286 286.311C228.286 286.994 227.714 287.439 226.777 287.439H224.425Z" fill="#F2F2F2"/>
<path d="M238.997 284.007L236.328 280.575H234.644V288.821H236.439C236.439 285.485 236.423 284.214 236.217 282.641C236.836 283.721 237.456 284.611 238.997 286.47C240.634 284.531 241.269 283.626 241.81 282.577C241.587 284.214 241.555 285.469 241.555 288.821H243.351V280.575H241.667L238.997 284.007Z" fill="#F2F2F2"/>
<path d="M249.23 288.98C251.788 288.98 253.663 287.169 253.663 284.69C253.663 282.227 251.788 280.4 249.23 280.4C246.687 280.4 244.812 282.227 244.812 284.69C244.812 287.169 246.687 288.98 249.23 288.98ZM249.23 287.344C247.72 287.344 246.592 286.2 246.592 284.69C246.592 283.165 247.72 282.037 249.23 282.037C250.755 282.037 251.899 283.165 251.899 284.69C251.899 286.2 250.755 287.344 249.23 287.344Z" fill="#F2F2F2"/>
<path d="M262.752 280.575H256.032L255.904 285.707C255.889 286.756 255.618 287.137 255.332 287.137H254.268V290.601H255.92V288.821H262.228V290.601H263.881V287.137H262.752V280.575ZM257.255 287.137C257.414 287.01 257.604 286.565 257.636 285.596L257.732 282.196H260.957V287.137H257.255Z" fill="#F2F2F2"/>
<path d="M270.952 283.959H266.805V280.575H265.009V288.821H266.805V285.532H270.952V288.821H272.747V280.575H270.952V283.959Z" fill="#F2F2F2"/>
<path d="M276.441 283.133V280.575H274.645V288.821H278.522C280.46 288.821 281.779 287.757 281.779 285.977C281.779 284.214 280.46 283.133 278.522 283.133H276.441ZM282.971 288.821H284.798V280.575H282.971V288.821ZM276.441 287.28V284.658H278.315C279.316 284.658 279.984 285.119 279.984 285.977C279.984 286.835 279.316 287.28 278.315 287.28H276.441Z" fill="#F2F2F2"/>
<path d="M292.359 280.575C290.913 282.355 290.404 283.07 290.182 283.642C289.944 283.022 289.435 282.323 288.037 280.575H285.955L289.181 284.674L285.955 288.821H288.037C289.403 287.026 289.928 286.216 290.166 285.564C290.42 286.216 290.976 287.026 292.359 288.821H294.44L291.215 284.579L294.44 280.575H292.359Z" fill="#F2F2F2"/>
<path d="M185.071 298.99V298.927C184.452 297.846 183.308 297.242 182.068 297.242C179.526 297.242 177.906 299.07 177.906 301.516C177.906 303.9 179.463 305.822 181.973 305.822C183.467 305.822 184.627 305.107 185.071 303.979V305.663H186.915V297.417H185.357L185.071 298.99ZM182.418 304.186C180.861 304.186 179.749 303.089 179.749 301.532C179.749 299.991 180.861 298.895 182.418 298.895C183.959 298.895 185.071 300.039 185.071 301.532C185.071 303.042 183.959 304.186 182.418 304.186Z" fill="#F2F2F2"/>
<path d="M193.718 297.258C192.225 297.258 191.065 297.989 190.62 299.101V299.054L190.302 297.417H188.793V309.318H190.62V304.154C191.24 305.234 192.384 305.838 193.623 305.838C196.165 305.838 197.77 304.011 197.77 301.564C197.77 299.181 196.229 297.258 193.718 297.258ZM193.273 304.186C191.732 304.186 190.62 303.042 190.62 301.548C190.62 300.039 191.732 298.895 193.273 298.895C194.83 298.895 195.943 299.991 195.943 301.548C195.943 303.089 194.83 304.186 193.273 304.186Z" fill="#F2F2F2"/>
<path d="M202.558 305.663V299.038H205.021V297.417H198.284V299.038H200.763V305.663H202.558Z" fill="#F2F2F2"/>
<path d="M207.827 303.137V297.417H206.031V305.663H207.7L212.18 300.039V305.663H213.976V297.417H212.323L207.827 303.137Z" fill="#F2F2F2"/>
<path d="M219.889 305.838C220.89 305.838 221.779 305.536 222.463 304.948V303.185C221.843 303.789 221.033 304.186 220.064 304.186C218.491 304.186 217.299 303.058 217.299 301.548C217.299 300.039 218.491 298.895 220.064 298.895C221.033 298.895 221.843 299.292 222.463 299.896V298.132C221.779 297.544 220.89 297.242 219.889 297.242C217.251 297.242 215.488 299.07 215.488 301.532C215.488 304.011 217.251 305.838 219.889 305.838Z" fill="#F2F2F2"/>
<path d="M227.509 305.663V299.038H229.971V297.417H223.235V299.038H225.713V305.663H227.509Z" fill="#F2F2F2"/>
<path d="M234.799 305.822C237.357 305.822 239.232 304.011 239.232 301.532C239.232 299.07 237.357 297.242 234.799 297.242C232.257 297.242 230.382 299.07 230.382 301.532C230.382 304.011 232.257 305.822 234.799 305.822ZM234.799 304.186C233.29 304.186 232.162 303.042 232.162 301.532C232.162 300.007 233.29 298.879 234.799 298.879C236.325 298.879 237.469 300.007 237.469 301.532C237.469 303.042 236.325 304.186 234.799 304.186Z" fill="#F2F2F2"/>
<path d="M245.987 301.199C246.654 301.056 247.242 300.547 247.242 299.483C247.242 298.18 246.177 297.433 244.271 297.433H240.68V305.663H244.509C246.654 305.663 247.782 304.599 247.782 303.185C247.782 302.152 247.051 301.358 245.987 301.199ZM244.366 298.815C245.144 298.815 245.637 299.165 245.637 299.816C245.637 300.484 245.144 300.801 244.366 300.801H242.3V298.815H244.366ZM242.3 304.281V302.025H244.684C245.589 302.025 246.161 302.454 246.161 303.153C246.161 303.836 245.589 304.281 244.652 304.281H242.3Z" fill="#F2F2F2"/>
<path d="M254.012 303.916C254.6 301.644 259.796 301.501 259.796 297.735C259.796 295.511 258.112 294.224 256.046 294.224C253.726 294.224 252.106 295.844 252.106 297.878H253.949C254.012 296.734 254.823 295.924 256.014 295.924C257.19 295.924 257.937 296.702 257.937 297.703C257.937 300.372 252.106 300.547 252.106 304.44V305.663H259.843V303.916H254.012Z" fill="#F2F2F2"/>
<path d="M265.431 305.822C267.656 305.822 269.737 304.361 269.737 301.739V298.307C269.737 295.685 267.656 294.224 265.431 294.224C263.223 294.224 261.141 295.685 261.141 298.307V301.739C261.141 304.361 263.223 305.822 265.431 305.822ZM265.431 304.075C264.113 304.075 263 303.153 263 301.739V298.307C263 296.893 264.113 295.971 265.431 295.971C266.766 295.971 267.878 296.893 267.878 298.307V301.739C267.878 303.153 266.766 304.075 265.431 304.075Z" fill="#F2F2F2"/>
<path d="M272.896 303.916C273.484 301.644 278.679 301.501 278.679 297.735C278.679 295.511 276.995 294.224 274.93 294.224C272.61 294.224 270.989 295.844 270.989 297.878H272.832C272.896 296.734 273.706 295.924 274.898 295.924C276.074 295.924 276.82 296.702 276.82 297.703C276.82 300.372 270.989 300.547 270.989 304.44V305.663H278.727V303.916H272.896Z" fill="#F2F2F2"/>
<path d="M284.315 305.822C286.539 305.822 288.621 304.361 288.621 301.739V298.307C288.621 295.685 286.539 294.224 284.315 294.224C282.106 294.224 280.025 295.685 280.025 298.307V301.739C280.025 304.361 282.106 305.822 284.315 305.822ZM284.315 304.075C282.996 304.075 281.884 303.153 281.884 301.739V298.307C281.884 296.893 282.996 295.971 284.315 295.971C285.65 295.971 286.762 296.893 286.762 298.307V301.739C286.762 303.153 285.65 304.075 284.315 304.075Z" fill="#F2F2F2"/>
<path d="M54.5156 335.535V260.539H102.727V274.467H70.5861V291.18H102.727V305.108H70.5861V335.535H54.5156Z" fill="#F2F2F2"/>
<path d="M40.4219 260.539H51.6712V335.535H40.4219V260.539Z" fill="#F2F2F2"/>
<path d="M28.6328 260.539H37.2037V335.535H28.6328V260.539Z" fill="#F2F2F2"/>
<path d="M18.4531 260.539H23.8099V335.535H18.4531V260.539Z" fill="#F2F2F2"/>
<path d="M9.89062 260.539H12.569V335.535H9.89062V260.539Z" fill="#F2F2F2"/>
<path d="M180.903 329.211C179.139 329.211 177.812 330.514 177.812 332.246C177.812 333.986 179.092 335.265 180.823 335.265C181.173 335.265 181.681 335.209 181.991 335.042V334.566C181.681 334.733 181.173 334.788 180.863 334.788C179.385 334.788 178.353 333.716 178.353 332.254C178.353 330.792 179.441 329.688 180.903 329.688C182.404 329.688 183.485 330.737 183.493 332.175C183.501 333.088 183.175 333.525 182.817 333.525C182.563 333.525 182.365 333.287 182.365 332.754V330.832H181.848L181.729 331.324C181.538 330.983 181.133 330.792 180.696 330.792C179.894 330.792 179.274 331.42 179.274 332.254C179.274 333.072 179.878 333.732 180.672 333.732C181.244 333.732 181.697 333.406 181.824 332.85C181.824 333.533 182.166 334.041 182.778 334.041C183.525 334.041 184.009 333.334 184.009 332.175C184.009 330.466 182.69 329.211 180.903 329.211ZM180.815 333.223C180.291 333.223 179.862 332.81 179.862 332.262C179.862 331.722 180.291 331.301 180.815 331.301C181.387 331.301 181.769 331.722 181.769 332.262C181.769 332.81 181.387 333.223 180.815 333.223Z" fill="#F2F2F2"/>
<path d="M186.47 328.957C186.629 328.957 186.804 328.989 186.971 329.036V328.472C186.796 328.417 186.574 328.369 186.351 328.369C185.7 328.369 185.168 328.743 185.168 329.632V330.284H184.683V330.832H185.168V334.375H185.859V330.832H186.955V330.284H185.859V329.72C185.827 329.156 186.065 328.957 186.47 328.957Z" fill="#F2F2F2"/>
<path d="M187.637 328.417V334.375H188.328V328.417H187.637Z" fill="#F2F2F2"/>
<path d="M192.839 331.213V331.174C192.521 330.57 191.917 330.196 191.21 330.196C189.947 330.196 189.121 331.102 189.121 332.318C189.121 333.517 189.931 334.455 191.171 334.455C191.981 334.455 192.585 334.041 192.839 333.414V334.375H193.538V330.284H192.942L192.839 331.213ZM191.338 333.835C190.456 333.835 189.828 333.207 189.828 332.325C189.828 331.452 190.456 330.824 191.338 330.824C192.211 330.824 192.831 331.483 192.831 332.325C192.831 333.176 192.211 333.835 191.338 333.835Z" fill="#F2F2F2"/>
<path d="M197.512 330.284C196.551 332.754 196.384 333.239 196.257 333.795C196.122 333.279 195.947 332.786 194.954 330.284H194.199L195.892 334.375H196.607L198.251 330.284H197.512Z" fill="#F2F2F2"/>
<path d="M202.126 331.213V331.174C201.808 330.57 201.204 330.196 200.497 330.196C199.234 330.196 198.408 331.102 198.408 332.318C198.408 333.517 199.218 334.455 200.457 334.455C201.268 334.455 201.871 334.041 202.126 333.414V334.375H202.825V330.284H202.229L202.126 331.213ZM200.624 333.835C199.742 333.835 199.115 333.207 199.115 332.325C199.115 331.452 199.742 330.824 200.624 330.824C201.498 330.824 202.118 331.483 202.118 332.325C202.118 333.176 201.498 333.835 200.624 333.835Z" fill="#F2F2F2"/>
<path d="M204.384 334.455C204.614 334.455 204.805 334.272 204.805 334.026C204.805 333.795 204.614 333.605 204.384 333.605C204.145 333.605 203.955 333.795 203.955 334.026C203.955 334.272 204.145 334.455 204.384 334.455Z" fill="#F2F2F2"/>
<path d="M207.854 334.455C208.37 334.455 208.823 334.296 209.173 333.97V333.287C208.847 333.605 208.442 333.835 207.918 333.835C207.052 333.835 206.384 333.176 206.384 332.325C206.384 331.475 207.052 330.824 207.918 330.824C208.442 330.824 208.847 331.046 209.173 331.372V330.681C208.823 330.363 208.37 330.196 207.854 330.196C206.583 330.196 205.685 331.11 205.685 332.325C205.685 333.541 206.583 334.455 207.854 334.455Z" fill="#F2F2F2"/>
<path d="M211.997 334.455C213.236 334.455 214.174 333.541 214.174 332.325C214.174 331.11 213.236 330.196 211.997 330.196C210.75 330.196 209.812 331.11 209.812 332.325C209.812 333.541 210.75 334.455 211.997 334.455ZM211.997 333.827C211.147 333.827 210.487 333.176 210.487 332.318C210.487 331.467 211.147 330.824 211.997 330.824C212.847 330.824 213.498 331.467 213.498 332.318C213.498 333.176 212.847 333.827 211.997 333.827Z" fill="#F2F2F2"/>
<path d="M219.64 330.196C218.957 330.196 218.496 330.522 218.242 330.999C218.004 330.49 217.535 330.196 216.939 330.196C216.304 330.196 215.875 330.514 215.644 330.983L215.549 330.284H214.969V334.375H215.66V332.008C215.66 331.221 216.105 330.8 216.717 330.8C217.305 330.8 217.726 331.205 217.726 332.008V334.375H218.417V332.008C218.417 331.221 218.854 330.8 219.473 330.8C220.061 330.8 220.474 331.205 220.474 332.008V334.375H221.173V331.841C221.173 330.832 220.562 330.196 219.64 330.196Z" fill="#F2F2F2"/>
<path fill-rule="evenodd" clip-rule="evenodd" d="M84.9113 344.199L84.9113 1.63574H85.5469L85.5469 344.199H84.9113Z" fill="#FC62FF" stroke="#FC62FF"/>
<path fill-rule="evenodd" clip-rule="evenodd" d="M168.802 344.199L168.802 1.63574H169.438L169.438 344.199H168.802Z" fill="#FC62FF" stroke="#FC62FF"/>
<path fill-rule="evenodd" clip-rule="evenodd" d="M252.068 344.199L252.068 1.63574H252.703L252.703 344.199H252.068Z" fill="#FC62FF" stroke="#FC62FF"/>
<path fill-rule="evenodd" clip-rule="evenodd" d="M335.318 344.199V1.63574H335.953V344.199H335.318Z" fill="#FC62FF" stroke="#FC62FF"/>
<path fill-rule="evenodd" clip-rule="evenodd" d="M1.3332 344.199L1.3332 1H1.96875L1.96875 344.199H1.3332Z" fill="#FC62FF" stroke="#FC62FF"/>
<path fill-rule="evenodd" clip-rule="evenodd" d="M343.899 9.57987L1.33594 9.57989L1.33594 8.94434L343.899 8.94432L343.899 9.57987Z" fill="#FC62FF" stroke="#FC62FF"/>
<path fill-rule="evenodd" clip-rule="evenodd" d="M343.899 1.63554L1.33594 1.63555L1.33594 1L343.899 0.999985L343.899 1.63554Z" fill="#FC62FF" stroke="#FC62FF"/>
<path fill-rule="evenodd" clip-rule="evenodd" d="M343.899 93.1551L1.33594 93.1551L1.33594 92.5195L343.899 92.5195L343.899 93.1551Z" fill="#FC62FF" stroke="#FC62FF"/>
<path fill-rule="evenodd" clip-rule="evenodd" d="M343.899 177.049L1.33594 177.049L1.33594 176.413L343.899 176.413L343.899 177.049Z" fill="#FC62FF" stroke="#FC62FF"/>
<path fill-rule="evenodd" clip-rule="evenodd" d="M343.899 260.624L1.33594 260.624L1.33594 259.988L343.899 259.988L343.899 260.624Z" fill="#FC62FF" stroke="#FC62FF"/>
<path fill-rule="evenodd" clip-rule="evenodd" d="M343.899 344.199L1.33594 344.199L1.33594 343.563L343.899 343.563L343.899 344.199Z" fill="#FC62FF" stroke="#FC62FF"/>
<path fill-rule="evenodd" clip-rule="evenodd" d="M93.4894 344.199L93.4894 1.63574H94.125L94.125 344.199H93.4894Z" fill="#FC62FF" stroke="#FC62FF"/>
<path fill-rule="evenodd" clip-rule="evenodd" d="M177.38 344.199L177.38 1.63574H178.016L178.016 344.199H177.38Z" fill="#FC62FF" stroke="#FC62FF"/>
<path fill-rule="evenodd" clip-rule="evenodd" d="M260.646 344.199V1.63574H261.281V344.199H260.646Z" fill="#FC62FF" stroke="#FC62FF"/>
<path fill-rule="evenodd" clip-rule="evenodd" d="M343.904 344.199V1.63574H344.539V344.199H343.904Z" fill="#FC62FF" stroke="#FC62FF"/>
<path fill-rule="evenodd" clip-rule="evenodd" d="M9.59884 344.199L9.59882 1.63574L10.2344 1.63574L10.2344 344.199L9.59884 344.199Z" fill="#FC62FF" stroke="#FC62FF"/>
<path fill-rule="evenodd" clip-rule="evenodd" d="M343.899 85.2107L1.33594 85.2107L1.33594 84.5752L343.899 84.5752L343.899 85.2107Z" fill="#FC62FF" stroke="#FC62FF"/>
<path fill-rule="evenodd" clip-rule="evenodd" d="M343.899 169.103L1.33594 169.103L1.33594 168.468L343.899 168.468L343.899 169.103Z" fill="#FC62FF" stroke="#FC62FF"/>
<path fill-rule="evenodd" clip-rule="evenodd" d="M343.899 252.679L1.33594 252.679L1.33594 252.044L343.899 252.044L343.899 252.679Z" fill="#FC62FF" stroke="#FC62FF"/>
<path fill-rule="evenodd" clip-rule="evenodd" d="M343.899 336.255L1.33594 336.255L1.33594 335.619L343.899 335.619L343.899 336.255Z" fill="#FC62FF" stroke="#FC62FF"/>
</svg>
