<svg width="345" height="345" viewBox="0 0 345 345" fill="none" xmlns="http://www.w3.org/2000/svg">
<path d="M1.01562 2.25049H343.414V344.649H1.01562V2.25049Z" fill="#C4C4C4"/>
<path d="M45.8438 70.9658V10.3813H84.7909V21.6327H58.8261V35.1344H84.7909V46.3858H58.8261V70.9658H45.8438Z" fill="#111112"/>
<path d="M34.4531 10.3813H43.5408V70.9658H34.4531V10.3813Z" fill="#111112"/>
<path d="M24.9375 10.3813H31.8614V70.9658H24.9375V10.3813Z" fill="#111112"/>
<path d="M16.7188 10.3813H21.0462V70.9658H16.7188V10.3813Z" fill="#111112"/>
<path d="M9.79688 10.3813H11.9606V70.9658H9.79688V10.3813Z" fill="#111112"/>
<path fill-rule="evenodd" clip-rule="evenodd" d="M343.579 2.43632L1.01563 2.43634L1.01562 1.80078L343.579 1.80077L343.579 2.43632Z" fill="#FC62FF"/>
<path fill-rule="evenodd" clip-rule="evenodd" d="M84.591 345L84.591 2.43701H85.2266L85.2266 345H84.591Z" fill="#FC62FF"/>
<path fill-rule="evenodd" clip-rule="evenodd" d="M168.482 345L168.482 2.43701H169.117L169.117 345H168.482Z" fill="#FC62FF"/>
<path fill-rule="evenodd" clip-rule="evenodd" d="M251.747 345L251.747 2.43701H252.383L252.383 345H251.747Z" fill="#FC62FF"/>
<path fill-rule="evenodd" clip-rule="evenodd" d="M335.005 345V2.43701H335.641V345H335.005Z" fill="#FC62FF"/>
<path fill-rule="evenodd" clip-rule="evenodd" d="M1.01288 345L1.01288 1.80078H1.64844L1.64844 345H1.01288Z" fill="#FC62FF"/>
<path fill-rule="evenodd" clip-rule="evenodd" d="M343.579 10.3807L1.01563 10.3807L1.01562 9.74512L343.579 9.7451L343.579 10.3807Z" fill="#FC62FF"/>
<path fill-rule="evenodd" clip-rule="evenodd" d="M343.579 93.9563L1.01563 93.9564L1.01562 93.3208L343.579 93.3208L343.579 93.9563Z" fill="#FC62FF"/>
<path fill-rule="evenodd" clip-rule="evenodd" d="M343.579 177.85L1.01563 177.85L1.01562 177.214L343.579 177.214L343.579 177.85Z" fill="#FC62FF"/>
<path fill-rule="evenodd" clip-rule="evenodd" d="M343.579 261.425L1.01563 261.425L1.01562 260.789L343.579 260.789L343.579 261.425Z" fill="#FC62FF"/>
<path fill-rule="evenodd" clip-rule="evenodd" d="M343.579 345L1.01563 345L1.01562 344.364L343.579 344.364L343.579 345Z" fill="#FC62FF"/>
<path fill-rule="evenodd" clip-rule="evenodd" d="M93.1769 345L93.1769 2.43701H93.8125L93.8125 345H93.1769Z" fill="#FC62FF"/>
<path fill-rule="evenodd" clip-rule="evenodd" d="M177.06 345L177.06 2.43701H177.695L177.695 345H177.06Z" fill="#FC62FF"/>
<path fill-rule="evenodd" clip-rule="evenodd" d="M260.318 345V2.43701H260.953V345H260.318Z" fill="#FC62FF"/>
<path fill-rule="evenodd" clip-rule="evenodd" d="M343.583 345V2.43701H344.219V345H343.583Z" fill="#FC62FF"/>
<path fill-rule="evenodd" clip-rule="evenodd" d="M9.27852 345.001L9.27851 2.43701L9.91406 2.43701L9.91408 345.001L9.27852 345.001Z" fill="#FC62FF"/>
<path fill-rule="evenodd" clip-rule="evenodd" d="M343.579 86.0115L1.01563 86.0115L1.01562 85.376L343.579 85.376L343.579 86.0115Z" fill="#FC62FF"/>
<path fill-rule="evenodd" clip-rule="evenodd" d="M343.579 169.904L1.01563 169.904L1.01562 169.269L343.579 169.269L343.579 169.904Z" fill="#FC62FF"/>
<path fill-rule="evenodd" clip-rule="evenodd" d="M343.579 253.48L1.01563 253.48L1.01562 252.844L343.579 252.844L343.579 253.48Z" fill="#FC62FF"/>
<path fill-rule="evenodd" clip-rule="evenodd" d="M343.579 337.055L1.01563 337.055L1.01562 336.419L343.579 336.419L343.579 337.055Z" fill="#FC62FF"/>
<path fill-rule="evenodd" clip-rule="evenodd" d="M84.716 344.199L84.716 1.63574H85.3516L85.3516 344.199H84.716Z" fill="#FC62FF" stroke="#FC62FF"/>
<path fill-rule="evenodd" clip-rule="evenodd" d="M168.607 344.199L168.607 1.63574H169.242L169.242 344.199H168.607Z" fill="#FC62FF" stroke="#FC62FF"/>
<path fill-rule="evenodd" clip-rule="evenodd" d="M251.864 344.199L251.864 1.63574H252.5L252.5 344.199H251.864Z" fill="#FC62FF" stroke="#FC62FF"/>
<path fill-rule="evenodd" clip-rule="evenodd" d="M335.13 344.199V1.63574H335.766V344.199H335.13Z" fill="#FC62FF" stroke="#FC62FF"/>
<path fill-rule="evenodd" clip-rule="evenodd" d="M1.1457 344.199L1.1457 1H1.78125L1.78125 344.199H1.1457Z" fill="#FC62FF" stroke="#FC62FF"/>
<path fill-rule="evenodd" clip-rule="evenodd" d="M343.704 9.57987L1.14063 9.57989L1.14062 8.94434L343.704 8.94432L343.704 9.57987Z" fill="#FC62FF" stroke="#FC62FF"/>
<path fill-rule="evenodd" clip-rule="evenodd" d="M343.704 1.63554L1.14063 1.63555L1.14062 1L343.704 0.999985L343.704 1.63554Z" fill="#FC62FF" stroke="#FC62FF"/>
<path fill-rule="evenodd" clip-rule="evenodd" d="M343.704 93.1551L1.14063 93.1551L1.14062 92.5195L343.704 92.5195L343.704 93.1551Z" fill="#FC62FF" stroke="#FC62FF"/>
<path fill-rule="evenodd" clip-rule="evenodd" d="M343.704 177.049L1.14063 177.049L1.14062 176.413L343.704 176.413L343.704 177.049Z" fill="#FC62FF" stroke="#FC62FF"/>
<path fill-rule="evenodd" clip-rule="evenodd" d="M343.704 260.624L1.14063 260.624L1.14062 259.988L343.704 259.988L343.704 260.624Z" fill="#FC62FF" stroke="#FC62FF"/>
<path fill-rule="evenodd" clip-rule="evenodd" d="M343.704 344.199L1.14063 344.199L1.14062 343.563L343.704 343.563L343.704 344.199Z" fill="#FC62FF" stroke="#FC62FF"/>
<path fill-rule="evenodd" clip-rule="evenodd" d="M93.2941 344.199L93.2941 1.63574H93.9297L93.9297 344.199H93.2941Z" fill="#FC62FF" stroke="#FC62FF"/>
<path fill-rule="evenodd" clip-rule="evenodd" d="M177.193 344.199L177.193 1.63574H177.828L177.828 344.199H177.193Z" fill="#FC62FF" stroke="#FC62FF"/>
<path fill-rule="evenodd" clip-rule="evenodd" d="M260.443 344.199V1.63574H261.078V344.199H260.443Z" fill="#FC62FF" stroke="#FC62FF"/>
<path fill-rule="evenodd" clip-rule="evenodd" d="M343.708 344.199V1.63574H344.344V344.199H343.708Z" fill="#FC62FF" stroke="#FC62FF"/>
<path fill-rule="evenodd" clip-rule="evenodd" d="M9.40352 344.199L9.40351 1.63574L10.0391 1.63574L10.0391 344.199L9.40352 344.199Z" fill="#FC62FF" stroke="#FC62FF"/>
<path fill-rule="evenodd" clip-rule="evenodd" d="M343.704 85.2107L1.14063 85.2107L1.14062 84.5752L343.704 84.5752L343.704 85.2107Z" fill="#FC62FF" stroke="#FC62FF"/>
<path fill-rule="evenodd" clip-rule="evenodd" d="M343.704 169.103L1.14063 169.103L1.14062 168.468L343.704 168.468L343.704 169.103Z" fill="#FC62FF" stroke="#FC62FF"/>
<path fill-rule="evenodd" clip-rule="evenodd" d="M343.704 252.679L1.14063 252.679L1.14062 252.044L343.704 252.044L343.704 252.679Z" fill="#FC62FF" stroke="#FC62FF"/>
<path fill-rule="evenodd" clip-rule="evenodd" d="M343.704 336.255L1.14063 336.255L1.14062 335.619L343.704 335.619L343.704 336.255Z" fill="#FC62FF" stroke="#FC62FF"/>
</svg>
