<svg width="345" height="345" viewBox="0 0 345 345" fill="none" xmlns="http://www.w3.org/2000/svg">
<path d="M1.20312 1H344.402V252.044H1.20312V1Z" fill="#C4C4C4"/>
<path d="M1.20312 251.959H344.402V344.199H1.20312V251.959Z" fill="#111112"/>
<path d="M52.4297 332.111V260.422H98.5152V273.736H67.7915V289.712H98.5152V303.026H67.7915V332.111H52.4297Z" fill="#F2F2F2"/>
<path d="M102.094 260.422H117.456V318.797H152.276V332.111H102.094V260.422Z" fill="#F2F2F2"/>
<path d="M211.257 332.111L205.317 311.321H176.129L170.189 332.111H155.852L176.436 260.422H190.774L180.021 298.008H201.527L190.774 260.422H206.136L226.618 332.111H211.257Z" fill="#F2F2F2"/>
<path d="M319.827 332.111L313.887 311.321H284.699L278.76 332.111H264.422L285.007 260.422H299.344L288.591 298.008H310.098L299.344 260.422H314.706L335.189 332.111H319.827Z" fill="#F2F2F2"/>
<path d="M246.087 332.111L266.467 260.422H280.805L260.425 332.111H246.087ZM225.502 260.422L246.087 332.111H230.725L210.141 260.422H225.502Z" fill="#F2F2F2"/>
<path d="M38.9688 260.422H49.722V332.111H38.9688V260.422Z" fill="#F2F2F2"/>
<path d="M27.7109 260.422H35.9039V332.111H27.7109V260.422Z" fill="#F2F2F2"/>
<path d="M17.9688 260.422H23.0894V332.111H17.9688V260.422Z" fill="#F2F2F2"/>
<path d="M9.78125 260.422H12.3416V332.111H9.78125V260.422Z" fill="#F2F2F2"/>
<path fill-rule="evenodd" clip-rule="evenodd" d="M84.7785 344.2L84.7785 1.63623H85.4141L85.4141 344.2H84.7785Z" fill="#FC62FF"/>
<path fill-rule="evenodd" clip-rule="evenodd" d="M168.669 344.2L168.669 1.63623H169.305L169.305 344.2H168.669Z" fill="#FC62FF"/>
<path fill-rule="evenodd" clip-rule="evenodd" d="M251.935 344.2L251.935 1.63623H252.57L252.57 344.2H251.935Z" fill="#FC62FF"/>
<path fill-rule="evenodd" clip-rule="evenodd" d="M335.193 344.2V1.63623H335.828V344.2H335.193Z" fill="#FC62FF"/>
<path fill-rule="evenodd" clip-rule="evenodd" d="M1.20038 344.199L1.20038 1H1.83594L1.83594 344.199H1.20038Z" fill="#FC62FF"/>
<path fill-rule="evenodd" clip-rule="evenodd" d="M343.767 9.57987L1.20313 9.57989L1.20312 8.94434L343.767 8.94432L343.767 9.57987Z" fill="#FC62FF"/>
<path fill-rule="evenodd" clip-rule="evenodd" d="M343.767 1.63554L1.20313 1.63555L1.20312 1L343.767 0.999985L343.767 1.63554Z" fill="#FC62FF"/>
<path fill-rule="evenodd" clip-rule="evenodd" d="M343.767 93.1556L1.20313 93.1556L1.20312 92.52L343.767 92.52L343.767 93.1556Z" fill="#FC62FF"/>
<path fill-rule="evenodd" clip-rule="evenodd" d="M343.767 177.049L1.20313 177.049L1.20312 176.414L343.767 176.414L343.767 177.049Z" fill="#FC62FF"/>
<path fill-rule="evenodd" clip-rule="evenodd" d="M343.767 260.624L1.20313 260.624L1.20312 259.988L343.767 259.988L343.767 260.624Z" fill="#FC62FF"/>
<path fill-rule="evenodd" clip-rule="evenodd" d="M343.767 344.2L1.20313 344.2L1.20312 343.564L343.767 343.564L343.767 344.2Z" fill="#FC62FF"/>
<path fill-rule="evenodd" clip-rule="evenodd" d="M93.3644 344.2L93.3644 1.63623H94L94 344.2H93.3644Z" fill="#FC62FF"/>
<path fill-rule="evenodd" clip-rule="evenodd" d="M177.247 344.2L177.247 1.63623H177.883L177.883 344.2H177.247Z" fill="#FC62FF"/>
<path fill-rule="evenodd" clip-rule="evenodd" d="M260.505 344.2V1.63623H261.141V344.2H260.505Z" fill="#FC62FF"/>
<path fill-rule="evenodd" clip-rule="evenodd" d="M343.771 344.2V1.63623H344.406V344.2H343.771Z" fill="#FC62FF"/>
<path fill-rule="evenodd" clip-rule="evenodd" d="M9.46602 344.2L9.46601 1.63623L10.1016 1.63623L10.1016 344.2L9.46602 344.2Z" fill="#FC62FF"/>
<path fill-rule="evenodd" clip-rule="evenodd" d="M343.767 85.2107L1.20313 85.2107L1.20312 84.5752L343.767 84.5752L343.767 85.2107Z" fill="#FC62FF"/>
<path fill-rule="evenodd" clip-rule="evenodd" d="M343.767 169.103L1.20313 169.103L1.20312 168.468L343.767 168.468L343.767 169.103Z" fill="#FC62FF"/>
<path fill-rule="evenodd" clip-rule="evenodd" d="M343.767 252.679L1.20313 252.679L1.20312 252.043L343.767 252.043L343.767 252.679Z" fill="#FC62FF"/>
<path fill-rule="evenodd" clip-rule="evenodd" d="M343.767 336.254L1.20313 336.254L1.20312 335.619L343.767 335.619L343.767 336.254Z" fill="#FC62FF"/>
<path fill-rule="evenodd" clip-rule="evenodd" d="M84.716 344.199L84.716 1.63574H85.3516L85.3516 344.199H84.716Z" fill="#FC62FF" stroke="#FC62FF"/>
<path fill-rule="evenodd" clip-rule="evenodd" d="M168.607 344.199L168.607 1.63574H169.242L169.242 344.199H168.607Z" fill="#FC62FF" stroke="#FC62FF"/>
<path fill-rule="evenodd" clip-rule="evenodd" d="M251.864 344.199L251.864 1.63574H252.5L252.5 344.199H251.864Z" fill="#FC62FF" stroke="#FC62FF"/>
<path fill-rule="evenodd" clip-rule="evenodd" d="M335.13 344.199V1.63574H335.766V344.199H335.13Z" fill="#FC62FF" stroke="#FC62FF"/>
<path fill-rule="evenodd" clip-rule="evenodd" d="M1.1457 344.199L1.1457 1H1.78125L1.78125 344.199H1.1457Z" fill="#FC62FF" stroke="#FC62FF"/>
<path fill-rule="evenodd" clip-rule="evenodd" d="M343.704 9.57987L1.14063 9.57989L1.14062 8.94434L343.704 8.94432L343.704 9.57987Z" fill="#FC62FF" stroke="#FC62FF"/>
<path fill-rule="evenodd" clip-rule="evenodd" d="M343.704 1.63554L1.14063 1.63555L1.14062 1L343.704 0.999985L343.704 1.63554Z" fill="#FC62FF" stroke="#FC62FF"/>
<path fill-rule="evenodd" clip-rule="evenodd" d="M343.704 93.1551L1.14063 93.1551L1.14062 92.5195L343.704 92.5195L343.704 93.1551Z" fill="#FC62FF" stroke="#FC62FF"/>
<path fill-rule="evenodd" clip-rule="evenodd" d="M343.704 177.049L1.14063 177.049L1.14062 176.413L343.704 176.413L343.704 177.049Z" fill="#FC62FF" stroke="#FC62FF"/>
<path fill-rule="evenodd" clip-rule="evenodd" d="M343.704 260.624L1.14063 260.624L1.14062 259.988L343.704 259.988L343.704 260.624Z" fill="#FC62FF" stroke="#FC62FF"/>
<path fill-rule="evenodd" clip-rule="evenodd" d="M343.704 344.199L1.14063 344.199L1.14062 343.563L343.704 343.563L343.704 344.199Z" fill="#FC62FF" stroke="#FC62FF"/>
<path fill-rule="evenodd" clip-rule="evenodd" d="M93.2941 344.199L93.2941 1.63574H93.9297L93.9297 344.199H93.2941Z" fill="#FC62FF" stroke="#FC62FF"/>
<path fill-rule="evenodd" clip-rule="evenodd" d="M177.193 344.199L177.193 1.63574H177.828L177.828 344.199H177.193Z" fill="#FC62FF" stroke="#FC62FF"/>
<path fill-rule="evenodd" clip-rule="evenodd" d="M260.443 344.199V1.63574H261.078V344.199H260.443Z" fill="#FC62FF" stroke="#FC62FF"/>
<path fill-rule="evenodd" clip-rule="evenodd" d="M343.708 344.199V1.63574H344.344V344.199H343.708Z" fill="#FC62FF" stroke="#FC62FF"/>
<path fill-rule="evenodd" clip-rule="evenodd" d="M9.40352 344.199L9.40351 1.63574L10.0391 1.63574L10.0391 344.199L9.40352 344.199Z" fill="#FC62FF" stroke="#FC62FF"/>
<path fill-rule="evenodd" clip-rule="evenodd" d="M343.704 85.2107L1.14063 85.2107L1.14062 84.5752L343.704 84.5752L343.704 85.2107Z" fill="#FC62FF" stroke="#FC62FF"/>
<path fill-rule="evenodd" clip-rule="evenodd" d="M343.704 169.103L1.14063 169.103L1.14062 168.468L343.704 168.468L343.704 169.103Z" fill="#FC62FF" stroke="#FC62FF"/>
<path fill-rule="evenodd" clip-rule="evenodd" d="M343.704 252.679L1.14063 252.679L1.14062 252.044L343.704 252.044L343.704 252.679Z" fill="#FC62FF" stroke="#FC62FF"/>
<path fill-rule="evenodd" clip-rule="evenodd" d="M343.704 336.255L1.14063 336.255L1.14062 335.619L343.704 335.619L343.704 336.255Z" fill="#FC62FF" stroke="#FC62FF"/>
</svg>
