<svg width="463" height="821" viewBox="0 0 463 821" fill="none" xmlns="http://www.w3.org/2000/svg">
<path d="M1.57031 0.897461H461.462V820H1.57031V0.897461Z" fill="#111112"/>
<path d="M1.57031 0.897461H461.462V599.866H1.57031V0.897461Z" fill="#C4C4C4"/>
<path d="M251.768 620.271L243.91 628.564C244.013 626.516 244.013 624.725 244.013 620.245H241.734V638.419H244.013C244.013 633.76 244.013 631.738 243.91 629.409L251.64 638.419H254.43L246.316 629.025L254.482 620.245L251.768 620.271Z" fill="#F2F2F2"/>
<path d="M266.936 628.231V628.103C265.912 626.158 263.967 624.955 261.689 624.955C257.619 624.955 254.957 627.873 254.957 631.789C254.957 635.654 257.568 638.675 261.561 638.675C264.172 638.675 266.117 637.344 266.936 635.322V638.419H269.189V625.237H267.269L266.936 628.231ZM262.099 636.678C259.257 636.678 257.235 634.656 257.235 631.815C257.235 628.999 259.257 626.977 262.099 626.977C264.914 626.977 266.911 629.102 266.911 631.815C266.911 634.554 264.914 636.678 262.099 636.678Z" fill="#F2F2F2"/>
<path d="M279.357 624.955C277.105 624.955 275.492 626.004 274.673 627.796L274.391 625.237H272.472V638.419H274.724V631.277C274.724 628.539 276.234 626.9 278.717 626.9C280.612 626.9 282.403 627.899 282.403 630.97V638.419H284.656V630.663C284.656 626.619 282.173 624.955 279.357 624.955Z" fill="#F2F2F2"/>
<path d="M296.854 625.237C293.808 632.532 292.989 634.707 292.554 636.397C292.119 634.707 291.223 632.455 288.1 625.237H285.668L291.402 638.445L288.996 644.306H291.351L299.235 625.237H296.854Z" fill="#F2F2F2"/>
<path d="M306.483 624.955C302.592 624.955 299.777 627.95 299.777 631.815C299.777 635.962 302.72 638.675 306.688 638.675C309.811 638.675 312.14 636.806 312.831 634.579L310.86 634.349C310.271 635.603 308.889 636.806 306.713 636.806C304.154 636.806 302.157 635.091 302.004 632.506H313.215C313.292 627.847 310.502 624.955 306.483 624.955ZM306.483 626.798C309.043 626.798 310.809 628.539 310.886 630.791H302.004C302.183 628.487 304.051 626.798 306.483 626.798Z" fill="#F2F2F2"/>
<path d="M341.352 620.245C338.409 630.919 337.666 633.837 337.334 635.936C337.001 633.939 336.233 630.893 333.315 620.245H330.883C327.94 631.149 327.223 633.914 326.916 636.141C326.583 634.119 325.815 631.175 322.82 620.245H320.414L325.508 638.419H328.067C331.114 627.566 331.805 624.801 332.061 622.933C332.317 624.776 333.008 627.54 335.951 638.419H338.537L343.682 620.245H341.352Z" fill="#F2F2F2"/>
<path d="M350.528 624.955C346.637 624.955 343.821 627.95 343.821 631.815C343.821 635.962 346.765 638.675 350.733 638.675C353.855 638.675 356.185 636.806 356.876 634.579L354.905 634.349C354.316 635.603 352.934 636.806 350.758 636.806C348.199 636.806 346.202 635.091 346.048 632.506H357.26C357.337 627.847 354.547 624.955 350.528 624.955ZM350.528 626.798C353.088 626.798 354.854 628.539 354.931 630.791H346.048C346.228 628.487 348.096 626.798 350.528 626.798Z" fill="#F2F2F2"/>
<path d="M364.598 638.675C367.695 638.675 369.794 637.318 369.794 634.861C369.794 629.946 361.731 631.559 361.731 628.564C361.731 627.438 362.832 626.721 364.316 626.721C365.903 626.721 366.978 627.591 367.158 628.922L369.308 628.846C369.154 626.593 367.132 624.981 364.342 624.981C361.654 624.981 359.555 626.414 359.555 628.692C359.555 633.402 367.542 631.866 367.542 634.963C367.542 636.192 366.415 636.883 364.675 636.883C362.781 636.883 361.322 636.038 361.117 634.4L358.915 634.477C359.146 637.369 361.603 638.675 364.598 638.675Z" fill="#F2F2F2"/>
<path d="M375.408 625.237V621.448H373.156V625.237H371.21V627.003H373.156V638.419H375.408V627.003H378.198V625.237H375.408Z" fill="#F2F2F2"/>
<path d="M391.582 631.405L394.167 628.82L392.734 627.387L390.148 629.972L387.537 627.361L385.976 628.871L388.612 631.508L386.053 634.067L387.486 635.501L390.046 632.941L392.682 635.578L394.218 634.042L391.582 631.405Z" fill="#F2F2F2"/>
<path d="M250.719 660.023L243.885 649.682H241.734V667.855H244.013C244.013 658.205 244.013 654.75 243.833 653.24L250.719 663.734L257.604 653.24C257.425 654.724 257.425 658.077 257.425 667.855H259.703V649.682H257.553L250.719 660.023Z" fill="#F2F2F2"/>
<path d="M274.635 657.668V657.54C273.612 655.595 271.666 654.391 269.388 654.391C265.318 654.391 262.656 657.31 262.656 661.226C262.656 665.091 265.267 668.111 269.26 668.111C271.871 668.111 273.816 666.78 274.635 664.758V667.855H276.888V654.673H274.968L274.635 657.668ZM269.798 666.115C266.956 666.115 264.934 664.093 264.934 661.251C264.934 658.436 266.956 656.414 269.798 656.414C272.613 656.414 274.61 658.538 274.61 661.251C274.61 663.99 272.613 666.115 269.798 666.115Z" fill="#F2F2F2"/>
<path d="M281.297 652.702C282.091 652.702 282.73 652.062 282.73 651.294C282.73 650.501 282.091 649.861 281.297 649.861C280.504 649.861 279.889 650.501 279.889 651.294C279.889 652.062 280.504 652.702 281.297 652.702ZM280.171 654.673V667.855H282.398V654.673H280.171Z" fill="#F2F2F2"/>
<path d="M290.457 668.111C293.554 668.111 295.653 666.755 295.653 664.297C295.653 659.383 287.59 660.995 287.59 658.001C287.59 656.874 288.691 656.158 290.175 656.158C291.762 656.158 292.837 657.028 293.016 658.359L295.167 658.282C295.013 656.03 292.991 654.417 290.201 654.417C287.513 654.417 285.414 655.85 285.414 658.129C285.414 662.838 293.4 661.303 293.4 664.4C293.4 665.629 292.274 666.32 290.534 666.32C288.639 666.32 287.18 665.475 286.976 663.837L284.774 663.914C285.005 666.806 287.462 668.111 290.457 668.111Z" fill="#F2F2F2"/>
<path d="M304.441 668.111C308.434 668.111 311.455 665.168 311.455 661.251C311.455 657.335 308.434 654.391 304.441 654.391C300.422 654.391 297.402 657.335 297.402 661.251C297.402 665.168 300.422 668.111 304.441 668.111ZM304.441 666.089C301.702 666.089 299.578 663.99 299.578 661.226C299.578 658.487 301.702 656.414 304.441 656.414C307.18 656.414 309.279 658.487 309.279 661.226C309.279 663.99 307.18 666.089 304.441 666.089Z" fill="#F2F2F2"/>
<path d="M320.902 654.391C318.65 654.391 317.037 655.441 316.218 657.233L315.937 654.673H314.017V667.855H316.269V660.714C316.269 657.975 317.78 656.337 320.262 656.337C322.157 656.337 323.948 657.335 323.948 660.407V667.855H326.201V660.1C326.201 656.055 323.718 654.391 320.902 654.391Z" fill="#F2F2F2"/>
<path d="M344.433 660.023L337.598 649.682H335.448V667.855H337.726C337.726 658.205 337.726 654.75 337.547 653.24L344.433 663.734L351.318 653.24C351.139 654.724 351.139 658.077 351.139 667.855H353.417V649.682H351.267L344.433 660.023Z" fill="#F2F2F2"/>
<path d="M368.349 657.668V657.54C367.325 655.595 365.38 654.391 363.102 654.391C359.032 654.391 356.37 657.31 356.37 661.226C356.37 665.091 358.981 668.111 362.974 668.111C365.585 668.111 367.53 666.78 368.349 664.758V667.855H370.602V654.673H368.682L368.349 657.668ZM363.511 666.115C360.67 666.115 358.648 664.093 358.648 661.251C358.648 658.436 360.67 656.414 363.511 656.414C366.327 656.414 368.324 658.538 368.324 661.251C368.324 663.99 366.327 666.115 363.511 666.115Z" fill="#F2F2F2"/>
<path d="M375.753 654.673H373.885V667.855H376.112V659.716C376.112 657.386 377.724 656.209 380.514 656.593L380.54 654.622C378.134 654.315 376.752 655.287 376.009 656.849L375.753 654.673Z" fill="#F2F2F2"/>
<path d="M393.296 657.693V657.54C392.272 655.595 390.327 654.391 388.049 654.391C383.979 654.391 381.317 657.31 381.317 661.226C381.317 665.091 383.928 668.111 387.921 668.111C390.532 668.111 392.477 666.78 393.296 664.758V666.678C393.296 670.518 391.351 672.13 388.254 672.13C385.745 672.13 383.749 670.978 382.878 670.39V672.412C384.363 673.487 386.59 674.076 388.663 674.076C392.964 674.076 395.523 671.465 395.523 666.678V654.673H393.655L393.296 657.693ZM388.459 666.115C385.617 666.115 383.595 664.093 383.595 661.251C383.595 658.436 385.617 656.414 388.459 656.414C391.274 656.414 393.271 658.538 393.271 661.251C393.271 663.99 391.274 666.115 388.459 666.115Z" fill="#F2F2F2"/>
<path d="M399.933 652.702C400.726 652.702 401.366 652.062 401.366 651.294C401.366 650.501 400.726 649.861 399.933 649.861C399.139 649.861 398.525 650.501 398.525 651.294C398.525 652.062 399.139 652.702 399.933 652.702ZM398.807 654.673V667.855H401.034V654.673H398.807Z" fill="#F2F2F2"/>
<path d="M410.296 654.391C406.405 654.391 403.589 657.386 403.589 661.251C403.589 665.398 406.533 668.111 410.5 668.111C413.623 668.111 415.953 666.243 416.644 664.016L414.673 663.786C414.084 665.04 412.702 666.243 410.526 666.243C407.966 666.243 405.97 664.528 405.816 661.943H417.028C417.104 657.284 414.314 654.391 410.296 654.391ZM410.296 656.234C412.855 656.234 414.622 657.975 414.698 660.228H405.816C405.995 657.924 407.864 656.234 410.296 656.234Z" fill="#F2F2F2"/>
<path d="M419.579 648.658V667.855H421.806V648.658H419.579Z" fill="#F2F2F2"/>
<path d="M436.341 657.668V657.54C435.317 655.595 433.372 654.391 431.094 654.391C427.024 654.391 424.362 657.31 424.362 661.226C424.362 665.091 426.973 668.111 430.966 668.111C433.577 668.111 435.522 666.78 436.341 664.758V667.855H438.594V654.673H436.674L436.341 657.668ZM431.503 666.115C428.662 666.115 426.64 664.093 426.64 661.251C426.64 658.436 428.662 656.414 431.503 656.414C434.319 656.414 436.316 658.538 436.316 661.251C436.316 663.99 434.319 666.115 431.503 666.115Z" fill="#F2F2F2"/>
<path d="M33.4297 799.67V779.953H46.1047V783.615H37.6547V788.009H46.1047V791.67H37.6547V799.67H33.4297Z" fill="#F2F2F2"/>
<path d="M47.1016 779.953H51.3266V796.008H60.9032V799.67H47.1016V779.953Z" fill="#F2F2F2"/>
<path d="M77.121 799.67L75.4873 793.952H67.4598L65.8261 799.67H61.8828L67.5443 779.953H71.4876L68.5301 790.29H74.4451L71.4876 779.953H75.7126L81.346 799.67H77.121Z" fill="#F2F2F2"/>
<path d="M106.98 799.67L105.347 793.952H97.3192L95.6855 799.67H91.7422L97.4037 779.953H101.347L98.3895 790.291H104.305L101.347 779.953H105.572L111.205 799.67H106.98Z" fill="#F2F2F2"/>
<path d="M86.7068 799.67L92.312 779.953H96.2553L90.6501 799.67H86.7068ZM81.0453 779.953L86.7068 799.67H82.4818L76.8203 779.953H81.0453Z" fill="#F2F2F2"/>
<path d="M29.7422 779.953H32.6997V799.67H29.7422V779.953Z" fill="#F2F2F2"/>
<path d="M26.6406 779.953H28.894V799.67H26.6406V779.953Z" fill="#F2F2F2"/>
<path d="M23.9609 779.953H25.3693V799.67H23.9609V779.953Z" fill="#F2F2F2"/>
<path d="M21.7109 779.953H22.4151V799.67H21.7109V779.953Z" fill="#F2F2F2"/>
<path d="M242.901 700.139V692.089H247.624V700.139H248.763V691.052H241.762V700.139H242.901Z" fill="#F2F2F2"/>
<path d="M253.755 700.267C255.752 700.267 257.262 698.795 257.262 696.837C257.262 694.879 255.752 693.407 253.755 693.407C251.746 693.407 250.236 694.879 250.236 696.837C250.236 698.795 251.746 700.267 253.755 700.267ZM253.755 699.256C252.386 699.256 251.324 698.206 251.324 696.824C251.324 695.455 252.386 694.418 253.755 694.418C255.125 694.418 256.174 695.455 256.174 696.824C256.174 698.206 255.125 699.256 253.755 699.256Z" fill="#F2F2F2"/>
<path d="M261.705 700.267C262.536 700.267 263.266 700.011 263.829 699.486V698.386C263.304 698.898 262.652 699.269 261.807 699.269C260.412 699.269 259.337 698.206 259.337 696.837C259.337 695.468 260.412 694.418 261.807 694.418C262.652 694.418 263.304 694.776 263.829 695.301V694.188C263.266 693.676 262.536 693.407 261.705 693.407C259.657 693.407 258.211 694.879 258.211 696.837C258.211 698.795 259.657 700.267 261.705 700.267Z" fill="#F2F2F2"/>
<path d="M268.622 696.824L266.254 693.548H265.217V700.139H266.318C266.318 697.618 266.305 696.338 266.177 694.84C266.817 695.941 267.432 696.875 268.622 698.386C269.851 696.824 270.478 695.877 271.079 694.802C270.951 696.338 270.926 697.618 270.926 700.139H272.039V693.548H270.99L268.622 696.824Z" fill="#F2F2F2"/>
<path d="M276.84 700.267C278.837 700.267 280.347 698.795 280.347 696.837C280.347 694.879 278.837 693.407 276.84 693.407C274.831 693.407 273.321 694.879 273.321 696.837C273.321 698.795 274.831 700.267 276.84 700.267ZM276.84 699.256C275.471 699.256 274.409 698.206 274.409 696.824C274.409 695.455 275.471 694.418 276.84 694.418C278.21 694.418 279.259 695.455 279.259 696.824C279.259 698.206 278.21 699.256 276.84 699.256Z" fill="#F2F2F2"/>
<path d="M284.023 700.139V694.546H286.122V693.548H280.798V694.546H282.909V700.139H284.023Z" fill="#F2F2F2"/>
<path d="M290.791 693.42C289.486 693.42 288.513 694.085 288.103 695.084V695.058L287.937 693.548H286.99V703.083H288.103V698.693C288.615 699.678 289.588 700.267 290.74 700.267C292.762 700.267 294.093 698.821 294.093 696.863C294.093 694.93 292.8 693.42 290.791 693.42ZM290.522 699.269C289.114 699.269 288.116 698.206 288.116 696.85C288.116 695.48 289.114 694.418 290.522 694.418C291.943 694.418 292.967 695.429 292.967 696.85C292.967 698.258 291.943 699.269 290.522 699.269Z" fill="#F2F2F2"/>
<path d="M296.477 698.59V693.548H295.376V700.139H296.4L300.509 695.16V700.139H301.622V693.548H300.585L296.477 698.59Z" fill="#F2F2F2"/>
<path d="M311.09 696.351H307.263V693.548H306.163V700.139H307.263V697.323H311.09V700.139H312.204V693.548H311.09V696.351Z" fill="#F2F2F2"/>
<path d="M319.468 695.045V694.981C318.956 694.009 317.983 693.407 316.844 693.407C314.809 693.407 313.478 694.866 313.478 696.824C313.478 698.757 314.784 700.267 316.78 700.267C318.086 700.267 319.058 699.601 319.468 698.59V700.139H320.594V693.548H319.634L319.468 695.045ZM317.049 699.269C315.628 699.269 314.617 698.258 314.617 696.837C314.617 695.429 315.628 694.418 317.049 694.418C318.457 694.418 319.455 695.48 319.455 696.837C319.455 698.206 318.457 699.269 317.049 699.269Z" fill="#F2F2F2"/>
<path d="M328.54 696.824L326.172 693.548H325.135V700.139H326.236C326.236 697.618 326.223 696.338 326.095 694.84C326.735 695.941 327.35 696.875 328.54 698.386C329.768 696.824 330.396 695.877 330.997 694.802C330.869 696.338 330.843 697.618 330.843 700.139H331.957V693.548H330.907L328.54 696.824Z" fill="#F2F2F2"/>
<path d="M339.228 695.045V694.981C338.716 694.009 337.744 693.407 336.604 693.407C334.57 693.407 333.239 694.866 333.239 696.824C333.239 698.757 334.544 700.267 336.541 700.267C337.846 700.267 338.819 699.601 339.228 698.59V700.139H340.354V693.548H339.395L339.228 695.045ZM336.809 699.269C335.389 699.269 334.378 698.258 334.378 696.837C334.378 695.429 335.389 694.418 336.809 694.418C338.217 694.418 339.215 695.48 339.215 696.837C339.215 698.206 338.217 699.269 336.809 699.269Z" fill="#F2F2F2"/>
<path d="M345.157 700.267C345.989 700.267 346.718 700.011 347.282 699.486V698.386C346.757 698.898 346.104 699.269 345.259 699.269C343.864 699.269 342.789 698.206 342.789 696.837C342.789 695.468 343.864 694.418 345.259 694.418C346.104 694.418 346.757 694.776 347.282 695.301V694.188C346.718 693.676 345.989 693.407 345.157 693.407C343.109 693.407 341.663 694.879 341.663 696.837C341.663 698.795 343.109 700.267 345.157 700.267Z" fill="#F2F2F2"/>
<path d="M350.833 696.594L354.391 693.548H353.047L349.72 696.376C349.784 695.698 349.784 694.93 349.784 693.548H348.67V700.139H349.784C349.784 698.744 349.771 697.72 349.707 696.811L353.06 700.139H354.404L350.833 696.594Z" fill="#F2F2F2"/>
<path d="M356.332 698.59V693.548H355.232V700.139H356.256L360.364 695.16V700.139H361.477V693.548H360.441L356.332 698.59Z" fill="#F2F2F2"/>
<path d="M367.119 698.59V693.548H366.018V700.139H367.042L371.15 695.16V700.139H372.264V693.548H371.227L367.119 698.59Z" fill="#F2F2F2"/>
<path d="M378.077 696.658C378.742 696.363 379.037 695.852 379.037 695.276C379.037 694.175 378.026 693.407 376.362 693.407C374.532 693.407 373.546 694.431 373.508 695.621H374.583C374.583 694.84 375.248 694.277 376.311 694.277C377.271 694.277 377.936 694.687 377.936 695.327C377.936 696.069 377.091 696.351 376.311 696.351H375.645V697.144H376.387C377.335 697.144 378.243 697.439 378.243 698.219C378.243 698.872 377.578 699.409 376.451 699.409C375.274 699.409 374.455 698.821 374.455 698.014H373.38C373.418 699.269 374.468 700.267 376.426 700.267C378.346 700.267 379.357 699.345 379.357 698.194C379.357 697.439 378.909 696.901 378.077 696.658Z" fill="#F2F2F2"/>
<path d="M386.769 693.65C385.771 693.65 384.747 694.073 384.235 695.148C384.312 693.023 385.297 692.306 386.641 692.025L389.239 691.487V690.527L386.385 691.116C384.363 691.526 383.16 692.921 383.16 695.455V696.658C383.16 699.077 384.798 700.267 386.602 700.267C388.599 700.267 390.02 698.872 390.02 696.927C390.02 694.981 388.65 693.65 386.769 693.65ZM386.615 699.256C385.246 699.256 384.273 698.283 384.273 696.914C384.273 695.557 385.246 694.597 386.615 694.597C387.959 694.597 388.919 695.557 388.919 696.914C388.919 698.283 387.959 699.256 386.615 699.256Z" fill="#F2F2F2"/>
<path d="M392.303 698.59V693.548H391.202V700.139H392.226L396.335 695.16V700.139H397.448V693.548H396.411L392.303 698.59Z" fill="#F2F2F2"/>
<path d="M402.25 700.267C403.082 700.267 403.812 700.011 404.375 699.486V698.386C403.85 698.898 403.197 699.269 402.353 699.269C400.958 699.269 399.883 698.206 399.883 696.837C399.883 695.468 400.958 694.418 402.353 694.418C403.197 694.418 403.85 694.776 404.375 695.301V694.188C403.812 693.676 403.082 693.407 402.25 693.407C400.203 693.407 398.756 694.879 398.756 696.837C398.756 698.795 400.203 700.267 402.25 700.267Z" fill="#F2F2F2"/>
<path d="M408.758 693.407C406.813 693.407 405.405 694.904 405.405 696.837C405.405 698.91 406.877 700.267 408.86 700.267C410.422 700.267 411.587 699.333 411.932 698.219L410.947 698.104C410.652 698.731 409.961 699.333 408.873 699.333C407.593 699.333 406.595 698.475 406.518 697.183H412.124C412.162 694.853 410.767 693.407 408.758 693.407ZM408.758 694.328C410.038 694.328 410.921 695.199 410.959 696.325H406.518C406.608 695.173 407.542 694.328 408.758 694.328Z" fill="#F2F2F2"/>
<path d="M417.201 693.42C415.896 693.42 414.923 694.085 414.513 695.084V695.058L414.347 693.548H413.4V703.083H414.513V698.693C415.025 699.678 415.998 700.267 417.15 700.267C419.172 700.267 420.503 698.821 420.503 696.863C420.503 694.93 419.21 693.42 417.201 693.42ZM416.932 699.269C415.524 699.269 414.526 698.206 414.526 696.85C414.526 695.48 415.524 694.418 416.932 694.418C418.353 694.418 419.377 695.429 419.377 696.85C419.377 698.258 418.353 699.269 416.932 699.269Z" fill="#F2F2F2"/>
<path d="M427.418 695.045V694.981C426.906 694.009 425.933 693.407 424.794 693.407C422.759 693.407 421.428 694.866 421.428 696.824C421.428 698.757 422.733 700.267 424.73 700.267C426.035 700.267 427.008 699.601 427.418 698.59V700.139H428.544V693.548H427.584L427.418 695.045ZM424.999 699.269C423.578 699.269 422.567 698.258 422.567 696.837C422.567 695.429 423.578 694.418 424.999 694.418C426.407 694.418 427.405 695.48 427.405 696.837C427.405 698.206 426.407 699.269 424.999 699.269Z" fill="#F2F2F2"/>
<path d="M242.671 713.095V708.053H241.57V714.644H242.594L246.703 709.665V714.644H247.816V708.053H246.779L242.671 713.095Z" fill="#F2F2F2"/>
<path d="M254.519 711.099L258.077 708.053H256.734L253.406 710.881C253.47 710.203 253.47 709.435 253.47 708.053H252.357V714.644H253.47C253.47 713.249 253.457 712.225 253.393 711.316L256.746 714.644H258.09L254.519 711.099Z" fill="#F2F2F2"/>
<path d="M262.719 707.925C261.414 707.925 260.441 708.59 260.032 709.589V709.563L259.865 708.053H258.918V717.588H260.032V713.198C260.544 714.183 261.516 714.772 262.668 714.772C264.69 714.772 266.021 713.326 266.021 711.368C266.021 709.435 264.729 707.925 262.719 707.925ZM262.451 713.774C261.043 713.774 260.045 712.711 260.045 711.355C260.045 709.985 261.043 708.923 262.451 708.923C263.871 708.923 264.895 709.934 264.895 711.355C264.895 712.763 263.871 713.774 262.451 713.774Z" fill="#F2F2F2"/>
<path d="M268.405 713.095V708.053H267.305V714.644H268.329L272.437 709.665V714.644H273.55V708.053H272.514L268.405 713.095Z" fill="#F2F2F2"/>
<path d="M278.353 714.772C279.184 714.772 279.914 714.516 280.477 713.991V712.891C279.952 713.402 279.3 713.774 278.455 713.774C277.06 713.774 275.985 712.711 275.985 711.342C275.985 709.972 277.06 708.923 278.455 708.923C279.3 708.923 279.952 709.281 280.477 709.806V708.693C279.914 708.181 279.184 707.912 278.353 707.912C276.305 707.912 274.859 709.384 274.859 711.342C274.859 713.3 276.305 714.772 278.353 714.772Z" fill="#F2F2F2"/>
<path d="M284.323 714.644V709.051H286.422V708.053H281.098V709.051H283.209V714.644H284.323Z" fill="#F2F2F2"/>
<path d="M292.721 709.55V709.486C292.209 708.513 291.237 707.912 290.098 707.912C288.063 707.912 286.732 709.371 286.732 711.329C286.732 713.262 288.037 714.772 290.034 714.772C291.339 714.772 292.312 714.106 292.721 713.095V714.644H293.847V708.053H292.888L292.721 709.55ZM290.302 713.774C288.882 713.774 287.871 712.763 287.871 711.342C287.871 709.934 288.882 708.923 290.302 708.923C291.71 708.923 292.708 709.985 292.708 711.342C292.708 712.711 291.71 713.774 290.302 713.774Z" fill="#F2F2F2"/>
<path d="M294.926 714.67C296.116 714.682 297.178 713.978 297.178 712.174V709.051H300.186V714.644H301.287V708.053H296.103V712.148C296.103 713.364 295.463 713.646 294.926 713.671V714.67Z" fill="#F2F2F2"/>
<path d="M302.362 714.67C303.553 714.682 304.615 713.978 304.615 712.174V709.051H307.623V714.644H308.723V708.053H303.54V712.148C303.54 713.364 302.9 713.646 302.362 713.671V714.67Z" fill="#F2F2F2"/>
<path d="M313.523 714.772C315.52 714.772 317.03 713.3 317.03 711.342C317.03 709.384 315.52 707.912 313.523 707.912C311.514 707.912 310.004 709.384 310.004 711.342C310.004 713.3 311.514 714.772 313.523 714.772ZM313.523 713.761C312.154 713.761 311.092 712.711 311.092 711.329C311.092 709.96 312.154 708.923 313.523 708.923C314.893 708.923 315.942 709.96 315.942 711.329C315.942 712.711 314.893 713.761 313.523 713.761Z" fill="#F2F2F2"/>
<path d="M322.355 711.099C322.995 710.971 323.456 710.536 323.456 709.691C323.456 708.68 322.663 708.066 321.152 708.066H318.311V714.644H321.306C323.008 714.644 323.891 713.838 323.891 712.724C323.891 711.854 323.29 711.201 322.355 711.099ZM321.191 708.923C321.997 708.923 322.458 709.269 322.458 709.883C322.458 710.536 321.997 710.843 321.191 710.843H319.309V708.923H321.191ZM319.309 713.786V711.598H321.447C322.355 711.598 322.88 712.02 322.88 712.699C322.88 713.364 322.355 713.786 321.396 713.786H319.309Z" fill="#F2F2F2"/>
<path d="M331.992 711.099C332.632 710.971 333.093 710.536 333.093 709.691C333.093 708.68 332.299 708.066 330.789 708.066H327.948V714.644H330.942C332.645 714.644 333.528 713.838 333.528 712.724C333.528 711.854 332.926 711.201 331.992 711.099ZM330.827 708.923C331.633 708.923 332.094 709.269 332.094 709.883C332.094 710.536 331.633 710.843 330.827 710.843H328.946V708.923H330.827ZM328.946 713.786V711.598H331.083C331.992 711.598 332.517 712.02 332.517 712.699C332.517 713.364 331.992 713.786 331.032 713.786H328.946Z" fill="#F2F2F2"/>
<path d="M340.041 714.644V709.051H342.14V708.053H336.816V709.051H338.928V714.644H340.041Z" fill="#F2F2F2"/>
<path d="M348.025 708.053C346.502 711.7 346.093 712.788 345.875 713.633C345.658 712.788 345.21 711.662 343.648 708.053H342.432L345.299 714.657L344.096 717.588H345.274L349.215 708.053H348.025Z" fill="#F2F2F2"/>
<path d="M354.096 707.925C352.791 707.925 351.818 708.59 351.408 709.589V709.563L351.242 708.053H350.295V717.588H351.408V713.198C351.92 714.183 352.893 714.772 354.045 714.772C356.067 714.772 357.398 713.326 357.398 711.368C357.398 709.435 356.105 707.925 354.096 707.925ZM353.827 713.774C352.419 713.774 351.421 712.711 351.421 711.355C351.421 709.985 352.419 708.923 353.827 708.923C355.248 708.923 356.272 709.934 356.272 711.355C356.272 712.763 355.248 713.774 353.827 713.774Z" fill="#F2F2F2"/>
<path d="M361.676 707.912C359.731 707.912 358.323 709.409 358.323 711.342C358.323 713.415 359.795 714.772 361.779 714.772C363.34 714.772 364.505 713.838 364.85 712.724L363.865 712.609C363.57 713.236 362.879 713.838 361.791 713.838C360.512 713.838 359.513 712.98 359.436 711.687H365.042C365.081 709.358 363.686 707.912 361.676 707.912ZM361.676 708.833C362.956 708.833 363.839 709.704 363.878 710.83H359.436C359.526 709.678 360.46 708.833 361.676 708.833Z" fill="#F2F2F2"/>
<path d="M370.331 709.371L368.718 711.572L370.331 713.774H371.483L369.922 711.572L371.483 709.371H370.331ZM372.468 709.371L370.869 711.572L372.468 713.774H373.62L372.059 711.572L373.62 709.371H372.468Z" fill="#F2F2F2"/>
<path d="M380.245 705.557C378.556 708.398 378.044 709.345 377.813 709.972C377.583 709.333 377.084 708.385 375.382 705.557H374.076L377.225 710.804V714.644H378.376V710.804L381.525 705.557H380.245Z" fill="#F2F2F2"/>
<path d="M383.874 707.912C381.928 707.912 380.52 709.409 380.52 711.342C380.52 713.415 381.992 714.772 383.976 714.772C385.537 714.772 386.702 713.838 387.048 712.724L386.062 712.609C385.768 713.236 385.077 713.838 383.989 713.838C382.709 713.838 381.711 712.98 381.634 711.687H387.24C387.278 709.358 385.883 707.912 383.874 707.912ZM383.874 708.833C385.153 708.833 386.037 709.704 386.075 710.83H381.634C381.723 709.678 382.658 708.833 383.874 708.833Z" fill="#F2F2F2"/>
<path d="M391.51 707.912C389.565 707.912 388.157 709.409 388.157 711.342C388.157 713.415 389.629 714.772 391.613 714.772C393.174 714.772 394.339 713.838 394.684 712.724L393.699 712.609C393.404 713.236 392.713 713.838 391.625 713.838C390.345 713.838 389.347 712.98 389.27 711.687H394.876C394.915 709.358 393.52 707.912 391.51 707.912ZM391.51 708.833C392.79 708.833 393.673 709.704 393.712 710.83H389.27C389.36 709.678 390.294 708.833 391.51 708.833Z" fill="#F2F2F2"/>
<path d="M395.529 708.053V709H398.985L395.401 714.644H400.674V713.697H397.18L400.751 708.053H395.529Z" fill="#F2F2F2"/>
<path d="M406.689 711.624C406.689 712.993 405.934 713.812 404.706 713.812C403.746 713.812 402.85 713.313 402.85 711.777V708.053H401.736V711.931C401.736 713.953 402.978 714.772 404.373 714.772C405.525 714.772 406.331 714.234 406.741 713.313L406.856 714.644H407.816V708.053H406.689V711.624Z" fill="#F2F2F2"/>
<path d="M411.844 714.772C413.392 714.772 414.442 714.094 414.442 712.865C414.442 710.408 410.41 711.214 410.41 709.717C410.41 709.153 410.961 708.795 411.703 708.795C412.496 708.795 413.034 709.23 413.123 709.896L414.199 709.857C414.122 708.731 413.111 707.925 411.716 707.925C410.372 707.925 409.322 708.641 409.322 709.781C409.322 712.135 413.315 711.368 413.315 712.916C413.315 713.53 412.752 713.876 411.882 713.876C410.935 713.876 410.205 713.454 410.103 712.635L409.002 712.673C409.118 714.119 410.346 714.772 411.844 714.772Z" fill="#F2F2F2"/>
<path d="M415.175 709.371L416.737 711.572L415.175 713.774H416.327L417.927 711.572L416.327 709.371H415.175ZM417.326 709.371L418.887 711.572L417.326 713.774H418.477L420.077 711.572L418.477 709.371H417.326Z" fill="#F2F2F2"/>
<path d="M252.52 799.808C254.516 799.808 256.026 798.336 256.026 796.378C256.026 794.42 254.516 792.948 252.52 792.948C250.51 792.948 249 794.42 249 796.378C249 798.336 250.51 799.808 252.52 799.808ZM252.52 798.797C251.15 798.797 250.088 797.747 250.088 796.365C250.088 794.996 251.15 793.959 252.52 793.959C253.889 793.959 254.938 794.996 254.938 796.365C254.938 797.747 253.889 798.797 252.52 798.797Z" fill="#F2F2F2"/>
<path d="M264.251 796.135C264.891 796.007 265.352 795.572 265.352 794.727C265.352 793.716 264.559 793.102 263.048 793.102H260.207V799.68H263.202C264.904 799.68 265.787 798.874 265.787 797.76C265.787 796.89 265.186 796.237 264.251 796.135ZM263.087 793.959C263.893 793.959 264.354 794.305 264.354 794.919C264.354 795.572 263.893 795.879 263.087 795.879H261.205V793.959H263.087ZM261.205 798.823V796.634H263.343C264.251 796.634 264.776 797.056 264.776 797.735C264.776 798.4 264.251 798.823 263.291 798.823H261.205Z" fill="#F2F2F2"/>
<path d="M268.044 798.131V793.089H266.944V799.68H267.968L272.076 794.701V799.68H273.189V793.089H272.153L268.044 798.131Z" fill="#F2F2F2"/>
<path d="M279.003 796.199C279.668 795.904 279.963 795.393 279.963 794.817C279.963 793.716 278.951 792.948 277.288 792.948C275.457 792.948 274.472 793.972 274.434 795.162H275.509C275.509 794.381 276.174 793.818 277.236 793.818C278.196 793.818 278.862 794.228 278.862 794.868C278.862 795.61 278.017 795.892 277.236 795.892H276.571V796.685H277.313C278.26 796.685 279.169 796.98 279.169 797.76C279.169 798.413 278.503 798.951 277.377 798.951C276.2 798.951 275.381 798.362 275.381 797.555H274.306C274.344 798.81 275.393 799.808 277.352 799.808C279.271 799.808 280.282 798.887 280.282 797.735C280.282 796.98 279.835 796.442 279.003 796.199Z" fill="#F2F2F2"/>
<path d="M286.472 793.089C284.949 796.736 284.539 797.824 284.321 798.669C284.104 797.824 283.656 796.698 282.094 793.089H280.879L283.745 799.693L282.542 802.624H283.72L287.662 793.089H286.472Z" fill="#F2F2F2"/>
<path d="M293.923 794.586V794.522C293.411 793.55 292.438 792.948 291.299 792.948C289.264 792.948 287.933 794.407 287.933 796.365C287.933 798.298 289.238 799.808 291.235 799.808C292.54 799.808 293.513 799.143 293.923 798.131V799.68H295.049V793.089H294.089L293.923 794.586ZM291.504 798.81C290.083 798.81 289.072 797.799 289.072 796.378C289.072 794.97 290.083 793.959 291.504 793.959C292.911 793.959 293.91 795.021 293.91 796.378C293.91 797.747 292.911 798.81 291.504 798.81Z" fill="#F2F2F2"/>
<path d="M296.127 799.706C297.317 799.718 298.38 799.015 298.38 797.21V794.087H301.387V799.68H302.488V793.089H297.305V797.184C297.305 798.4 296.665 798.682 296.127 798.707V799.706Z" fill="#F2F2F2"/>
<path d="M307.122 792.948C305.176 792.948 303.768 794.445 303.768 796.378C303.768 798.451 305.24 799.808 307.224 799.808C308.785 799.808 309.95 798.874 310.296 797.76L309.31 797.645C309.016 798.272 308.325 798.874 307.237 798.874C305.957 798.874 304.959 798.016 304.882 796.724H310.488C310.526 794.394 309.131 792.948 307.122 792.948ZM307.122 793.87C308.402 793.87 309.285 794.74 309.323 795.866H304.882C304.972 794.714 305.906 793.87 307.122 793.87Z" fill="#F2F2F2"/>
<path d="M318.067 796.365L315.7 793.089H314.663V799.68H315.764C315.764 797.159 315.751 795.879 315.623 794.381C316.263 795.482 316.877 796.416 318.067 797.927C319.296 796.365 319.923 795.418 320.525 794.343C320.397 795.879 320.371 797.159 320.371 799.68H321.485V793.089H320.435L318.067 796.365Z" fill="#F2F2F2"/>
<path d="M328.142 793.089C326.619 796.736 326.209 797.824 325.991 798.669C325.774 797.824 325.326 796.698 323.765 793.089H322.549L325.416 799.693L324.212 802.624H325.39L329.332 793.089H328.142Z" fill="#F2F2F2"/>
<path d="M334.584 796.199C335.249 795.904 335.543 795.393 335.543 794.817C335.543 793.716 334.532 792.948 332.869 792.948C331.038 792.948 330.053 793.972 330.014 795.162H331.09C331.09 794.381 331.755 793.818 332.817 793.818C333.777 793.818 334.443 794.228 334.443 794.868C334.443 795.61 333.598 795.892 332.817 795.892H332.152V796.685H332.894C333.841 796.685 334.75 796.98 334.75 797.76C334.75 798.413 334.084 798.951 332.958 798.951C331.781 798.951 330.962 798.362 330.962 797.555H329.886C329.925 798.81 330.974 799.808 332.933 799.808C334.852 799.808 335.863 798.887 335.863 797.735C335.863 796.98 335.415 796.442 334.584 796.199Z" fill="#F2F2F2"/>
<path d="M338.136 795.265V793.089H337.035V799.68H339.889C341.451 799.68 342.539 798.874 342.539 797.479C342.539 796.071 341.451 795.265 339.889 795.265H338.136ZM343.601 799.68H344.715V793.089H343.601V799.68ZM338.136 798.733V796.212H339.787C340.747 796.212 341.438 796.621 341.438 797.466C341.438 798.311 340.747 798.733 339.787 798.733H338.136Z" fill="#F2F2F2"/>
<path d="M348.51 796.135L352.068 793.089H350.724L347.396 795.917C347.46 795.239 347.46 794.471 347.46 793.089H346.347V799.68H347.46C347.46 798.285 347.447 797.261 347.383 796.352L350.737 799.68H352.081L348.51 796.135Z" fill="#F2F2F2"/>
<path d="M354.009 798.131V793.089H352.909V799.68H353.932L358.041 794.701V799.68H359.154V793.089H358.118L354.009 798.131Z" fill="#F2F2F2"/>
<path d="M368.622 795.892H364.795V793.089H363.695V799.68H364.795V796.864H368.622V799.68H369.736V793.089H368.622V795.892Z" fill="#F2F2F2"/>
<path d="M377 794.586V794.522C376.488 793.55 375.516 792.948 374.376 792.948C372.342 792.948 371.01 794.407 371.01 796.365C371.01 798.298 372.316 799.808 374.312 799.808C375.618 799.808 376.591 799.143 377 798.131V799.68H378.126V793.089H377.167L377 794.586ZM374.581 798.81C373.161 798.81 372.15 797.799 372.15 796.378C372.15 794.97 373.161 793.959 374.581 793.959C375.989 793.959 376.987 795.021 376.987 796.378C376.987 797.747 375.989 798.81 374.581 798.81Z" fill="#F2F2F2"/>
<path d="M385.163 790.951C385.419 790.951 385.701 791.003 385.97 791.079V790.171C385.688 790.081 385.33 790.004 384.971 790.004C383.922 790.004 383.064 790.606 383.064 792.039V793.089H382.284V793.972H383.064V799.68H384.178V793.972H385.944V793.089H384.178V792.18C384.127 791.271 384.51 790.951 385.163 790.951Z" fill="#F2F2F2"/>
<path d="M387.042 790.081V799.68H388.155V790.081H387.042Z" fill="#F2F2F2"/>
<path d="M395.423 794.586V794.522C394.911 793.55 393.938 792.948 392.799 792.948C390.764 792.948 389.433 794.407 389.433 796.365C389.433 798.298 390.739 799.808 392.735 799.808C394.041 799.808 395.013 799.143 395.423 798.131V799.68H396.549V793.089H395.589L395.423 794.586ZM393.004 798.81C391.583 798.81 390.572 797.799 390.572 796.378C390.572 794.97 391.583 793.959 393.004 793.959C394.412 793.959 395.41 795.021 395.41 796.378C395.41 797.747 394.412 798.81 393.004 798.81Z" fill="#F2F2F2"/>
<path d="M402.952 793.089C401.403 797.069 401.134 797.85 400.93 798.746C400.712 797.914 400.43 797.12 398.831 793.089H397.615L400.341 799.68H401.493L404.142 793.089H402.952Z" fill="#F2F2F2"/>
<path d="M410.384 794.586V794.522C409.872 793.55 408.899 792.948 407.76 792.948C405.725 792.948 404.394 794.407 404.394 796.365C404.394 798.298 405.699 799.808 407.696 799.808C409.001 799.808 409.974 799.143 410.384 798.131V799.68H411.51V793.089H410.55L410.384 794.586ZM407.965 798.81C406.544 798.81 405.533 797.799 405.533 796.378C405.533 794.97 406.544 793.959 407.965 793.959C409.373 793.959 410.371 795.021 410.371 796.378C410.371 797.747 409.373 798.81 407.965 798.81Z" fill="#F2F2F2"/>
<path d="M414.022 799.808C414.393 799.808 414.7 799.514 414.7 799.117C414.7 798.746 414.393 798.439 414.022 798.439C413.638 798.439 413.331 798.746 413.331 799.117C413.331 799.514 413.638 799.808 414.022 799.808Z" fill="#F2F2F2"/>
<path d="M419.612 799.808C420.444 799.808 421.174 799.552 421.737 799.027V797.927C421.212 798.439 420.559 798.81 419.715 798.81C418.32 798.81 417.244 797.747 417.244 796.378C417.244 795.009 418.32 793.959 419.715 793.959C420.559 793.959 421.212 794.317 421.737 794.842V793.729C421.174 793.217 420.444 792.948 419.612 792.948C417.564 792.948 416.118 794.42 416.118 796.378C416.118 798.336 417.564 799.808 419.612 799.808Z" fill="#F2F2F2"/>
<path d="M426.286 799.808C428.283 799.808 429.793 798.336 429.793 796.378C429.793 794.42 428.283 792.948 426.286 792.948C424.277 792.948 422.767 794.42 422.767 796.378C422.767 798.336 424.277 799.808 426.286 799.808ZM426.286 798.797C424.917 798.797 423.855 797.747 423.855 796.365C423.855 794.996 424.917 793.959 426.286 793.959C427.656 793.959 428.705 794.996 428.705 796.365C428.705 797.747 427.656 798.797 426.286 798.797Z" fill="#F2F2F2"/>
<path d="M438.6 792.948C437.499 792.948 436.757 793.473 436.347 794.241C435.963 793.422 435.208 792.948 434.248 792.948C433.224 792.948 432.533 793.46 432.162 794.215L432.009 793.089H431.074V799.68H432.188V795.866C432.188 794.599 432.904 793.921 433.89 793.921C434.837 793.921 435.515 794.573 435.515 795.866V799.68H436.629V795.866C436.629 794.599 437.333 793.921 438.331 793.921C439.278 793.921 439.944 794.573 439.944 795.866V799.68H441.07V795.597C441.07 793.972 440.084 792.948 438.6 792.948Z" fill="#F2F2F2"/>
<path fill-rule="evenodd" clip-rule="evenodd" d="M1.13763 400.21L461.883 400.21L461.883 400.637L1.13763 400.637L1.13763 400.21Z" fill="#FC62FF" stroke="#FC62FF"/>
<path fill-rule="evenodd" clip-rule="evenodd" d="M1.13763 599.865L461.883 599.865L461.883 600.292L1.13763 600.292L1.13763 599.865Z" fill="#FC62FF" stroke="#FC62FF"/>
<path fill-rule="evenodd" clip-rule="evenodd" d="M1.57513 799.524L462.32 799.524L462.32 799.95L1.57513 799.95L1.57513 799.524Z" fill="#FC62FF" stroke="#FC62FF"/>
<path fill-rule="evenodd" clip-rule="evenodd" d="M1.13763 200.554L461.883 200.554L461.883 200.98L1.13763 200.98L1.13763 200.554Z" fill="#FC62FF" stroke="#FC62FF"/>
<path fill-rule="evenodd" clip-rule="evenodd" d="M1.13763 0.897603L461.883 0.897626L461.883 1.32422L1.13763 1.3242L1.13763 0.897603Z" fill="#FC62FF" stroke="#FC62FF"/>
<path fill-rule="evenodd" clip-rule="evenodd" d="M221.269 820L221.269 0.897461H221.695L221.695 820H221.269Z" fill="#FC62FF" stroke="#FC62FF"/>
<path fill-rule="evenodd" clip-rule="evenodd" d="M111.206 820L111.206 0.897461H111.633L111.633 820H111.206Z" fill="#FC62FF" stroke="#FC62FF"/>
<path fill-rule="evenodd" clip-rule="evenodd" d="M331.347 820L331.347 0.897461H331.773L331.773 820H331.347Z" fill="#FC62FF" stroke="#FC62FF"/>
<path fill-rule="evenodd" clip-rule="evenodd" d="M441.409 820L441.409 0.897461H441.836L441.836 820H441.409Z" fill="#FC62FF" stroke="#FC62FF"/>
<path fill-rule="evenodd" clip-rule="evenodd" d="M1.13763 420.261L461.883 420.261L461.883 420.688L1.13763 420.687L1.13763 420.261Z" fill="#FC62FF" stroke="#FC62FF"/>
<path fill-rule="evenodd" clip-rule="evenodd" d="M1.13763 619.918L461.883 619.918L461.883 620.345L1.13763 620.345L1.13763 619.918Z" fill="#FC62FF" stroke="#FC62FF"/>
<path fill-rule="evenodd" clip-rule="evenodd" d="M1.57513 819.573L462.32 819.573L462.32 820L1.57513 820L1.57513 819.573Z" fill="#FC62FF" stroke="#FC62FF"/>
<path fill-rule="evenodd" clip-rule="evenodd" d="M1.13763 220.606L461.883 220.606L461.883 221.032L1.13763 221.032L1.13763 220.606Z" fill="#FC62FF" stroke="#FC62FF"/>
<path fill-rule="evenodd" clip-rule="evenodd" d="M1.13763 20.9484L461.883 20.9484L461.883 21.375L1.13763 21.375L1.13763 20.9484Z" fill="#FC62FF" stroke="#FC62FF"/>
<path fill-rule="evenodd" clip-rule="evenodd" d="M241.331 820L241.331 0.897461H241.758L241.758 820H241.331Z" fill="#FC62FF" stroke="#FC62FF"/>
<path fill-rule="evenodd" clip-rule="evenodd" d="M131.261 820L131.261 0.897461H131.688L131.688 820H131.261Z" fill="#FC62FF" stroke="#FC62FF"/>
<path fill-rule="evenodd" clip-rule="evenodd" d="M351.394 820L351.394 0.897461H351.82L351.82 820H351.394Z" fill="#FC62FF" stroke="#FC62FF"/>
<path fill-rule="evenodd" clip-rule="evenodd" d="M461.456 820L461.456 0.897461H461.883L461.883 820H461.456Z" fill="#FC62FF" stroke="#FC62FF"/>
<path fill-rule="evenodd" clip-rule="evenodd" d="M1.1437 820L1.1437 0.897461H1.57031L1.57031 820H1.1437Z" fill="#FC62FF" stroke="#FC62FF"/>
<path fill-rule="evenodd" clip-rule="evenodd" d="M21.1984 820L21.1984 0.897461H21.625L21.625 820H21.1984Z" fill="#FC62FF" stroke="#FC62FF"/>
</svg>
