<svg width="549" height="731" viewBox="0 0 549 731" fill="none" xmlns="http://www.w3.org/2000/svg">
<path d="M0.140625 0.712891H546.718V729.482H0.140625V0.712891Z" fill="#161618"/>
<path d="M0.140625 0.712891H546.718V533.056H0.140625V0.712891Z" fill="#C4C4C4"/>
<path d="M305.186 552.6C300.358 563.395 298.536 567.585 297.215 571.275C295.849 567.585 293.89 563.349 288.971 552.6H283.141L294.482 575.83L290.246 584.939H295.621L310.743 552.6H305.186Z" fill="white"/>
<path d="M329.962 572.368C332.103 571.275 332.877 569.544 332.877 567.722C332.877 563.623 329.142 560.799 323.039 560.799C316.206 560.799 312.745 564.534 312.517 568.724H317.527C317.527 566.401 319.531 564.807 322.765 564.807C325.726 564.807 327.73 565.991 327.73 567.995C327.73 570.318 324.906 571.001 322.765 571.001H320.397V574.6H323.13C326.181 574.6 328.778 575.602 328.778 577.834C328.778 579.883 326.728 581.432 323.266 581.432C319.623 581.432 317.163 579.701 317.163 577.242H312.153C312.335 581.796 315.888 585.44 323.175 585.44C330.326 585.44 333.97 582.024 333.97 577.743C333.97 575.237 332.695 573.37 329.962 572.368Z" fill="white"/>
<path d="M354.806 571.001H342.918V561.3H337.771V584.939H342.918V575.511H354.806V584.939H359.952V561.3H354.806V571.001Z" fill="white"/>
<path d="M384.705 565.809V565.627C382.929 562.529 379.65 560.799 376.097 560.799C368.809 560.799 364.163 566.037 364.163 573.051C364.163 579.883 368.627 585.395 375.824 585.395C380.105 585.395 383.43 583.345 384.705 580.111V584.939H389.989V561.3H385.525L384.705 565.809ZM377.099 580.703C372.635 580.703 369.447 577.56 369.447 573.097C369.447 568.678 372.635 565.536 377.099 565.536C381.517 565.536 384.705 568.815 384.705 573.097C384.705 577.424 381.517 580.703 377.099 580.703Z" fill="white"/>
<path d="M406.851 558.977C410.495 558.977 414.412 557.064 414.412 552.145H410.358C410.358 553.875 409.311 555.561 406.851 555.561C404.391 555.561 403.344 553.875 403.344 552.145H399.244C399.244 557.064 403.162 558.977 406.851 558.977ZM400.52 577.697V561.3H395.373V584.939H400.155L413 568.815V584.939H418.147V561.3H413.41L400.52 577.697Z" fill="white"/>
<path d="M296.805 633.789C304.138 633.789 309.513 628.597 309.513 621.492C309.513 614.432 304.138 609.194 296.805 609.194C289.517 609.194 284.143 614.432 284.143 621.492C284.143 628.597 289.517 633.789 296.805 633.789ZM296.805 629.098C292.478 629.098 289.244 625.819 289.244 621.492C289.244 617.119 292.478 613.885 296.805 613.885C301.178 613.885 304.457 617.119 304.457 621.492C304.457 625.819 301.178 629.098 296.805 629.098Z" fill="white"/>
<path d="M338.794 620.535C340.707 620.125 342.393 618.668 342.393 615.616C342.393 611.881 339.341 609.74 333.875 609.74H323.581V633.334H334.558C340.707 633.334 343.941 630.282 343.941 626.229C343.941 623.268 341.846 620.99 338.794 620.535ZM334.148 613.703C336.38 613.703 337.792 614.705 337.792 616.572C337.792 618.485 336.38 619.396 334.148 619.396H328.227V613.703H334.148ZM328.227 629.371V622.903H335.059C337.656 622.903 339.295 624.133 339.295 626.137C339.295 628.096 337.656 629.371 334.968 629.371H328.227Z" fill="white"/>
<path d="M352.748 626.092V609.695H347.601V633.334H352.383L365.228 617.21V633.334H370.375V609.695H365.638L352.748 626.092Z" fill="white"/>
<path d="M391.834 620.763C393.975 619.67 394.749 617.939 394.749 616.117C394.749 612.017 391.015 609.194 384.911 609.194C378.079 609.194 374.617 612.928 374.389 617.119H379.4C379.4 614.796 381.404 613.202 384.638 613.202C387.598 613.202 389.603 614.386 389.603 616.39C389.603 618.713 386.779 619.396 384.638 619.396H382.269V622.995H385.002C388.054 622.995 390.65 623.997 390.65 626.229C390.65 628.278 388.6 629.827 385.139 629.827C381.495 629.827 379.035 628.096 379.035 625.636H374.025C374.207 630.191 377.76 633.835 385.048 633.835C392.199 633.835 395.843 630.419 395.843 626.137C395.843 623.632 394.567 621.765 391.834 620.763Z" fill="white"/>
<path d="M417.316 609.695C412.488 621.628 411.076 625.636 410.483 628.597C409.846 625.591 408.297 621.537 403.378 609.695H397.684L407.751 633.471L403.651 643.81H409.071L422.873 609.695H417.316Z" fill="white"/>
<path d="M443.954 614.204V614.022C442.177 610.924 438.898 609.194 435.345 609.194C428.057 609.194 423.411 614.432 423.411 621.446C423.411 628.278 427.875 633.789 435.072 633.789C439.353 633.789 442.678 631.74 443.954 628.506V633.334H449.237V609.695H444.773L443.954 614.204ZM436.347 629.098C431.883 629.098 428.695 625.955 428.695 621.492C428.695 617.073 431.883 613.931 436.347 613.931C440.765 613.931 443.954 617.21 443.954 621.492C443.954 625.819 440.765 629.098 436.347 629.098Z" fill="white"/>
<path d="M452.845 633.471C457.809 633.562 461.681 630.601 461.681 624.042V614.34H470.654V633.334H475.801V609.695H456.625V623.951C456.625 627.732 454.712 628.734 452.89 628.825L452.845 633.471Z" fill="white"/>
<path d="M492.062 609.194C485.002 609.194 479.946 614.523 479.946 621.537C479.946 628.916 485.23 633.789 492.426 633.789C497.983 633.789 502.356 630.419 503.631 626.183L499.031 625.682C498.029 627.732 495.842 629.462 492.472 629.462C488.555 629.462 485.503 626.912 485.184 623.222H504.178C504.405 614.204 499.258 609.194 492.062 609.194ZM492.062 613.429C495.933 613.429 498.666 615.935 498.803 619.26H485.184C485.457 615.889 488.327 613.429 492.062 613.429Z" fill="white"/>
<path d="M300.586 668.93C302.499 668.52 304.184 667.062 304.184 664.011C304.184 660.276 301.132 658.135 295.666 658.135H285.372V681.729H296.35C302.499 681.729 305.732 678.677 305.732 674.623C305.732 671.663 303.637 669.385 300.586 668.93ZM295.94 662.098C298.171 662.098 299.583 663.1 299.583 664.967C299.583 666.88 298.171 667.791 295.94 667.791H290.018V662.098H295.94ZM290.018 677.766V671.298H296.851C299.447 671.298 301.087 672.528 301.087 674.532C301.087 676.491 299.447 677.766 296.76 677.766H290.018Z" fill="white"/>
<path d="M331.791 667.928L324.139 658.089H319.311V681.729H324.458C324.458 672.164 324.413 668.52 323.82 664.011C325.597 667.108 327.373 669.659 331.791 674.988C336.483 669.431 338.305 666.835 339.853 663.828C339.216 668.52 339.125 672.118 339.125 681.729H344.272V658.089H339.443L331.791 667.928Z" fill="white"/>
<path d="M367.364 658.089C362.536 670.023 361.124 674.031 360.532 676.992C359.894 673.986 358.346 669.932 353.426 658.089H347.733L357.799 681.865L353.7 692.205H359.12L372.921 658.089H367.364Z" fill="white"/>
<path d="M392.368 669.158C394.509 668.064 395.283 666.334 395.283 664.512C395.283 660.412 391.548 657.588 385.445 657.588C378.613 657.588 375.151 661.323 374.923 665.514H379.934C379.934 663.191 381.938 661.597 385.172 661.597C388.132 661.597 390.136 662.781 390.136 664.785C390.136 667.108 387.312 667.791 385.172 667.791H382.803V671.389H385.536C388.588 671.389 391.184 672.392 391.184 674.623C391.184 676.673 389.134 678.222 385.673 678.222C382.029 678.222 379.569 676.491 379.569 674.031H374.559C374.741 678.586 378.294 682.23 385.581 682.23C392.733 682.23 396.376 678.814 396.376 674.532C396.376 672.027 395.101 670.16 392.368 669.158Z" fill="white"/>
<path d="M405.324 665.423V658.089H400.177V681.729H411.291C416.847 681.729 420.628 678.677 420.628 673.576C420.628 668.52 416.847 665.423 411.291 665.423H405.324ZM424.044 681.729H429.282V658.089H424.044V681.729ZM405.324 677.311V669.795H410.698C413.568 669.795 415.481 671.116 415.481 673.576C415.481 676.035 413.568 677.311 410.698 677.311H405.324Z" fill="white"/>
<path d="M444.579 669.112L456.285 658.089H450.09L439.614 667.928C439.887 665.969 439.887 663.327 439.887 658.089H434.649V681.729H439.887C439.887 676.582 439.796 673.075 439.568 670.205L450.136 681.729H456.33L444.579 669.112Z" fill="white"/>
<path d="M467.909 657.588C460.849 657.588 455.793 662.917 455.793 669.932C455.793 677.311 461.077 682.184 468.273 682.184C473.83 682.184 478.203 678.814 479.478 674.578L474.878 674.077C473.876 676.126 471.689 677.857 468.319 677.857C464.402 677.857 461.35 675.307 461.031 671.617H480.025C480.252 662.599 475.106 657.588 467.909 657.588ZM467.909 661.824C471.781 661.824 474.513 664.329 474.65 667.654H461.031C461.304 664.284 464.174 661.824 467.909 661.824Z" fill="white"/>
<path d="M34.7109 710.822V686.206H50.5354V690.777H39.9858V696.263H50.5354V700.835H39.9858V710.822H34.7109Z" fill="white"/>
<path d="M51.7656 686.206H57.0405V706.25H68.9967V710.822H51.7656V686.206Z" fill="white"/>
<path d="M89.2433 710.822L87.2037 703.683H77.1815L75.1419 710.822H70.2188L77.287 686.206H82.2102L78.5178 699.112H85.9026L82.2102 686.206H87.485L94.5181 710.822H89.2433Z" fill="white"/>
<path d="M126.525 710.822L124.485 703.683H114.463L112.423 710.822H107.5L114.568 686.206H119.491L115.799 699.112H123.184L119.491 686.206H124.766L131.799 710.822H126.525Z" fill="white"/>
<path d="M101.202 710.822L108.2 686.206H113.124L106.126 710.822H101.202ZM94.1342 686.206L101.202 710.822H95.9276L88.8594 686.206H94.1342Z" fill="white"/>
<path d="M30.0859 686.206H33.7783V710.822H30.0859V686.206Z" fill="white"/>
<path d="M26.2344 686.206H29.0476V710.822H26.2344V686.206Z" fill="white"/>
<path d="M22.875 686.206H24.6333V710.822H22.875V686.206Z" fill="white"/>
<path d="M20.0703 686.206H20.9495V710.822H20.0703V686.206Z" fill="white"/>
<path d="M25.0007 553.197C22.1568 553.197 20.0175 555.298 20.0175 558.091C20.0175 560.896 22.0799 562.959 24.8726 562.959C25.4363 562.959 26.2561 562.869 26.7557 562.6V561.831C26.2561 562.1 25.4363 562.19 24.9367 562.19C22.5539 562.19 20.8886 560.461 20.8886 558.104C20.8886 555.747 22.6436 553.966 25.0007 553.966C27.4219 553.966 29.1641 555.657 29.1769 557.976C29.1897 559.449 28.6645 560.153 28.088 560.153C27.6781 560.153 27.3578 559.769 27.3578 558.911V555.811H26.5251L26.333 556.605C26.0255 556.054 25.3722 555.747 24.6676 555.747C23.3738 555.747 22.3746 556.759 22.3746 558.104C22.3746 559.423 23.3482 560.486 24.6292 560.486C25.5516 560.486 26.2818 559.961 26.4867 559.064C26.4867 560.166 27.0376 560.986 28.024 560.986C29.2281 560.986 30.0096 559.846 30.0096 557.976C30.0096 555.221 27.8831 553.197 25.0007 553.197ZM24.8598 559.667C24.0143 559.667 23.3225 559 23.3225 558.116C23.3225 557.245 24.0143 556.566 24.8598 556.566C25.7821 556.566 26.397 557.245 26.397 558.116C26.397 559 25.7821 559.667 24.8598 559.667Z" fill="#F2F2F2"/>
<path d="M34.8879 558.206L32.518 554.927H31.4804V561.524H32.5821C32.5821 559 32.5693 557.719 32.4412 556.221C33.0817 557.322 33.6966 558.257 34.8879 559.769C36.1177 558.206 36.7454 557.258 37.3475 556.182C37.2194 557.719 37.1938 559 37.1938 561.524H38.3083V554.927H37.2579L34.8879 558.206Z" fill="#F2F2F2"/>
<path d="M42.9474 554.786C41.0002 554.786 39.5911 556.285 39.5911 558.219C39.5911 560.294 41.0643 561.652 43.0499 561.652C44.6127 561.652 45.7785 560.717 46.1244 559.602L45.138 559.487C44.8433 560.115 44.1516 560.717 43.0627 560.717C41.7816 560.717 40.7824 559.859 40.7056 558.565H46.3165C46.3549 556.233 44.9586 554.786 42.9474 554.786ZM42.9474 555.708C44.2284 555.708 45.1123 556.579 45.1508 557.707H40.7056C40.7952 556.554 41.7304 555.708 42.9474 555.708Z" fill="#F2F2F2"/>
<path d="M53.4734 554.927H48.2468L48.1443 559.244C48.1315 560.153 47.8625 560.486 47.6319 560.486H46.8248V563.023H47.8497V561.524H53.3325V563.023H54.3573V560.486H53.4734V554.927ZM48.8489 560.486C48.977 560.41 49.1948 560.025 49.2204 559.18L49.2972 555.926H52.3717V560.486H48.8489Z" fill="#F2F2F2"/>
<path d="M56.4765 559.974V554.927H55.3748V561.524H56.3996L60.5117 556.541V561.524H61.6262V554.927H60.5886L56.4765 559.974Z" fill="#F2F2F2"/>
<path d="M68.9052 556.425V556.361C68.3928 555.388 67.4192 554.786 66.2791 554.786C64.2423 554.786 62.91 556.246 62.91 558.206C62.91 560.141 64.2166 561.652 66.2151 561.652C67.5217 561.652 68.4953 560.986 68.9052 559.974V561.524H70.0326V554.927H69.0718L68.9052 556.425ZM66.4841 560.653C65.0621 560.653 64.0501 559.641 64.0501 558.219C64.0501 556.81 65.0621 555.798 66.4841 555.798C67.8932 555.798 68.8924 556.861 68.8924 558.219C68.8924 559.59 67.8932 560.653 66.4841 560.653Z" fill="#F2F2F2"/>
<path d="M70.8556 558.578H78.2472V557.553H70.8556V558.578Z" fill="#F2F2F2"/>
<path d="M82.2332 561.652C83.0658 561.652 83.796 561.396 84.3597 560.871V559.769C83.8345 560.281 83.1811 560.653 82.3356 560.653C80.9393 560.653 79.8632 559.59 79.8632 558.219C79.8632 556.848 80.9393 555.798 82.3356 555.798C83.1811 555.798 83.8345 556.156 84.3597 556.682V555.567C83.796 555.055 83.0658 554.786 82.2332 554.786C80.1835 554.786 78.7359 556.259 78.7359 558.219C78.7359 560.179 80.1835 561.652 82.2332 561.652Z" fill="#F2F2F2"/>
<path d="M88.7471 554.786C86.7999 554.786 85.3907 556.285 85.3907 558.219C85.3907 560.294 86.8639 561.652 88.8495 561.652C90.4124 561.652 91.5782 560.717 91.924 559.602L90.9376 559.487C90.643 560.115 89.9512 560.717 88.8624 560.717C87.5813 560.717 86.5821 559.859 86.5052 558.565H92.1162C92.1546 556.233 90.7583 554.786 88.7471 554.786ZM88.7471 555.708C90.0281 555.708 90.912 556.579 90.9504 557.707H86.5052C86.5949 556.554 87.5301 555.708 88.7471 555.708Z" fill="#F2F2F2"/>
<path d="M97.1978 554.799C95.8912 554.799 94.9176 555.465 94.5076 556.464V556.438L94.3411 554.927H93.3931V564.47H94.5076V560.076C95.0201 561.063 95.9936 561.652 97.1466 561.652C99.1706 561.652 100.503 560.205 100.503 558.245C100.503 556.31 99.209 554.799 97.1978 554.799ZM96.9288 560.653C95.5197 560.653 94.5204 559.59 94.5204 558.232C94.5204 556.861 95.5197 555.798 96.9288 555.798C98.3508 555.798 99.3756 556.81 99.3756 558.232C99.3756 559.641 98.3508 560.653 96.9288 560.653Z" fill="#F2F2F2"/>
<path d="M105.836 557.976C106.476 557.847 106.937 557.412 106.937 556.566C106.937 555.554 106.143 554.939 104.631 554.939H101.787V561.524H104.785C106.489 561.524 107.373 560.717 107.373 559.602C107.373 558.731 106.771 558.078 105.836 557.976ZM104.67 555.798C105.477 555.798 105.938 556.144 105.938 556.759C105.938 557.412 105.477 557.719 104.67 557.719H102.787V555.798H104.67ZM102.787 560.666V558.475H104.926C105.836 558.475 106.361 558.898 106.361 559.577C106.361 560.243 105.836 560.666 104.875 560.666H102.787Z" fill="#F2F2F2"/>
<path d="M109.632 559.974V554.927H108.53V561.524H109.555L113.667 556.541V561.524H114.782V554.927H113.744L109.632 559.974Z" fill="#F2F2F2"/>
<path d="M119.589 561.652C120.421 561.652 121.151 561.396 121.715 560.871V559.769C121.19 560.281 120.536 560.653 119.691 560.653C118.295 560.653 117.219 559.59 117.219 558.219C117.219 556.848 118.295 555.798 119.691 555.798C120.536 555.798 121.19 556.156 121.715 556.682V555.567C121.151 555.055 120.421 554.786 119.589 554.786C117.539 554.786 116.091 556.259 116.091 558.219C116.091 560.179 117.539 561.652 119.589 561.652Z" fill="#F2F2F2"/>
<path d="M23.3354 575.174C25.3338 575.174 26.8454 573.701 26.8454 571.741C26.8454 569.781 25.3338 568.308 23.3354 568.308C21.3241 568.308 19.8125 569.781 19.8125 571.741C19.8125 573.701 21.3241 575.174 23.3354 575.174ZM23.3354 574.162C21.9646 574.162 20.9014 573.112 20.9014 571.728C20.9014 570.358 21.9646 569.32 23.3354 569.32C24.7061 569.32 25.7565 570.358 25.7565 571.728C25.7565 573.112 24.7061 574.162 23.3354 574.162Z" fill="#F2F2F2"/>
<path d="M31.4712 568.551C30.472 568.551 29.4471 568.974 28.9347 570.05C29.0116 567.924 29.998 567.206 31.3431 566.924L33.9436 566.386V565.426L31.0869 566.015C29.0628 566.425 27.8586 567.821 27.8586 570.358V571.562C27.8586 573.983 29.4984 575.174 31.3046 575.174C33.3031 575.174 34.725 573.778 34.725 571.831C34.725 569.884 33.3543 568.551 31.4712 568.551ZM31.3174 574.162C29.9467 574.162 28.9731 573.189 28.9731 571.818C28.9731 570.46 29.9467 569.499 31.3174 569.499C32.6625 569.499 33.6233 570.46 33.6233 571.818C33.6233 573.189 32.6625 574.162 31.3174 574.162Z" fill="#F2F2F2"/>
<path d="M41.9755 575.174C43.9739 575.174 45.4855 573.701 45.4855 571.741C45.4855 569.781 43.9739 568.308 41.9755 568.308C39.9643 568.308 38.4526 569.781 38.4526 571.741C38.4526 573.701 39.9643 575.174 41.9755 575.174ZM41.9755 574.162C40.6048 574.162 39.5415 573.112 39.5415 571.728C39.5415 570.358 40.6048 569.32 41.9755 569.32C43.3462 569.32 44.3967 570.358 44.3967 571.728C44.3967 573.112 43.3462 574.162 41.9755 574.162Z" fill="#F2F2F2"/>
<path d="M52.6478 568.449H47.4211L47.3186 572.766C47.3058 573.675 47.0368 574.008 46.8062 574.008H45.9992V576.545H47.024V575.046H52.5068V576.545H53.5317V574.008H52.6478V568.449ZM48.0232 574.008C48.1513 573.932 48.3691 573.547 48.3947 572.702L48.4716 569.448H51.5461V574.008H48.0232Z" fill="#F2F2F2"/>
<path d="M57.5467 568.308C55.5995 568.308 54.1904 569.807 54.1904 571.741C54.1904 573.816 55.6636 575.174 57.6492 575.174C59.2121 575.174 60.3778 574.239 60.7237 573.125L59.7373 573.009C59.4427 573.637 58.7509 574.239 57.662 574.239C56.381 574.239 55.3818 573.381 55.3049 572.087H60.9159C60.9543 569.755 59.558 568.308 57.5467 568.308ZM57.5467 569.23C58.8278 569.23 59.7117 570.101 59.7501 571.229H55.3049C55.3946 570.076 56.3297 569.23 57.5467 569.23Z" fill="#F2F2F2"/>
<path d="M67.5261 571.51L70.7159 568.449H69.3965L66.4501 571.267C66.5013 570.614 66.5269 569.64 66.5269 568.449H65.3996C65.3996 569.64 65.4252 570.614 65.4765 571.267L62.5173 568.449H61.2106L64.3876 571.51L61.1978 575.046H62.5045L65.4765 571.741C65.4252 572.625 65.3996 573.65 65.3996 575.046H66.5269C66.5269 573.65 66.5013 572.638 66.4501 571.741L69.4093 575.046H70.7287L67.5261 571.51Z" fill="#F2F2F2"/>
<path d="M77.4304 568.449H72.2037L72.1012 572.766C72.0884 573.675 71.8194 574.008 71.5888 574.008H70.7818V576.545H71.8066V575.046H77.2895V576.545H78.3143V574.008H77.4304V568.449ZM72.8058 574.008C72.9339 573.932 73.1517 573.547 73.1773 572.702L73.2542 569.448H76.3287V574.008H72.8058Z" fill="#F2F2F2"/>
<path d="M82.3293 568.308C80.3822 568.308 78.973 569.807 78.973 571.741C78.973 573.816 80.4462 575.174 82.4318 575.174C83.9947 575.174 85.1604 574.239 85.5063 573.125L84.5199 573.009C84.2253 573.637 83.5335 574.239 82.4446 574.239C81.1636 574.239 80.1644 573.381 80.0875 572.087H85.6985C85.7369 569.755 84.3406 568.308 82.3293 568.308ZM82.3293 569.23C83.6104 569.23 84.4943 570.101 84.5327 571.229H80.0875C80.1772 570.076 81.1124 569.23 82.3293 569.23Z" fill="#F2F2F2"/>
<path d="M93.2853 571.728L90.9154 568.449H89.8778V575.046H90.9795C90.9795 572.522 90.9667 571.241 90.8386 569.743C91.4791 570.844 92.094 571.779 93.2853 573.291C94.5151 571.728 95.1429 570.78 95.7449 569.704C95.6168 571.241 95.5912 572.522 95.5912 575.046H96.7057V568.449H95.6553L93.2853 571.728Z" fill="#F2F2F2"/>
<path d="M103.369 568.449C101.844 572.1 101.434 573.189 101.217 574.034C100.999 573.189 100.551 572.061 98.9877 568.449H97.7707L100.64 575.059L99.436 577.993H100.615L104.56 568.449H103.369Z" fill="#F2F2F2"/>
<path d="M109.817 571.562C110.483 571.267 110.778 570.755 110.778 570.178C110.778 569.076 109.766 568.308 108.1 568.308C106.268 568.308 105.282 569.333 105.243 570.524H106.32C106.32 569.743 106.986 569.179 108.049 569.179C109.01 569.179 109.676 569.589 109.676 570.229C109.676 570.972 108.83 571.254 108.049 571.254H107.383V572.048H108.126C109.074 572.048 109.983 572.343 109.983 573.125C109.983 573.778 109.317 574.316 108.19 574.316C107.011 574.316 106.191 573.727 106.191 572.92H105.115C105.154 574.175 106.204 575.174 108.164 575.174C110.086 575.174 111.098 574.252 111.098 573.099C111.098 572.343 110.649 571.805 109.817 571.562Z" fill="#F2F2F2"/>
<path d="M113.373 570.627V568.449H112.271V575.046H115.128C116.691 575.046 117.779 574.239 117.779 572.843C117.779 571.434 116.691 570.627 115.128 570.627H113.373ZM118.843 575.046H119.957V568.449H118.843V575.046ZM113.373 574.098V571.574H115.025C115.986 571.574 116.678 571.984 116.678 572.83C116.678 573.675 115.986 574.098 115.025 574.098H113.373Z" fill="#F2F2F2"/>
<path d="M123.756 571.498L127.317 568.449H125.972L122.641 571.28C122.706 570.601 122.706 569.832 122.706 568.449H121.591V575.046H122.706C122.706 573.65 122.693 572.625 122.629 571.715L125.985 575.046H127.33L123.756 571.498Z" fill="#F2F2F2"/>
<path d="M133.295 569.948V569.884C132.783 568.91 131.809 568.308 130.669 568.308C128.632 568.308 127.3 569.768 127.3 571.728C127.3 573.663 128.606 575.174 130.605 575.174C131.912 575.174 132.885 574.508 133.295 573.496V575.046H134.422V568.449H133.462L133.295 569.948ZM130.874 574.175C129.452 574.175 128.44 573.163 128.44 571.741C128.44 570.332 129.452 569.32 130.874 569.32C132.283 569.32 133.282 570.383 133.282 571.741C133.282 573.112 132.283 574.175 130.874 574.175Z" fill="#F2F2F2"/>
<path d="M140.997 571.254H137.167V568.449H136.065V575.046H137.167V572.228H140.997V575.046H142.112V568.449H140.997V571.254Z" fill="#F2F2F2"/>
<path d="M146.206 575.046V569.448H148.307V568.449H142.978V569.448H145.092V575.046H146.206Z" fill="#F2F2F2"/>
<path d="M152.14 575.174C154.138 575.174 155.65 573.701 155.65 571.741C155.65 569.781 154.138 568.308 152.14 568.308C150.129 568.308 148.617 569.781 148.617 571.741C148.617 573.701 150.129 575.174 152.14 575.174ZM152.14 574.162C150.769 574.162 149.706 573.112 149.706 571.728C149.706 570.358 150.769 569.32 152.14 569.32C153.511 569.32 154.561 570.358 154.561 571.728C154.561 573.112 153.511 574.162 152.14 574.162Z" fill="#F2F2F2"/>
<path d="M160.98 571.498C161.621 571.37 162.082 570.934 162.082 570.088C162.082 569.076 161.288 568.462 159.776 568.462H156.932V575.046H159.93C161.634 575.046 162.518 574.239 162.518 573.125C162.518 572.253 161.915 571.6 160.98 571.498ZM159.815 569.32C160.622 569.32 161.083 569.666 161.083 570.281C161.083 570.934 160.622 571.241 159.815 571.241H157.931V569.32H159.815ZM157.931 574.188V571.997H160.071C160.98 571.997 161.506 572.42 161.506 573.099C161.506 573.765 160.98 574.188 160.02 574.188H157.931Z" fill="#F2F2F2"/>
<path fill-rule="evenodd" clip-rule="evenodd" d="M528.209 728.769V0L529.633 0V728.769H528.209Z" fill="#FC62FF"/>
<path fill-rule="evenodd" clip-rule="evenodd" d="M395.834 728.769L395.834 0L397.258 0L397.258 728.769H395.834Z" fill="#FC62FF"/>
<path fill-rule="evenodd" clip-rule="evenodd" d="M264.178 728.771L264.178 0.00146484L265.602 0.00146484L265.602 728.771H264.178Z" fill="#FC62FF"/>
<path fill-rule="evenodd" clip-rule="evenodd" d="M131.803 728.77L131.803 0.000488281L133.227 0.000488281L133.227 728.77H131.803Z" fill="#FC62FF"/>
<path fill-rule="evenodd" clip-rule="evenodd" d="M0.139122 728.771L0.139122 0.00195313L1.5625 0.00195312L1.5625 728.771H0.139122Z" fill="#FC62FF"/>
<path fill-rule="evenodd" clip-rule="evenodd" d="M0.141724 0.000418398L546.719 0.000450253L546.719 1.42383L0.141724 1.4238L0.141724 0.000418398Z" fill="#FC62FF"/>
<path fill-rule="evenodd" clip-rule="evenodd" d="M0.141724 179.345L546.719 179.345L546.719 180.769L0.141724 180.769L0.141724 179.345Z" fill="#FC62FF"/>
<path fill-rule="evenodd" clip-rule="evenodd" d="M0.141724 355.134L546.719 355.134L546.719 356.558L0.141724 356.558L0.141724 355.134Z" fill="#FC62FF"/>
<path fill-rule="evenodd" clip-rule="evenodd" d="M0.141724 532.343L546.719 532.343L546.719 533.767L0.141724 533.767L0.141724 532.343Z" fill="#FC62FF"/>
<path fill-rule="evenodd" clip-rule="evenodd" d="M0.141724 710.266L546.719 710.266L546.719 711.689L0.141724 711.689L0.141724 710.266Z" fill="#FC62FF"/>
<path fill-rule="evenodd" clip-rule="evenodd" d="M150.303 730.194L150.303 1.42432H151.727L151.727 730.194H150.303Z" fill="#FC62FF"/>
<path fill-rule="evenodd" clip-rule="evenodd" d="M282.686 728.771L282.686 0.00195313L284.109 0.00195312L284.109 728.771H282.686Z" fill="#FC62FF"/>
<path fill-rule="evenodd" clip-rule="evenodd" d="M414.342 728.771L414.342 0.00146484L415.766 0.00146484L415.766 728.771H414.342Z" fill="#FC62FF"/>
<path fill-rule="evenodd" clip-rule="evenodd" d="M18.6391 728.771L18.6391 0.00146484L20.0625 0.00146484L20.0625 728.771H18.6391Z" fill="#FC62FF"/>
<path fill-rule="evenodd" clip-rule="evenodd" d="M546.717 728.771V0.00146484L548.141 0.00146484V728.771H546.717Z" fill="#FC62FF"/>
<path fill-rule="evenodd" clip-rule="evenodd" d="M0.141724 18.5043L546.719 18.5044L546.719 19.9277L0.141724 19.9277L0.141724 18.5043Z" fill="#FC62FF"/>
<path fill-rule="evenodd" clip-rule="evenodd" d="M0.141724 197.851L546.719 197.851L546.719 199.274L0.141724 199.274L0.141724 197.851Z" fill="#FC62FF"/>
<path fill-rule="evenodd" clip-rule="evenodd" d="M0.141724 550.848L546.719 550.848L546.719 552.271L0.141724 552.271L0.141724 550.848Z" fill="#FC62FF"/>
<path fill-rule="evenodd" clip-rule="evenodd" d="M0.141724 727.347L546.719 727.347L546.719 728.771L0.141724 728.77L0.141724 727.347Z" fill="#FC62FF"/>
<path fill-rule="evenodd" clip-rule="evenodd" d="M0.141724 373.638L546.719 373.638L546.719 375.062L0.141724 375.061L0.141724 373.638Z" fill="#FC62FF"/>
</svg>
