<svg width="463" height="821" viewBox="0 0 463 821" fill="none" xmlns="http://www.w3.org/2000/svg">
<path d="M1.14062 1H461.886V819.676H1.14062V1Z" fill="#111112"/>
<path d="M1.14062 1H461.886V400.312H1.14062V1Z" fill="#C4C4C4"/>
<path d="M44.6986 442.109C42.4461 442.928 40.1423 443.184 38.2994 443.184C32.2585 443.184 29.4428 440.521 29.4428 434.583V425.982H23.4531V434.89C23.4531 443.747 28.3165 448.457 38.0434 448.457C40.3983 448.457 42.6508 448.201 44.6986 447.33V462.33H50.6883V425.982H44.6986V442.109Z" fill="#F2F2F2"/>
<path d="M68.4858 462.33V440.982H76.4208V435.76H54.7146V440.982H62.7009V462.33H68.4858Z" fill="#F2F2F2"/>
<path d="M91.9762 462.842C100.218 462.842 106.259 457.006 106.259 449.02C106.259 441.085 100.218 435.197 91.9762 435.197C83.7851 435.197 77.7443 441.085 77.7443 449.02C77.7443 457.006 83.7851 462.842 91.9762 462.842ZM91.9762 457.569C87.1127 457.569 83.478 453.883 83.478 449.02C83.478 444.105 87.1127 440.47 91.9762 440.47C96.8908 440.47 100.577 444.105 100.577 449.02C100.577 453.883 96.8908 457.569 91.9762 457.569Z" fill="#F2F2F2"/>
<path d="M134.921 462.842C143.163 462.842 149.204 457.006 149.204 449.02C149.204 441.085 143.163 435.197 134.921 435.197C126.73 435.197 120.689 441.085 120.689 449.02C120.689 457.006 126.73 462.842 134.921 462.842ZM134.921 457.569C130.058 457.569 126.423 453.883 126.423 449.02C126.423 444.105 130.058 440.47 134.921 440.47C139.836 440.47 143.522 444.105 143.522 449.02C143.522 453.883 139.836 457.569 134.921 457.569Z" fill="#F2F2F2"/>
<path d="M171.888 448.201C174.294 446.972 175.164 445.027 175.164 442.979C175.164 438.371 170.966 435.197 164.106 435.197C156.427 435.197 152.537 439.395 152.281 444.105H157.912C157.912 441.494 160.164 439.702 163.799 439.702C167.127 439.702 169.379 441.033 169.379 443.286C169.379 445.897 166.205 446.665 163.799 446.665H161.137V450.709H164.209C167.639 450.709 170.557 451.835 170.557 454.344C170.557 456.648 168.253 458.388 164.362 458.388C160.267 458.388 157.502 456.443 157.502 453.678H151.871C152.076 458.798 156.069 462.893 164.26 462.893C172.297 462.893 176.393 459.054 176.393 454.241C176.393 451.426 174.96 449.327 171.888 448.201Z" fill="#F2F2F2"/>
<path d="M199.811 446.665H186.449V435.76H180.664V462.33H186.449V451.733H199.811V462.33H205.596V435.76H199.811V446.665Z" fill="#F2F2F2"/>
<path d="M233.417 440.829V440.624C231.42 437.143 227.734 435.197 223.741 435.197C215.55 435.197 210.328 441.085 210.328 448.968C210.328 456.648 215.345 462.842 223.434 462.842C228.246 462.842 231.984 460.538 233.417 456.904V462.33H239.355V435.76H234.338L233.417 440.829ZM224.868 457.569C219.851 457.569 216.267 454.037 216.267 449.02C216.267 444.054 219.851 440.521 224.868 440.521C229.833 440.521 233.417 444.207 233.417 449.02C233.417 453.883 229.833 457.569 224.868 457.569Z" fill="#F2F2F2"/>
<path d="M260.765 446.767C258.973 447.279 257.181 447.433 255.901 447.433C251.294 447.433 249.246 445.538 249.246 441.904V435.76H243.461V442.211C243.461 448.61 247.506 452.603 255.645 452.603C257.54 452.603 259.28 452.398 260.765 451.835V462.33H266.55V435.76H260.765V446.767Z" fill="#F2F2F2"/>
<path d="M294.31 440.829V440.624C292.313 437.143 288.627 435.197 284.634 435.197C276.443 435.197 271.221 441.085 271.221 448.968C271.221 456.648 276.238 462.842 284.327 462.842C289.139 462.842 292.876 460.538 294.31 456.904V462.33H300.248V435.76H295.231L294.31 440.829ZM285.76 457.569C280.743 457.569 277.16 454.037 277.16 449.02C277.16 444.054 280.743 440.521 285.76 440.521C290.726 440.521 294.31 444.207 294.31 449.02C294.31 453.883 290.726 457.569 285.76 457.569Z" fill="#F2F2F2"/>
<path d="M328.774 435.249C321.709 435.249 316.487 439.856 315.361 446.46H312.084V435.76H306.299V462.33H312.084V451.272H315.31C316.231 458.03 321.606 462.791 328.774 462.791C336.657 462.791 342.391 457.006 342.391 449.071C342.391 441.085 336.657 435.249 328.774 435.249ZM328.774 457.518C324.217 457.518 320.839 453.934 320.839 449.02C320.839 444.105 324.217 440.521 328.774 440.521C333.381 440.521 336.811 444.105 336.811 449.02C336.811 453.934 333.381 457.518 328.774 457.518Z" fill="#F2F2F2"/>
<path d="M358.051 462.33V440.982H365.986V435.76H344.28V440.982H352.266V462.33H358.051Z" fill="#F2F2F2"/>
<path d="M38.7601 500.999L30.1595 489.941H24.733V516.51H30.5179C30.5179 505.76 30.4667 501.664 29.8012 496.596C31.7977 500.077 33.7943 502.944 38.7601 508.934C44.0331 502.688 46.0808 499.77 47.8214 496.391C47.1047 501.664 47.0023 505.708 47.0023 516.51H52.7872V489.941H47.3607L38.7601 500.999Z" fill="#F2F2F2"/>
<path d="M80.5851 495.009V494.804C78.5886 491.323 74.9026 489.378 70.9095 489.378C62.7185 489.378 57.4967 495.265 57.4967 503.149C57.4967 510.828 62.5137 517.022 70.6023 517.022C75.4145 517.022 79.1517 514.719 80.5851 511.084V516.51H86.5236V489.941H81.5066L80.5851 495.009ZM72.0357 511.749C67.0187 511.749 63.4352 508.217 63.4352 503.2C63.4352 498.234 67.0187 494.702 72.0357 494.702C77.0015 494.702 80.5851 498.388 80.5851 503.2C80.5851 508.063 77.0015 511.749 72.0357 511.749Z" fill="#F2F2F2"/>
<path d="M105.527 517.073C108.752 517.073 111.619 516.101 113.82 514.207V508.524C111.824 510.469 109.213 511.749 106.09 511.749C101.022 511.749 97.1824 508.115 97.1824 503.251C97.1824 498.388 101.022 494.702 106.09 494.702C109.213 494.702 111.824 495.982 113.82 497.927V492.244C111.619 490.35 108.752 489.378 105.527 489.378C97.0288 489.378 91.3462 495.265 91.3462 503.2C91.3462 511.186 97.0288 517.073 105.527 517.073Z" fill="#F2F2F2"/>
<path d="M130.232 502.33L143.389 489.941H136.426L124.652 500.999C124.959 498.797 124.959 495.828 124.959 489.941H119.072V516.51H124.959C124.959 510.725 124.857 506.783 124.601 503.558L136.478 516.51H143.44L130.232 502.33Z" fill="#F2F2F2"/>
<path d="M152.203 508.37V489.941H146.418V516.51H151.794L166.231 498.388V516.51H172.015V489.941H166.691L152.203 508.37Z" fill="#F2F2F2"/>
<path d="M205.134 489.429C200.321 489.429 196.584 491.784 195.151 495.367V495.214L194.127 489.941H189.263V528.285H195.151V511.647C197.147 515.128 200.833 517.073 204.826 517.073C213.017 517.073 218.188 511.186 218.188 503.302C218.188 495.623 213.222 489.429 205.134 489.429ZM203.7 511.749C198.734 511.749 195.151 508.063 195.151 503.251C195.151 498.388 198.734 494.702 203.7 494.702C208.717 494.702 212.301 498.234 212.301 503.251C212.301 508.217 208.717 511.749 203.7 511.749Z" fill="#F2F2F2"/>
<path d="M229.872 489.48C226.493 489.48 223.677 490.504 221.476 492.398L221.527 497.722C223.524 495.777 226.186 494.446 229.309 494.446C233.814 494.446 237.448 497.261 238.319 501.306H225.571V505.196H238.319C237.397 509.19 233.814 512.056 229.309 512.056C226.186 512.056 223.626 510.777 221.527 508.78L221.476 514.155C223.729 516.05 226.595 517.022 229.872 517.022C238.268 517.022 244.001 511.186 244.001 503.302C244.001 495.316 238.268 489.48 229.872 489.48Z" fill="#F2F2F2"/>
<path d="M248.206 489.941V516.51H253.991V495.162H266.995V516.51H272.779V489.941H248.206Z" fill="#F2F2F2"/>
<path d="M291.038 489.378C283.103 489.378 277.421 495.367 277.421 503.251C277.421 511.545 283.359 517.022 291.448 517.022C297.693 517.022 302.608 513.234 304.041 508.473L298.871 507.91C297.744 510.213 295.287 512.159 291.499 512.159C287.096 512.159 283.666 509.292 283.308 505.145H304.656C304.912 495.009 299.127 489.378 291.038 489.378ZM291.038 494.139C295.39 494.139 298.461 496.954 298.615 500.691H283.308C283.615 496.903 286.84 494.139 291.038 494.139Z" fill="#F2F2F2"/>
<path d="M325.169 489.429C320.357 489.429 316.62 491.784 315.186 495.367V495.214L314.163 489.941H309.299V528.285H315.186V511.647C317.183 515.128 320.869 517.073 324.862 517.073C333.053 517.073 338.224 511.186 338.224 503.302C338.224 495.623 333.258 489.429 325.169 489.429ZM323.736 511.749C318.77 511.749 315.186 508.063 315.186 503.251C315.186 498.388 318.77 494.702 323.736 494.702C328.753 494.702 332.336 498.234 332.336 503.251C332.336 508.217 328.753 511.749 323.736 511.749Z" fill="#F2F2F2"/>
<path d="M364.651 495.009V494.804C362.655 491.323 358.969 489.378 354.976 489.378C346.785 489.378 341.563 495.265 341.563 503.149C341.563 510.828 346.58 517.022 354.668 517.022C359.481 517.022 363.218 514.719 364.651 511.084V516.51H370.59V489.941H365.573L364.651 495.009ZM356.102 511.749C351.085 511.749 347.501 508.217 347.501 503.2C347.501 498.234 351.085 494.702 356.102 494.702C361.068 494.702 364.651 498.388 364.651 503.2C364.651 508.063 361.068 511.749 356.102 511.749Z" fill="#F2F2F2"/>
<path d="M45.4665 534.343L31.1834 550.776C31.4394 547.346 31.4394 544.326 31.4394 534.343H25.4497V570.691H31.4394C31.4394 560.452 31.4394 557.022 31.1834 553.131L45.1081 570.691H52.3265L37.3267 552.056L52.5313 534.343H45.4665Z" fill="#F2F2F2"/>
<path d="M76.2356 549.189V548.984C74.2391 545.503 70.5531 543.558 66.56 543.558C58.369 543.558 53.1472 549.445 53.1472 557.329C53.1472 565.008 58.1642 571.202 66.2528 571.202C71.0651 571.202 74.8022 568.899 76.2356 565.264V570.691H82.1741V544.121H77.1571L76.2356 549.189ZM67.6863 565.93C62.6693 565.93 59.0857 562.397 59.0857 557.38C59.0857 552.414 62.6693 548.882 67.6863 548.882C72.6521 548.882 76.2356 552.568 76.2356 557.38C76.2356 562.244 72.6521 565.93 67.6863 565.93Z" fill="#F2F2F2"/>
<path d="M102.918 543.558C98.669 543.558 95.6997 545.401 94.0615 548.575L93.2424 544.121H88.2254V570.691H94.1639V556.407C94.1639 551.339 96.9284 548.626 101.126 548.626C104.454 548.626 107.679 550.315 107.679 555.998V570.691H113.618V555.128C113.618 546.988 108.549 543.558 102.918 543.558Z" fill="#F2F2F2"/>
<path d="M137.335 544.121C131.909 557.534 130.322 562.039 129.656 565.366C128.939 561.988 127.199 557.431 121.67 544.121H115.271L126.584 570.844L121.977 582.465H128.069L143.581 544.121H137.335Z" fill="#F2F2F2"/>
<path d="M157.804 543.558C149.869 543.558 144.186 549.547 144.186 557.431C144.186 565.725 150.125 571.202 158.213 571.202C164.459 571.202 169.374 567.414 170.807 562.653L165.637 562.09C164.51 564.394 162.053 566.339 158.265 566.339C153.862 566.339 150.432 563.472 150.074 559.326H171.422C171.677 549.189 165.893 543.558 157.804 543.558ZM157.804 548.319C162.155 548.319 165.227 551.134 165.381 554.872H150.074C150.381 551.083 153.606 548.319 157.804 548.319Z" fill="#F2F2F2"/>
<path d="M226.787 534.343C221.821 553.131 220.234 559.633 219.619 563.984C218.954 559.837 217.316 552.977 212.35 534.343H205.848C200.78 553.848 199.244 559.991 198.681 564.547C198.067 560.401 196.429 553.797 191.309 534.343H185.012L194.995 570.691H201.702C207.026 551.237 208.51 545.401 208.971 541.305C209.432 545.298 210.814 551.237 215.933 570.691H222.793L232.827 534.343H226.787Z" fill="#F2F2F2"/>
<path d="M246.193 543.558C238.258 543.558 232.576 549.547 232.576 557.431C232.576 565.725 238.514 571.202 246.603 571.202C252.849 571.202 257.763 567.414 259.197 562.653L254.026 562.09C252.9 564.394 250.443 566.339 246.654 566.339C242.251 566.339 238.822 563.472 238.463 559.326H259.811C260.067 549.189 254.282 543.558 246.193 543.558ZM246.193 548.319C250.545 548.319 253.617 551.134 253.77 554.872H238.463C238.77 551.083 241.996 548.319 246.193 548.319Z" fill="#F2F2F2"/>
<path d="M274.591 571.202C281.041 571.202 285.598 568.336 285.598 563.165C285.598 553.08 269.625 556.254 269.625 551.032C269.625 549.189 271.57 548.063 274.028 548.063C276.946 548.063 278.789 549.65 279.096 551.902L284.676 551.749C284.471 547.141 280.171 543.609 274.079 543.609C268.448 543.609 263.943 546.578 263.943 551.442C263.943 561.117 279.71 558.097 279.71 563.421C279.71 565.418 277.714 566.595 274.796 566.595C271.366 566.595 268.806 565.008 268.499 562.244L262.765 562.448C263.072 568.54 268.448 571.202 274.591 571.202Z" fill="#F2F2F2"/>
<path d="M298.242 544.121V536.391H292.406V544.121H288.26V548.728H292.406V570.691H298.242V548.728H304.13V544.121H298.242Z" fill="#F2F2F2"/>
<path d="M311.829 546.015C311.829 542.022 314.542 539.462 317.972 539.462C321.505 539.462 323.604 541.766 323.604 544.633C323.604 548.114 320.942 550.367 314.901 550.367V560.657H320.276V554.667C326.163 553.541 329.593 549.445 329.593 544.07C329.593 538.029 324.832 533.831 317.972 533.831C310.908 533.831 305.891 538.797 305.891 546.015H311.829ZM317.563 571.202C319.406 571.202 320.891 569.769 320.891 567.875C320.891 566.032 319.406 564.598 317.563 564.598C315.72 564.598 314.235 566.032 314.235 567.875C314.235 569.769 315.72 571.202 317.563 571.202Z" fill="#F2F2F2"/>
<path d="M29.8485 663.515V647.415H34.9423V645.341H22.4766V647.415H27.5448V663.515H29.8485Z" fill="#F2F2F2"/>
<path d="M45.4294 650.333C42.3834 657.628 41.5643 659.804 41.1291 661.493C40.694 659.804 39.7981 657.551 36.6753 650.333H34.2436L39.9773 663.541L37.5712 669.403H39.9261L47.8099 650.333H45.4294Z" fill="#F2F2F2"/>
<path d="M57.571 650.077C54.9601 650.077 53.0147 651.408 52.1956 653.405V653.353L51.8629 650.333H49.9687V669.403H52.1956V660.623C53.2195 662.594 55.1649 663.771 57.4686 663.771C61.5129 663.771 64.175 660.879 64.175 656.962C64.175 653.097 61.5897 650.077 57.571 650.077ZM57.0334 661.775C54.2178 661.775 52.2212 659.65 52.2212 656.937C52.2212 654.198 54.2178 652.073 57.0334 652.073C59.8747 652.073 61.9225 654.096 61.9225 656.937C61.9225 659.753 59.8747 661.775 57.0334 661.775Z" fill="#F2F2F2"/>
<path d="M74.7679 652.969L71.5427 657.372L74.7679 661.775H77.0717L73.9488 657.372L77.0717 652.969H74.7679ZM79.0426 652.969L75.843 657.372L79.0426 661.775H81.3463L78.2235 657.372L81.3463 652.969H79.0426Z" fill="#F2F2F2"/>
<path d="M94.5958 645.341C91.217 651.024 90.1931 652.918 89.7323 654.172C89.2716 652.893 88.2733 650.998 84.8689 645.341H82.258L88.5549 655.836V663.515H90.8586V655.836L97.1555 645.341H94.5958Z" fill="#F2F2F2"/>
<path d="M101.853 650.051C97.9622 650.051 95.1465 653.046 95.1465 656.911C95.1465 661.058 98.0902 663.771 102.058 663.771C105.181 663.771 107.51 661.903 108.201 659.676L106.23 659.445C105.641 660.7 104.259 661.903 102.083 661.903C99.5236 661.903 97.527 660.188 97.3734 657.602H108.585C108.662 652.944 105.872 650.051 101.853 650.051ZM101.853 651.894C104.413 651.894 106.179 653.635 106.256 655.887H97.3734C97.5526 653.584 99.4212 651.894 101.853 651.894Z" fill="#F2F2F2"/>
<path d="M117.126 650.051C113.235 650.051 110.42 653.046 110.42 656.911C110.42 661.058 113.363 663.771 117.331 663.771C120.454 663.771 122.783 661.903 123.474 659.676L121.503 659.445C120.914 660.7 119.532 661.903 117.356 661.903C114.797 661.903 112.8 660.188 112.647 657.602H123.858C123.935 652.944 121.145 650.051 117.126 650.051ZM117.126 651.894C119.686 651.894 121.452 653.635 121.529 655.887H112.647C112.826 653.584 114.694 651.894 117.126 651.894Z" fill="#F2F2F2"/>
<path d="M125.164 650.333V652.227H132.076L124.908 663.515H135.454V661.621H128.466L135.608 650.333H125.164Z" fill="#F2F2F2"/>
<path d="M147.484 657.474C147.484 660.213 145.974 661.852 143.517 661.852C141.597 661.852 139.805 660.853 139.805 657.782V650.333H137.578V658.089C137.578 662.133 140.061 663.771 142.851 663.771C145.155 663.771 146.768 662.696 147.587 660.853L147.817 663.515H149.737V650.333H147.484V657.474Z" fill="#F2F2F2"/>
<path d="M157.793 663.771C160.89 663.771 162.989 662.415 162.989 659.957C162.989 655.043 154.926 656.655 154.926 653.66C154.926 652.534 156.027 651.817 157.511 651.817C159.098 651.817 160.174 652.688 160.353 654.019L162.503 653.942C162.349 651.69 160.327 650.077 157.537 650.077C154.849 650.077 152.75 651.51 152.75 653.788C152.75 658.498 160.737 656.962 160.737 660.06C160.737 661.288 159.61 661.979 157.87 661.979C155.976 661.979 154.517 661.135 154.312 659.497L152.111 659.573C152.341 662.466 154.798 663.771 157.793 663.771Z" fill="#F2F2F2"/>
<path d="M164.457 652.969L167.579 657.372L164.457 661.775H166.76L169.96 657.372L166.76 652.969H164.457ZM168.757 652.969L171.88 657.372L168.757 661.775H171.061L174.26 657.372L171.061 652.969H168.757Z" fill="#F2F2F2"/>
<path d="M178.013 653.788C178.781 653.788 179.395 653.2 179.395 652.406C179.395 651.664 178.781 651.05 178.013 651.05C177.271 651.05 176.657 651.664 176.657 652.406C176.657 653.2 177.271 653.788 178.013 653.788ZM178.013 663.771C178.781 663.771 179.395 663.183 179.395 662.389C179.395 661.647 178.781 661.032 178.013 661.032C177.271 661.032 176.657 661.647 176.657 662.389C176.657 663.183 177.271 663.771 178.013 663.771Z" fill="#F2F2F2"/>
<path d="M196.204 650.077C193.594 650.077 191.648 651.408 190.829 653.405V653.353L190.496 650.333H188.602V669.403H190.829V660.623C191.853 662.594 193.798 663.771 196.102 663.771C200.146 663.771 202.809 660.879 202.809 656.962C202.809 653.097 200.223 650.077 196.204 650.077ZM195.667 661.775C192.851 661.775 190.855 659.65 190.855 656.937C190.855 654.198 192.851 652.073 195.667 652.073C198.508 652.073 200.556 654.096 200.556 656.937C200.556 659.753 198.508 661.775 195.667 661.775Z" fill="#F2F2F2"/>
<path d="M216.638 653.328V653.2C215.614 651.254 213.669 650.051 211.39 650.051C207.321 650.051 204.658 652.969 204.658 656.886C204.658 660.751 207.269 663.771 211.262 663.771C213.873 663.771 215.819 662.44 216.638 660.418V663.515H218.89V650.333H216.971L216.638 653.328ZM211.8 661.775C208.959 661.775 206.937 659.753 206.937 656.911C206.937 654.096 208.959 652.073 211.8 652.073C214.616 652.073 216.612 654.198 216.612 656.911C216.612 659.65 214.616 661.775 211.8 661.775Z" fill="#F2F2F2"/>
<path d="M230.518 656.553C231.849 655.964 232.438 654.94 232.438 653.788C232.438 651.587 230.415 650.051 227.088 650.051C223.427 650.051 221.456 652.099 221.38 654.48H223.53C223.53 652.918 224.861 651.792 226.985 651.792C228.905 651.792 230.236 652.611 230.236 653.891C230.236 655.375 228.547 655.939 226.985 655.939H225.654V657.526H227.139C229.033 657.526 230.851 658.114 230.851 659.676C230.851 660.981 229.52 662.056 227.267 662.056C224.912 662.056 223.274 660.879 223.274 659.266H221.124C221.201 661.775 223.299 663.771 227.216 663.771C231.055 663.771 233.077 661.928 233.077 659.625C233.077 658.114 232.182 657.039 230.518 656.553Z" fill="#F2F2F2"/>
<path d="M242.102 650.538C240.106 650.538 238.058 651.382 237.034 653.532C237.188 649.283 239.159 647.85 241.846 647.287L247.043 646.212V644.292L241.335 645.469C237.29 646.289 234.884 649.079 234.884 654.147V656.553C234.884 661.391 238.16 663.771 241.77 663.771C245.763 663.771 248.604 660.981 248.604 657.09C248.604 653.2 245.865 650.538 242.102 650.538ZM241.795 661.749C239.056 661.749 237.111 659.804 237.111 657.065C237.111 654.352 239.056 652.432 241.795 652.432C244.483 652.432 246.403 654.352 246.403 657.065C246.403 659.804 244.483 661.749 241.795 661.749Z" fill="#F2F2F2"/>
<path d="M257.292 663.771C261.285 663.771 264.306 660.828 264.306 656.911C264.306 652.995 261.285 650.051 257.292 650.051C253.273 650.051 250.253 652.995 250.253 656.911C250.253 660.828 253.273 663.771 257.292 663.771ZM257.292 661.749C254.553 661.749 252.429 659.65 252.429 656.886C252.429 654.147 254.553 652.073 257.292 652.073C260.031 652.073 262.13 654.147 262.13 656.886C262.13 659.65 260.031 661.749 257.292 661.749Z" fill="#F2F2F2"/>
<path d="M274.47 650.077C271.859 650.077 269.914 651.408 269.095 653.405V653.353L268.762 650.333H266.868V669.403H269.095V660.623C270.119 662.594 272.064 663.771 274.368 663.771C278.412 663.771 281.074 660.879 281.074 656.962C281.074 653.097 278.489 650.077 274.47 650.077ZM273.933 661.775C271.117 661.775 269.12 659.65 269.12 656.937C269.12 654.198 271.117 652.073 273.933 652.073C276.774 652.073 278.822 654.096 278.822 656.937C278.822 659.753 276.774 661.775 273.933 661.775Z" fill="#F2F2F2"/>
<path d="M29.6693 693.208C33.6624 693.208 36.6829 690.264 36.6829 686.348C36.6829 682.431 33.6624 679.488 29.6693 679.488C25.6506 679.488 22.6301 682.431 22.6301 686.348C22.6301 690.264 25.6506 693.208 29.6693 693.208ZM29.6693 691.186C26.9304 691.186 24.8059 689.087 24.8059 686.322C24.8059 683.583 26.9304 681.51 29.6693 681.51C32.4082 681.51 34.5071 683.583 34.5071 686.322C34.5071 689.087 32.4082 691.186 29.6693 691.186Z" fill="#F2F2F2"/>
<path d="M45.9258 679.974C43.9292 679.974 41.8815 680.819 40.8576 682.969C41.0112 678.72 42.9821 677.286 45.6698 676.723L50.866 675.648V673.728L45.1579 674.906C41.1135 675.725 38.7074 678.515 38.7074 683.583V685.989C38.7074 690.827 41.9838 693.208 45.593 693.208C49.5861 693.208 52.4274 690.418 52.4274 686.527C52.4274 682.636 49.6885 679.974 45.9258 679.974ZM45.6186 691.186C42.8797 691.186 40.9344 689.24 40.9344 686.501C40.9344 683.788 42.8797 681.868 45.6186 681.868C48.3063 681.868 50.2261 683.788 50.2261 686.501C50.2261 689.24 48.3063 691.186 45.6186 691.186Z" fill="#F2F2F2"/>
<path d="M62.3954 679.513C59.7845 679.513 57.8391 680.844 57.02 682.841V682.79L56.6873 679.769H54.7931V698.839H57.02V690.059C58.0439 692.03 59.9893 693.208 62.293 693.208C66.3373 693.208 68.9994 690.315 68.9994 686.399C68.9994 682.534 66.4141 679.513 62.3954 679.513ZM61.8579 691.211C59.0422 691.211 57.0456 689.087 57.0456 686.373C57.0456 683.635 59.0422 681.51 61.8579 681.51C64.6991 681.51 66.7469 683.532 66.7469 686.373C66.7469 689.189 64.6991 691.211 61.8579 691.211Z" fill="#F2F2F2"/>
<path d="M82.8288 682.764V682.636C81.8049 680.691 79.8595 679.488 77.5814 679.488C73.5115 679.488 70.8494 682.406 70.8494 686.322C70.8494 690.187 73.4603 693.208 77.4534 693.208C80.0643 693.208 82.0097 691.877 82.8288 689.855V692.952H85.0813V679.769H83.1615L82.8288 682.764ZM77.991 691.211C75.1497 691.211 73.1275 689.189 73.1275 686.348C73.1275 683.532 75.1497 681.51 77.991 681.51C80.8066 681.51 82.8032 683.635 82.8032 686.348C82.8032 689.087 80.8066 691.211 77.991 691.211Z" fill="#F2F2F2"/>
<path d="M96.7087 685.989C98.0398 685.401 98.6285 684.377 98.6285 683.225C98.6285 681.024 96.6063 679.488 93.2787 679.488C89.6184 679.488 87.6474 681.536 87.5706 683.916H89.7208C89.7208 682.355 91.0518 681.228 93.1763 681.228C95.0961 681.228 96.4272 682.048 96.4272 683.327C96.4272 684.812 94.7378 685.375 93.1763 685.375H91.8453V686.962H93.3299C95.2241 686.962 97.0415 687.551 97.0415 689.112C97.0415 690.418 95.7104 691.493 93.4579 691.493C91.103 691.493 89.4648 690.315 89.4648 688.703H87.3146C87.3914 691.211 89.4904 693.208 93.4067 693.208C97.2463 693.208 99.2684 691.365 99.2684 689.061C99.2684 687.551 98.3725 686.476 96.7087 685.989Z" fill="#F2F2F2"/>
<path d="M107.935 693.208C111.928 693.208 114.949 690.264 114.949 686.348C114.949 682.431 111.928 679.488 107.935 679.488C103.916 679.488 100.896 682.431 100.896 686.348C100.896 690.264 103.916 693.208 107.935 693.208ZM107.935 691.186C105.196 691.186 103.072 689.087 103.072 686.322C103.072 683.583 105.196 681.51 107.935 681.51C110.674 681.51 112.773 683.583 112.773 686.322C112.773 689.087 110.674 691.186 107.935 691.186Z" fill="#F2F2F2"/>
<path d="M125.599 685.861C126.879 685.605 127.801 684.735 127.801 683.046C127.801 681.024 126.214 679.795 123.193 679.795H117.511V692.952H123.5C126.905 692.952 128.671 691.339 128.671 689.112C128.671 687.372 127.468 686.066 125.599 685.861ZM123.27 681.51C124.883 681.51 125.804 682.201 125.804 683.43C125.804 684.735 124.883 685.35 123.27 685.35H119.507V681.51H123.27ZM119.507 691.237V686.86H123.782C125.599 686.86 126.649 687.704 126.649 689.061C126.649 690.392 125.599 691.237 123.68 691.237H119.507Z" fill="#F2F2F2"/>
<path d="M150.185 679.513C147.574 679.513 145.629 680.844 144.81 682.841V682.79L144.477 679.769H142.583V698.839H144.81V690.059C145.833 692.03 147.779 693.208 150.083 693.208C154.127 693.208 156.789 690.315 156.789 686.399C156.789 682.534 154.204 679.513 150.185 679.513ZM149.647 691.211C146.832 691.211 144.835 689.087 144.835 686.373C144.835 683.635 146.832 681.51 149.647 681.51C152.489 681.51 154.536 683.532 154.536 686.373C154.536 689.189 152.489 691.211 149.647 691.211Z" fill="#F2F2F2"/>
<path d="M162.734 679.513C161.045 679.513 159.586 680.077 158.485 681.1V683.199C159.509 682.175 160.866 681.433 162.555 681.433C165.141 681.433 167.188 683.199 167.547 685.605H160.584V687.116H167.547C167.188 689.522 165.141 691.314 162.555 691.314C160.891 691.314 159.535 690.597 158.485 689.547V691.621C159.612 692.67 161.096 693.208 162.734 693.208C166.804 693.208 169.722 690.264 169.722 686.373C169.722 682.457 166.804 679.513 162.734 679.513Z" fill="#F2F2F2"/>
<path d="M172.054 679.769V692.952H174.255V681.766H181.832V692.952H184.059V679.769H172.054Z" fill="#F2F2F2"/>
<path d="M193.317 679.488C189.426 679.488 186.611 682.483 186.611 686.348C186.611 690.494 189.554 693.208 193.522 693.208C196.645 693.208 198.974 691.339 199.665 689.112L197.694 688.882C197.105 690.136 195.723 691.339 193.547 691.339C190.988 691.339 188.991 689.624 188.838 687.039H200.049C200.126 682.38 197.336 679.488 193.317 679.488ZM193.317 681.331C195.877 681.331 197.643 683.071 197.72 685.324H188.838C189.017 683.02 190.885 681.331 193.317 681.331Z" fill="#F2F2F2"/>
<path d="M210.203 679.513C207.592 679.513 205.647 680.844 204.827 682.841V682.79L204.495 679.769H202.601V698.839H204.827V690.059C205.851 692.03 207.797 693.208 210.1 693.208C214.145 693.208 216.807 690.315 216.807 686.399C216.807 682.534 214.222 679.513 210.203 679.513ZM209.665 691.211C206.85 691.211 204.853 689.087 204.853 686.373C204.853 683.635 206.85 681.51 209.665 681.51C212.507 681.51 214.554 683.532 214.554 686.373C214.554 689.189 212.507 691.211 209.665 691.211Z" fill="#F2F2F2"/>
<path d="M230.636 682.764V682.636C229.612 680.691 227.667 679.488 225.389 679.488C221.319 679.488 218.657 682.406 218.657 686.322C218.657 690.187 221.268 693.208 225.261 693.208C227.872 693.208 229.817 691.877 230.636 689.855V692.952H232.889V679.769H230.969L230.636 682.764ZM225.798 691.211C222.957 691.211 220.935 689.189 220.935 686.348C220.935 683.532 222.957 681.51 225.798 681.51C228.614 681.51 230.611 683.635 230.611 686.348C230.611 689.087 228.614 691.211 225.798 691.211Z" fill="#F2F2F2"/>
<path d="M252.005 679.769C248.959 687.065 248.14 689.24 247.705 690.93C247.269 689.24 246.374 686.988 243.251 679.769H240.819L246.553 692.977L244.147 698.839H246.501L254.385 679.769H252.005Z" fill="#F2F2F2"/>
<path d="M267.551 685.887L273.924 679.769H271.288L265.401 685.401C265.503 684.095 265.554 682.15 265.554 679.769H263.302C263.302 682.15 263.353 684.095 263.455 685.401L257.542 679.769H254.931L261.28 685.887L254.906 692.952H257.517L263.455 686.348C263.353 688.114 263.302 690.162 263.302 692.952H265.554C265.554 690.162 265.503 688.14 265.401 686.348L271.314 692.952H273.95L267.551 685.887Z" fill="#F2F2F2"/>
<path d="M280.807 679.488C276.916 679.488 274.1 682.483 274.1 686.348C274.1 690.494 277.044 693.208 281.011 693.208C284.134 693.208 286.464 691.339 287.155 689.112L285.184 688.882C284.595 690.136 283.213 691.339 281.037 691.339C278.477 691.339 276.481 689.624 276.327 687.039H287.539C287.615 682.38 284.825 679.488 280.807 679.488ZM280.807 681.331C283.366 681.331 285.133 683.071 285.209 685.324H276.327C276.506 683.02 278.375 681.331 280.807 681.331Z" fill="#F2F2F2"/>
<path d="M33.2017 714.812H25.5482V709.206H23.3469V722.388H25.5482V716.757H33.2017V722.388H35.4286V709.206H33.2017V714.812Z" fill="#F2F2F2"/>
<path d="M49.9577 712.201V712.073C48.9338 710.127 46.9884 708.924 44.7103 708.924C40.6404 708.924 37.9783 711.842 37.9783 715.759C37.9783 719.624 40.5892 722.644 44.5823 722.644C47.1932 722.644 49.1386 721.313 49.9577 719.291V722.388H52.2102V709.206H50.2905L49.9577 712.201ZM45.1199 720.648C42.2786 720.648 40.2564 718.626 40.2564 715.784C40.2564 712.969 42.2786 710.946 45.1199 710.946C47.9355 710.946 49.9321 713.071 49.9321 715.784C49.9321 718.523 47.9355 720.648 45.1199 720.648Z" fill="#F2F2F2"/>
<path d="M66.2837 704.931C66.7957 704.931 67.3588 705.034 67.8964 705.187V703.37C67.3332 703.191 66.6165 703.037 65.8998 703.037C63.8008 703.037 62.0858 704.24 62.0858 707.107V709.206H60.5244V710.972H62.0858V722.388H64.3128V710.972H67.8452V709.206H64.3128V707.388C64.2104 705.571 64.9783 704.931 66.2837 704.931Z" fill="#F2F2F2"/>
<path d="M70.0413 703.191V722.388H72.2682V703.191H70.0413Z" fill="#F2F2F2"/>
<path d="M86.8033 712.201V712.073C85.7794 710.127 83.8341 708.924 81.5559 708.924C77.486 708.924 74.8239 711.842 74.8239 715.759C74.8239 719.624 77.4348 722.644 81.4279 722.644C84.0388 722.644 85.9842 721.313 86.8033 719.291V722.388H89.0558V709.206H87.1361L86.8033 712.201ZM81.9655 720.648C79.1242 720.648 77.1021 718.626 77.1021 715.784C77.1021 712.969 79.1242 710.946 81.9655 710.946C84.7811 710.946 86.7777 713.071 86.7777 715.784C86.7777 718.523 84.7811 720.648 81.9655 720.648Z" fill="#F2F2F2"/>
<path d="M101.861 709.206C98.7635 717.167 98.2259 718.728 97.8164 720.52C97.3812 718.856 96.8181 717.269 93.6185 709.206H91.1868L96.6389 722.388H98.9427L104.241 709.206H101.861Z" fill="#F2F2F2"/>
<path d="M116.725 712.201V712.073C115.701 710.127 113.755 708.924 111.477 708.924C107.407 708.924 104.745 711.842 104.745 715.759C104.745 719.624 107.356 722.644 111.349 722.644C113.96 722.644 115.906 721.313 116.725 719.291V722.388H118.977V709.206H117.058L116.725 712.201ZM111.887 720.648C109.046 720.648 107.023 718.626 107.023 715.784C107.023 712.969 109.046 710.946 111.887 710.946C114.703 710.946 116.699 713.071 116.699 715.784C116.699 718.523 114.703 720.648 111.887 720.648Z" fill="#F2F2F2"/>
<path d="M124.001 722.644C124.743 722.644 125.357 722.056 125.357 721.262C125.357 720.52 124.743 719.905 124.001 719.905C123.233 719.905 122.618 720.52 122.618 721.262C122.618 722.056 123.233 722.644 124.001 722.644Z" fill="#F2F2F2"/>
<path d="M135.182 722.644C136.846 722.644 138.305 722.132 139.431 721.083V718.882C138.381 719.905 137.076 720.648 135.387 720.648C132.596 720.648 130.446 718.523 130.446 715.784C130.446 713.045 132.596 710.946 135.387 710.946C137.076 710.946 138.381 711.663 139.431 712.713V710.486C138.305 709.462 136.846 708.924 135.182 708.924C131.086 708.924 128.194 711.868 128.194 715.784C128.194 719.701 131.086 722.644 135.182 722.644Z" fill="#F2F2F2"/>
<path d="M148.53 722.644C152.523 722.644 155.544 719.701 155.544 715.784C155.544 711.868 152.523 708.924 148.53 708.924C144.511 708.924 141.491 711.868 141.491 715.784C141.491 719.701 144.511 722.644 148.53 722.644ZM148.53 720.622C145.791 720.622 143.667 718.523 143.667 715.759C143.667 713.02 145.791 710.946 148.53 710.946C151.269 710.946 153.368 713.02 153.368 715.759C153.368 718.523 151.269 720.622 148.53 720.622Z" fill="#F2F2F2"/>
<path d="M173.157 708.924C170.955 708.924 169.471 709.974 168.652 711.51C167.884 709.871 166.374 708.924 164.454 708.924C162.406 708.924 161.024 709.948 160.282 711.458L159.974 709.206H158.106V722.388H160.333V714.76C160.333 712.226 161.766 710.87 163.737 710.87C165.631 710.87 166.988 712.175 166.988 714.76V722.388H169.215V714.76C169.215 712.226 170.623 710.87 172.619 710.87C174.513 710.87 175.845 712.175 175.845 714.76V722.388H178.097V714.223C178.097 710.972 176.126 708.924 173.157 708.924Z" fill="#F2F2F2"/>
<path d="M33.4531 799.357V779.62H46.1412V783.285H37.6825V787.684H46.1412V791.349H37.6825V799.357H33.4531Z" fill="#F2F2F2"/>
<path d="M47.1328 779.62H51.3622V795.691H60.9487V799.357H47.1328V779.62Z" fill="#F2F2F2"/>
<path d="M77.1758 799.357L75.5404 793.633H67.5046L65.8693 799.357H61.9219L67.5892 779.62H71.5366L68.5761 789.968H74.4972L71.5366 779.62H75.766L81.4052 799.357H77.1758Z" fill="#F2F2F2"/>
<path d="M107.074 799.357L105.439 793.633H97.4031L95.7677 799.357H91.8203L97.4877 779.62H101.435L98.4745 789.968H104.396L101.435 779.62H105.664L111.304 799.357H107.074Z" fill="#F2F2F2"/>
<path d="M86.7717 799.357L92.3827 779.62H96.3301L90.7191 799.357H86.7717ZM81.1044 779.62L86.7717 799.357H82.5424L76.875 779.62H81.1044Z" fill="#F2F2F2"/>
<path d="M29.7422 779.62H32.7027V799.357H29.7422V779.62Z" fill="#F2F2F2"/>
<path d="M26.6484 779.62H28.9041V799.357H26.6484V779.62Z" fill="#F2F2F2"/>
<path d="M23.9688 779.62H25.3785V799.357H23.9688V779.62Z" fill="#F2F2F2"/>
<path d="M21.7109 779.62H22.4158V799.357H21.7109V779.62Z" fill="#F2F2F2"/>
<path fill-rule="evenodd" clip-rule="evenodd" d="M1.14545 400.313L461.891 400.313L461.891 400.74L1.14545 400.74L1.14545 400.313Z" fill="#FC62FF"/>
<path fill-rule="evenodd" clip-rule="evenodd" d="M1.14545 599.969L461.891 599.969L461.891 600.396L1.14545 600.395L1.14545 599.969Z" fill="#FC62FF"/>
<path fill-rule="evenodd" clip-rule="evenodd" d="M1.14545 799.626L461.891 799.626L461.891 800.052L1.14545 800.052L1.14545 799.626Z" fill="#FC62FF"/>
<path fill-rule="evenodd" clip-rule="evenodd" d="M1.14545 200.656L461.891 200.656L461.891 201.083L1.14545 201.083L1.14545 200.656Z" fill="#FC62FF"/>
<path fill-rule="evenodd" clip-rule="evenodd" d="M221.277 820.102L221.277 1H221.703L221.703 820.102H221.277Z" fill="#FC62FF"/>
<path fill-rule="evenodd" clip-rule="evenodd" d="M111.206 820.102L111.206 1H111.633L111.633 820.102H111.206Z" fill="#FC62FF"/>
<path fill-rule="evenodd" clip-rule="evenodd" d="M331.347 820.102L331.347 1H331.773L331.773 820.102H331.347Z" fill="#FC62FF"/>
<path fill-rule="evenodd" clip-rule="evenodd" d="M441.409 820.102L441.409 1H441.836L441.836 820.102H441.409Z" fill="#FC62FF"/>
<path fill-rule="evenodd" clip-rule="evenodd" d="M1.14545 420.364L461.891 420.364L461.891 420.791L1.14545 420.791L1.14545 420.364Z" fill="#FC62FF"/>
<path fill-rule="evenodd" clip-rule="evenodd" d="M1.14545 620.021L461.891 620.021L461.891 620.447L1.14545 620.447L1.14545 620.021Z" fill="#FC62FF"/>
<path fill-rule="evenodd" clip-rule="evenodd" d="M1.14545 819.676L461.891 819.676L461.891 820.103L1.14545 820.103L1.14545 819.676Z" fill="#FC62FF"/>
<path fill-rule="evenodd" clip-rule="evenodd" d="M1.14545 220.708L461.891 220.708L461.891 221.135L1.14545 221.135L1.14545 220.708Z" fill="#FC62FF"/>
<path fill-rule="evenodd" clip-rule="evenodd" d="M1.14545 21.0514L461.891 21.0514L461.891 21.478L1.14545 21.478L1.14545 21.0514Z" fill="#FC62FF"/>
<path fill-rule="evenodd" clip-rule="evenodd" d="M1.14545 1.00014L461.891 1.00016L461.891 1.42676L1.14545 1.42673L1.14545 1.00014Z" fill="#FC62FF"/>
<path fill-rule="evenodd" clip-rule="evenodd" d="M241.331 820.102L241.331 1H241.758L241.758 820.102H241.331Z" fill="#FC62FF"/>
<path fill-rule="evenodd" clip-rule="evenodd" d="M131.261 820.102L131.261 1H131.688L131.688 820.102H131.261Z" fill="#FC62FF"/>
<path fill-rule="evenodd" clip-rule="evenodd" d="M351.394 820.102L351.394 1H351.82L351.82 820.102H351.394Z" fill="#FC62FF"/>
<path fill-rule="evenodd" clip-rule="evenodd" d="M461.464 820.102L461.464 1H461.891L461.891 820.102H461.464Z" fill="#FC62FF"/>
<path fill-rule="evenodd" clip-rule="evenodd" d="M1.1437 820.102L1.1437 1H1.57031L1.57031 820.102H1.1437Z" fill="#FC62FF"/>
<path fill-rule="evenodd" clip-rule="evenodd" d="M21.1984 820.102L21.1984 1H21.625L21.625 820.102H21.1984Z" fill="#FC62FF"/>
<path fill-rule="evenodd" clip-rule="evenodd" d="M1.13763 400.313L461.883 400.313L461.883 400.739L1.13763 400.739L1.13763 400.313Z" fill="#FC62FF" stroke="#FC62FF"/>
<path fill-rule="evenodd" clip-rule="evenodd" d="M1.13763 599.968L461.883 599.968L461.883 600.395L1.13763 600.395L1.13763 599.968Z" fill="#FC62FF" stroke="#FC62FF"/>
<path fill-rule="evenodd" clip-rule="evenodd" d="M1.57513 799.626L462.32 799.626L462.32 800.053L1.57513 800.053L1.57513 799.626Z" fill="#FC62FF" stroke="#FC62FF"/>
<path fill-rule="evenodd" clip-rule="evenodd" d="M1.13763 200.656L461.883 200.656L461.883 201.083L1.13763 201.083L1.13763 200.656Z" fill="#FC62FF" stroke="#FC62FF"/>
<path fill-rule="evenodd" clip-rule="evenodd" d="M1.13763 1.00014L461.883 1.00016L461.883 1.42676L1.13763 1.42673L1.13763 1.00014Z" fill="#FC62FF" stroke="#FC62FF"/>
<path fill-rule="evenodd" clip-rule="evenodd" d="M221.269 820.102L221.269 1H221.695L221.695 820.102H221.269Z" fill="#FC62FF" stroke="#FC62FF"/>
<path fill-rule="evenodd" clip-rule="evenodd" d="M111.206 820.102L111.206 1H111.633L111.633 820.102H111.206Z" fill="#FC62FF" stroke="#FC62FF"/>
<path fill-rule="evenodd" clip-rule="evenodd" d="M331.347 820.102L331.347 1H331.773L331.773 820.102H331.347Z" fill="#FC62FF" stroke="#FC62FF"/>
<path fill-rule="evenodd" clip-rule="evenodd" d="M441.409 820.102L441.409 1H441.836L441.836 820.102H441.409Z" fill="#FC62FF" stroke="#FC62FF"/>
<path fill-rule="evenodd" clip-rule="evenodd" d="M1.13763 420.363L461.883 420.363L461.883 420.79L1.13763 420.79L1.13763 420.363Z" fill="#FC62FF" stroke="#FC62FF"/>
<path fill-rule="evenodd" clip-rule="evenodd" d="M1.13763 620.021L461.883 620.021L461.883 620.447L1.13763 620.447L1.13763 620.021Z" fill="#FC62FF" stroke="#FC62FF"/>
<path fill-rule="evenodd" clip-rule="evenodd" d="M1.57513 819.676L462.32 819.676L462.32 820.103L1.57513 820.103L1.57513 819.676Z" fill="#FC62FF" stroke="#FC62FF"/>
<path fill-rule="evenodd" clip-rule="evenodd" d="M1.13763 220.708L461.883 220.708L461.883 221.135L1.13763 221.135L1.13763 220.708Z" fill="#FC62FF" stroke="#FC62FF"/>
<path fill-rule="evenodd" clip-rule="evenodd" d="M1.13763 21.0509L461.883 21.0509L461.883 21.4775L1.13763 21.4775L1.13763 21.0509Z" fill="#FC62FF" stroke="#FC62FF"/>
<path fill-rule="evenodd" clip-rule="evenodd" d="M241.331 820.102L241.331 1H241.758L241.758 820.102H241.331Z" fill="#FC62FF" stroke="#FC62FF"/>
<path fill-rule="evenodd" clip-rule="evenodd" d="M131.261 820.102L131.261 1H131.688L131.688 820.102H131.261Z" fill="#FC62FF" stroke="#FC62FF"/>
<path fill-rule="evenodd" clip-rule="evenodd" d="M351.394 820.102L351.394 1H351.82L351.82 820.102H351.394Z" fill="#FC62FF" stroke="#FC62FF"/>
<path fill-rule="evenodd" clip-rule="evenodd" d="M461.456 820.102L461.456 1H461.883L461.883 820.102H461.456Z" fill="#FC62FF" stroke="#FC62FF"/>
<path fill-rule="evenodd" clip-rule="evenodd" d="M1.1437 820.102L1.1437 1H1.57031L1.57031 820.102H1.1437Z" fill="#FC62FF" stroke="#FC62FF"/>
<path fill-rule="evenodd" clip-rule="evenodd" d="M21.1984 820.102L21.1984 1H21.625L21.625 820.102H21.1984Z" fill="#FC62FF" stroke="#FC62FF"/>
</svg>
